<?xml version="1.0" standalone="no"?>
<!DOCTYPE svg PUBLIC "-//W3C//DTD SVG 1.1//EN" "http://www.w3.org/Graphics/SVG/1.1/DTD/svg11.dtd" >
<svg xmlns="http://www.w3.org/2000/svg" xmlns:xlink="http://www.w3.org/1999/xlink" version="1.1">
<metadata>
Created by FontForge 20201107 at Fri Jul 25 09:13:56 2025
 By 
Copyright (c) 2022 by Typia Nesia Std. All rights reserved.
</metadata>
<defs>
<font id="Rigamesh-Regular" horiz-adv-x="2060" >
  <font-face 
    font-family="Rigamesh"
    font-weight="400"
    font-stretch="normal"
    units-per-em="2048"
    panose-1="0 0 0 0 0 0 0 0 0 0"
    ascent="1536"
    descent="-512"
    x-height="1536"
    cap-height="1536"
    bbox="-110.289 -459 3492 2124"
    underline-thickness="102"
    underline-position="-255"
    unicode-range="U+000D-FB02"
  />
<missing-glyph horiz-adv-x="573" 
 />
    <glyph glyph-name="fi" unicode="fi" horiz-adv-x="2899" 
d="M2003 406v722q-6 27 -27.5 44.5t-48.5 17.5h-1718q-31 0 -53.5 22.5t-22.5 53.5v192q0 32 22.5 55t53.5 23h2484q31 0 53.5 -23t22.5 -55v-192q0 -31 -22.5 -53.5t-53.5 -22.5h-231q-28 0 -48.5 -18t-25.5 -44v-722q4 -26 25 -43t49 -17h231q31 0 53.5 -23t22.5 -55v-192
q0 -31 -22.5 -53.5t-53.5 -22.5h-995q-32 0 -55 22.5t-23 53.5v192q0 32 23 55t55 23h229q28 0 49 17t27 43zM1352 963q32 0 55 -22t23 -54v-193q0 -32 -23 -54t-55 -22h-758q-32 0 -55 -22.5t-23 -54.5v-465q0 -31 -22 -53.5t-54 -22.5h-231q-31 0 -53.5 22.5t-22.5 53.5
v811q0 32 22.5 54t53.5 22h1143z" />
    <glyph glyph-name="fl" unicode="fl" horiz-adv-x="3092" 
d="M209 1190q-31 0 -53.5 22.5t-22.5 53.5v192q0 32 22.5 55t53.5 23h1868q31 0 53 -23t22 -55v-1036q0 -32 22.5 -54t53.5 -22h715q32 0 54 -23t22 -55v-192q0 -31 -22 -53.5t-54 -22.5h-1098q-32 0 -54 22.5t-22 53.5v1048q0 25 -20 45q-18 21 -47 21h-1493zM1315 963
q31 0 53.5 -22t22.5 -54v-193q0 -32 -22.5 -54t-53.5 -22h-721q-32 0 -55 -22.5t-23 -54.5v-465q0 -31 -22 -53.5t-54 -22.5h-231q-31 0 -53.5 22.5t-22.5 53.5v811q0 32 22.5 54t53.5 22h1106z" />
    <glyph glyph-name=".notdef" horiz-adv-x="573" 
 />
    <glyph glyph-name="uni0000" horiz-adv-x="0" 
 />
    <glyph glyph-name="uni0000" horiz-adv-x="0" 
 />
    <glyph glyph-name="uni000D" unicode="&#xd;" horiz-adv-x="512" 
 />
    <glyph glyph-name="space" unicode=" " horiz-adv-x="716" 
 />
    <glyph glyph-name="exclam" unicode="!" horiz-adv-x="675" 
d="M453 1538q31 0 53 -23t22 -55v-891q0 -32 -22 -53.5t-53 -21.5h-232q-31 0 -53.5 21.5t-22.5 53.5v891q0 32 22.5 55t53.5 23h232zM338 369q85 0 144 -59t59 -144t-59 -144t-144 -59t-144 59t-59 144t59 144t144 59z" />
    <glyph glyph-name="quotedbl" unicode="&#x22;" horiz-adv-x="753" 
d="M143 1468h144q23 0 38 -16t13 -39l-37 -407q-1 -13 -12 -23t-25 -10h-98q-13 0 -23 9.5t-12 23.5l-39 407q-2 23 13 39t38 16zM465 1468h143q24 0 39 -16t12 -39l-36 -407q-1 -13 -12 -23t-25 -10h-99q-13 0 -22.5 9.5t-11.5 23.5l-39 407q-1 23 14 39t37 16z" />
    <glyph glyph-name="numbersign" unicode="#" horiz-adv-x="1929" 
d="M1790 1167q19 0 32 -13.5t13 -33.5v-164q0 -19 -13 -32t-32 -13h-248q-25 0 -45 -14t-27 -37l-73 -201q-5 -15 4 -28t24 -13h224q20 0 33.5 -13.5t13.5 -33.5v-163q0 -19 -13.5 -32.5t-33.5 -13.5h-308q-24 0 -44 -14t-27 -37l-88 -241q-11 -31 -38 -50.5t-61 -19.5h-170
q-26 0 -42 21.5t-7 46.5l92 254q6 14 -2.5 27t-25.5 13h-215q-25 0 -45 -14t-27 -37l-90 -241q-11 -31 -37.5 -50.5t-58.5 -19.5h-172q-26 0 -41 21.5t-6 46.5l92 254q5 14 -4.5 27t-24.5 13h-162q-19 0 -32 13.5t-13 32.5v163q0 20 13 33.5t32 13.5h246q23 0 44 14t28 36
l73 202q5 14 -4 27.5t-24 13.5h-221q-20 0 -34 13t-14 32v164q0 20 14 33.5t34 13.5h305q23 0 42.5 13.5t28.5 36.5l90 249q11 31 38 50.5t61 19.5h170q28 0 43 -22t6 -48l-94 -258q-6 -15 2.5 -28t25.5 -13h215q25 0 45 13.5t27 36.5l92 249q11 31 38 50.5t59 19.5h172
q26 0 41 -22t6 -48l-95 -258q-6 -15 4 -28t25 -13h164zM1157 870q6 14 -3 27.5t-26 13.5h-215q-25 0 -44.5 -14t-26.5 -37l-74 -201q-6 -15 3 -28t26 -13h215q24 0 43.5 14t27.5 36z" />
    <glyph glyph-name="dollar" unicode="$" horiz-adv-x="1818" 
d="M1311 889q158 0 270.5 -112.5t112.5 -270.5v-82q0 -158 -112.5 -270.5t-270.5 -112.5h-160q-22 0 -36.5 -14.5t-14.5 -36.5v-144q0 -32 -22.5 -53.5t-53.5 -21.5h-231q-31 0 -53.5 21.5t-22.5 53.5v144q0 22 -14.5 36.5t-36.5 14.5h-467q-31 0 -53.5 23t-22.5 55v190
q0 32 22.5 55t53.5 23h1034q32 0 55 22t23 54v4q0 31 -23 53.5t-55 22.5h-727q-158 0 -270.5 112.5t-112.5 272.5v78q0 158 112.5 270.5t270.5 112.5h160q21 0 36 15t15 36v135q0 32 22.5 54t53.5 22h231q31 0 53.5 -22t22.5 -54v-135q0 -21 15 -36t36 -15h428q32 0 54 -22
t22 -54v-193q0 -32 -22 -54t-54 -22h-995q-32 0 -55 -22.5t-23 -54.5v-2q0 -31 23 -53.5t55 -22.5h727z" />
    <glyph glyph-name="percent" unicode="%" horiz-adv-x="2205" 
d="M1618 1536q31 0 45.5 -26t-0.5 -52l-819 -1419q-22 -39 -68 -39h-182q-29 0 -44 25.5t-1 50.5l819 1421q24 39 68 39h182zM918 932q0 -104 -75 -179t-179 -75h-318q-104 0 -179 75t-75 179v348q0 106 75 181t179 75h318q104 0 179 -75t75 -181v-348zM537 907
q53 0 90 37.5t37 89.5v144q0 54 -37 91.5t-90 37.5h-62q-54 0 -91.5 -37.5t-37.5 -91.5v-144q0 -53 37.5 -90t91.5 -37h62zM1858 858q106 0 181 -75t75 -181v-348q0 -104 -75 -179t-181 -75h-316q-105 0 -179.5 74.5t-74.5 179.5v348q0 106 74 181t180 75h316zM1858 356v146
q0 53 -36.5 90t-90.5 37h-62q-53 0 -90 -37.5t-37 -89.5v-146q0 -52 37 -89.5t90 -37.5h62q54 0 90.5 37t36.5 90z" />
    <glyph glyph-name="ampersand" unicode="&#x26;" horiz-adv-x="1832" 
d="M1718 967q21 0 36 -15.5t15 -36.5v-245q0 -22 -14.5 -37t-36.5 -15h-121q-22 0 -36.5 -14.5t-14.5 -36.5v-184q0 -158 -112.5 -270.5t-270.5 -112.5h-698q-158 0 -270.5 112.5t-112.5 270.5v197q0 163 119 276q-29 73 -29 145v150q0 160 112.5 272.5t270.5 112.5h657
q31 0 53.5 -23t22.5 -55v-192q0 -31 -22.5 -53.5t-53.5 -22.5h-579q-32 0 -55 -23t-23 -55v-72q0 -32 23 -54.5t55 -22.5h256q31 0 53.5 -22.5t22.5 -53.5v-193q0 -32 -23 -54t-55 -22h-344q-32 0 -55 -22.5t-23 -54.5v-119q0 -32 23 -54t55 -22h542q32 0 55 22t23 54v465
q0 32 22.5 54t53.5 24z" />
    <glyph glyph-name="quotesingle" unicode="'" horiz-adv-x="432" 
d="M145 1470h144q23 0 38 -16.5t13 -38.5l-39 -409q-2 -14 -12 -23.5t-23 -9.5h-98q-14 0 -25 10t-12 23l-37 409q-2 22 13 38.5t38 16.5z" />
    <glyph glyph-name="parenleft" unicode="(" horiz-adv-x="700" 
d="M575 1642q31 0 45.5 -26.5t-2.5 -52.5q-227 -354 -227 -918q0 -565 227 -919q17 -26 2.5 -53t-45.5 -27h-204q-29 0 -53.5 15.5t-36.5 41.5q-197 379 -197 942q0 558 197 940q12 26 36.5 41.5t53.5 15.5h204z" />
    <glyph glyph-name="parenright" unicode=")" horiz-adv-x="698" 
d="M420 1581q196 -393 196 -942t-196 -942q-12 -26 -37 -40.5t-55 -14.5h-203q-31 0 -45.5 26t2.5 51q227 361 227 920t-227 920q-17 25 -2.5 51t45.5 26h203q30 0 55 -14.5t37 -40.5z" />
    <glyph glyph-name="asterisk" unicode="*" horiz-adv-x="741" 
d="M623 1434l43 -134q6 -15 -3 -29.5t-26 -15.5l-139 -16q-3 0 -4.5 -3.5t0.5 -4.5l104 -88q14 -10 13.5 -28.5t-15.5 -27.5l-113 -83q-11 -7 -20 -7q-24 0 -33 21l-57 129q-1 3 -5 3t-6 -3l-51 -127q-10 -23 -32 -23q-11 0 -21 7l-113 83q-13 9 -14.5 26.5t10.5 29.5
l105 92q5 10 -4 10l-136 10q-17 0 -26.5 15t-3.5 30l43 134q4 17 20 23t31 -3l121 -70q3 -1 5.5 1.5t2.5 5.5l-33 131q-5 17 5.5 31t29.5 14h139q18 0 28.5 -13t6.5 -30l-29 -138q0 -3 3 -5t6 1l114 72q15 9 32.5 3t21.5 -23z" />
    <glyph glyph-name="plus" unicode="+" horiz-adv-x="1091" 
d="M922 848q32 0 54.5 -23t22.5 -55v-102q0 -31 -22.5 -53.5t-54.5 -22.5h-170q-32 0 -55 -23t-23 -55v-164q0 -31 -22.5 -53.5t-53.5 -22.5h-102q-32 0 -55 22.5t-23 53.5v164q0 32 -22.5 55t-53.5 23h-172q-32 0 -55 22.5t-23 53.5v102q0 32 23 55t55 23h172q31 0 53.5 22
t22.5 54v180q0 31 23 53.5t55 22.5h102q31 0 53.5 -22.5t22.5 -53.5v-180q0 -32 23 -54t55 -22h170z" />
    <glyph glyph-name="comma" unicode="," horiz-adv-x="569" 
d="M399 387q32 0 54 -23t22 -55v-270q0 -39 -16 -70l-76 -149q-10 -17 -29 -17h-39q-13 0 -21.5 8.5t-8.5 22.5v117q0 21 -15.5 36t-36.5 15h-65q-31 0 -53.5 23t-22.5 55v229q0 32 22.5 55t53.5 23h231z" />
    <glyph glyph-name="hyphen" unicode="-" horiz-adv-x="806" 
d="M586 848q54 0 91.5 -37.5t37.5 -91.5q0 -53 -37.5 -90t-91.5 -37h-367q-53 0 -90 37t-37 90q0 54 37 91.5t90 37.5h367z" />
    <glyph glyph-name="period" unicode="." horiz-adv-x="569" 
d="M285 383q78 0 134 -56t56 -134q0 -79 -56 -136t-134 -57q-79 0 -136 57t-57 136q0 78 57 134t136 56z" />
    <glyph glyph-name="slash" unicode="/" horiz-adv-x="919" 
d="M795 1536q26 0 41.5 -22t7.5 -48l-484 -1396q-11 -31 -37.5 -50.5t-58.5 -19.5h-172q-26 0 -41 21.5t-6 46.5l481 1398q11 31 38 50.5t59 19.5h172z" />
    <glyph glyph-name="zero" unicode="0" horiz-adv-x="1824" 
d="M1317 1536q158 0 270.5 -112.5t112.5 -272.5v-768q0 -158 -112.5 -270.5t-270.5 -112.5h-811q-158 0 -270.5 112.5t-112.5 270.5v768q0 160 112.5 272.5t270.5 112.5h811zM1317 537v460q0 79 -56.5 136t-136.5 57h-426q-79 0 -135.5 -56.5t-56.5 -136.5v-460
q0 -78 56.5 -134.5t135.5 -56.5h426q79 0 136 56.5t57 134.5z" />
    <glyph glyph-name="one" unicode="1" horiz-adv-x="854" 
d="M643 1536q31 0 53.5 -23t22.5 -55v-1382q0 -31 -22.5 -53.5t-53.5 -22.5h-231q-32 0 -54 22.5t-22 53.5v1036q0 32 -23 55t-55 23h-108q-44 0 -66.5 39.5t0.5 77.5l102 172q37 57 101 57h356z" />
    <glyph glyph-name="two" unicode="2" horiz-adv-x="1822" 
d="M1315 1536q158 0 270.5 -112.5t112.5 -272.5v-150q0 -158 -112.5 -270.5t-270.5 -112.5h-731q-32 0 -55 -22.5t-23 -54.5v-119q0 -32 23 -54t55 -22h1038q31 0 53.5 -23t22.5 -55v-192q0 -31 -22.5 -53.5t-53.5 -22.5h-1346q-63 0 -108 45.5t-45 108.5v426
q0 158 112.5 270.5t270.5 112.5h731q32 0 55 22.5t23 54.5v72q0 32 -23 55t-55 23h-999q-31 0 -53.5 22.5t-22.5 53.5v192q0 32 22.5 55t53.5 23h1077z" />
    <glyph glyph-name="three" unicode="3" horiz-adv-x="1757" 
d="M1255 1536q158 0 270.5 -112.5t112.5 -272.5v-150q0 -116 -63 -210q63 -94 63 -211v-197q0 -158 -112.5 -270.5t-270.5 -112.5h-1077q-31 0 -53.5 22.5t-22.5 53.5v192q0 32 22.5 55t53.5 23h1002q31 0 53 22t22 54v119q0 32 -22 54.5t-53 22.5h-789q-31 0 -53.5 22
t-22.5 54v193q0 32 22.5 54t53.5 22h789q31 0 53 22.5t22 54.5v72q0 32 -22 55t-53 23h-1002q-31 0 -53.5 22.5t-22.5 53.5v192q0 32 22.5 55t53.5 23h1077z" />
    <glyph glyph-name="four" unicode="4" horiz-adv-x="1763" 
d="M1552 1536q31 0 53.5 -23t22.5 -55v-1382q0 -31 -22.5 -53.5t-53.5 -22.5h-231q-32 0 -54 22.5t-22 53.5v262q0 32 -23 54t-55 22h-979q-31 0 -53 23t-22 55v966q0 32 22 55t53 23h232q32 0 54 -23t22 -55v-620q0 -32 22.5 -55t54.5 -23h594q32 0 55 23t23 55v620
q0 32 22 55t54 23h231z" />
    <glyph glyph-name="five" unicode="5" horiz-adv-x="1822" 
d="M1622 1536q31 0 53.5 -23t22.5 -55v-192q0 -31 -22.5 -53.5t-53.5 -22.5h-1061q-23 0 -39 -15.5t-16 -37.5v-21q0 -63 45 -108t108 -45h656q158 0 270.5 -112.5t112.5 -270.5v-197q0 -158 -112.5 -270.5t-270.5 -112.5h-1077q-31 0 -53.5 22.5t-22.5 53.5v192
q0 32 22.5 55t53.5 23h999q32 0 55 22t23 54v119q0 32 -23 54.5t-55 22.5h-731q-158 0 -270.5 112.5t-112.5 270.5v381q0 63 45 108.5t108 45.5h1346z" />
    <glyph glyph-name="six" unicode="6" horiz-adv-x="1751" 
d="M1313 963q143 0 244.5 -101.5t101.5 -243.5v-235q0 -158 -112.5 -270.5t-272.5 -112.5h-768q-158 0 -270.5 112.5t-112.5 270.5v768q0 160 112.5 272.5t270.5 112.5h921q31 0 53.5 -23t22.5 -55v-192q0 -31 -22.5 -53.5t-53.5 -22.5h-729q-79 0 -135.5 -56.5
t-56.5 -136.5q0 -13 10.5 -23.5t24.5 -10.5h772zM1274 422v119q0 32 -22.5 54.5t-53.5 22.5h-610q-34 0 -58 -23.5t-24 -57.5q0 -78 56.5 -134.5t135.5 -56.5h500q31 0 53.5 22t22.5 54z" />
    <glyph glyph-name="seven" unicode="7" horiz-adv-x="1415" 
d="M1245 1536q32 0 55 -23t23 -55v-223q0 -41 -20 -86l-527 -1094q-30 -55 -92 -55h-293q-28 0 -42.5 24.5t-2.5 49.5l535 1061q11 19 0 37t-33 18h-701q-31 0 -53 22.5t-22 53.5v192q0 32 22 55t53 23h1098z" />
    <glyph glyph-name="eight" unicode="8" horiz-adv-x="1732" 
d="M1530 1001q0 -73 -29 -145q117 -114 117 -276v-197q0 -158 -112.5 -270.5t-270.5 -112.5h-739q-158 0 -270.5 112.5t-112.5 270.5v197q0 164 118 276q-28 70 -28 145v150q0 160 112.5 272.5t270.5 112.5h559q160 0 272.5 -112.5t112.5 -272.5v-150zM586 1112v-72
q0 -32 23 -54.5t55 -22.5h405q31 0 53.5 22.5t22.5 54.5v72q0 32 -22.5 55t-53.5 23h-405q-32 0 -55 -23t-23 -55zM1235 422v119q0 32 -23 54.5t-55 22.5h-584q-32 0 -54.5 -22.5t-22.5 -54.5v-119q0 -32 22.5 -54t54.5 -22h584q32 0 55 22t23 54z" />
    <glyph glyph-name="nine" unicode="9" horiz-adv-x="1751" 
d="M1243 1536q160 0 272.5 -112.5t112.5 -272.5v-768q0 -158 -112.5 -270.5t-272.5 -112.5h-919q-32 0 -55 22.5t-23 53.5v192q0 32 23 55t55 23h727q79 0 135.5 56.5t56.5 134.5q0 15 -10 24.5t-25 9.5h-770q-142 0 -244 102t-102 245v233q0 160 112.5 272.5t270.5 112.5
h768zM1163 918q34 0 57 22.5t23 56.5q0 80 -56.5 136.5t-135.5 56.5h-498q-32 0 -55 -23t-23 -55v-119q0 -31 23 -53t55 -22h610z" />
    <glyph glyph-name="colon" unicode=":" horiz-adv-x="569" 
d="M285 1024q78 0 134 -57t56 -136t-56 -135.5t-134 -56.5q-80 0 -136.5 56.5t-56.5 135.5t57 136t136 57zM285 383q78 0 134 -56t56 -134q0 -79 -56 -136t-134 -57q-79 0 -136 57t-57 136q0 78 57 134t136 56z" />
    <glyph glyph-name="semicolon" unicode=";" horiz-adv-x="569" 
d="M285 1022q79 0 135.5 -56.5t56.5 -134.5q0 -79 -56.5 -135.5t-135.5 -56.5q-78 0 -134.5 56.5t-56.5 135.5q0 78 56.5 134.5t134.5 56.5zM399 383q32 0 55 -23t23 -55v-268q0 -38 -16 -70l-78 -151q-7 -17 -27 -17h-41q-12 0 -21 9.5t-9 21.5v119q0 21 -15.5 36t-36.5 15
h-63q-32 0 -54 22t-22 54v229q0 32 22 55t54 23h229z" />
    <glyph glyph-name="less" unicode="&#x3c;" horiz-adv-x="960" 
d="M416 739q-9 -5 -9 -14t9 -14l407 -185q29 -12 40 -42.5t-1 -59.5l-43 -92q-19 -45 -71 -45q-16 0 -31 6l-584 264q-27 12 -43 37.5t-16 56.5v148q0 65 59 94l584 262q20 8 33 8q22 0 41 -12.5t28 -32.5l43 -94q12 -29 1 -59t-40 -43z" />
    <glyph glyph-name="equal" unicode="=" horiz-adv-x="1001" 
d="M780 1026q53 0 90 -37.5t37 -91.5q0 -53 -37.5 -90t-89.5 -37h-559q-54 0 -91.5 37t-37.5 90q0 54 37.5 91.5t91.5 37.5h559zM780 612q53 0 90 -36.5t37 -90.5q0 -53 -37.5 -90t-89.5 -37h-559q-54 0 -91.5 37t-37.5 90q0 54 37.5 90.5t91.5 36.5h559z" />
    <glyph glyph-name="greater" unicode="&#x3e;" horiz-adv-x="960" 
d="M827 883q28 -12 45 -38t17 -57v-147q0 -31 -17 -56.5t-45 -37.5l-583 -264q-17 -7 -31 -7q-50 0 -72 46l-41 94q-14 29 -3 58.5t40 41.5l410 184q7 4 7 14t-7 15l-410 184q-29 12 -40 42t3 59l41 94q19 45 70 45q20 0 33 -8z" />
    <glyph glyph-name="question" unicode="?" horiz-adv-x="1560" 
d="M1104 1542q158 0 270.5 -112.5t112.5 -272.5v-119q0 -158 -112.5 -270.5t-270.5 -112.5h-252q-32 0 -55 -22.5t-23 -54.5v-7q0 -32 -22 -54.5t-54 -22.5l-229 -5q-32 0 -55 23t-23 55v49q0 159 112 271t271 112h254q31 0 53.5 23t22.5 55v43q0 31 -22.5 53.5t-53.5 22.5
h-878q-31 0 -53.5 22.5t-22.5 53.5v192q0 32 22.5 55t53.5 23h954zM582 369q86 0 147.5 -61.5t61.5 -147.5t-61.5 -146.5t-147.5 -60.5t-146.5 60.5t-60.5 146.5t60.5 147.5t146.5 61.5z" />
    <glyph glyph-name="at" unicode="@" horiz-adv-x="2246" 
d="M1729 1536q158 0 270 -112.5t112 -270.5v-1075q0 -76 -79 -76h-961q-193 0 -313.5 110t-120.5 273v238q0 158 112.5 270.5t270.5 112.5h682q32 0 55 22t23 53v41q0 60 -35 89.5t-94 29.5h-1006q-89 0 -134.5 -50.5t-45.5 -127.5v-1049q0 -91 44 -135.5t136 -44.5h1215
q21 0 36 -15t15 -36v-191q0 -21 -15 -36t-36 -15h-1471q-106 0 -181 75t-75 181v1483q0 106 75 181t181 75h1340zM1780 387v231q0 32 -23 55t-55 23h-662q-32 0 -53.5 -22.5t-21.5 -55.5v-231q0 -31 21.5 -53.5t53.5 -22.5h662q32 0 55 22.5t23 53.5z" />
    <glyph glyph-name="A" unicode="A" 
d="M170 0q-40 0 -62.5 33t-9.5 71l523 1356q12 34 41.5 55t64.5 21h606q35 0 65 -21t42 -55l522 -1356q13 -38 -9.5 -71t-62.5 -33h-272q-25 0 -44.5 13.5t-27.5 35.5l-393 1092q-9 22 -29 35.5t-43 13.5h-102q-23 0 -43 -13.5t-29 -35.5l-264 -690q-15 -38 8.5 -71.5
t63.5 -33.5h452q32 0 58.5 -18t38.5 -47l67 -177q14 -38 -8.5 -71t-62.5 -33h-1090z" />
    <glyph glyph-name="B" unicode="B" horiz-adv-x="1882" 
d="M209 0q-31 0 -53.5 22.5t-22.5 53.5v811q0 32 22.5 54t53.5 22h874q32 0 55 22.5t23 54.5v72q0 32 -23 55t-55 23h-874q-31 0 -53.5 22.5t-22.5 53.5v192q0 32 22.5 55t53.5 23h952q158 0 270.5 -112.5t112.5 -272.5v-193q0 -30 27 -43q90 -52 143 -140.5t53 -194.5v-197
q0 -158 -112.5 -270.5t-270.5 -112.5h-1175zM516 541v-119q0 -32 23 -54t55 -22h713q32 0 54.5 22t22.5 54v119q0 32 -22.5 54.5t-54.5 22.5h-713q-32 0 -55 -22.5t-23 -54.5z" />
    <glyph glyph-name="C" unicode="C" horiz-adv-x="1699" 
d="M506 0q-158 0 -270.5 112.5t-112.5 270.5v768q0 160 112.5 272.5t270.5 112.5h1014q32 0 54.5 -23t22.5 -55v-192q0 -31 -22.5 -53.5t-54.5 -22.5h-822q-79 0 -135.5 -56.5t-56.5 -136.5v-460q0 -78 56.5 -134.5t135.5 -56.5h822q32 0 54.5 -23t22.5 -55v-192
q0 -31 -22.5 -53.5t-54.5 -22.5h-1014z" />
    <glyph glyph-name="D" unicode="D" horiz-adv-x="2007" 
d="M1499 1536q160 0 272.5 -112.5t112.5 -272.5v-768q0 -158 -112.5 -270.5t-272.5 -112.5h-1290q-31 0 -53.5 22.5t-22.5 53.5v764q0 32 22.5 55t53.5 23h231q32 0 54 -23t22 -55v-418q0 -32 23 -54t55 -22h713q79 0 135.5 56.5t56.5 134.5v460q0 80 -56.5 136.5
t-135.5 56.5h-1098q-31 0 -53.5 22.5t-22.5 53.5v192q0 32 22.5 55t53.5 23h1290z" />
    <glyph glyph-name="E" unicode="E" horiz-adv-x="1781" 
d="M209 1190q-31 0 -53.5 22.5t-22.5 53.5v192q0 32 22.5 55t53.5 23h1341q32 0 55 -23t23 -55v-192q0 -31 -23 -53.5t-55 -22.5h-1341zM1602 346q32 0 54.5 -23t22.5 -55v-192q0 -31 -22.5 -53.5t-54.5 -22.5h-1393q-31 0 -53.5 22.5t-22.5 53.5v811q0 32 22.5 54t53.5 22
h1235q32 0 55 -22t23 -54v-193q0 -32 -23 -54t-55 -22h-850q-32 0 -55 -22.5t-23 -54.5v-119q0 -32 23 -54t55 -22h1008z" />
    <glyph glyph-name="F" unicode="F" horiz-adv-x="1679" 
d="M209 1190q-31 0 -53.5 22.5t-22.5 53.5v192q0 32 22.5 55t53.5 23h1300q32 0 55 -23t23 -55v-192q0 -31 -23 -53.5t-55 -22.5h-1300zM209 0q-31 0 -53.5 22.5t-22.5 53.5v811q0 32 22.5 54t53.5 22h1143q32 0 55 -22t23 -54v-193q0 -32 -23 -54t-55 -22h-758
q-32 0 -55 -22.5t-23 -54.5v-465q0 -31 -22 -53.5t-54 -22.5h-231z" />
    <glyph glyph-name="G" unicode="G" horiz-adv-x="2041" 
d="M190 1190q-27 0 -43 22q-17 20 -10 48q36 121 138 198.5t231 77.5h1298q31 0 53.5 -23t22.5 -55v-192q0 -31 -22.5 -53.5t-53.5 -22.5h-1614zM430 963q32 0 54 -22t22 -54v-350q0 -78 56.5 -134.5t135.5 -56.5h645q79 0 136 56.5t57 134.5v51q0 12 -9.5 21t-21.5 9h-665
q-31 0 -53.5 22t-22.5 54v193q0 32 22.5 54t53.5 22h1003q31 0 53.5 -22t22.5 -54v-504q0 -158 -112.5 -270.5t-270.5 -112.5h-1030q-158 0 -270.5 112.5t-112.5 270.5v504q0 32 22.5 54t53.5 22h231z" />
    <glyph glyph-name="H" unicode="H" horiz-adv-x="1939" 
d="M209 0q-31 0 -53.5 22.5t-22.5 53.5v1382q0 32 22.5 55t53.5 23h231q32 0 54 -23t22 -55v-1382q0 -31 -22 -53.5t-54 -22.5h-231zM735 618q-32 0 -55 22t-23 54v193q0 32 23 54t55 22h608q32 0 55 22.5t23 54.5v418q0 32 22.5 55t53.5 23h232q32 0 53.5 -22.5t21.5 -55.5
v-1382q0 -31 -21.5 -53.5t-53.5 -22.5h-232q-31 0 -53.5 22.5t-22.5 53.5v465q0 32 -23 54.5t-55 22.5h-608z" />
    <glyph glyph-name="I" unicode="I" horiz-adv-x="1406" 
d="M895 406q6 -26 27 -43t49 -17h229q32 0 55 -23t23 -55v-192q0 -31 -23 -53.5t-55 -22.5h-995q-31 0 -53.5 22.5t-22.5 53.5v192q0 32 22.5 55t53.5 23h231q28 0 49 17t25 43v722q-5 26 -25.5 44t-48.5 18h-231q-31 0 -53.5 22.5t-22.5 53.5v192q0 32 22.5 55t53.5 23h995
q32 0 55 -23t23 -55v-192q0 -31 -23 -53.5t-55 -22.5h-229q-27 0 -48.5 -17.5t-27.5 -44.5v-722z" />
    <glyph glyph-name="J" unicode="J" horiz-adv-x="1318" 
d="M154 0q-31 0 -53.5 22.5t-22.5 53.5v192q0 32 22.5 55t53.5 23h458q79 0 136 56.5t57 134.5v575q0 32 -23 55t-55 23h-336q-32 0 -55 22.5t-23 53.5v192q0 32 23 55t55 23h721q32 0 54 -23t22 -55v-1075q0 -158 -112.5 -270.5t-270.5 -112.5h-651z" />
    <glyph glyph-name="K" unicode="K" horiz-adv-x="1822" 
d="M209 0q-31 0 -53.5 22.5t-22.5 53.5v1382q0 32 22.5 55t53.5 23h231q32 0 54 -23t22 -55v-1382q0 -31 -22 -53.5t-54 -22.5h-231zM735 618q-32 0 -55 22t-23 54v193q0 32 23 54t55 22h111q44 0 65 38l289 496q24 39 68 39h305q32 0 47 -27t0 -55l-338 -580q-16 -29 0 -55
l430 -739q15 -26 0 -53t-47 -27h-332q-46 0 -65 39l-291 541q-21 38 -66 38h-176z" />
    <glyph glyph-name="L" unicode="L" horiz-adv-x="1570" 
d="M209 0q-31 0 -53.5 22.5t-22.5 53.5v1382q0 32 22.5 55t53.5 23h231q32 0 54 -23t22 -55v-1036q0 -32 23 -54t55 -22h827q32 0 54 -23t22 -55v-192q0 -31 -22 -53.5t-54 -22.5h-1212z" />
    <glyph glyph-name="M" unicode="M" horiz-adv-x="2732" 
d="M190 0q-34 0 -56.5 24t-20.5 58l92 1382q3 30 25.5 51t52.5 21h440q132 0 236.5 -81.5t136.5 -209.5l12 -55l205 -815q3 -12 13.5 -20.5t23.5 -8.5h32q12 0 23 8.5t14 20.5l217 870q32 128 136.5 209.5t236.5 81.5h440q29 0 52 -21.5t24 -50.5l92 -1382
q3 -33 -19.5 -57.5t-55.5 -24.5h-232q-30 0 -52.5 20t-25.5 50l-92 1087q-1 13 -12 23t-25 10h-57q-12 0 -22 -8t-13 -19l-260 -1046q-13 -52 -54.5 -84.5t-94.5 -32.5h-472q-54 0 -95.5 32.5t-53.5 84.5l-260 1046q-3 11 -13 19t-22 8h-59q-13 0 -23 -9.5t-12 -23.5
l-94 -1087q-3 -29 -25 -49.5t-51 -20.5h-232z" />
    <glyph glyph-name="N" unicode="N" horiz-adv-x="2056" 
d="M209 0q-31 0 -53.5 22.5t-22.5 53.5v1382q0 32 22.5 55t53.5 23h520q133 0 237 -81.5t136 -209.5l215 -858q10 -41 51 -41h117q22 0 37.5 15t15.5 38v1059q0 32 22.5 55t53.5 23h231q31 0 53.5 -23t22.5 -55v-1382q0 -31 -22.5 -53.5t-53.5 -22.5h-528
q-132 0 -236.5 81.5t-136.5 209.5l-213 858q-4 19 -19 30t-34 11h-107q-23 0 -39 -15.5t-16 -37.5v-1061q0 -31 -22 -53.5t-54 -22.5h-231z" />
    <glyph glyph-name="O" unicode="O" horiz-adv-x="2041" 
d="M506 0q-158 0 -270.5 112.5t-112.5 270.5v768q0 160 112.5 272.5t270.5 112.5h1030q158 0 270.5 -112.5t112.5 -272.5v-768q0 -158 -112.5 -270.5t-270.5 -112.5h-1030zM506 997v-460q0 -78 56.5 -134.5t135.5 -56.5h645q79 0 136 56.5t57 134.5v460q0 79 -57 136
t-136 57h-645q-79 0 -135.5 -56.5t-56.5 -136.5z" />
    <glyph glyph-name="P" unicode="P" horiz-adv-x="1855" 
d="M209 0q-31 0 -53.5 22.5t-22.5 53.5v692q0 32 22.5 55t53.5 23h1075q32 0 55 22.5t23 53.5v190q0 32 -23 55t-55 23h-1075q-31 0 -53.5 22.5t-22.5 53.5v192q0 32 22.5 55t53.5 23h1153q158 0 270.5 -112.5t112.5 -272.5v-266q0 -160 -112.5 -272.5t-270.5 -112.5h-768
q-32 0 -55 -22.5t-23 -53.5v-348q0 -31 -22 -53.5t-54 -22.5h-231z" />
    <glyph glyph-name="Q" unicode="Q" horiz-adv-x="2043" 
d="M508 2q-158 0 -270.5 112.5t-112.5 270.5v768q0 158 112.5 270.5t270.5 112.5h1030q158 0 270.5 -112.5t112.5 -270.5v-768q0 -158 -112.5 -270.5t-270.5 -112.5h-170q-22 0 -33 -19t0 -38l103 -174q22 -38 -1 -77.5t-67 -39.5h-266q-44 0 -66 39l-157 270q-22 39 -68 39
h-305zM508 999v-460q0 -80 56.5 -136.5t135.5 -56.5h646q79 0 135.5 56.5t56.5 136.5v460q0 80 -56.5 136.5t-135.5 56.5h-646q-79 0 -135.5 -56.5t-56.5 -136.5z" />
    <glyph glyph-name="R" unicode="R" horiz-adv-x="1847" 
d="M209 0q-31 0 -53.5 22.5t-22.5 53.5v764q0 32 22.5 55t53.5 23h1016q32 0 55 22t23 53v119q0 32 -23 55t-55 23h-1016q-31 0 -53.5 22.5t-22.5 53.5v192q0 32 22.5 55t53.5 23h1094q158 0 270.5 -112.5t112.5 -272.5v-195q0 -104 -52 -192.5t-139 -138.5
q-13 -7 -17.5 -24t3.5 -30l266 -456q23 -38 0.5 -76.5t-66.5 -38.5h-292q-44 0 -66 39l-264 496q-19 36 -66 36h-399q-32 0 -55 -22t-23 -53v-420q0 -31 -22 -53.5t-54 -22.5h-231z" />
    <glyph glyph-name="S" unicode="S" horiz-adv-x="1921" 
d="M1681 1536q32 0 54 -23t22 -55v-192q0 -31 -22 -53.5t-54 -22.5h-1509q-22 0 -35 16t-10 37q22 125 129.5 209t249.5 84h1175zM1413 0h-1214q-31 0 -53.5 22.5t-22.5 53.5v192q0 32 22.5 55t53.5 23h1136q32 0 55 22t23 54v119q0 32 -23 54.5t-55 22.5h-829
q-142 0 -248.5 82.5t-128.5 206.5q-1 10 -1 22.5t13 23t37 10.5h1235q158 0 270.5 -112.5t112.5 -270.5v-197q0 -158 -112.5 -270.5t-270.5 -112.5z" />
    <glyph glyph-name="T" unicode="T" horiz-adv-x="1867" 
d="M168 1190q-31 0 -53.5 22.5t-22.5 53.5v192q0 32 22.5 55t53.5 23h1530q32 0 55 -23t23 -55v-192q0 -31 -23 -53.5t-55 -22.5h-1530zM819 1051h230q32 0 54.5 -22t22.5 -54v-899q0 -31 -22.5 -53.5t-54.5 -22.5h-230q-32 0 -55 22.5t-23 53.5v899q0 32 23 54t55 22z" />
    <glyph glyph-name="U" unicode="U" horiz-adv-x="1925" 
d="M512 0q-158 0 -270.5 112.5t-112.5 270.5v1075q0 32 22.5 55t53.5 23h231q32 0 54 -23t22 -55v-921q0 -78 57 -134.5t136 -56.5h514q79 0 135.5 56.5t56.5 134.5v921q0 32 22.5 55t53.5 23h231q31 0 53.5 -23t22.5 -55v-1075q0 -158 -112.5 -270.5t-270.5 -112.5h-899z
" />
    <glyph glyph-name="V" unicode="V" horiz-adv-x="2002" 
d="M592 74l-514 1335q-17 46 11 86.5t75 40.5h225q23 0 43 -14t29 -37l420 -1096q16 -43 65 -43h111q49 0 65 43l420 1096q9 23 29 37t43 14h225q47 0 75 -40.5t11 -86.5l-514 -1335q-12 -34 -41 -54t-65 -20h-607q-36 0 -65 20t-41 54z" />
    <glyph glyph-name="W" unicode="W" horiz-adv-x="2578" 
d="M2367 1536q31 0 53.5 -23t22.5 -55v-1382q0 -31 -22.5 -53.5t-53.5 -22.5h-616q-53 0 -94.5 32.5t-54.5 84.5l-261 1044q-3 12 -13 20.5t-23 8.5h-33q-12 0 -23 -8.5t-14 -20.5l-260 -1044q-14 -53 -55 -85t-95 -32h-616q-31 0 -53.5 22.5t-22.5 53.5v1382q0 32 22.5 55
t53.5 23h231q32 0 54 -23t22 -55v-1075q0 -15 12 -26t27 -11h51q13 0 23.5 8.5t13.5 20.5l260 1044q14 51 56 84t94 33h471q54 0 95.5 -33t53.5 -84l260 -1044q3 -12 14 -20.5t23 -8.5h51q15 0 27 11t12 26v1075q0 32 22 55t54 23h231z" />
    <glyph glyph-name="X" unicode="X" horiz-adv-x="1847" 
d="M160 0q-44 0 -66.5 38.5t0.5 76.5l379 653q23 38 0 76l-336 575q-22 38 1 77.5t67 39.5h266q20 0 38.5 -11t27.5 -28l297 -508q13 -26 45 -26h90q32 0 45 26l297 508q9 17 27 28t38 11h266q44 0 67 -39.5t1 -77.5l-336 -575q-23 -38 0 -76l379 -653q23 -38 1 -76.5
t-66 -38.5h-293q-44 0 -66 39l-297 553q-16 26 -47 26h-123q-31 0 -47 -26l-297 -553q-22 -39 -65 -39h-293z" />
    <glyph glyph-name="Y" unicode="Y" horiz-adv-x="1753" 
d="M475 659l-393 764q-20 38 2.5 75.5t65.5 37.5h270q48 0 69 -43l238 -487q21 -43 68 -43h163q46 0 70 43l236 487q24 43 69 43h271q43 0 65 -37.5t2 -75.5l-393 -764q-20 -41 -68 -41h-90q-22 0 -36.5 -14.5t-14.5 -36.5v-489q0 -32 -23 -55t-55 -23h-229q-32 0 -55 23
t-23 55v489q0 22 -14.5 36.5t-36.5 14.5h-88q-47 0 -70 41z" />
    <glyph glyph-name="Z" unicode="Z" horiz-adv-x="1669" 
d="M219 1190q-31 0 -53.5 22.5t-22.5 53.5v192q0 32 22.5 55t53.5 23l1247 2q32 0 54 -23t22 -55v-192q0 -31 -22 -53.5t-54 -22.5zM178 0q-31 0 -53.5 22.5t-22.5 53.5v258q0 74 58 119l690 565q48 33 98 33h408q29 0 38.5 -26.5t-12.5 -45.5l-694 -565
q-20 -17 -10.5 -42.5t35.5 -25.5h776q32 0 54 -23t22 -55v-192q0 -31 -22 -53.5t-54 -22.5h-1311z" />
    <glyph glyph-name="bracketleft" unicode="[" horiz-adv-x="808" 
d="M680 1636q33 0 55.5 -21.5t22.5 -53.5v-103q0 -32 -23 -54t-55 -22h-213q-32 0 -55 -22.5t-23 -54.5v-1332q0 -31 23 -53t55 -22h213q32 0 55 -23t23 -55v-103q0 -31 -23 -53t-55 -22h-469q-32 0 -55 22t-23 53v1844q0 32 22.5 53.5t55.5 21.5h469z" />
    <glyph glyph-name="backslash" unicode="\" horiz-adv-x="919" 
d="M391 1466l483 -1398q8 -25 -7.5 -46.5t-41.5 -21.5h-172q-32 0 -58.5 19.5t-37.5 50.5l-481 1396q-9 26 6 48t41 22h172q32 0 58.5 -19.5t37.5 -50.5z" />
    <glyph glyph-name="bracketright" unicode="]" horiz-adv-x="808" 
d="M598 1634q32 0 55 -23t23 -55v-1841q0 -32 -22.5 -53.5t-55.5 -21.5h-469q-33 0 -55.5 21.5t-22.5 53.5v103q0 32 23 54t55 22h213q32 0 55 22.5t23 54.5v1332q0 31 -23 53t-55 22h-213q-32 0 -55 22.5t-23 53.5v102q0 32 23 55t55 23h469z" />
    <glyph glyph-name="asciicircum" unicode="^" horiz-adv-x="1021" 
d="M584 1595q31 0 56.5 -16.5t37.5 -44.5l264 -584q12 -29 1 -59t-40 -43l-94 -43q-15 -6 -31 -6q-50 0 -69 45l-185 407q-4 9 -14 9t-14 -9l-185 -407q-19 -45 -69 -45q-16 0 -31 6l-94 43q-29 13 -40 43t3 59l262 584q12 28 37.5 44.5t56.5 16.5h148z" />
    <glyph glyph-name="underscore" unicode="_" horiz-adv-x="1595" 
d="M1374 -82q52 0 89.5 -37t37.5 -90q0 -54 -37 -91.5t-90 -37.5h-1206q-53 0 -90 37.5t-37 91.5q0 53 37.5 90t89.5 37h1206z" />
    <glyph glyph-name="grave" unicode="`" horiz-adv-x="526" 
d="M213 1546q36 0 53 -30l162 -283q9 -13 0 -29t-27 -16h-88q-36 0 -53 31l-162 280q-9 15 -0.5 31t27.5 16h88z" />
    <glyph glyph-name="a" unicode="a" 
d="M1440 1460l522 -1356q13 -38 -9.5 -71t-62.5 -33h-268q-23 0 -43 13.5t-29 35.5l-82 268q-21 50 -71 50h-733q-23 0 -43 -14t-29 -36l-82 -268q-9 -22 -29 -35.5t-43 -13.5h-268q-40 0 -62.5 33t-9.5 71l523 1356q12 34 41.5 55t64.5 21h606q35 0 65 -21t42 -55z
M1257 713q22 0 34 17.5t5 37.5l-145 377q-7 20 -25.5 32.5t-40.5 12.5h-110q-22 0 -40.5 -12.5t-25.5 -32.5l-145 -377q-7 -20 5 -37.5t34 -17.5h454z" />
    <glyph glyph-name="b" unicode="b" horiz-adv-x="1882" 
d="M1767 383q0 -158 -112.5 -270.5t-270.5 -112.5h-1175q-31 0 -53.5 22.5t-22.5 53.5v1382q0 32 22.5 55t53.5 23h952q158 0 270.5 -112.5t112.5 -272.5v-193q0 -30 27 -43q90 -50 143 -139.5t53 -195.5v-197zM516 1112v-108q0 -31 23 -53.5t55 -22.5h489q32 0 55 22.5
t23 53.5v108q0 32 -23 55t-55 23h-489q-32 0 -55 -23t-23 -55zM1307 346q32 0 54.5 22t22.5 54v119q0 32 -22.5 54.5t-54.5 22.5h-713q-32 0 -55 -22.5t-23 -54.5v-119q0 -32 23 -54t55 -22h713z" />
    <glyph glyph-name="c" unicode="c" horiz-adv-x="1699" 
d="M698 1190q-79 0 -135.5 -56.5t-56.5 -136.5v-460q0 -78 56.5 -134.5t135.5 -56.5h822q32 0 54.5 -23t22.5 -55v-192q0 -31 -22.5 -53.5t-54.5 -22.5h-1014q-158 0 -270.5 112.5t-112.5 270.5v768q0 160 112.5 272.5t270.5 112.5h1014q32 0 54.5 -23t22.5 -55v-192
q0 -31 -22.5 -53.5t-54.5 -22.5h-822z" />
    <glyph glyph-name="d" unicode="d" horiz-adv-x="2007" 
d="M1499 1536q160 0 271.5 -112.5t111.5 -272.5v-768q0 -159 -112 -271t-271 -112h-1290q-31 0 -53.5 22.5t-22.5 53.5v1382q0 32 22.5 55t53.5 23h1290zM1499 537v460q0 80 -56.5 136.5t-135.5 56.5h-713q-32 0 -55 -23t-23 -55v-690q0 -32 23 -54t55 -22h713
q79 0 135.5 56.5t56.5 134.5z" />
    <glyph glyph-name="e" unicode="e" horiz-adv-x="1781" 
d="M1602 346q32 0 54.5 -23t22.5 -55v-192q0 -31 -22.5 -53.5t-54.5 -22.5h-1393q-31 0 -53.5 22.5t-22.5 53.5v1382q0 32 22.5 55t53.5 23h1341q32 0 55 -23t23 -55v-192q0 -31 -23 -53.5t-55 -22.5h-956q-32 0 -55 -23t-23 -55v-72q0 -32 23 -54.5t55 -22.5h850
q32 0 55 -22t23 -54v-193q0 -32 -23 -54t-55 -22h-850q-32 0 -55 -22.5t-23 -54.5v-119q0 -32 23 -54t55 -22h1008z" />
    <glyph glyph-name="f" unicode="f" horiz-adv-x="1679" 
d="M209 0q-31 0 -53.5 22.5t-22.5 53.5v1382q0 32 22.5 55t53.5 23h1300q32 0 55 -23t23 -55v-192q0 -31 -23 -53.5t-55 -22.5h-915q-32 0 -55 -23t-23 -55v-72q0 -32 23 -54.5t55 -22.5h758q32 0 55 -22t23 -54v-193q0 -32 -23 -54t-55 -22h-758q-32 0 -55 -22.5t-23 -54.5
v-465q0 -31 -22 -53.5t-54 -22.5h-231z" />
    <glyph glyph-name="g" unicode="g" horiz-adv-x="2043" 
d="M1843 963q31 0 53.5 -22t22.5 -54v-504q0 -158 -112.5 -270.5t-270.5 -112.5h-1030q-158 0 -270.5 112.5t-112.5 270.5v768q0 160 112.5 272.5t270.5 112.5h1298q31 0 53.5 -23t22.5 -55v-192q0 -31 -22.5 -53.5t-53.5 -22.5h-1106q-79 0 -135.5 -56.5t-56.5 -136.5v-460
q0 -78 56.5 -134.5t135.5 -56.5h645q79 0 136 56.5t57 134.5v51q0 12 -9.5 21t-21.5 9h-665q-31 0 -53.5 22t-22.5 54v193q0 32 22.5 54t53.5 22h1003z" />
    <glyph glyph-name="h" unicode="h" horiz-adv-x="1939" 
d="M440 1536q32 0 54 -23t22 -55v-418q0 -32 23 -54.5t55 -22.5h749q32 0 55 22.5t23 54.5v418q0 32 22.5 55t53.5 23h232q32 0 53.5 -22.5t21.5 -55.5v-1382q0 -31 -21.5 -53.5t-53.5 -22.5h-232q-31 0 -53.5 22.5t-22.5 53.5v465q0 32 -23 54.5t-55 22.5h-749
q-32 0 -55 -22.5t-23 -54.5v-465q0 -31 -22 -53.5t-54 -22.5h-231q-31 0 -53.5 22.5t-22.5 53.5v1382q0 32 22.5 55t53.5 23h231z" />
    <glyph glyph-name="i" unicode="i" horiz-adv-x="651" 
d="M211 0q-32 0 -55 22.5t-23 53.5v1382q0 32 23 55t55 23h229q32 0 55 -23t23 -55v-1382q0 -31 -23 -53.5t-55 -22.5h-229z" />
    <glyph glyph-name="j" unicode="j" horiz-adv-x="1312" 
d="M147 0q-31 0 -53 22.5t-22 53.5v192q0 32 22 55t53 23h459q79 0 136 56.5t57 134.5v921q0 32 22 55t53 23h232q32 0 54 -23t22 -55v-1075q0 -158 -112.5 -270.5t-270.5 -112.5h-652z" />
    <glyph glyph-name="k" unicode="k" horiz-adv-x="1822" 
d="M977 580q-21 38 -66 38h-317q-32 0 -55 -22.5t-23 -54.5v-465q0 -31 -22 -53.5t-54 -22.5h-231q-31 0 -53.5 22.5t-22.5 53.5v1382q0 32 22.5 55t53.5 23h231q32 0 54 -23t22 -55v-418q0 -32 23 -54.5t55 -22.5h252q44 0 65 38l289 496q24 39 68 39h305q32 0 47 -27
t0 -55l-338 -580q-16 -29 0 -55l430 -739q15 -26 0 -53t-47 -27h-332q-46 0 -65 39z" />
    <glyph glyph-name="l" unicode="l" horiz-adv-x="1380" 
d="M209 0q-31 0 -53.5 22.5t-22.5 53.5v1382q0 32 22.5 55t53.5 23h231q32 0 54 -23t22 -55v-1036q0 -32 23 -54t55 -22h637q32 0 55 -23t23 -55v-192q0 -31 -23 -53.5t-55 -22.5h-1022z" />
    <glyph glyph-name="m" unicode="m" horiz-adv-x="2578" 
d="M1524 0h-471q-53 0 -95 32.5t-55 84.5l-260 1044q-3 12 -13.5 20.5t-23.5 8.5h-51q-16 0 -27.5 -11t-11.5 -28v-1075q0 -31 -22 -53.5t-54 -22.5h-231q-31 0 -53.5 22.5t-22.5 53.5v1382q0 32 22.5 55t53.5 23h616q54 0 95 -33t55 -84l260 -1044q3 -12 14 -20.5t23 -8.5
h33q13 0 23 8.5t13 20.5l261 1044q14 51 55.5 84t93.5 33h616q31 0 53.5 -23t22.5 -55v-1382q0 -31 -22.5 -53.5t-53.5 -22.5h-231q-32 0 -54 22.5t-22 53.5v1075q0 17 -11.5 28t-27.5 11h-51q-12 0 -23 -8.5t-14 -20.5l-260 -1044q-12 -52 -53.5 -84.5t-95.5 -32.5z" />
    <glyph glyph-name="n" unicode="n" horiz-adv-x="2056" 
d="M133 76v1382q0 32 22.5 55t53.5 23h700q54 0 96 -33t54 -84l258 -1032q10 -41 51 -41h117q22 0 37.5 15t15.5 38v1059q0 32 22.5 55t53.5 23h231q31 0 53.5 -23t22.5 -55v-1382q0 -31 -22.5 -53.5t-53.5 -22.5h-708q-53 0 -95 32.5t-55 84.5l-256 1032q-4 19 -19 30
t-34 11h-107q-23 0 -39 -15.5t-16 -37.5v-1061q0 -31 -22 -53.5t-54 -22.5h-231q-31 0 -53.5 22.5t-22.5 53.5z" />
    <glyph glyph-name="o" unicode="o" horiz-adv-x="1853" 
d="M506 0q-158 0 -270.5 112.5t-112.5 270.5v768q0 160 112.5 272.5t270.5 112.5h840q158 0 270.5 -112.5t112.5 -272.5v-768q0 -158 -112.5 -270.5t-270.5 -112.5h-840zM506 997v-460q0 -78 56.5 -134.5t135.5 -56.5h455q79 0 136 56.5t57 134.5v460q0 79 -57 136t-136 57
h-455q-79 0 -135.5 -56.5t-56.5 -136.5z" />
    <glyph glyph-name="p" unicode="p" horiz-adv-x="1855" 
d="M1745 885q0 -160 -112.5 -272.5t-270.5 -112.5h-768q-32 0 -55 -22.5t-23 -53.5v-348q0 -31 -22 -53.5t-54 -22.5h-231q-31 0 -53.5 22.5t-22.5 53.5v1382q0 32 22.5 55t53.5 23h1153q158 0 270.5 -112.5t112.5 -272.5v-266zM1284 846q32 0 55 22.5t23 53.5v190
q0 32 -23 55t-55 23h-690q-32 0 -55 -23t-23 -55v-190q0 -31 23 -53.5t55 -22.5h690z" />
    <glyph glyph-name="q" unicode="q" horiz-adv-x="2043" 
d="M1438 -231q22 -38 -1 -77.5t-67 -39.5h-266q-47 0 -66 39l-157 270q-22 39 -68 39h-305q-158 0 -270.5 112.5t-112.5 270.5v768q0 158 112.5 270.5t270.5 112.5h1028q160 0 272.5 -112.5t112.5 -270.5v-768q0 -158 -112.5 -270.5t-272.5 -112.5h-168q-22 0 -32.5 -19.5
t-0.5 -39.5zM700 344h646q78 0 134 57t56 136v460q0 79 -56 136t-134 57h-646q-79 0 -135.5 -56.5t-56.5 -136.5v-460q0 -80 56.5 -136.5t135.5 -56.5z" />
    <glyph glyph-name="r" unicode="r" horiz-adv-x="1847" 
d="M1495 625q-13 -7 -17.5 -24t3.5 -30l266 -456q23 -38 0.5 -76.5t-66.5 -38.5h-292q-44 0 -66 39l-264 496q-19 36 -66 36h-399q-32 0 -55 -22t-23 -53v-420q0 -31 -22 -53.5t-54 -22.5h-231q-31 0 -53.5 22.5t-22.5 53.5v1382q0 32 22.5 55t53.5 23h1094
q158 0 270.5 -112.5t112.5 -272.5v-195q0 -104 -52 -192.5t-139 -138.5zM1303 993v119q0 32 -23 55t-55 23h-631q-32 0 -55 -23t-23 -55v-119q0 -31 23 -53t55 -22h631q32 0 55 22t23 53z" />
    <glyph glyph-name="s" unicode="s" horiz-adv-x="1921" 
d="M1796 383q0 -158 -112.5 -270.5t-270.5 -112.5h-1214q-31 0 -53.5 22.5t-22.5 53.5v192q0 32 22.5 55t53.5 23h1136q32 0 55 22t23 54v119q0 32 -23 54.5t-55 22.5h-829q-158 0 -270.5 112.5t-112.5 270.5v150q0 160 112.5 272.5t270.5 112.5h1175q32 0 54 -23t22 -55
v-192q0 -31 -22 -53.5t-54 -22.5h-1097q-32 0 -55 -23t-23 -55v-72q0 -32 23 -54.5t55 -22.5h829q158 0 270.5 -112.5t112.5 -270.5v-197z" />
    <glyph glyph-name="t" unicode="t" horiz-adv-x="1826" 
d="M147 1190q-31 0 -53 22.5t-22 53.5v192q0 32 22 55t53 23h1530q32 0 55 -23t23 -55v-192q0 -31 -23 -53.5t-55 -22.5h-495q-32 0 -54 -23t-22 -55v-1036q0 -31 -23 -53.5t-55 -22.5h-229q-32 0 -55 22.5t-23 53.5v1036q0 32 -22.5 55t-53.5 23h-498z" />
    <glyph glyph-name="u" unicode="u" horiz-adv-x="1734" 
d="M1604 1458v-1075q0 -159 -112 -271t-271 -112h-709q-158 0 -270.5 112.5t-112.5 270.5v1075q0 32 22.5 55t53.5 23h231q32 0 54 -23t22 -55v-921q0 -78 57 -134.5t136 -56.5h323q79 0 136 56.5t57 134.5v921q0 32 22.5 55t54.5 23h230q32 0 54 -23t22 -55z" />
    <glyph glyph-name="v" unicode="v" horiz-adv-x="2002" 
d="M592 74l-514 1335q-17 46 11 86.5t75 40.5h225q23 0 43 -13.5t29 -35.5l420 -1098q16 -43 65 -43h111q49 0 65 43l420 1098q9 22 29 35.5t43 13.5h225q47 0 75 -40.5t11 -86.5l-514 -1335q-12 -34 -41 -54t-65 -20h-607q-36 0 -65 20t-41 54z" />
    <glyph glyph-name="w" unicode="w" horiz-adv-x="2691" 
d="M883 0h-621q-31 0 -53 20.5t-25 51.5l-92 1382q-2 33 21.5 57.5t56.5 24.5h231q29 0 51 -20.5t25 -51.5l94 -1085q2 -14 12 -23.5t23 -9.5h60q27 0 34 27l261 1046q12 51 53.5 84t95.5 33h471q52 0 94 -33t56 -84l260 -1046q7 -27 34 -27h58q14 0 25 10t12 23l92 1085
q3 31 25 51.5t53 20.5h231q32 0 55.5 -25t20.5 -57l-92 -1382q-1 -30 -23.5 -51t-52.5 -21h-621q-54 0 -95.5 32.5t-53.5 84.5l-260 1044q-3 12 -14 20.5t-23 8.5h-33q-13 0 -23.5 -8.5t-13.5 -20.5l-205 -815l-55 -229q-13 -52 -54.5 -84.5t-94.5 -32.5z" />
    <glyph glyph-name="x" unicode="x" horiz-adv-x="1847" 
d="M160 0q-44 0 -66.5 38.5t0.5 76.5l379 653q23 38 0 76l-336 575q-22 38 1 77.5t67 39.5h266q20 0 38.5 -11t27.5 -28l297 -508q13 -26 45 -26h90q32 0 45 26l297 508q9 17 27 28t38 11h266q44 0 67 -39.5t1 -77.5l-336 -575q-23 -38 0 -76l379 -653q23 -38 1 -76.5
t-66 -38.5h-293q-44 0 -66 39l-297 553q-16 26 -47 26h-123q-31 0 -47 -26l-297 -553q-22 -39 -65 -39h-293z" />
    <glyph glyph-name="y" unicode="y" horiz-adv-x="1753" 
d="M475 659l-393 764q-20 38 2.5 75.5t65.5 37.5h270q22 0 41 -12t28 -31l238 -487q21 -43 68 -43h163q46 0 70 43l236 487q24 43 69 43h271q43 0 65 -37.5t2 -75.5l-393 -764q-20 -41 -68 -41h-90q-22 0 -36.5 -14.5t-14.5 -36.5v-491q0 -31 -23 -53.5t-55 -22.5h-229
q-32 0 -55 22.5t-23 53.5v491q0 22 -14.5 36.5t-36.5 14.5h-88q-47 0 -70 41z" />
    <glyph glyph-name="z" unicode="z" horiz-adv-x="1669" 
d="M178 0q-31 0 -53.5 22.5t-22.5 53.5v258q0 74 58 119l819 669q22 17 12.5 42.5t-37.5 25.5h-725q-31 0 -53 22.5t-22 53.5v192q0 32 22 55t53 23h1260q32 0 54 -23t22 -55v-256q0 -73 -56 -119l-821 -669q-20 -17 -10.5 -42.5t35.5 -25.5h776q32 0 54 -23t22 -55v-192
q0 -31 -22 -53.5t-54 -22.5h-1311z" />
    <glyph glyph-name="braceleft" unicode="{" horiz-adv-x="989" 
d="M860 1636q31 0 53.5 -22t22.5 -53v-103q0 -32 -22.5 -55t-53.5 -23h-215q-32 0 -55 -22t-23 -53v-410q0 -106 -74 -181t-180 -75q106 0 180 -75t74 -181v-410q0 -32 22.5 -53.5t55.5 -21.5h215q31 0 53.5 -23t22.5 -55v-103q0 -31 -22.5 -53t-53.5 -22h-293
q-106 0 -180 75t-74 181v485q0 54 -37.5 91.5t-91.5 37.5h-55q-32 0 -55 22t-23 54v102q0 32 23 54t55 22h55q54 0 91.5 37.5t37.5 91.5v485q0 106 74 181t180 75h293z" />
    <glyph glyph-name="bar" unicode="|" horiz-adv-x="872" 
d="M436 1636q52 0 89.5 -37t37.5 -90v-1740q0 -53 -37.5 -90t-89.5 -37q-54 0 -91.5 37t-37.5 90v1740q0 53 37.5 90t91.5 37z" />
    <glyph glyph-name="braceright" unicode="}" horiz-adv-x="987" 
d="M858 768q32 0 55 -23t23 -55v-102q0 -31 -23 -53.5t-55 -22.5h-55q-53 0 -90 -37.5t-37 -91.5v-485q0 -106 -75 -181t-181 -75h-293q-31 0 -53.5 22t-22.5 53v103q0 32 22.5 55t53.5 23h215q32 0 55 22t23 53v410q0 106 75 181t181 75q-106 0 -181 75t-75 181v410
q0 32 -23 54.5t-55 22.5h-215q-31 0 -53.5 22t-22.5 54v103q0 32 22.5 53.5t53.5 21.5h293q106 0 181 -75t75 -179v-487q0 -53 37 -90t90 -37h55z" />
    <glyph glyph-name="asciitilde" unicode="~" horiz-adv-x="1337" 
d="M1219 793q23 -17 26.5 -46.5t-14.5 -52.5l-84 -108q-53 -68 -128.5 -104t-158.5 -36q-122 0 -223 76l-154 121q-17 14 -43 14q-35 0 -57 -28l-74 -97q-20 -26 -57 -26q-26 0 -43 14l-88 68q-23 19 -27 48t15 52l81 107q53 68 128.5 103.5t158.5 35.5q125 0 223 -76
l154 -119q17 -14 43 -14q36 0 57 27l76 98q21 27 55 27q24 0 45 -15z" />
    <glyph glyph-name="cent" unicode="&#xa2;" horiz-adv-x="1576" 
d="M1407 1325q32 0 55 -22t23 -54v-192q0 -32 -23 -54t-55 -22h-719q-79 0 -135.5 -56.5t-56.5 -136.5v-141q0 -79 56 -135.5t136 -56.5h719q32 0 55 -22.5t23 -53.5v-193q0 -32 -23 -54.5t-55 -22.5h-252q-21 0 -36 -15.5t-15 -36.5v-141q0 -32 -22 -55t-54 -23h-231
q-31 0 -53.5 23t-22.5 55v141q0 22 -14.5 37t-36.5 15h-174q-158 0 -270.5 112.5t-112.5 272.5v448q0 158 112.5 270.5t270.5 112.5h174q21 0 36 15t15 36v135q0 32 22.5 54t53.5 22h231q32 0 54 -22t22 -54v-135q0 -20 15.5 -35.5t35.5 -15.5h252z" />
    <glyph glyph-name="sterling" unicode="&#xa3;" horiz-adv-x="1740" 
d="M1571 346q32 0 55 -23t23 -55v-192q0 -31 -23 -53.5t-55 -22.5h-1413q-31 0 -53.5 22.5t-22.5 53.5v192q0 32 22.5 55t53.5 23h73q31 0 53.5 22t22.5 54v129q0 32 -22.5 55t-53.5 23h-73q-31 0 -53.5 22t-22.5 54v102q0 32 22.5 55t53.5 23h73q31 0 53.5 22t22.5 54v192
q0 158 112.5 270.5t272.5 112.5h535q158 0 270.5 -112.5t112.5 -270.5v-115q0 -32 -22.5 -53.5t-55.5 -21.5h-229q-32 0 -54 21.5t-22 53.5v76q0 32 -23 55t-55 23h-381q-32 0 -54 -23t-22 -55v-153q0 -32 22 -54t54 -22h336q32 0 54 -23t22 -55v-102q0 -32 -22 -54t-54 -22
h-336q-32 0 -54 -23t-22 -55v-129q0 -32 22 -54t54 -22h803z" />
    <glyph glyph-name="yen" unicode="&#xa5;" horiz-adv-x="1753" 
d="M1604 1536q43 0 65 -37.5t2 -75.5l-303 -587q-5 -9 1.5 -19t16.5 -10h72q31 0 53.5 -23t22.5 -55v-102q0 -31 -22.5 -53.5t-53.5 -22.5h-364q-9 0 -17 -8.5t-8 -18.5v-24q0 -11 7.5 -19t17.5 -8h364q31 0 53.5 -22.5t22.5 -53.5v-102q0 -32 -22.5 -55t-53.5 -23h-364
q-10 0 -17.5 -7.5t-7.5 -16.5v-117q0 -31 -23 -53.5t-55 -22.5h-229q-32 0 -55 22.5t-23 53.5v117q0 9 -7.5 16.5t-17.5 7.5h-362q-32 0 -55 23t-23 55v102q0 31 23 53.5t55 22.5h362q10 0 17.5 8t7.5 19v24q0 11 -7.5 19t-17.5 8h-362q-32 0 -55 22.5t-23 53.5v102
q0 32 23 55t55 23h70q10 0 16.5 10t1.5 19l-303 587q-20 38 2.5 75.5t65.5 37.5h223q43 0 80.5 -24t56.5 -62l217 -444q21 -43 68 -43h163q46 0 70 43l215 444q21 39 58 62.5t81 23.5h222z" />
    <glyph glyph-name="dieresis" unicode="&#xa8;" horiz-adv-x="825" 
d="M221 1280q-54 0 -91.5 37.5t-37.5 91.5q0 53 37.5 90t91.5 37q53 0 90 -37t37 -90q0 -54 -37 -91.5t-90 -37.5zM733 1409q0 -54 -37.5 -91.5t-91.5 -37.5q-53 0 -90 37.5t-37 91.5q0 53 37.5 90t89.5 37q54 0 91.5 -37t37.5 -90z" />
    <glyph glyph-name="acute" unicode="&#xb4;" horiz-adv-x="526" 
d="M313 1550h88q19 0 27.5 -15t-0.5 -30l-162 -282q-21 -31 -53 -31h-90q-17 0 -25.5 16t0.5 31l162 281q15 30 53 30z" />
    <glyph glyph-name="cedilla" unicode="&#xb8;" horiz-adv-x="647" 
d="M555 -330q0 -42 -30 -72t-72 -30h-328q-13 0 -22 9t-9 22v65q0 12 9 21.5t22 9.5h246q12 0 21 9.5t9 21.5v49q0 13 -9 21.5t-21 8.5h-174q-42 0 -72.5 30.5t-30.5 72.5v121h154v-64q0 -13 9 -22t22 -9h174q41 0 71.5 -30.5t30.5 -71.5v-162z" />
    <glyph glyph-name="Agrave" unicode="&#xc0;" 
d="M979 2058q36 0 53 -30l162 -283q9 -13 0 -29t-27 -16h-88q-36 0 -53 31l-162 280q-9 15 -0.5 31t27.5 16h88zM170 0q-40 0 -62.5 33t-9.5 71l523 1356q12 34 41.5 55t64.5 21h606q35 0 65 -21t42 -55l522 -1356q13 -38 -9.5 -71t-62.5 -33h-272q-25 0 -44.5 13.5
t-27.5 35.5l-393 1092q-9 22 -29 35.5t-43 13.5h-102q-23 0 -43 -13.5t-29 -35.5l-264 -690q-15 -38 8.5 -71.5t63.5 -33.5h452q32 0 58.5 -18t38.5 -47l67 -177q14 -38 -8.5 -71t-62.5 -33h-1090z" />
    <glyph glyph-name="Aacute" unicode="&#xc1;" 
d="M1081 2064h88q17 0 26.5 -15t0.5 -30l-162 -282q-21 -31 -53 -31h-90q-17 0 -26 16t-1 31l164 281q17 30 53 30zM170 0q-40 0 -62.5 33t-9.5 71l523 1356q12 34 41.5 55t64.5 21h606q35 0 65 -21t42 -55l522 -1356q13 -38 -9.5 -71t-62.5 -33h-272q-25 0 -44.5 13.5
t-27.5 35.5l-393 1092q-9 22 -29 35.5t-43 13.5h-102q-23 0 -43 -13.5t-29 -35.5l-264 -690q-15 -38 8.5 -71.5t63.5 -33.5h452q32 0 58.5 -18t38.5 -47l67 -177q14 -38 -8.5 -71t-62.5 -33h-1090z" />
    <glyph glyph-name="Acircumflex" unicode="&#xc2;" 
d="M1182 1710q-35 0 -54 31l-81 143q-6 9 -18.5 9t-16.5 -9l-84 -143q-16 -31 -54 -31h-88q-19 0 -27 15t1 30l172 297q6 16 26 16h142q16 0 26 -16l170 -297q9 -15 1 -30t-25 -15h-90zM170 0q-40 0 -62.5 33t-9.5 71l523 1356q12 34 41.5 55t64.5 21h606q35 0 65 -21
t42 -55l522 -1356q13 -38 -9.5 -71t-62.5 -33h-272q-25 0 -44.5 13.5t-27.5 35.5l-393 1092q-9 22 -29 35.5t-43 13.5h-102q-23 0 -43 -13.5t-29 -35.5l-264 -690q-15 -38 8.5 -71.5t63.5 -33.5h452q32 0 58.5 -18t38.5 -47l67 -177q14 -38 -8.5 -71t-62.5 -33h-1090z" />
    <glyph glyph-name="Atilde" unicode="&#xc3;" 
d="M1243 1985l49 -25q14 -6 19 -20.5t-2 -26.5l-41 -90l-37 -74q-19 -39 -64 -39q-15 0 -30 6l-191 90q-12 7 -26.5 2.5t-20.5 -18.5l-27 -55q-6 -14 -20.5 -19t-26.5 2l-51 23q-13 7 -17.5 21.5t1.5 27.5l78 162q20 41 63 41q18 0 31 -8l190 -91q12 -6 26.5 -0.5t20.5 17.5
l27 57q6 12 20.5 17.5t28.5 -0.5zM170 0q-40 0 -62.5 33t-9.5 71l523 1356q12 34 41.5 55t64.5 21h606q35 0 65 -21t42 -55l522 -1356q13 -38 -9.5 -71t-62.5 -33h-272q-25 0 -44.5 13.5t-27.5 35.5l-393 1092q-9 22 -29 35.5t-43 13.5h-102q-23 0 -43 -13.5t-29 -35.5
l-264 -690q-15 -38 8.5 -71.5t63.5 -33.5h452q32 0 58.5 -18t38.5 -47l67 -177q14 -38 -8.5 -71t-62.5 -33h-1090z" />
    <glyph glyph-name="Adieresis" unicode="&#xc4;" 
d="M838 1690q-52 0 -89.5 37t-37.5 90q0 54 37 91.5t90 37.5q54 0 91.5 -37.5t37.5 -91.5q0 -53 -37.5 -90t-91.5 -37zM1350 1817q0 -53 -37 -90t-90 -37q-54 0 -91.5 37t-37.5 90q0 54 37.5 91.5t91.5 37.5q53 0 90 -37.5t37 -91.5zM170 0q-40 0 -62.5 33t-9.5 71l523 1356
q12 34 41.5 55t64.5 21h606q35 0 65 -21t42 -55l522 -1356q13 -38 -9.5 -71t-62.5 -33h-272q-25 0 -44.5 13.5t-27.5 35.5l-393 1092q-9 22 -29 35.5t-43 13.5h-102q-23 0 -43 -13.5t-29 -35.5l-264 -690q-15 -38 8.5 -71.5t63.5 -33.5h452q32 0 58.5 -18t38.5 -47l67 -177
q14 -38 -8.5 -71t-62.5 -33h-1090z" />
    <glyph glyph-name="Aring" unicode="&#xc5;" 
d="M893 1690q-32 0 -55 22t-23 53v283q0 32 23 54t55 22h274q32 0 55 -22t23 -54v-283q0 -31 -23 -53t-55 -22h-274zM969 1939v-65q0 -12 9 -21.5t21 -9.5h62q12 0 21.5 9.5t9.5 21.5v65q0 13 -9.5 22t-21.5 9h-62q-12 0 -21 -9t-9 -22zM170 0q-40 0 -62.5 33t-9.5 71
l523 1356q12 34 41.5 55t64.5 21h606q35 0 65 -21t42 -55l522 -1356q13 -38 -9.5 -71t-62.5 -33h-272q-25 0 -44.5 13.5t-27.5 35.5l-393 1092q-9 22 -29 35.5t-43 13.5h-102q-23 0 -43 -13.5t-29 -35.5l-264 -690q-15 -38 8.5 -71.5t63.5 -33.5h452q32 0 58.5 -18t38.5 -47
l67 -177q14 -38 -8.5 -71t-62.5 -33h-1090z" />
    <glyph glyph-name="AE" unicode="&#xc6;" horiz-adv-x="2990" 
d="M170 0q-40 0 -62.5 33t-9.5 71l512 1332q17 44 57 72t87 28h2005q32 0 53.5 -22.5t21.5 -55.5v-192q0 -31 -21.5 -53.5t-53.5 -22.5h-957q-32 0 -55 -23t-23 -55v-72q0 -32 23 -54.5t55 -22.5h850q32 0 55 -22t23 -54v-193q0 -32 -23 -54t-55 -22h-850q-32 0 -55 -22.5
t-23 -54.5v-119q0 -32 23 -54t55 -22h1008q32 0 54 -23t22 -55v-192q0 -31 -22 -53.5t-54 -22.5h-1393q-31 0 -53.5 22.5t-22.5 53.5v215q0 31 -22.5 53.5t-54.5 22.5h-547q-47 0 -87 -27.5t-57 -71.5l-84 -219q-9 -22 -28.5 -35.5t-42.5 -13.5h-248zM772 784
q-10 -26 5.5 -48.5t43.5 -22.5h443q32 0 54.5 21.5t22.5 53.5v324q0 32 -22.5 55t-54.5 23h-285q-23 0 -43 -13.5t-29 -35.5z" />
    <glyph glyph-name="Ccedilla" unicode="&#xc7;" horiz-adv-x="1699" 
d="M1079 -330q0 -43 -29.5 -72.5t-72.5 -29.5h-326q-13 0 -21.5 8.5t-8.5 22.5v65q0 12 8.5 21.5t21.5 9.5h244q13 0 22 9.5t9 21.5v49q0 13 -8.5 21.5t-22.5 8.5h-172q-42 0 -72 30.5t-30 72.5v92h-115q-158 0 -270.5 112.5t-112.5 270.5v768q0 160 112.5 272.5
t270.5 112.5h1014q32 0 54.5 -23t22.5 -55v-192q0 -31 -22.5 -53.5t-54.5 -22.5h-822q-79 0 -135.5 -56.5t-56.5 -136.5v-460q0 -78 56.5 -134.5t135.5 -56.5h822q32 0 54.5 -23t22.5 -55v-192q0 -31 -22.5 -53.5t-54.5 -22.5h-746v-35q0 -13 9 -22t22 -9h172q42 0 72 -30
t30 -72v-162z" />
    <glyph glyph-name="Egrave" unicode="&#xc8;" horiz-adv-x="1781" 
d="M854 2058q36 0 53 -30l162 -283q9 -13 0 -29t-27 -16h-88q-36 0 -53 31l-162 280q-9 15 -0.5 31t27.5 16h88zM209 1190q-31 0 -53.5 22.5t-22.5 53.5v192q0 32 22.5 55t53.5 23h1341q32 0 55 -23t23 -55v-192q0 -31 -23 -53.5t-55 -22.5h-1341zM1602 346q32 0 54.5 -23
t22.5 -55v-192q0 -31 -22.5 -53.5t-54.5 -22.5h-1393q-31 0 -53.5 22.5t-22.5 53.5v811q0 32 22.5 54t53.5 22h1235q32 0 55 -22t23 -54v-193q0 -32 -23 -54t-55 -22h-850q-32 0 -55 -22.5t-23 -54.5v-119q0 -32 23 -54t55 -22h1008z" />
    <glyph glyph-name="Eacute" unicode="&#xc9;" horiz-adv-x="1781" 
d="M956 2064h88q19 0 27.5 -15t-0.5 -30l-162 -282q-21 -31 -53 -31h-90q-17 0 -25.5 16t0.5 31l162 281q17 30 53 30zM209 1190q-31 0 -53.5 22.5t-22.5 53.5v192q0 32 22.5 55t53.5 23h1341q32 0 55 -23t23 -55v-192q0 -31 -23 -53.5t-55 -22.5h-1341zM1602 346
q32 0 54.5 -23t22.5 -55v-192q0 -31 -22.5 -53.5t-54.5 -22.5h-1393q-31 0 -53.5 22.5t-22.5 53.5v811q0 32 22.5 54t53.5 22h1235q32 0 55 -22t23 -54v-193q0 -32 -23 -54t-55 -22h-850q-32 0 -55 -22.5t-23 -54.5v-119q0 -32 23 -54t55 -22h1008z" />
    <glyph glyph-name="Ecircumflex" unicode="&#xca;" horiz-adv-x="1781" 
d="M1059 1710q-34 0 -53 31l-82 143q-6 9 -18 9t-17 -9l-84 -143q-15 -31 -53 -31h-88q-19 0 -27.5 15t0.5 30l172 297q6 16 27 16h141q17 0 27 -16l170 -297q9 -15 0.5 -30t-25.5 -15h-90zM209 1190q-31 0 -53.5 22.5t-22.5 53.5v192q0 32 22.5 55t53.5 23h1341
q32 0 55 -23t23 -55v-192q0 -31 -23 -53.5t-55 -22.5h-1341zM1602 346q32 0 54.5 -23t22.5 -55v-192q0 -31 -22.5 -53.5t-54.5 -22.5h-1393q-31 0 -53.5 22.5t-22.5 53.5v811q0 32 22.5 54t53.5 22h1235q32 0 55 -22t23 -54v-193q0 -32 -23 -54t-55 -22h-850
q-32 0 -55 -22.5t-23 -54.5v-119q0 -32 23 -54t55 -22h1008z" />
    <glyph glyph-name="Edieresis" unicode="&#xcb;" horiz-adv-x="1781" 
d="M713 1690q-53 0 -90 37t-37 90q0 54 37 91.5t90 37.5q54 0 91.5 -37.5t37.5 -91.5q0 -53 -37.5 -90t-91.5 -37zM1227 1817q0 -53 -37.5 -90t-91.5 -37q-52 0 -89.5 37t-37.5 90q0 54 37 91.5t90 37.5q54 0 91.5 -37.5t37.5 -91.5zM209 1190q-31 0 -53.5 22.5t-22.5 53.5
v192q0 32 22.5 55t53.5 23h1341q32 0 55 -23t23 -55v-192q0 -31 -23 -53.5t-55 -22.5h-1341zM1602 346q32 0 54.5 -23t22.5 -55v-192q0 -31 -22.5 -53.5t-54.5 -22.5h-1393q-31 0 -53.5 22.5t-22.5 53.5v811q0 32 22.5 54t53.5 22h1235q32 0 55 -22t23 -54v-193
q0 -32 -23 -54t-55 -22h-850q-32 0 -55 -22.5t-23 -54.5v-119q0 -32 23 -54t55 -22h1008z" />
    <glyph glyph-name="Igrave" unicode="&#xcc;" horiz-adv-x="1406" 
d="M651 2058q37 0 54 -30l161 -283q9 -13 0.5 -29t-26.5 -16h-88q-37 0 -54 31l-161 280q-9 15 -0.5 31t26.5 16h88zM895 406q6 -26 27 -43t49 -17h229q32 0 55 -23t23 -55v-192q0 -31 -23 -53.5t-55 -22.5h-995q-31 0 -53.5 22.5t-22.5 53.5v192q0 32 22.5 55t53.5 23h231
q28 0 49 17t25 43v722q-5 26 -25.5 44t-48.5 18h-231q-31 0 -53.5 22.5t-22.5 53.5v192q0 32 22.5 55t53.5 23h995q32 0 55 -23t23 -55v-192q0 -31 -23 -53.5t-55 -22.5h-229q-27 0 -48.5 -17.5t-27.5 -44.5v-722z" />
    <glyph glyph-name="Iacute" unicode="&#xcd;" horiz-adv-x="1406" 
d="M754 2064h88q19 0 27 -15t-1 -30l-161 -282q-21 -31 -54 -31h-88q-18 0 -26.5 16t0.5 31l161 281q17 30 54 30zM895 406q6 -26 27 -43t49 -17h229q32 0 55 -23t23 -55v-192q0 -31 -23 -53.5t-55 -22.5h-995q-31 0 -53.5 22.5t-22.5 53.5v192q0 32 22.5 55t53.5 23h231
q28 0 49 17t25 43v722q-5 26 -25.5 44t-48.5 18h-231q-31 0 -53.5 22.5t-22.5 53.5v192q0 32 22.5 55t53.5 23h995q32 0 55 -23t23 -55v-192q0 -31 -23 -53.5t-55 -22.5h-229q-27 0 -48.5 -17.5t-27.5 -44.5v-722z" />
    <glyph glyph-name="Icircumflex" unicode="&#xce;" horiz-adv-x="1406" 
d="M856 1710q-34 0 -53 31l-82 143q-6 9 -18.5 9t-16.5 -9l-84 -143q-16 -31 -53 -31h-88q-19 0 -27.5 15t0.5 30l172 297q6 16 27 16h141q17 0 27 -16l170 -297q9 -15 0.5 -30t-25.5 -15h-90zM895 406q6 -26 27 -43t49 -17h229q32 0 55 -23t23 -55v-192q0 -31 -23 -53.5
t-55 -22.5h-995q-31 0 -53.5 22.5t-22.5 53.5v192q0 32 22.5 55t53.5 23h231q28 0 49 17t25 43v722q-5 26 -25.5 44t-48.5 18h-231q-31 0 -53.5 22.5t-22.5 53.5v192q0 32 22.5 55t53.5 23h995q32 0 55 -23t23 -55v-192q0 -31 -23 -53.5t-55 -22.5h-229q-27 0 -48.5 -17.5
t-27.5 -44.5v-722z" />
    <glyph glyph-name="Idieresis" unicode="&#xcf;" horiz-adv-x="1406" 
d="M512 1690q-54 0 -91.5 37t-37.5 90q0 54 37.5 91.5t91.5 37.5q53 0 90 -37.5t37 -91.5q0 -53 -37.5 -90t-89.5 -37zM1024 1817q0 -53 -37.5 -90t-91.5 -37q-53 0 -90 37t-37 90q0 54 37 91.5t90 37.5q54 0 91.5 -37.5t37.5 -91.5zM895 406q6 -26 27 -43t49 -17h229
q32 0 55 -23t23 -55v-192q0 -31 -23 -53.5t-55 -22.5h-995q-31 0 -53.5 22.5t-22.5 53.5v192q0 32 22.5 55t53.5 23h231q28 0 49 17t25 43v722q-5 26 -25.5 44t-48.5 18h-231q-31 0 -53.5 22.5t-22.5 53.5v192q0 32 22.5 55t53.5 23h995q32 0 55 -23t23 -55v-192
q0 -31 -23 -53.5t-55 -22.5h-229q-27 0 -48.5 -17.5t-27.5 -44.5v-722z" />
    <glyph glyph-name="Eth" unicode="&#xd0;" horiz-adv-x="2199" 
d="M1692 1536q160 0 272.5 -112.5t112.5 -272.5v-768q0 -158 -112.5 -270.5t-272.5 -112.5h-1289q-32 0 -54.5 22.5t-22.5 53.5v491q0 22 -15 36.5t-37 14.5h-168q-31 0 -53 22t-22 54v193q0 32 22 54t53 22h168q22 0 37 15.5t15 35.5v444q0 32 22.5 55t54.5 23h1289z
M1692 537v460q0 80 -56 136.5t-135 56.5h-715q-31 0 -53 -23t-22 -55v-98q0 -21 15 -36t36 -15h196q31 0 53.5 -22t22.5 -54v-193q0 -32 -22.5 -54t-53.5 -22h-196q-22 0 -36.5 -14.5t-14.5 -36.5v-145q0 -32 22 -54t53 -22h715q79 0 135 56.5t56 134.5z" />
    <glyph glyph-name="Ntilde" unicode="&#xd1;" horiz-adv-x="2056" 
d="M1239 1982l51 -24q13 -6 18 -20t-1 -27l-78 -162q-18 -41 -66 -41q-15 0 -30 6l-189 92q-14 6 -27.5 1t-19.5 -17l-27 -57q-7 -13 -21.5 -18t-27.5 1l-51 25q-12 6 -17 20.5t1 26.5l77 162q21 41 66 41q16 0 31 -6l188 -93q14 -6 27.5 -0.5t21.5 19.5l27 55q6 13 20 17.5
t27 -1.5zM209 0q-31 0 -53.5 22.5t-22.5 53.5v1382q0 32 22.5 55t53.5 23h520q133 0 237 -81.5t136 -209.5l215 -858q10 -41 51 -41h117q22 0 37.5 15t15.5 38v1059q0 32 22.5 55t53.5 23h231q31 0 53.5 -23t22.5 -55v-1382q0 -31 -22.5 -53.5t-53.5 -22.5h-528
q-132 0 -236.5 81.5t-136.5 209.5l-213 858q-4 19 -19 30t-34 11h-107q-23 0 -39 -15.5t-16 -37.5v-1061q0 -31 -22 -53.5t-54 -22.5h-231z" />
    <glyph glyph-name="Ograve" unicode="&#xd2;" horiz-adv-x="2041" 
d="M969 2058q36 0 53 -30l162 -283q9 -13 0 -29t-27 -16h-88q-36 0 -53 31l-162 280q-9 15 -0.5 31t27.5 16h88zM506 0q-158 0 -270.5 112.5t-112.5 270.5v768q0 160 112.5 272.5t270.5 112.5h1030q158 0 270.5 -112.5t112.5 -272.5v-768q0 -158 -112.5 -270.5
t-270.5 -112.5h-1030zM506 997v-460q0 -78 56.5 -134.5t135.5 -56.5h645q79 0 136 56.5t57 134.5v460q0 79 -57 136t-136 57h-645q-79 0 -135.5 -56.5t-56.5 -136.5z" />
    <glyph glyph-name="Oacute" unicode="&#xd3;" horiz-adv-x="2041" 
d="M1071 2064h88q19 0 27.5 -15t-0.5 -30l-162 -282q-17 -31 -53 -31h-88q-19 0 -27.5 16t0.5 31l162 281q17 30 53 30zM506 0q-158 0 -270.5 112.5t-112.5 270.5v768q0 160 112.5 272.5t270.5 112.5h1030q158 0 270.5 -112.5t112.5 -272.5v-768q0 -158 -112.5 -270.5
t-270.5 -112.5h-1030zM506 997v-460q0 -78 56.5 -134.5t135.5 -56.5h645q79 0 136 56.5t57 134.5v460q0 79 -57 136t-136 57h-645q-79 0 -135.5 -56.5t-56.5 -136.5z" />
    <glyph glyph-name="Ocircumflex" unicode="&#xd4;" horiz-adv-x="2041" 
d="M1174 1710q-35 0 -54 31l-82 143q-6 9 -18 9t-16 -9l-84 -143q-16 -31 -54 -31h-88q-19 0 -27 15t1 30l172 297q6 16 26 16h142q16 0 26 -16l170 -297q9 -15 1 -30t-25 -15h-90zM506 0q-158 0 -270.5 112.5t-112.5 270.5v768q0 160 112.5 272.5t270.5 112.5h1030
q158 0 270.5 -112.5t112.5 -272.5v-768q0 -158 -112.5 -270.5t-270.5 -112.5h-1030zM506 997v-460q0 -78 56.5 -134.5t135.5 -56.5h645q79 0 136 56.5t57 134.5v460q0 79 -57 136t-136 57h-645q-79 0 -135.5 -56.5t-56.5 -136.5z" />
    <glyph glyph-name="Otilde" unicode="&#xd5;" horiz-adv-x="2041" 
d="M1233 1985l51 -25q12 -6 17 -20.5t-1 -26.5l-77 -164q-19 -39 -66 -39q-16 0 -31 6l-188 90q-13 6 -27 1.5t-20 -17.5l-29 -55q-6 -14 -19.5 -19t-27.5 2l-51 23q-12 8 -17 21.5t1 27.5l77 162q20 41 64 41q20 0 33 -8l188 -91q14 -6 27.5 -0.5t19.5 17.5l29 57
q6 12 19.5 17.5t27.5 -0.5zM506 0q-158 0 -270.5 112.5t-112.5 270.5v768q0 160 112.5 272.5t270.5 112.5h1030q158 0 270.5 -112.5t112.5 -272.5v-768q0 -158 -112.5 -270.5t-270.5 -112.5h-1030zM506 997v-460q0 -78 56.5 -134.5t135.5 -56.5h645q79 0 136 56.5t57 134.5
v460q0 79 -57 136t-136 57h-645q-79 0 -135.5 -56.5t-56.5 -136.5z" />
    <glyph glyph-name="Odieresis" unicode="&#xd6;" horiz-adv-x="2041" 
d="M829 1690q-54 0 -91.5 37t-37.5 90q0 54 37.5 91.5t91.5 37.5q53 0 90 -37.5t37 -91.5q0 -53 -37 -90t-90 -37zM1341 1817q0 -53 -37.5 -90t-91.5 -37q-52 0 -89.5 37t-37.5 90q0 54 37 91.5t90 37.5q54 0 91.5 -37.5t37.5 -91.5zM506 0q-158 0 -270.5 112.5
t-112.5 270.5v768q0 160 112.5 272.5t270.5 112.5h1030q158 0 270.5 -112.5t112.5 -272.5v-768q0 -158 -112.5 -270.5t-270.5 -112.5h-1030zM506 997v-460q0 -78 56.5 -134.5t135.5 -56.5h645q79 0 136 56.5t57 134.5v460q0 79 -57 136t-136 57h-645q-79 0 -135.5 -56.5
t-56.5 -136.5z" />
    <glyph glyph-name="Oslash" unicode="&#xd8;" horiz-adv-x="2041" 
d="M506 0q-158 0 -270.5 112.5t-112.5 270.5v768q0 160 112.5 272.5t270.5 112.5h641l65 193q10 32 37.5 50.5t61.5 18.5h172q26 0 41 -21t6 -46l-68 -195h74q158 0 270.5 -112.5t112.5 -272.5v-768q0 -158 -112.5 -270.5t-270.5 -112.5h-604l-74 -211q-11 -31 -37.5 -50.5
t-58.5 -19.5h-172q-26 0 -41 21.5t-6 46.5l73 213h-110zM506 997v-460q0 -78 56.5 -134.5t135.5 -56.5h37l291 844h-328q-79 0 -135.5 -56.5t-56.5 -136.5zM1051 346h292q79 0 136 56.5t57 134.5v460q0 79 -57 136t-136 57z" />
    <glyph glyph-name="Ugrave" unicode="&#xd9;" horiz-adv-x="1925" 
d="M911 2056q37 0 54 -31l161 -282q9 -13 0.5 -29t-26.5 -16h-88q-37 0 -54 31l-161 280q-9 15 -0.5 31t26.5 16h88zM512 0q-158 0 -270.5 112.5t-112.5 270.5v1075q0 32 22.5 55t53.5 23h231q32 0 54 -23t22 -55v-921q0 -78 57 -134.5t136 -56.5h514q79 0 135.5 56.5
t56.5 134.5v921q0 32 22.5 55t53.5 23h231q31 0 53.5 -23t22.5 -55v-1075q0 -158 -112.5 -270.5t-270.5 -112.5h-899z" />
    <glyph glyph-name="Uacute" unicode="&#xda;" horiz-adv-x="1925" 
d="M1012 2064h88q18 0 26.5 -16t-0.5 -31l-161 -280q-15 -31 -54 -31h-88q-19 0 -27 15t1 30l161 283q20 30 54 30zM512 0q-158 0 -270.5 112.5t-112.5 270.5v1075q0 32 22.5 55t53.5 23h231q32 0 54 -23t22 -55v-921q0 -78 57 -134.5t136 -56.5h514q79 0 135.5 56.5
t56.5 134.5v921q0 32 22.5 55t53.5 23h231q31 0 53.5 -23t22.5 -55v-1075q0 -158 -112.5 -270.5t-270.5 -112.5h-899z" />
    <glyph glyph-name="Ucircumflex" unicode="&#xdb;" horiz-adv-x="1925" 
d="M1114 1708q-34 0 -53 31l-82 143q-6 9 -18.5 9t-16.5 -9l-84 -143q-16 -31 -53 -31h-88q-19 0 -27.5 15t0.5 30l172 297q6 16 27 16h141q17 0 27 -16l170 -297q9 -15 0.5 -30t-25.5 -15h-90zM512 0q-158 0 -270.5 112.5t-112.5 270.5v1075q0 32 22.5 55t53.5 23h231
q32 0 54 -23t22 -55v-921q0 -78 57 -134.5t136 -56.5h514q79 0 135.5 56.5t56.5 134.5v921q0 32 22.5 55t53.5 23h231q31 0 53.5 -23t22.5 -55v-1075q0 -158 -112.5 -270.5t-270.5 -112.5h-899z" />
    <glyph glyph-name="Udieresis" unicode="&#xdc;" horiz-adv-x="1925" 
d="M770 1688q-54 0 -91.5 37.5t-37.5 91.5q0 53 37.5 90t91.5 37q52 0 89.5 -37t37.5 -90q0 -54 -37 -91.5t-90 -37.5zM1282 1817q0 -54 -37.5 -91.5t-91.5 -37.5q-53 0 -90 37.5t-37 91.5q0 53 37 90t90 37q54 0 91.5 -37t37.5 -90zM512 0q-158 0 -270.5 112.5
t-112.5 270.5v1075q0 32 22.5 55t53.5 23h231q32 0 54 -23t22 -55v-921q0 -78 57 -134.5t136 -56.5h514q79 0 135.5 56.5t56.5 134.5v921q0 32 22.5 55t53.5 23h231q31 0 53.5 -23t22.5 -55v-1075q0 -158 -112.5 -270.5t-270.5 -112.5h-899z" />
    <glyph glyph-name="Yacute" unicode="&#xdd;" horiz-adv-x="1753" 
d="M928 2064h88q18 0 26.5 -16t-0.5 -31l-161 -280q-21 -31 -54 -31h-90q-17 0 -25.5 15t-0.5 30l163 283q17 30 54 30zM475 659l-393 764q-20 38 2.5 75.5t65.5 37.5h270q48 0 69 -43l238 -487q21 -43 68 -43h163q46 0 70 43l236 487q24 43 69 43h271q43 0 65 -37.5
t2 -75.5l-393 -764q-20 -41 -68 -41h-90q-22 0 -36.5 -14.5t-14.5 -36.5v-489q0 -32 -23 -55t-55 -23h-229q-32 0 -55 23t-23 55v489q0 22 -14.5 36.5t-36.5 14.5h-88q-47 0 -70 41z" />
    <glyph glyph-name="Thorn" unicode="&#xde;" horiz-adv-x="1855" 
d="M1362 1249q158 0 270.5 -112.5t112.5 -270.5v-196q0 -159 -112 -271t-271 -112h-768q-32 0 -55 -23t-23 -55v-133q0 -31 -22 -53.5t-54 -22.5h-231q-31 0 -53.5 22.5t-22.5 53.5v1382q0 32 22.5 55t53.5 23h231q32 0 54 -23t22 -55v-133q0 -31 23 -53.5t55 -22.5h768z
M1362 709v118q0 32 -23 54t-55 22h-690q-32 0 -55 -22t-23 -54v-118q0 -32 23 -55t55 -23h690q32 0 55 23t23 55z" />
    <glyph glyph-name="germandbls" unicode="&#xdf;" horiz-adv-x="1841" 
d="M1638 1001q0 -75 -28 -145q116 -113 116 -276v-197q0 -158 -112.5 -270.5t-270.5 -112.5h-354q-158 0 -270.5 112.5t-112.5 270.5v18q0 31 23 53.5t55 22.5h229q32 0 54 -22.5t22 -53.5q0 -23 17 -39t41 -16h219q32 0 54.5 22t22.5 54v119q0 32 -22.5 54.5t-54.5 22.5
h-379q-32 0 -55 22t-23 54v193q0 32 23 54t55 22h291q31 0 53 22.5t22 54.5v72q0 32 -22 55t-53 23h-594q-32 0 -55 -23t-23 -55v-1036q0 -31 -22 -53.5t-54 -22.5h-231q-31 0 -53.5 22.5t-22.5 53.5v1075q0 160 112.5 272.5t270.5 112.5h747q160 0 272.5 -112.5
t112.5 -272.5v-150z" />
    <glyph glyph-name="agrave" unicode="&#xe0;" 
d="M979 2058q36 0 53 -30l162 -283q9 -13 0 -29t-27 -16h-88q-36 0 -53 31l-162 280q-9 15 -0.5 31t27.5 16h88zM1440 1460l522 -1356q13 -38 -9.5 -71t-62.5 -33h-268q-23 0 -43 13.5t-29 35.5l-82 268q-21 50 -71 50h-733q-23 0 -43 -14t-29 -36l-82 -268
q-9 -22 -29 -35.5t-43 -13.5h-268q-40 0 -62.5 33t-9.5 71l523 1356q12 34 41.5 55t64.5 21h606q35 0 65 -21t42 -55zM1257 713q22 0 34 17.5t5 37.5l-145 377q-7 20 -25.5 32.5t-40.5 12.5h-110q-22 0 -40.5 -12.5t-25.5 -32.5l-145 -377q-7 -20 5 -37.5t34 -17.5h454z" />
    <glyph glyph-name="aacute" unicode="&#xe1;" 
d="M1081 2064h88q17 0 26.5 -16t0.5 -31l-162 -280q-21 -31 -53 -31h-90q-17 0 -26 16t-1 31l164 281q17 30 53 30zM1440 1460l522 -1356q13 -38 -9.5 -71t-62.5 -33h-268q-23 0 -43 13.5t-29 35.5l-82 268q-21 50 -71 50h-733q-23 0 -43 -14t-29 -36l-82 -268
q-9 -22 -29 -35.5t-43 -13.5h-268q-40 0 -62.5 33t-9.5 71l523 1356q12 34 41.5 55t64.5 21h606q35 0 65 -21t42 -55zM1257 713q22 0 34 17.5t5 37.5l-145 377q-7 20 -25.5 32.5t-40.5 12.5h-110q-22 0 -40.5 -12.5t-25.5 -32.5l-145 -377q-7 -20 5 -37.5t34 -17.5h454z" />
    <glyph glyph-name="acircumflex" unicode="&#xe2;" 
d="M1182 1710q-35 0 -54 31l-81 143q-6 9 -18.5 9t-16.5 -9l-84 -143q-16 -31 -54 -31h-88q-19 0 -27 15t1 30l172 297q6 16 26 16h142q16 0 26 -16l170 -297q9 -15 1 -30t-25 -15h-90zM1440 1460l522 -1356q13 -38 -9.5 -71t-62.5 -33h-268q-23 0 -43 13.5t-29 35.5
l-82 268q-21 50 -71 50h-733q-23 0 -43 -14t-29 -36l-82 -268q-9 -22 -29 -35.5t-43 -13.5h-268q-40 0 -62.5 33t-9.5 71l523 1356q12 34 41.5 55t64.5 21h606q35 0 65 -21t42 -55zM1257 713q22 0 34 17.5t5 37.5l-145 377q-7 20 -25.5 32.5t-40.5 12.5h-110
q-22 0 -40.5 -12.5t-25.5 -32.5l-145 -377q-7 -20 5 -37.5t34 -17.5h454z" />
    <glyph glyph-name="atilde" unicode="&#xe3;" 
d="M1243 1985l49 -25q14 -6 19 -20.5t-2 -28.5l-78 -162q-20 -41 -64 -41q-17 0 -30 8l-191 90q-12 6 -26.5 1.5t-20.5 -17.5l-27 -55q-6 -13 -20.5 -19t-26.5 0l-51 25q-13 6 -17.5 21t1.5 28l78 162q20 41 63 41q18 0 31 -8l190 -91q12 -6 26.5 -1t20.5 18l27 55
q6 14 20.5 19.5t28.5 -0.5zM1440 1460l522 -1356q13 -38 -9.5 -71t-62.5 -33h-268q-23 0 -43 13.5t-29 35.5l-82 268q-21 50 -71 50h-733q-23 0 -43 -14t-29 -36l-82 -268q-9 -22 -29 -35.5t-43 -13.5h-268q-40 0 -62.5 33t-9.5 71l523 1356q12 34 41.5 55t64.5 21h606
q35 0 65 -21t42 -55zM1257 713q22 0 34 17.5t5 37.5l-145 377q-7 20 -25.5 32.5t-40.5 12.5h-110q-22 0 -40.5 -12.5t-25.5 -32.5l-145 -377q-7 -20 5 -37.5t34 -17.5h454z" />
    <glyph glyph-name="adieresis" unicode="&#xe4;" 
d="M838 1690q-52 0 -89.5 37t-37.5 90q0 54 37 91.5t90 37.5q54 0 91.5 -37.5t37.5 -91.5q0 -53 -37.5 -90t-91.5 -37zM1350 1817q0 -53 -37 -90t-90 -37q-54 0 -91.5 37t-37.5 90q0 54 37.5 91.5t91.5 37.5q53 0 90 -37.5t37 -91.5zM1440 1460l522 -1356q13 -38 -9.5 -71
t-62.5 -33h-268q-23 0 -43 13.5t-29 35.5l-82 268q-21 50 -71 50h-733q-23 0 -43 -14t-29 -36l-82 -268q-9 -22 -29 -35.5t-43 -13.5h-268q-40 0 -62.5 33t-9.5 71l523 1356q12 34 41.5 55t64.5 21h606q35 0 65 -21t42 -55zM1257 713q22 0 34 17.5t5 37.5l-145 377
q-7 20 -25.5 32.5t-40.5 12.5h-110q-22 0 -40.5 -12.5t-25.5 -32.5l-145 -377q-7 -20 5 -37.5t34 -17.5h454z" />
    <glyph glyph-name="aring" unicode="&#xe5;" 
d="M893 1690q-32 0 -55 22t-23 53v283q0 31 23 53.5t55 22.5h274q32 0 55 -22.5t23 -53.5v-283q0 -31 -23 -53t-55 -22h-274zM969 1939v-65q0 -13 9 -22t21 -9h62q12 0 21.5 9t9.5 22v65q0 12 -9.5 21.5t-21.5 9.5h-62q-12 0 -21 -9.5t-9 -21.5zM1440 1460l522 -1356
q13 -38 -9.5 -71t-62.5 -33h-268q-23 0 -43 13.5t-29 35.5l-82 268q-21 50 -71 50h-733q-23 0 -43 -14t-29 -36l-82 -268q-9 -22 -29 -35.5t-43 -13.5h-268q-40 0 -62.5 33t-9.5 71l523 1356q12 34 41.5 55t64.5 21h606q35 0 65 -21t42 -55zM1257 713q22 0 34 17.5t5 37.5
l-145 377q-7 20 -25.5 32.5t-40.5 12.5h-110q-22 0 -40.5 -12.5t-25.5 -32.5l-145 -377q-7 -20 5 -37.5t34 -17.5h454z" />
    <glyph glyph-name="ae" unicode="&#xe6;" horiz-adv-x="2990" 
d="M170 0q-40 0 -62.5 33t-9.5 71l512 1332q17 44 57 72t87 28h2005q32 0 53.5 -22.5t21.5 -55.5v-192q0 -31 -21.5 -53.5t-53.5 -22.5h-957q-32 0 -55 -23t-23 -55v-72q0 -32 23 -54.5t55 -22.5h850q32 0 55 -22t23 -54v-193q0 -32 -23 -54t-55 -22h-850q-32 0 -55 -22.5
t-23 -54.5v-119q0 -32 23 -54t55 -22h1008q32 0 54 -23t22 -55v-192q0 -31 -22 -53.5t-54 -22.5h-1393q-31 0 -53.5 22.5t-22.5 53.5v215q0 31 -22.5 53.5t-54.5 22.5h-547q-47 0 -87 -27.5t-57 -71.5l-84 -219q-9 -22 -28.5 -35.5t-42.5 -13.5h-248zM772 784
q-10 -26 5.5 -48.5t43.5 -22.5h443q32 0 54.5 21.5t22.5 53.5v324q0 32 -22.5 55t-54.5 23h-285q-23 0 -43 -13.5t-29 -35.5z" />
    <glyph glyph-name="ccedilla" unicode="&#xe7;" horiz-adv-x="1699" 
d="M1079 -330q0 -43 -29.5 -72.5t-72.5 -29.5h-326q-13 0 -21.5 8.5t-8.5 22.5v65q0 12 8.5 21.5t21.5 9.5h244q13 0 22 9.5t9 21.5v49q0 13 -8.5 21.5t-22.5 8.5h-172q-42 0 -72 30.5t-30 72.5v92h-115q-158 0 -270.5 112.5t-112.5 270.5v768q0 160 112.5 272.5
t270.5 112.5h1014q32 0 54.5 -23t22.5 -55v-192q0 -31 -22.5 -53.5t-54.5 -22.5h-822q-79 0 -135.5 -56.5t-56.5 -136.5v-460q0 -78 56.5 -134.5t135.5 -56.5h822q32 0 54.5 -23t22.5 -55v-192q0 -31 -22.5 -53.5t-54.5 -22.5h-746v-35q0 -13 9 -22t22 -9h172q42 0 72 -30
t30 -72v-162z" />
    <glyph glyph-name="egrave" unicode="&#xe8;" horiz-adv-x="1781" 
d="M854 2056q36 0 53 -31l162 -282q9 -13 0 -29t-27 -16h-88q-36 0 -53 31l-162 280q-9 15 -0.5 31t27.5 16h88zM1602 346q32 0 54.5 -23t22.5 -55v-192q0 -31 -22.5 -53.5t-54.5 -22.5h-1393q-31 0 -53.5 22.5t-22.5 53.5v1382q0 32 22.5 55t53.5 23h1341q32 0 55 -23
t23 -55v-192q0 -31 -23 -53.5t-55 -22.5h-956q-32 0 -55 -23t-23 -55v-72q0 -32 23 -54.5t55 -22.5h850q32 0 55 -22t23 -54v-193q0 -32 -23 -54t-55 -22h-850q-32 0 -55 -22.5t-23 -54.5v-119q0 -32 23 -54t55 -22h1008z" />
    <glyph glyph-name="eacute" unicode="&#xe9;" horiz-adv-x="1781" 
d="M956 2062h88q19 0 27.5 -15t-0.5 -30l-162 -282q-21 -31 -53 -31h-90q-17 0 -25.5 16t0.5 31l162 281q17 30 53 30zM1602 346q32 0 54.5 -23t22.5 -55v-192q0 -31 -22.5 -53.5t-54.5 -22.5h-1393q-31 0 -53.5 22.5t-22.5 53.5v1382q0 32 22.5 55t53.5 23h1341
q32 0 55 -23t23 -55v-192q0 -31 -23 -53.5t-55 -22.5h-956q-32 0 -55 -23t-23 -55v-72q0 -32 23 -54.5t55 -22.5h850q32 0 55 -22t23 -54v-193q0 -32 -23 -54t-55 -22h-850q-32 0 -55 -22.5t-23 -54.5v-119q0 -32 23 -54t55 -22h1008z" />
    <glyph glyph-name="ecircumflex" unicode="&#xea;" horiz-adv-x="1781" 
d="M1059 1708q-34 0 -53 31l-82 143q-6 9 -18 9t-17 -9l-84 -143q-15 -31 -53 -31h-88q-19 0 -27.5 15t0.5 30l172 297q6 16 27 16h141q17 0 27 -16l170 -297q9 -15 0.5 -30t-25.5 -15h-90zM1602 346q32 0 54.5 -23t22.5 -55v-192q0 -31 -22.5 -53.5t-54.5 -22.5h-1393
q-31 0 -53.5 22.5t-22.5 53.5v1382q0 32 22.5 55t53.5 23h1341q32 0 55 -23t23 -55v-192q0 -31 -23 -53.5t-55 -22.5h-956q-32 0 -55 -23t-23 -55v-72q0 -32 23 -54.5t55 -22.5h850q32 0 55 -22t23 -54v-193q0 -32 -23 -54t-55 -22h-850q-32 0 -55 -22.5t-23 -54.5v-119
q0 -32 23 -54t55 -22h1008z" />
    <glyph glyph-name="edieresis" unicode="&#xeb;" horiz-adv-x="1781" 
d="M713 1688q-53 0 -90 37t-37 90q0 54 37 91.5t90 37.5q54 0 91.5 -37.5t37.5 -91.5q0 -53 -37.5 -90t-91.5 -37zM1227 1815q0 -53 -37.5 -90t-91.5 -37q-52 0 -89.5 37t-37.5 90q0 54 37 91.5t90 37.5q54 0 91.5 -37.5t37.5 -91.5zM1602 346q32 0 54.5 -23t22.5 -55v-192
q0 -31 -22.5 -53.5t-54.5 -22.5h-1393q-31 0 -53.5 22.5t-22.5 53.5v1382q0 32 22.5 55t53.5 23h1341q32 0 55 -23t23 -55v-192q0 -31 -23 -53.5t-55 -22.5h-956q-32 0 -55 -23t-23 -55v-72q0 -32 23 -54.5t55 -22.5h850q32 0 55 -22t23 -54v-193q0 -32 -23 -54t-55 -22
h-850q-32 0 -55 -22.5t-23 -54.5v-119q0 -32 23 -54t55 -22h1008z" />
    <glyph glyph-name="igrave" unicode="&#xec;" horiz-adv-x="651" 
d="M301 2085q36 0 53 -31l162 -282q9 -14 0 -30t-27 -16h-88q-36 0 -53 31l-162 281q-9 15 -0.5 31t27.5 16h88zM211 0q-32 0 -55 22.5t-23 53.5v1382q0 32 23 55t55 23h229q32 0 55 -23t23 -55v-1382q0 -31 -23 -53.5t-55 -22.5h-229z" />
    <glyph glyph-name="iacute" unicode="&#xed;" horiz-adv-x="651" 
d="M377 2079h88q17 0 26.5 -15t0.5 -30l-164 -283q-17 -31 -52 -31h-90q-17 0 -26 16t0 31l164 281q16 31 53 31zM211 0q-32 0 -55 22.5t-23 53.5v1382q0 32 23 55t55 23h229q32 0 55 -23t23 -55v-1382q0 -31 -23 -53.5t-55 -22.5h-229z" />
    <glyph glyph-name="icircumflex" unicode="&#xee;" horiz-adv-x="651" 
d="M479 1716q-34 0 -53 31l-82 143q-6 9 -18 9t-17 -9l-84 -143q-15 -31 -53 -31h-88q-19 0 -27.5 15t0.5 30l172 297q7 17 27 17h141q17 0 27 -17l170 -297q9 -15 0.5 -30t-25.5 -15h-90zM211 0q-32 0 -55 22.5t-23 53.5v1382q0 32 23 55t55 23h229q32 0 55 -23t23 -55
v-1382q0 -31 -23 -53.5t-55 -22.5h-229z" />
    <glyph glyph-name="idieresis" unicode="&#xef;" horiz-adv-x="651" 
d="M133 1729q-53 0 -90 37t-37 89q0 54 37 92t90 38q54 0 91.5 -38t37.5 -92q0 -53 -37.5 -89.5t-91.5 -36.5zM645 1855q0 -52 -37 -89t-90 -37q-54 0 -91.5 36.5t-37.5 89.5q0 54 37.5 92t91.5 38q53 0 90 -38t37 -92zM211 0q-32 0 -55 22.5t-23 53.5v1382q0 32 23 55
t55 23h229q32 0 55 -23t23 -55v-1382q0 -31 -23 -53.5t-55 -22.5h-229z" />
    <glyph glyph-name="ntilde" unicode="&#xf1;" horiz-adv-x="2056" 
d="M1239 1982l51 -22q13 -7 18 -21.5t-1 -27.5l-78 -162q-20 -41 -64 -41q-19 0 -32 8l-189 90q-14 6 -27.5 1t-19.5 -17l-27 -57q-8 -12 -21.5 -17.5t-27.5 0.5l-51 25q-12 6 -17 20.5t1 26.5l77 164q19 39 66 39q16 0 31 -6l188 -91q14 -7 27.5 -2t21.5 19l27 55
q6 14 19.5 18.5t27.5 -2.5zM133 76v1382q0 32 22.5 55t53.5 23h700q54 0 96 -33t54 -84l258 -1032q10 -41 51 -41h117q22 0 37.5 15t15.5 38v1059q0 32 22.5 55t53.5 23h231q31 0 53.5 -23t22.5 -55v-1382q0 -31 -22.5 -53.5t-53.5 -22.5h-708q-53 0 -95 32.5t-55 84.5
l-256 1032q-4 19 -19 30t-34 11h-107q-23 0 -39 -15.5t-16 -37.5v-1061q0 -31 -22 -53.5t-54 -22.5h-231q-31 0 -53.5 22.5t-22.5 53.5z" />
    <glyph glyph-name="ograve" unicode="&#xf2;" horiz-adv-x="1853" 
d="M874 2058q37 0 54 -30l162 -283q9 -13 0 -29t-27 -16h-88q-36 0 -53 31l-162 280q-9 15 -0.5 31t26.5 16h88zM506 0q-158 0 -270.5 112.5t-112.5 270.5v768q0 160 112.5 272.5t270.5 112.5h840q158 0 270.5 -112.5t112.5 -272.5v-768q0 -158 -112.5 -270.5t-270.5 -112.5
h-840zM506 997v-460q0 -78 56.5 -134.5t135.5 -56.5h455q79 0 136 56.5t57 134.5v460q0 79 -57 136t-136 57h-455q-79 0 -135.5 -56.5t-56.5 -136.5z" />
    <glyph glyph-name="oacute" unicode="&#xf3;" horiz-adv-x="1853" 
d="M977 2064h88q17 0 26.5 -15t0.5 -30l-162 -282q-21 -31 -53 -31h-91q-17 0 -25.5 16t-0.5 31l164 281q17 30 53 30zM506 0q-158 0 -270.5 112.5t-112.5 270.5v768q0 160 112.5 272.5t270.5 112.5h840q158 0 270.5 -112.5t112.5 -272.5v-768q0 -158 -112.5 -270.5
t-270.5 -112.5h-840zM506 997v-460q0 -78 56.5 -134.5t135.5 -56.5h455q79 0 136 56.5t57 134.5v460q0 79 -57 136t-136 57h-455q-79 0 -135.5 -56.5t-56.5 -136.5z" />
    <glyph glyph-name="ocircumflex" unicode="&#xf4;" horiz-adv-x="1853" 
d="M1077 1710q-34 0 -53 31l-82 143q-6 9 -18 9t-17 -9l-84 -143q-15 -31 -53 -31h-88q-19 0 -27.5 15t0.5 30l172 297q6 16 27 16h141q17 0 27 -16l170 -297q9 -15 0.5 -30t-25.5 -15h-90zM506 0q-158 0 -270.5 112.5t-112.5 270.5v768q0 160 112.5 272.5t270.5 112.5h840
q158 0 270.5 -112.5t112.5 -272.5v-768q0 -158 -112.5 -270.5t-270.5 -112.5h-840zM506 997v-460q0 -78 56.5 -134.5t135.5 -56.5h455q79 0 136 56.5t57 134.5v460q0 79 -57 136t-136 57h-455q-79 0 -135.5 -56.5t-56.5 -136.5z" />
    <glyph glyph-name="otilde" unicode="&#xf5;" horiz-adv-x="1853" 
d="M1139 1985l49 -25q13 -6 18.5 -20.5t-0.5 -26.5l-78 -164q-19 -39 -65 -39q-16 0 -31 6l-188 90q-14 7 -28.5 2.5t-20.5 -18.5l-27 -55q-6 -14 -20.5 -19t-26.5 2l-51 23q-13 7 -18 21.5t1 27.5l78 162q20 41 64 41q17 0 30 -8l191 -91q12 -6 26.5 -0.5t20.5 17.5l27 57
q6 12 20.5 17.5t28.5 -0.5zM506 0q-158 0 -270.5 112.5t-112.5 270.5v768q0 160 112.5 272.5t270.5 112.5h840q158 0 270.5 -112.5t112.5 -272.5v-768q0 -158 -112.5 -270.5t-270.5 -112.5h-840zM506 997v-460q0 -78 56.5 -134.5t135.5 -56.5h455q79 0 136 56.5t57 134.5
v460q0 79 -57 136t-136 57h-455q-79 0 -135.5 -56.5t-56.5 -136.5z" />
    <glyph glyph-name="odieresis" unicode="&#xf6;" horiz-adv-x="1853" 
d="M733 1690q-53 0 -90 37t-37 90q0 54 37 91.5t90 37.5q54 0 91.5 -37.5t37.5 -91.5q0 -53 -37.5 -90t-91.5 -37zM1245 1817q0 -53 -37.5 -90t-89.5 -37q-54 0 -91.5 37t-37.5 90q0 54 37.5 91.5t91.5 37.5q53 0 90 -37.5t37 -91.5zM506 0q-158 0 -270.5 112.5
t-112.5 270.5v768q0 160 112.5 272.5t270.5 112.5h840q158 0 270.5 -112.5t112.5 -272.5v-768q0 -158 -112.5 -270.5t-270.5 -112.5h-840zM506 997v-460q0 -78 56.5 -134.5t135.5 -56.5h455q79 0 136 56.5t57 134.5v460q0 79 -57 136t-136 57h-455q-79 0 -135.5 -56.5
t-56.5 -136.5z" />
    <glyph glyph-name="oslash" unicode="&#xf8;" horiz-adv-x="1853" 
d="M1372 1798q26 0 41.5 -21t7.5 -46l-67 -195q156 -5 265.5 -117t109.5 -268v-768q0 -158 -112.5 -270.5t-270.5 -112.5h-523l-73 -211q-11 -31 -38 -50.5t-59 -19.5h-172q-26 0 -41.5 21.5t-7.5 46.5l74 213q-158 0 -270.5 112.5t-112.5 270.5v768q0 160 112.5 272.5
t270.5 112.5h530l68 193q10 32 36.5 50.5t59.5 18.5h172zM506 997v-460q0 -61 34.5 -110t90.5 -69l287 832h-220q-79 0 -135.5 -56.5t-56.5 -136.5zM942 346h211q79 0 136 56.5t57 134.5v460q0 59 -32.5 107t-84.5 70z" />
    <glyph glyph-name="ugrave" unicode="&#xf9;" horiz-adv-x="1734" 
d="M815 2058q36 0 53 -30l162 -283q9 -13 0.5 -29t-26.5 -16h-89q-36 0 -53 31l-162 280q-9 15 -0.5 31t27.5 16h88zM1604 1458v-1075q0 -159 -112 -271t-271 -112h-709q-158 0 -270.5 112.5t-112.5 270.5v1075q0 32 22.5 55t53.5 23h231q32 0 54 -23t22 -55v-921
q0 -78 57 -134.5t136 -56.5h323q79 0 136 56.5t57 134.5v921q0 32 22.5 55t54.5 23h230q32 0 54 -23t22 -55z" />
    <glyph glyph-name="uacute" unicode="&#xfa;" horiz-adv-x="1734" 
d="M918 2064h88q19 0 27 -15t-1 -30l-162 -282q-21 -31 -53 -31h-90q-17 0 -26 16t-1 31l164 281q17 30 54 30zM1604 1458v-1075q0 -159 -112 -271t-271 -112h-709q-158 0 -270.5 112.5t-112.5 270.5v1075q0 32 22.5 55t53.5 23h231q32 0 54 -23t22 -55v-921
q0 -78 57 -134.5t136 -56.5h323q79 0 136 56.5t57 134.5v921q0 32 22.5 55t54.5 23h230q32 0 54 -23t22 -55z" />
    <glyph glyph-name="ucircumflex" unicode="&#xfb;" horiz-adv-x="1734" 
d="M1018 1710q-34 0 -53 31l-82 143q-6 9 -18.5 9t-16.5 -9l-84 -143q-16 -31 -53 -31h-88q-19 0 -27.5 15t0.5 30l172 297q6 16 27 16h141q17 0 27 -16l170 -297q9 -15 0.5 -30t-25.5 -15h-90zM1604 1458v-1075q0 -159 -112 -271t-271 -112h-709q-158 0 -270.5 112.5
t-112.5 270.5v1075q0 32 22.5 55t53.5 23h231q32 0 54 -23t22 -55v-921q0 -78 57 -134.5t136 -56.5h323q79 0 136 56.5t57 134.5v921q0 32 22.5 55t54.5 23h230q32 0 54 -23t22 -55z" />
    <glyph glyph-name="udieresis" unicode="&#xfc;" horiz-adv-x="1734" 
d="M674 1690q-52 0 -89.5 37t-37.5 90q0 54 37 91.5t90 37.5q54 0 91.5 -37.5t37.5 -91.5q0 -53 -37.5 -90t-91.5 -37zM1188 1817q0 -53 -37.5 -90t-91.5 -37q-53 0 -90 37t-37 90q0 54 37 91.5t90 37.5q54 0 91.5 -37.5t37.5 -91.5zM1604 1458v-1075q0 -159 -112 -271
t-271 -112h-709q-158 0 -270.5 112.5t-112.5 270.5v1075q0 32 22.5 55t53.5 23h231q32 0 54 -23t22 -55v-921q0 -78 57 -134.5t136 -56.5h323q79 0 136 56.5t57 134.5v921q0 32 22.5 55t54.5 23h230q32 0 54 -23t22 -55z" />
    <glyph glyph-name="yacute" unicode="&#xfd;" horiz-adv-x="1753" 
d="M928 2064h88q17 0 26 -16t0 -31l-161 -280q-21 -31 -54 -31h-90q-17 0 -25.5 16t-0.5 31l163 281q17 30 54 30zM475 659l-393 764q-20 38 2.5 75.5t65.5 37.5h270q22 0 41 -12t28 -31l238 -487q21 -43 68 -43h163q46 0 70 43l236 487q24 43 69 43h271q43 0 65 -37.5
t2 -75.5l-393 -764q-20 -41 -68 -41h-90q-22 0 -36.5 -14.5t-14.5 -36.5v-491q0 -31 -23 -53.5t-55 -22.5h-229q-32 0 -55 22.5t-23 53.5v491q0 22 -14.5 36.5t-36.5 14.5h-88q-47 0 -70 41z" />
    <glyph glyph-name="thorn" unicode="&#xfe;" horiz-adv-x="1855" 
d="M1362 1249q158 0 270.5 -112.5t112.5 -270.5v-196q0 -158 -112.5 -270.5t-270.5 -112.5h-768q-32 0 -55 -23t-23 -55v-133q0 -31 -22 -53.5t-54 -22.5h-231q-31 0 -53.5 22.5t-22.5 53.5v1382q0 32 22.5 55t53.5 23h231q32 0 54 -23t22 -55v-133q0 -31 23 -53.5t55 -22.5
h768zM1362 709v118q0 32 -23 54t-55 22h-690q-32 0 -55 -22t-23 -54v-118q0 -32 23 -55t55 -23h690q32 0 55 23t23 55z" />
    <glyph glyph-name="ydieresis" unicode="&#xff;" horiz-adv-x="1753" 
d="M684 1690q-52 0 -89.5 37t-37.5 90q0 54 37 91.5t90 37.5q54 0 91.5 -37.5t37.5 -91.5q0 -53 -37.5 -90t-91.5 -37zM1196 1817q0 -53 -37 -90t-90 -37q-54 0 -90.5 37t-36.5 90q0 54 36.5 91.5t90.5 37.5q53 0 90 -37.5t37 -91.5zM475 659l-393 764q-20 38 2.5 75.5
t65.5 37.5h270q22 0 41 -12t28 -31l238 -487q21 -43 68 -43h163q46 0 70 43l236 487q24 43 69 43h271q43 0 65 -37.5t2 -75.5l-393 -764q-20 -41 -68 -41h-90q-22 0 -36.5 -14.5t-14.5 -36.5v-491q0 -31 -23 -53.5t-55 -22.5h-229q-32 0 -55 22.5t-23 53.5v491
q0 22 -14.5 36.5t-36.5 14.5h-88q-47 0 -70 41z" />
    <glyph glyph-name="Dcroat" unicode="&#x110;" horiz-adv-x="2199" 
d="M1692 1536q160 0 272.5 -112.5t112.5 -272.5v-768q0 -158 -112.5 -270.5t-272.5 -112.5h-1289q-32 0 -54.5 22.5t-22.5 53.5v491q0 22 -15 36.5t-37 14.5h-168q-31 0 -53 22t-22 54v193q0 32 22 54t53 22h168q22 0 37 15.5t15 35.5v444q0 32 22.5 55t54.5 23h1289z
M1692 537v460q0 80 -56 136.5t-135 56.5h-715q-31 0 -53 -23t-22 -55v-98q0 -21 15 -36t36 -15h196q31 0 53.5 -22t22.5 -54v-193q0 -32 -22.5 -54t-53.5 -22h-196q-22 0 -36.5 -14.5t-14.5 -36.5v-145q0 -32 22 -54t53 -22h715q79 0 135 56.5t56 134.5z" />
    <glyph glyph-name="dcroat" unicode="&#x111;" horiz-adv-x="2199" 
d="M1692 1536q160 0 272.5 -112.5t112.5 -272.5v-768q0 -158 -112.5 -270.5t-272.5 -112.5h-1289q-32 0 -54.5 22.5t-22.5 53.5v491q0 22 -15 36.5t-37 14.5h-168q-31 0 -53 22t-22 54v193q0 32 22 54t53 22h168q22 0 37 15.5t15 35.5v444q0 32 22.5 55t54.5 23h1289z
M1692 537v460q0 80 -56 136.5t-135 56.5h-715q-31 0 -53 -23t-22 -55v-98q0 -21 15 -36t36 -15h196q31 0 53.5 -22t22.5 -54v-193q0 -32 -22.5 -54t-53.5 -22h-196q-22 0 -36.5 -14.5t-14.5 -36.5v-145q0 -32 22 -54t53 -22h715q79 0 135 56.5t56 134.5z" />
    <glyph glyph-name="dotlessi" unicode="&#x131;" horiz-adv-x="651" 
d="M211 0q-32 0 -55 22.5t-23 53.5v1382q0 32 23 55t55 23h229q32 0 55 -23t23 -55v-1382q0 -31 -23 -53.5t-55 -22.5h-229z" />
    <glyph glyph-name="Lslash" unicode="&#x141;" horiz-adv-x="1570" 
d="M211 0q-32 0 -55 23t-23 55v379l-55 -29q-29 -16 -60 -16q-76 0 -112 67q-26 47 -10.5 98t61.5 76l176 95v710q0 32 23 55t55 23h229q32 0 54 -23t22 -55v-506l47 25q25 14 60 14q34 0 64.5 -17.5t47.5 -49.5q25 -46 9.5 -96.5t-62.5 -75.5l-166 -90v-240q0 -32 23 -54
t55 -22h827q32 0 54 -23t22 -55v-190q0 -32 -22 -55t-54 -23h-1210z" />
    <glyph glyph-name="lslash" unicode="&#x142;" horiz-adv-x="1380" 
d="M211 0q-32 0 -55 22.5t-23 53.5v342l-55 -23q-20 -10 -51 -10q-38 0 -71 20.5t-48 55.5q-21 49 -1.5 98.5t68.5 69.5l158 69v760q0 32 23 55t55 23h229q32 0 54 -23t22 -55v-596l86 37q20 10 51 10q38 0 70 -20t47 -55q21 -50 2 -99t-67 -71l-189 -80v-162q0 -32 23 -54
t55 -22h637q32 0 55 -23t23 -55v-192q0 -31 -23 -53.5t-55 -22.5h-1020z" />
    <glyph glyph-name="OE" unicode="&#x152;" horiz-adv-x="3184" 
d="M3004 346q31 0 53.5 -23t22.5 -55v-192q0 -31 -22.5 -53.5t-53.5 -22.5h-2498q-158 0 -270.5 112.5t-112.5 270.5v768q0 160 112.5 272.5t270.5 112.5h2447q31 0 53.5 -23t22.5 -55v-192q0 -31 -22.5 -53.5t-53.5 -22.5h-958q-31 0 -53.5 -23t-22.5 -55v-72
q0 -32 22.5 -54.5t53.5 -22.5h852q31 0 53 -22t22 -54v-193q0 -32 -22 -54t-53 -22h-852q-31 0 -53.5 -22.5t-22.5 -54.5v-119q0 -32 22.5 -54t53.5 -22h1009zM1536 537v460q0 79 -57 136t-136 57h-645q-79 0 -135.5 -56.5t-56.5 -136.5v-460q0 -78 56.5 -134.5t135.5 -56.5
h645q79 0 136 56.5t57 134.5z" />
    <glyph glyph-name="oe" unicode="&#x153;" horiz-adv-x="3184" 
d="M3004 346q31 0 53.5 -23t22.5 -55v-192q0 -31 -22.5 -53.5t-53.5 -22.5h-2498q-158 0 -270.5 112.5t-112.5 270.5v768q0 160 112.5 272.5t270.5 112.5h2447q31 0 53.5 -23t22.5 -55v-192q0 -31 -22.5 -53.5t-53.5 -22.5h-958q-31 0 -53.5 -23t-22.5 -55v-72
q0 -32 22.5 -54.5t53.5 -22.5h852q31 0 53 -22t22 -54v-193q0 -32 -22 -54t-53 -22h-852q-31 0 -53.5 -22.5t-22.5 -54.5v-119q0 -32 22.5 -54t53.5 -22h1009zM1536 537v460q0 79 -57 136t-136 57h-645q-79 0 -135.5 -56.5t-56.5 -136.5v-460q0 -78 56.5 -134.5t135.5 -56.5
h645q79 0 136 56.5t57 134.5z" />
    <glyph glyph-name="Scaron" unicode="&#x160;" horiz-adv-x="1921" 
d="M1112 2060h90q17 0 26.5 -15t0.5 -30l-172 -297q-10 -16 -27 -16h-141q-17 0 -27 16l-172 297q-8 15 1 30t26 15h90q36 0 51 -30l84 -144q6 -9 17.5 -9t17.5 9l84 144q15 30 51 30zM1681 1536q32 0 54 -23t22 -55v-192q0 -31 -22 -53.5t-54 -22.5h-1509q-22 0 -35 16
t-10 37q22 125 129.5 209t249.5 84h1175zM1413 0h-1214q-31 0 -53.5 22.5t-22.5 53.5v192q0 32 22.5 55t53.5 23h1136q32 0 55 22t23 54v119q0 32 -23 54.5t-55 22.5h-829q-142 0 -248.5 82.5t-128.5 206.5q-1 10 -1 22.5t13 23t37 10.5h1235q158 0 270.5 -112.5
t112.5 -270.5v-197q0 -158 -112.5 -270.5t-270.5 -112.5z" />
    <glyph glyph-name="scaron" unicode="&#x161;" horiz-adv-x="1921" 
d="M1112 2060h90q17 0 26.5 -15t0.5 -30l-172 -297q-10 -16 -27 -16h-141q-17 0 -27 16l-172 297q-8 15 1 30t26 15h90q36 0 51 -30l84 -144q6 -9 17.5 -9t17.5 9l84 144q15 30 51 30zM1796 383q0 -158 -112.5 -270.5t-270.5 -112.5h-1214q-31 0 -53.5 22.5t-22.5 53.5v192
q0 32 22.5 55t53.5 23h1136q32 0 55 22t23 54v119q0 32 -23 54.5t-55 22.5h-829q-158 0 -270.5 112.5t-112.5 270.5v150q0 160 112.5 272.5t270.5 112.5h1175q32 0 54 -23t22 -55v-192q0 -31 -22 -53.5t-54 -22.5h-1097q-32 0 -55 -23t-23 -55v-72q0 -32 23 -54.5t55 -22.5
h829q158 0 270.5 -112.5t112.5 -270.5v-197z" />
    <glyph glyph-name="Ydieresis" unicode="&#x178;" horiz-adv-x="1753" 
d="M684 1690q-52 0 -89.5 37t-37.5 90q0 54 37 91.5t90 37.5q54 0 91.5 -37.5t37.5 -91.5q0 -53 -37.5 -90t-91.5 -37zM1196 1817q0 -53 -37 -90t-90 -37q-54 0 -90.5 37t-36.5 90q0 54 36.5 91.5t90.5 37.5q53 0 90 -37.5t37 -91.5zM475 659l-393 764q-20 38 2.5 75.5
t65.5 37.5h270q48 0 69 -43l238 -487q21 -43 68 -43h163q46 0 70 43l236 487q24 43 69 43h271q43 0 65 -37.5t2 -75.5l-393 -764q-20 -41 -68 -41h-90q-22 0 -36.5 -14.5t-14.5 -36.5v-489q0 -32 -23 -55t-55 -23h-229q-32 0 -55 23t-23 55v489q0 22 -14.5 36.5t-36.5 14.5
h-88q-47 0 -70 41z" />
    <glyph glyph-name="Zcaron" unicode="&#x17d;" horiz-adv-x="1669" 
d="M985 2060h90q17 0 26.5 -15t0.5 -30l-172 -297q-10 -16 -27 -16h-141q-17 0 -27 16l-172 297q-8 15 1 30t26 15h90q36 0 51 -30l84 -144q6 -9 17.5 -9t17.5 9l84 144q15 30 51 30zM219 1190q-31 0 -53.5 22.5t-22.5 53.5v192q0 32 22.5 55t53.5 23l1247 2q32 0 54 -23
t22 -55v-192q0 -31 -22 -53.5t-54 -22.5zM178 0q-31 0 -53.5 22.5t-22.5 53.5v258q0 74 58 119l690 565q48 33 98 33h408q29 0 38.5 -26.5t-12.5 -45.5l-694 -565q-20 -17 -10.5 -42.5t35.5 -25.5h776q32 0 54 -23t22 -55v-192q0 -31 -22 -53.5t-54 -22.5h-1311z" />
    <glyph glyph-name="zcaron" unicode="&#x17e;" horiz-adv-x="1669" 
d="M985 2058h90q17 0 26.5 -15t0.5 -30l-172 -297q-10 -16 -27 -16h-141q-17 0 -27 16l-172 297q-8 15 1 30t26 15h90q36 0 51 -30l84 -144q6 -9 17.5 -9t17.5 9l84 144q15 30 51 30zM178 0q-31 0 -53.5 22.5t-22.5 53.5v258q0 74 58 119l819 669q22 17 12.5 42.5
t-37.5 25.5h-725q-31 0 -53 22.5t-22 53.5v192q0 32 22 55t53 23h1260q32 0 54 -23t22 -55v-256q0 -73 -56 -119l-821 -669q-20 -17 -10.5 -42.5t35.5 -25.5h776q32 0 54 -23t22 -55v-192q0 -31 -22 -53.5t-54 -22.5h-1311z" />
    <glyph glyph-name="circumflex" unicode="&#x2c6;" horiz-adv-x="733" 
d="M520 1196q-34 0 -53 31l-82 143q-6 9 -18.5 9t-16.5 -9l-84 -143q-16 -31 -53 -31h-88q-19 0 -27.5 15t0.5 30l172 297q6 16 27 16h141q17 0 27 -16l170 -297q9 -15 0.5 -30t-25.5 -15h-90z" />
    <glyph glyph-name="caron" unicode="&#x2c7;" horiz-adv-x="731" 
d="M518 1550h90q17 0 26.5 -15t0.5 -30l-172 -297q-10 -16 -27 -16h-141q-17 0 -27 16l-172 297q-8 15 1 30t26 15h90q36 0 51 -30l84 -144q6 -9 17.5 -9t17.5 9l84 144q15 30 51 30z" />
    <glyph glyph-name="breve" unicode="&#x2d8;" horiz-adv-x="614" 
d="M229 1235q-57 0 -97 40t-40 97v133q0 12 9.5 21.5t21.5 9.5h92q12 0 21.5 -9.5t9.5 -21.5v-88q0 -12 9 -21.5t21 -9.5h60q13 0 22 9.5t9 21.5v88q0 12 9 21.5t21 9.5h92q13 0 22 -9.5t9 -21.5v-143q0 -54 -37 -90.5t-90 -36.5h-164z" />
    <glyph glyph-name="dotaccent" unicode="&#x2d9;" horiz-adv-x="440" 
d="M219 1288q-53 0 -90 37t-37 90q0 54 37 91.5t90 37.5q54 0 91.5 -37.5t37.5 -91.5q0 -53 -37.5 -90t-91.5 -37z" />
    <glyph glyph-name="ring" unicode="&#x2da;" horiz-adv-x="614" 
d="M170 1180q-32 0 -55 22.5t-23 54.5v281q0 32 23 55t55 23h274q32 0 55 -23t23 -55v-281q0 -32 -23 -54.5t-55 -22.5h-274zM246 1432v-68q0 -12 9 -21.5t21 -9.5h62q12 0 21.5 9.5t9.5 21.5v68q0 12 -9.5 21t-21.5 9h-62q-12 0 -21 -9t-9 -21z" />
    <glyph glyph-name="ogonek" unicode="&#x2db;" horiz-adv-x="583" 
d="M195 -387q-41 0 -72 30.5t-31 71.5v283h154v-225q0 -13 9 -22t21 -9h183q12 0 21 -9.5t9 -21.5v-67q0 -12 -9 -21.5t-21 -9.5h-264z" />
    <glyph glyph-name="tilde" unicode="&#x2dc;" horiz-adv-x="747" 
d="M582 1511l51 -24q14 -6 18.5 -19.5t-2.5 -27.5l-78 -162q-18 -41 -63 -41q-16 0 -31 6l-190 92q-12 6 -26.5 0.5t-20.5 -18.5l-27 -55q-6 -13 -20.5 -18t-26.5 1l-51 25q-13 6 -18 20t1 27l78 162q18 41 64 41q12 0 30 -7l191 -92q12 -6 26.5 -0.5t20.5 17.5l27 57
q6 13 20.5 17.5t26.5 -1.5z" />
    <glyph glyph-name="hungarumlaut" unicode="&#x2dd;" horiz-adv-x="806" 
d="M401 1538q19 0 27.5 -15t-0.5 -30l-162 -283q-17 -30 -53 -30h-88q-19 0 -27.5 16t0.5 31l162 280q17 31 53 31h88zM682 1538q19 0 27.5 -15t-0.5 -30l-162 -283q-17 -30 -53 -30h-88q-19 0 -27.5 16t0.5 31l162 280q17 31 53 31h88z" />
    <glyph glyph-name="quoteleft" unicode="&#x2018;" horiz-adv-x="569" 
d="M399 1337q32 0 55 -22.5t23 -54.5v-230q0 -32 -23 -54t-55 -22h-229q-32 0 -55 22t-23 54v270q0 31 17 70l77 150q7 18 27 18h41q12 0 21.5 -9.5t9.5 -21.5v-118q0 -22 14.5 -37t36.5 -15h63z" />
    <glyph glyph-name="quoteright" unicode="&#x2019;" horiz-adv-x="569" 
d="M285 1102q0 20 -16 35.5t-36 15.5h-65q-31 0 -53.5 22t-22.5 54v231q0 31 22.5 53.5t53.5 22.5h231q32 0 54 -22.5t22 -53.5v-270q0 -43 -16 -70l-76 -151q-10 -17 -29 -17h-39q-13 0 -21.5 9.5t-8.5 21.5v119z" />
    <glyph glyph-name="quotedblleft" unicode="&#x201c;" horiz-adv-x="1038" 
d="M946 1028q0 -31 -23 -53.5t-55 -22.5h-229q-32 0 -55 22.5t-23 53.5v270q0 36 17 70l77 152q6 16 27 16h41q12 0 21.5 -9.5t9.5 -21.5v-119q0 -22 14.5 -36.5t36.5 -14.5h63q32 0 55 -22t23 -53v-232zM401 1335q31 0 53.5 -22t22.5 -53v-232q0 -31 -22.5 -53.5
t-53.5 -22.5h-231q-31 0 -53.5 22.5t-22.5 53.5v270q0 36 17 70l75 152q10 16 29 16h39q13 0 22 -9.5t9 -21.5v-119q0 -21 15 -36t36 -15h65z" />
    <glyph glyph-name="quotedblright" unicode="&#x201d;" horiz-adv-x="1036" 
d="M285 1102q0 20 -16 35.5t-36 15.5h-65q-31 0 -53.5 22t-22.5 54v231q0 31 22.5 53.5t53.5 22.5h231q32 0 54 -22.5t22 -53.5v-270q0 -43 -16 -70l-76 -151q-10 -17 -29 -17h-39q-13 0 -21.5 9.5t-8.5 21.5v119zM782 952q-12 0 -21 9.5t-9 21.5v119q0 20 -15 35.5
t-37 15.5h-63q-32 0 -55 22t-23 54v231q0 31 23 53.5t55 22.5h229q32 0 55 -22.5t23 -53.5v-270q0 -38 -16 -70l-78 -151q-7 -17 -27 -17h-41z" />
    <glyph glyph-name="Euro" unicode="&#x20ac;" horiz-adv-x="1822" 
d="M1604 1536q32 0 53.5 -22.5t21.5 -55.5v-192q0 -31 -21.5 -53.5t-53.5 -22.5h-783q-53 0 -98 -26.5t-70 -71.5q-8 -12 0 -24.5t23 -12.5h653q32 0 55 -23t23 -55v-103q0 -31 -23 -53t-55 -22h-676q-10 0 -17 -8t-7 -19v-24q0 -11 7 -19t17 -8h676q32 0 55 -22.5t23 -53.5
v-102q0 -32 -23 -55t-55 -23h-643q-15 0 -22 -13.5t2 -27.5q58 -78 155 -78h821q31 0 53.5 -23t22.5 -55v-192q0 -31 -22.5 -53.5t-53.5 -22.5h-1013q-160 0 -272.5 112.5t-112.5 270.5v57q0 10 -7 17.5t-18 7.5h-51q-31 0 -53.5 23t-22.5 55v102q0 31 22.5 53.5t53.5 22.5
h51q10 0 17.5 8t7.5 19v24q0 11 -7.5 19t-17.5 8h-51q-31 0 -53.5 22t-22.5 53v103q0 32 22.5 55t53.5 23h51q11 0 18 7t7 17v72q0 160 112.5 272.5t272.5 112.5h975z" />
    <glyph glyph-name="uniE000" unicode="&#xe000;" horiz-adv-x="3307" 
d="M3138 1536q32 0 54.5 -23t22.5 -55v-192q0 -31 -22.5 -53.5t-54.5 -22.5h-2440q-79 0 -135.5 -56.5t-56.5 -136.5v-460q0 -78 56.5 -134.5t135.5 -56.5h822q32 0 54.5 -23t22.5 -55v-192q0 -31 -22.5 -53.5t-54.5 -22.5h-1014q-158 0 -270.5 112.5t-112.5 270.5v768
q0 160 112.5 272.5t270.5 112.5h2632zM2488 1051q32 0 55 -22t23 -54v-899q0 -31 -23 -53.5t-55 -22.5h-229q-32 0 -55 22.5t-23 53.5v899q0 32 23 54t55 22h229z" />
    <glyph glyph-name="uniE001" unicode="&#xe001;" horiz-adv-x="3584" 
d="M3414 1190h-3242q-22 0 -35 16t-10 37q22 125 129.5 209t249.5 84h2908q32 0 55 -23t23 -55v-192q0 -31 -23 -53.5t-55 -22.5zM2765 1051q32 0 55 -22t23 -54v-899q0 -31 -23 -53.5t-55 -22.5h-230q-32 0 -54.5 22.5t-22.5 53.5v899q0 32 22.5 54t54.5 22h230zM1413 0
h-1214q-31 0 -53.5 23t-22.5 55v190q0 32 22.5 55t53.5 23h1136q32 0 55 22t23 54v119q0 32 -23 54.5t-55 22.5h-829q-142 0 -248.5 82.5t-128.5 206.5q-1 10 -1 22.5t13 23t37 10.5h1235q158 0 270.5 -112.5t112.5 -270.5v-197q0 -158 -112.5 -270.5t-270.5 -112.5z" />
    <glyph glyph-name="uniE002" unicode="&#xe002;" horiz-adv-x="1888" 
d="M1380 1536q158 0 270.5 -112.5t112.5 -272.5v-1075q0 -31 -22 -53.5t-53 -22.5h-1207q-158 0 -270.5 112.5t-112.5 270.5v197q0 158 112.5 270.5t270.5 112.5h822q32 0 54.5 22.5t22.5 54.5v72q0 32 -22.5 55t-54.5 23h-1039q-32 0 -54 22.5t-22 53.5v192q0 32 22 55
t54 23h1116zM1380 422v119q0 32 -22.5 54.5t-54.5 22.5h-744q-32 0 -55 -22.5t-23 -54.5v-119q0 -32 23 -54t55 -22h744q32 0 54.5 22t22.5 54z" />
    <glyph glyph-name="uniE003" unicode="&#xe003;" horiz-adv-x="1835" 
d="M584 571q-32 0 -55 -22t-23 -53v-74q0 -32 23 -54t55 -22h1061q32 0 54.5 -23t22.5 -55v-192q0 -31 -22.5 -53.5t-54.5 -22.5h-1139q-158 0 -270.5 112.5t-112.5 270.5v768q0 160 112.5 272.5t270.5 112.5h831q160 0 272.5 -112.5t112.5 -272.5v-195
q0 -160 -112.5 -272.5t-272.5 -112.5h-753zM506 1112v-119q0 -31 23 -53t55 -22h678q32 0 53.5 22t21.5 53v119q0 33 -21.5 55.5t-53.5 22.5h-678q-32 0 -55 -23t-23 -55z" />
    <glyph glyph-name="uniE004" unicode="&#xe004;" horiz-adv-x="1769" 
d="M1550 1190h-1341q-31 0 -53.5 22.5t-22.5 53.5v192q0 32 22.5 55t53.5 23h1341q32 0 55 -23t23 -55v-192q0 -31 -23 -53.5t-55 -22.5zM1399 940q32 0 54 -22.5t22 -53.5v-192q0 -32 -22 -55t-54 -23h-1190q-31 0 -53.5 23t-22.5 55v192q0 31 22.5 53.5t53.5 22.5h1190z
M1589 0h-1380q-31 0 -53.5 22.5t-22.5 53.5v192q0 32 22.5 55t53.5 23h1380q31 0 53.5 -23t22.5 -55v-192q0 -31 -22.5 -53.5t-53.5 -22.5z" />
    <glyph glyph-name="uniE005" unicode="&#xe005;" horiz-adv-x="1806" 
d="M1085 1536q158 0 270.5 -112.5t112.5 -272.5v-193q0 -30 27 -43q89 -50 143 -140t54 -195v-197q0 -158 -112.5 -270.5t-270.5 -112.5h-1100q-31 0 -53.5 22.5t-22.5 53.5v186q0 34 24 59t58 25h1016q32 0 55 22t23 54v119q0 32 -23 54.5t-55 22.5h-1016q-35 0 -58.5 23.5
t-23.5 58.5v187q0 32 22.5 54t53.5 22h799q32 0 54.5 22.5t22.5 54.5v72q0 32 -22.5 55t-54.5 23h-799q-31 0 -53.5 22.5t-22.5 53.5v192q0 32 22.5 55t53.5 23h876z" />
    <glyph glyph-name="uniE006" unicode="&#xe006;" horiz-adv-x="1984" 
d="M1182 713q22 0 34 17.5t5 37.5l-146 377q-7 20 -25 32.5t-40 12.5h-396q-36 0 -55 29q-21 31 -8 63l70 178q12 34 41.5 55t64.5 21h530q35 0 65 -21t42 -55l522 -1356q14 -38 -8.5 -71t-62.5 -33h-269q-23 0 -42.5 13.5t-28.5 35.5l-82 268q-9 22 -29 36t-43 14h-657
q-23 0 -43 -14t-29 -36l-82 -268q-9 -22 -29 -35.5t-43 -13.5h-268q-40 0 -62.5 33t-9.5 71q138 355 201 523q15 38 49.5 62t75.5 24h758z" />
    <glyph glyph-name="uniE007" unicode="&#xe007;" 
d="M1890 0h-1089q-40 0 -62.5 33t-9.5 71l68 177q12 29 38 47t58 18h453q41 0 63.5 33.5t7.5 71.5l-264 690q-9 22 -29 35.5t-43 13.5h-102q-23 0 -43 -13.5t-29 -35.5l-393 -1092q-8 -22 -27.5 -35.5t-44.5 -13.5h-272q-40 0 -62.5 33t-9.5 71l523 1356q12 34 41.5 55
t64.5 21h606q35 0 65 -21t42 -55l522 -1356q13 -38 -9.5 -71t-62.5 -33z" />
    <glyph glyph-name="uniE008" unicode="&#xe008;" horiz-adv-x="2043" 
d="M184 0q-47 0 -75 40.5t-11 84.5l514 1335q12 34 42 55t65 21h606q35 0 65 -21t42 -55l514 -1335q17 -44 -11 -84.5t-75 -40.5h-226q-23 0 -42.5 13.5t-28.5 35.5l-420 1096q-7 20 -25.5 32.5t-40.5 12.5h-110q-22 0 -40.5 -12.5t-25.5 -32.5l-420 -1096
q-9 -22 -28.5 -35.5t-42.5 -13.5h-226z" />
    </font>
</defs>
</svg>
