<?xml version="1.0" standalone="no"?>
<!DOCTYPE svg PUBLIC "-//W3C//DTD SVG 1.1//EN" "http://www.w3.org/Graphics/SVG/1.1/DTD/svg11.dtd" >
<svg xmlns="http://www.w3.org/2000/svg" xmlns:xlink="http://www.w3.org/1999/xlink" version="1.1">
<metadata>
Created by FontForge 20201107 at Tue Jan 25 00:41:18 2022
 By 
Copyright (c) 2022 by Typia Nesia Std. All rights reserved.
</metadata>
<defs>
<font id="Rigamesh-Regular" horiz-adv-x="1006" >
  <font-face 
    font-family="Rigamesh"
    font-weight="400"
    font-stretch="normal"
    units-per-em="1000"
    panose-1="0 0 0 0 0 0 0 0 0 0"
    ascent="750"
    descent="-250"
    x-height="750"
    cap-height="750"
    bbox="-54.2439 -224 1705 1037"
    underline-thickness="50"
    underline-position="-125"
    unicode-range="U+000D-FB02"
  />
<missing-glyph horiz-adv-x="280" 
 />
    <glyph glyph-name="fi" unicode="fi" horiz-adv-x="1416" 
d="M978 551q-3 13 -13 21.5t-24 8.5h-839q-15 0 -26 11t-11 26v94q0 16 11 27t26 11h1213q15 0 26 -11t11 -27v-94q0 -15 -11 -26t-26 -11h-113q-14 0 -24 -8.5t-12 -21.5v-353q2 -13 12 -21t24 -8h113q15 0 26 -11t11 -27v-94q0 -15 -11 -26t-26 -11h-486q-16 0 -27 11
t-11 26v94q0 16 11 27t27 11h112q14 0 24 8t13 21v353zM660 470q16 0 27 -10.5t11 -26.5v-94q0 -16 -11 -26.5t-27 -10.5h-370q-16 0 -27 -11t-11 -27v-227q0 -15 -10.5 -26t-26.5 -11h-113q-15 0 -26 11t-11 26v396q0 16 11 26.5t26 10.5h558z" />
    <glyph glyph-name="fl" unicode="fl" horiz-adv-x="1510" 
d="M1014 750q15 0 26 -11t11 -27v-506q0 -16 11 -26.5t26 -10.5h349q16 0 26.5 -11t10.5 -27v-94q0 -15 -10.5 -26t-26.5 -11h-536q-16 0 -26.5 11t-10.5 26v512q0 12 -10 22q-9 10 -23 10h-729q-15 0 -26 11t-11 26v94q0 16 11 27t26 11h912zM642 470q15 0 26 -10.5
t11 -26.5v-94q0 -16 -11 -26.5t-26 -10.5h-352q-16 0 -27 -11t-11 -27v-227q0 -15 -10.5 -26t-26.5 -11h-113q-15 0 -26 11t-11 26v396q0 16 11 26.5t26 10.5h540z" />
    <glyph glyph-name=".notdef" horiz-adv-x="280" 
 />
    <glyph glyph-name=".null" horiz-adv-x="0" 
 />
    <glyph glyph-name=".null" horiz-adv-x="0" 
 />
    <glyph glyph-name="uni000D" unicode="&#xd;" horiz-adv-x="250" 
 />
    <glyph glyph-name="space" unicode=" " horiz-adv-x="350" 
 />
    <glyph glyph-name="exclam" unicode="!" horiz-adv-x="330" 
d="M221 751q15 0 26 -11t11 -27v-435q0 -16 -11 -26.5t-26 -10.5h-113q-15 0 -26 10.5t-11 26.5v435q0 16 11 27t26 11h113zM165 180q42 0 70.5 -28.5t28.5 -70.5t-28.5 -70.5t-70.5 -28.5t-70.5 28.5t-28.5 70.5t28.5 70.5t70.5 28.5z" />
    <glyph glyph-name="quotedbl" unicode="&#x22;" horiz-adv-x="368" 
d="M140 717q11 0 18.5 -8t6.5 -19l-18 -199q-2 -16 -18 -16h-48q-15 0 -17 16l-19 199q-1 11 6.5 19t18.5 8h70zM297 717q11 0 19 -8t6 -19l-18 -199q-2 -16 -18 -16h-48q-15 0 -17 16l-19 199q-1 11 6.5 19t18.5 8h70z" />
    <glyph glyph-name="numbersign" unicode="#" horiz-adv-x="942" 
d="M874 570q9 0 15.5 -6.5t6.5 -16.5v-80q0 -9 -6.5 -15.5t-15.5 -6.5h-121q-12 0 -21.5 -7t-13.5 -18l-36 -98q-2 -8 2 -14t12 -6h109q10 0 16.5 -6.5t6.5 -16.5v-80q0 -9 -6.5 -15.5t-16.5 -6.5h-150q-11 0 -21 -7t-14 -18l-43 -118q-5 -15 -18 -24.5t-30 -9.5h-83
q-13 0 -21 10.5t-3 22.5l45 124q3 7 -1.5 13.5t-12.5 6.5h-105q-12 0 -21.5 -7t-13.5 -18l-44 -118q-5 -15 -18 -24.5t-29 -9.5h-84q-13 0 -20.5 10.5t-2.5 22.5l45 124q2 7 -2 13.5t-12 6.5h-79q-9 0 -15.5 6.5t-6.5 15.5v80q0 10 6.5 16.5t15.5 6.5h120q11 0 21 6.5
t14 17.5l36 99q2 7 -2 13.5t-12 6.5h-108q-10 0 -16.5 6.5t-6.5 15.5v80q0 10 6.5 16.5t16.5 6.5h149q25 0 35 24l44 122q5 15 18 24.5t30 9.5h83q14 0 21.5 -10.5t2.5 -23.5l-46 -126q-3 -8 1.5 -14t12.5 -6h105q12 0 21.5 6.5t13.5 17.5l45 122q5 15 18 24.5t29 9.5h84
q13 0 20.5 -10.5t2.5 -23.5l-46 -126q-3 -8 1.5 -14t12.5 -6h80zM565 425q3 7 -1.5 13.5t-12.5 6.5h-105q-12 0 -21.5 -7t-13.5 -18l-36 -98q-3 -8 1.5 -14t12.5 -6h105q12 0 21.5 6.5t13.5 17.5z" />
    <glyph glyph-name="dollar" unicode="$" horiz-adv-x="888" 
d="M640 434q39 0 73 -14.5t59.5 -40t40 -59.5t14.5 -73v-40q0 -39 -14.5 -73t-40 -59.5t-59.5 -40t-73 -14.5h-78q-11 0 -18 -7t-7 -18v-70q0 -16 -11 -26.5t-26 -10.5h-113q-15 0 -26 10.5t-11 26.5v70q0 11 -7 18t-18 7h-228q-15 0 -26 11t-11 27v93q0 16 11 27t26 11h505
q16 0 27 10.5t11 26.5v2q0 15 -11 26t-27 11h-355q-39 0 -73 15t-59.5 40.5t-40 59.5t-14.5 73v38q0 39 14.5 73t40 59.5t59.5 40t73 14.5h78q11 0 18 7.5t7 17.5v66q0 16 11 26.5t26 10.5h113q15 0 26 -10.5t11 -26.5v-66q0 -10 7 -17.5t18 -7.5h209q16 0 26.5 -10.5
t10.5 -26.5v-94q0 -16 -10.5 -26.5t-26.5 -10.5h-486q-16 0 -27 -11t-11 -27v-1q0 -15 11 -26t27 -11h355z" />
    <glyph glyph-name="percent" unicode="%" horiz-adv-x="1077" 
d="M790 750q15 0 22.5 -12.5t-0.5 -25.5l-400 -693q-11 -19 -33 -19h-89q-14 0 -21.5 12.5t-0.5 24.5l400 694q5 8 14 13.5t19 5.5h89zM448 455q0 -25 -10 -48t-26.5 -39.5t-39 -26.5t-48.5 -10h-155q-25 0 -48 10t-39.5 26.5t-26.5 39.5t-10 48v170q0 26 10 48.5t26.5 39.5
t39.5 27t48 10h155q26 0 48.5 -10t39 -27t26.5 -39.5t10 -48.5v-170zM262 443q26 0 44 18t18 44v70q0 26 -18 44.5t-44 18.5h-30q-26 0 -44.5 -18.5t-18.5 -44.5v-70q0 -26 18.5 -44t44.5 -18h30zM907 419q26 0 48.5 -10t39.5 -27t27 -39.5t10 -48.5v-170q0 -25 -10 -48
t-27 -39.5t-39.5 -26.5t-48.5 -10h-154q-26 0 -48.5 10t-39.5 26.5t-26.5 39.5t-9.5 48v170q0 26 9.5 48.5t26.5 39.5t39.5 27t48.5 10h154zM907 245q0 26 -18 44t-44 18h-30q-26 0 -44 -18t-18 -44v-71q0 -26 18 -44t44 -18h30q26 0 44 18t18 44v71z" />
    <glyph glyph-name="ampersand" unicode="&#x26;" horiz-adv-x="895" 
d="M839 472q11 0 18 -7.5t7 -17.5v-120q0 -11 -7 -18t-18 -7h-59q-11 0 -18 -7t-7 -18v-90q0 -39 -14.5 -73t-40 -59.5t-59.5 -40t-73 -14.5h-341q-39 0 -73 14.5t-59.5 40t-40 59.5t-14.5 73v96q0 40 15.5 74.5t42.5 60.5q-14 34 -14 71v73q0 39 14.5 73.5t40 60t59.5 40
t73 14.5h321q15 0 26 -11t11 -27v-94q0 -15 -11 -26t-26 -11h-283q-16 0 -27 -11t-11 -27v-35q0 -16 11 -27t27 -11h125q15 0 26 -11t11 -26v-94q0 -16 -11 -26.5t-27 -10.5h-168q-16 0 -27 -11t-11 -27v-58q0 -16 11 -26.5t27 -10.5h265q16 0 27 10.5t11 26.5v227
q0 16 11 26.5t26 11.5z" />
    <glyph glyph-name="quotesingle" unicode="'" horiz-adv-x="211" 
d="M141 718q11 0 18.5 -8t6.5 -19l-19 -200q-2 -16 -17 -16h-48q-16 0 -18 16l-18 200q-1 11 6.5 19t18.5 8h70z" />
    <glyph glyph-name="parenleft" unicode="(" horiz-adv-x="342" 
d="M281 802q15 0 22 -13t-1 -26q-57 -88 -84 -199t-27 -249q0 -139 27 -250t84 -199q8 -13 1 -26t-22 -13h-100q-31 0 -44 28q-54 104 -75 224t-21 236q0 57 5 117t16.5 118.5t29.5 115.5t45 108q13 28 44 28h100z" />
    <glyph glyph-name="parenright" unicode=")" horiz-adv-x="341" 
d="M205 772q54 -107 75 -224t21 -236t-21 -236t-75 -224q-6 -13 -18.5 -20t-26.5 -7h-99q-15 0 -22 13t1 25q111 177 111 449t-111 449q-8 12 -1 25t22 13h99q14 0 26.5 -7t18.5 -20z" />
    <glyph glyph-name="asterisk" unicode="*" horiz-adv-x="362" 
d="M325 635q3 -8 -1.5 -14.5t-12.5 -7.5l-68 -8q-2 0 -2.5 -1.5t0.5 -2.5l51 -43q7 -5 7 -13.5t-8 -13.5l-55 -41q-4 -3 -10 -3q-12 0 -16 10l-28 63q-2 5 -5 0l-25 -62q-5 -11 -16 -11q-5 0 -10 3l-55 41q-7 5 -7.5 13t5.5 14l51 45q3 5 -2 5l-66 5q-8 0 -13 7t-2 15l21 65
q2 8 9.5 11.5t15.5 -1.5l59 -34q4 -2 4 3l-16 64q-2 8 3 15t14 7h68q8 0 13.5 -6.5t3.5 -14.5l-14 -67q0 -2 1 -3t3 1l56 35q8 5 16 1.5t10 -11.5z" />
    <glyph glyph-name="plus" unicode="+" horiz-adv-x="533" 
d="M450 414q16 0 27 -11t11 -27v-50q0 -15 -11 -26t-27 -11h-83q-16 0 -27 -11t-11 -27v-80q0 -15 -11 -26t-26 -11h-50q-16 0 -27 11t-11 26v80q0 16 -11 27t-26 11h-84q-16 0 -27 11t-11 26v50q0 16 11 27t27 11h84q15 0 26 10.5t11 26.5v88q0 15 11 26t27 11h50
q15 0 26 -11t11 -26v-88q0 -16 11 -26.5t27 -10.5h83z" />
    <glyph glyph-name="comma" unicode="," horiz-adv-x="278" 
d="M195 189q16 0 26.5 -11t10.5 -27v-132q0 -19 -8 -34l-37 -73q-5 -8 -14 -8h-19q-15 0 -15 15v57q0 11 -7.5 18t-17.5 7h-32q-15 0 -26 11t-11 27v112q0 16 11 27t26 11h113z" />
    <glyph glyph-name="hyphen" unicode="-" horiz-adv-x="394" 
d="M286 414q26 0 44.5 -18.5t18.5 -44.5t-18.5 -44t-44.5 -18h-179q-26 0 -44 18t-18 44t18 44.5t44 18.5h179z" />
    <glyph glyph-name="period" unicode="." horiz-adv-x="278" 
d="M139 187q19 0 36 -7.5t29.5 -20t20 -29.5t7.5 -36t-7.5 -36.5t-20 -30t-29.5 -20t-36 -7.5q-39 0 -66.5 27.5t-27.5 66.5q0 19 7.5 36t20 29.5t30 20t36.5 7.5z" />
    <glyph glyph-name="slash" unicode="/" horiz-adv-x="449" 
d="M388 750q13 0 20.5 -10.5t3.5 -23.5l-236 -682q-5 -15 -18 -24.5t-29 -9.5h-84q-13 0 -20.5 10.5t-2.5 22.5l235 683q5 15 18 24.5t29 9.5h84z" />
    <glyph glyph-name="zero" unicode="0" horiz-adv-x="891" 
d="M643 750q39 0 73 -14.5t59.5 -40t40 -60t14.5 -73.5v-375q0 -39 -14.5 -73t-40 -59.5t-59.5 -40t-73 -14.5h-396q-39 0 -73 14.5t-59.5 40t-40 59.5t-14.5 73v375q0 39 14.5 73.5t40 60t59.5 40t73 14.5h396zM643 487q0 39 -27.5 66.5t-66.5 27.5h-208q-19 0 -36.5 -7.5
t-30 -20t-20 -29.5t-7.5 -37v-225q0 -19 7.5 -36t20 -29.5t30 -20t36.5 -7.5h208q20 0 37 7.5t29.5 20t20 29.5t7.5 36v225z" />
    <glyph glyph-name="one" unicode="1" horiz-adv-x="417" 
d="M314 750q15 0 26 -11t11 -27v-675q0 -15 -11 -26t-26 -11h-113q-16 0 -26.5 11t-10.5 26v506q0 16 -11 27t-27 11h-53q-22 0 -32.5 19t0.5 38l50 84q8 13 21 20.5t28 7.5h174z" />
    <glyph glyph-name="two" unicode="2" horiz-adv-x="890" 
d="M642 750q39 0 73 -14.5t59.5 -40t40 -60t14.5 -73.5v-73q0 -39 -14.5 -73t-40 -59.5t-59.5 -40t-73 -14.5h-357q-16 0 -27 -11t-11 -27v-58q0 -16 11 -26.5t27 -10.5h507q15 0 26 -11t11 -27v-94q0 -15 -11 -26t-26 -11h-657q-31 0 -53 22t-22 53v208q0 39 14.5 73
t40 59.5t59.5 40t73 14.5h357q16 0 27 11t11 27v35q0 16 -11 27t-27 11h-488q-15 0 -26 11t-11 26v94q0 16 11 27t26 11h526z" />
    <glyph glyph-name="three" unicode="3" horiz-adv-x="858" 
d="M613 750q39 0 73 -14.5t59.5 -40t40 -60t14.5 -73.5v-73q0 -56 -31 -103q31 -46 31 -103v-96q0 -39 -14.5 -73t-40 -59.5t-59.5 -40t-73 -14.5h-526q-15 0 -26 11t-11 26v94q0 16 11 27t26 11h489q15 0 26 10.5t11 26.5v58q0 16 -11 27t-26 11h-385q-15 0 -26 10.5
t-11 26.5v94q0 16 11 26.5t26 10.5h385q15 0 26 11t11 27v35q0 16 -11 27t-26 11h-489q-15 0 -26 11t-11 26v94q0 16 11 27t26 11h526z" />
    <glyph glyph-name="four" unicode="4" horiz-adv-x="861" 
d="M758 750q15 0 26 -11t11 -27v-675q0 -15 -11 -26t-26 -11h-113q-16 0 -26.5 11t-10.5 26v128q0 16 -11 26.5t-27 10.5h-478q-15 0 -26 11t-11 27v472q0 16 11 27t26 11h113q16 0 26.5 -11t10.5 -27v-303q0 -16 11 -27t27 -11h290q16 0 27 11t11 27v303q0 16 10.5 27
t26.5 11h113z" />
    <glyph glyph-name="five" unicode="5" horiz-adv-x="890" 
d="M792 750q15 0 26 -11t11 -27v-94q0 -15 -11 -26t-26 -11h-518q-11 0 -19 -7.5t-8 -18.5v-10q0 -31 22 -53t53 -22h320q39 0 73 -14.5t59.5 -40t40 -59.5t14.5 -73v-96q0 -39 -14.5 -73t-40 -59.5t-59.5 -40t-73 -14.5h-526q-15 0 -26 11t-11 26v94q0 16 11 27t26 11h488
q16 0 27 10.5t11 26.5v58q0 16 -11 27t-27 11h-357q-39 0 -73 14.5t-59.5 40t-40 59.5t-14.5 73v186q0 31 22 53t53 22h657z" />
    <glyph glyph-name="six" unicode="6" horiz-adv-x="855" 
d="M641 470q35 0 65.5 -13t53.5 -36t36.5 -53.5t13.5 -65.5v-115q0 -39 -14.5 -73t-40 -59.5t-60 -40t-73.5 -14.5h-375q-39 0 -73 14.5t-59.5 40t-40 59.5t-14.5 73v375q0 39 14.5 73.5t40 60t59.5 40t73 14.5h450q15 0 26 -11t11 -27v-94q0 -15 -11 -26t-26 -11h-356
q-19 0 -36.5 -7.5t-30 -20t-20 -29.5t-7.5 -37q0 -7 5 -12t12 -5h377zM622 264q0 16 -11 27t-26 11h-298q-17 0 -28.5 -11.5t-11.5 -28.5q0 -19 7.5 -36t20 -29.5t30 -20t36.5 -7.5h244q15 0 26 10.5t11 26.5v58z" />
    <glyph glyph-name="seven" unicode="7" horiz-adv-x="691" 
d="M608 750q16 0 27 -11t11 -27v-109q0 -20 -10 -42l-257 -534q-7 -12 -19 -19.5t-26 -7.5h-143q-14 0 -21 12t-1 24l261 518q5 9 0 18t-16 9h-342q-15 0 -26 11t-11 26v94q0 16 11 27t26 11h536z" />
    <glyph glyph-name="eight" unicode="8" horiz-adv-x="846" 
d="M747 489q0 -37 -14 -71q26 -26 41.5 -60.5t15.5 -74.5v-96q0 -39 -14.5 -73t-40 -59.5t-59.5 -40t-73 -14.5h-361q-39 0 -73 14.5t-59.5 40t-40 59.5t-14.5 73v96q0 40 15.5 74.5t42.5 60.5q-14 34 -14 71v73q0 39 14.5 73.5t40 60t59.5 40t73 14.5h273q39 0 73.5 -14.5
t60 -40t40 -60t14.5 -73.5v-73zM286 508q0 -16 11 -27t27 -11h198q15 0 26 11t11 27v35q0 16 -11 27t-26 11h-198q-16 0 -27 -11t-11 -27v-35zM603 264q0 16 -11 27t-27 11h-285q-16 0 -27 -11t-11 -27v-58q0 -16 11 -26.5t27 -10.5h285q16 0 27 10.5t11 26.5v58z" />
    <glyph glyph-name="nine" unicode="9" horiz-adv-x="855" 
d="M607 750q39 0 73.5 -14.5t60 -40t40 -60t14.5 -73.5v-375q0 -39 -14.5 -73t-40 -59.5t-60 -40t-73.5 -14.5h-449q-16 0 -27 11t-11 26v94q0 16 11 27t27 11h355q20 0 37 7.5t29.5 20t20 29.5t7.5 36q0 17 -17 17h-376q-35 0 -65.5 13.5t-53.5 36.5t-36.5 53.5t-13.5 65.5
v114q0 39 14.5 73.5t40 60t59.5 40t73 14.5h375zM568 448q17 0 28 11t11 28q0 39 -27.5 66.5t-66.5 27.5h-243q-16 0 -27 -11t-11 -27v-58q0 -15 11 -26t27 -11h298z" />
    <glyph glyph-name="colon" unicode=":" horiz-adv-x="278" 
d="M139 500q19 0 36 -7.5t29.5 -20t20 -29.5t7.5 -37q0 -19 -7.5 -36.5t-20 -30t-29.5 -20t-36 -7.5t-36.5 7.5t-30 20t-20 30t-7.5 36.5q0 20 7.5 37t20 29.5t30 20t36.5 7.5zM139 187q19 0 36 -7.5t29.5 -20t20 -29.5t7.5 -36t-7.5 -36.5t-20 -30t-29.5 -20t-36 -7.5
q-39 0 -66.5 27.5t-27.5 66.5q0 19 7.5 36t20 29.5t30 20t36.5 7.5z" />
    <glyph glyph-name="semicolon" unicode=";" horiz-adv-x="278" 
d="M139 499q20 0 37 -7.5t29.5 -20t20 -29.5t7.5 -36t-7.5 -36.5t-20 -30t-29.5 -20t-37 -7.5q-19 0 -36 7.5t-29.5 20t-20 30t-7.5 36.5t7.5 36t20 29.5t29.5 20t36 7.5zM195 187q16 0 27 -11t11 -27v-131q0 -18 -8 -34l-38 -74q-3 -8 -13 -8h-20q-6 0 -10.5 4.5t-4.5 10.5
v58q0 10 -7 17.5t-18 7.5h-31q-16 0 -26.5 10.5t-10.5 26.5v112q0 16 10.5 27t26.5 11h112z" />
    <glyph glyph-name="less" unicode="&#x3c;" horiz-adv-x="469" 
d="M203 361q-5 -2 -5 -7t5 -7l199 -90q14 -6 19.5 -21t-0.5 -29l-21 -45q-5 -11 -14.5 -16.5t-20.5 -5.5q-7 0 -15 3l-285 129q-14 6 -21.5 18.5t-7.5 27.5v72q0 32 29 46l285 128q4 2 7.5 3t8.5 1q11 0 20 -6t14 -16l21 -46q6 -14 0.5 -28.5t-19.5 -21.5z" />
    <glyph glyph-name="equal" unicode="=" horiz-adv-x="489" 
d="M381 501q26 0 44 -18.5t18 -44.5t-18 -44t-44 -18h-273q-26 0 -44.5 18t-18.5 44t18.5 44.5t44.5 18.5h273zM381 299q26 0 44 -18t18 -44t-18 -44t-44 -18h-273q-26 0 -44.5 18t-18.5 44t18.5 44t44.5 18h273z" />
    <glyph glyph-name="greater" unicode="&#x3e;" horiz-adv-x="469" 
d="M404 431q14 -6 22 -18.5t8 -27.5v-72q0 -15 -8 -27.5t-22 -18.5l-285 -129q-7 -3 -15 -3q-24 0 -35 22l-20 46q-7 14 -1.5 28.5t19.5 20.5l200 90q4 2 4 7t-4 7l-200 90q-14 6 -19.5 20.5t1.5 28.5l20 46q5 11 14 16.5t20 5.5q9 0 16 -4z" />
    <glyph glyph-name="question" unicode="?" horiz-adv-x="762" 
d="M539 753q39 0 73 -14.5t59.5 -40t40 -60t14.5 -73.5v-58q0 -39 -14.5 -73t-40 -59.5t-59.5 -40t-73 -14.5h-123q-16 0 -27 -11t-11 -27v-3q0 -16 -10.5 -27t-26.5 -11l-112 -2q-16 0 -27 11t-11 27v24q0 39 14.5 73t40 59.5t59.5 40t73 14.5h124q15 0 26 11t11 27v21
q0 15 -11 26t-26 11h-429q-15 0 -26 11t-11 26v94q0 16 11 27t26 11h466zM284 180q21 0 39.5 -8t32.5 -22t22 -32.5t8 -39.5t-8 -39.5t-22 -32t-32.5 -21.5t-39.5 -8t-39.5 8t-32 21.5t-21.5 32t-8 39.5t8 39.5t21.5 32.5t32 22t39.5 8z" />
    <glyph glyph-name="at" unicode="@" horiz-adv-x="1097" 
d="M844 750q39 0 73 -14.5t59.5 -40t40 -59.5t14.5 -73v-525q0 -16 -8 -26.5t-31 -10.5h-469q-48 0 -87 14.5t-67 40t-43 59.5t-15 73v116q0 39 14.5 73t40 59.5t59.5 40t73 14.5h333q16 0 27 11t11 26v20q0 31 -18 44.5t-45 13.5h-491q-46 0 -67 -26t-21 -61v-512
q0 -88 88 -88h593q10 0 17.5 -7t7.5 -18v-93q0 -11 -7.5 -18t-17.5 -7h-718q-26 0 -48.5 10t-39.5 27t-27 39.5t-10 48.5v724q0 26 10 48.5t27 39.5t39.5 27t48.5 10h654zM869 302q0 16 -11 27t-27 11h-323q-16 0 -26.5 -11t-10.5 -27v-113q0 -15 10.5 -26t26.5 -11h323
q16 0 27 11t11 26v113z" />
    <glyph glyph-name="A" unicode="A" 
d="M83 0q-20 0 -31 16t-4 35l255 662q6 17 20.5 27t31.5 10h296q17 0 31.5 -10t20.5 -27l255 -662q7 -19 -4 -35t-31 -16h-133q-12 0 -21.5 6.5t-13.5 17.5l-192 533q-5 11 -14.5 17.5t-20.5 6.5h-50q-11 0 -20.5 -6.5t-14.5 -17.5l-129 -337q-8 -19 3.5 -35t31.5 -16h221
q16 0 28.5 -9t18.5 -23l33 -86q7 -19 -4 -35t-31 -16h-532z" />
    <glyph glyph-name="B" unicode="B" horiz-adv-x="919" 
d="M102 0q-15 0 -26 11t-11 26v396q0 16 11 26.5t26 10.5h427q16 0 27 11t11 27v35q0 16 -11 27t-27 11h-427q-15 0 -26 11t-11 26v94q0 16 11 27t26 11h465q39 0 73 -14.5t59.5 -40t40 -60t14.5 -73.5v-94q0 -14 13 -21q44 -25 70 -68t26 -96v-96q0 -39 -14.5 -73
t-40 -59.5t-59.5 -40t-73 -14.5h-574zM252 206q0 -16 11 -26.5t27 -10.5h348q16 0 27 10.5t11 26.5v58q0 16 -11 27t-27 11h-348q-16 0 -27 -11t-11 -27v-58z" />
    <glyph glyph-name="C" unicode="C" horiz-adv-x="830" 
d="M247 0q-39 0 -73 14.5t-59.5 40t-40 59.5t-14.5 73v375q0 39 14.5 73.5t40 60t59.5 40t73 14.5h495q16 0 27 -11t11 -27v-94q0 -15 -11 -26t-27 -11h-401q-19 0 -36.5 -7.5t-30 -20t-20 -29.5t-7.5 -37v-225q0 -19 7.5 -36t20 -29.5t30 -20t36.5 -7.5h401q16 0 27 -11
t11 -27v-94q0 -15 -11 -26t-27 -11h-495z" />
    <glyph glyph-name="D" unicode="D" horiz-adv-x="980" 
d="M732 750q39 0 73.5 -14.5t60 -40t40 -60t14.5 -73.5v-375q0 -39 -14.5 -73t-40 -59.5t-60 -40t-73.5 -14.5h-630q-15 0 -26 11t-11 26v373q0 16 11 27t26 11h113q16 0 26.5 -11t10.5 -27v-204q0 -16 11 -26.5t27 -10.5h348q20 0 37 7.5t29.5 20t20 29.5t7.5 36v225
q0 39 -27.5 66.5t-66.5 27.5h-536q-15 0 -26 11t-11 26v94q0 16 11 27t26 11h630z" />
    <glyph glyph-name="E" unicode="E" horiz-adv-x="870" 
d="M102 581q-15 0 -26 11t-11 26v94q0 16 11 27t26 11h655q16 0 27 -11t11 -27v-94q0 -15 -11 -26t-27 -11h-655zM782 169q16 0 27 -11t11 -27v-94q0 -15 -11 -26t-27 -11h-680q-15 0 -26 11t-11 26v396q0 16 11 26.5t26 10.5h603q16 0 27 -10.5t11 -26.5v-94
q0 -16 -11 -26.5t-27 -10.5h-415q-16 0 -27 -11t-11 -27v-58q0 -16 11 -26.5t27 -10.5h492z" />
    <glyph glyph-name="F" unicode="F" horiz-adv-x="820" 
d="M102 581q-15 0 -26 11t-11 26v94q0 16 11 27t26 11h635q16 0 27 -11t11 -27v-94q0 -15 -11 -26t-27 -11h-635zM102 0q-15 0 -26 11t-11 26v396q0 16 11 26.5t26 10.5h558q16 0 27 -10.5t11 -26.5v-94q0 -16 -11 -26.5t-27 -10.5h-370q-16 0 -27 -11t-11 -27v-227
q0 -15 -10.5 -26t-26.5 -11h-113z" />
    <glyph glyph-name="G" unicode="G" horiz-adv-x="997" 
d="M93 581q-13 0 -21 11q-8 10 -5 23q9 29 26 54t40.5 43t52.5 28t61 10h634q15 0 26 -11t11 -27v-94q0 -15 -11 -26t-26 -11h-788zM210 470q16 0 26.5 -10.5t10.5 -26.5v-171q0 -19 7.5 -36t20 -29.5t30 -20t36.5 -7.5h315q20 0 37 7.5t29.5 20t20 29.5t7.5 36v25
q0 6 -4.5 10.5t-10.5 4.5h-325q-15 0 -26 10.5t-11 26.5v94q0 16 11 26.5t26 10.5h490q15 0 26 -10.5t11 -26.5v-246q0 -39 -14.5 -73t-40 -59.5t-59.5 -40t-73 -14.5h-503q-39 0 -73 14.5t-59.5 40t-40 59.5t-14.5 73v246q0 16 11 26.5t26 10.5h113z" />
    <glyph glyph-name="H" unicode="H" horiz-adv-x="947" 
d="M102 0q-15 0 -26 11t-11 26v675q0 16 11 27t26 11h113q16 0 26.5 -11t10.5 -27v-675q0 -15 -10.5 -26t-26.5 -11h-113zM359 302q-16 0 -27 10.5t-11 26.5v94q0 16 11 26.5t27 10.5h297q16 0 27 11t11 27v204q0 16 11 27t26 11h113q16 0 26.5 -11t10.5 -27v-675
q0 -15 -10.5 -26t-26.5 -11h-113q-15 0 -26 11t-11 26v227q0 16 -11 27t-27 11h-297z" />
    <glyph glyph-name="I" unicode="I" horiz-adv-x="687" 
d="M437 198q3 -13 13 -21t24 -8h112q16 0 27 -11t11 -27v-94q0 -15 -11 -26t-27 -11h-486q-15 0 -26 11t-11 26v94q0 16 11 27t26 11h113q14 0 24 8t12 21v353q-2 13 -12 21.5t-24 8.5h-113q-15 0 -26 11t-11 26v94q0 16 11 27t26 11h486q16 0 27 -11t11 -27v-94
q0 -15 -11 -26t-27 -11h-112q-14 0 -24 -8.5t-13 -21.5v-353z" />
    <glyph glyph-name="J" unicode="J" horiz-adv-x="644" 
d="M75 0q-15 0 -26 11t-11 26v94q0 16 11 27t26 11h224q20 0 37 7.5t29.5 20t20 29.5t7.5 36v281q0 16 -11 27t-27 11h-164q-16 0 -27 11t-11 26v94q0 16 11 27t27 11h352q16 0 26.5 -11t10.5 -27v-525q0 -39 -14.5 -73t-40 -59.5t-59.5 -40t-73 -14.5h-318z" />
    <glyph glyph-name="K" unicode="K" horiz-adv-x="890" 
d="M102 0q-15 0 -26 11t-11 26v675q0 16 11 27t26 11h113q16 0 26.5 -11t10.5 -27v-675q0 -15 -10.5 -26t-26.5 -11h-113zM359 302q-16 0 -27 10.5t-11 26.5v94q0 16 11 26.5t27 10.5h54q21 0 32 19l141 242q5 8 13.5 13.5t19.5 5.5h149q16 0 23.5 -13t-0.5 -27l-165 -283
q-8 -14 0 -27l210 -361q8 -13 0.5 -26t-23.5 -13h-162q-22 0 -32 19l-142 264q-11 19 -32 19h-86z" />
    <glyph glyph-name="L" unicode="L" horiz-adv-x="767" 
d="M102 0q-15 0 -26 11t-11 26v675q0 16 11 27t26 11h113q16 0 26.5 -11t10.5 -27v-506q0 -16 11 -26.5t27 -10.5h404q16 0 26.5 -11t10.5 -27v-94q0 -15 -10.5 -26t-26.5 -11h-592z" />
    <glyph glyph-name="M" unicode="M" horiz-adv-x="1334" 
d="M93 0q-17 0 -28 11.5t-10 28.5l45 675q2 14 12.5 24.5t25.5 10.5h215q32 0 61.5 -10.5t53.5 -29.5t41.5 -45t25.5 -57l6 -27l100 -398q4 -14 18 -14h16q6 0 11 4t7 10l106 425q8 31 25.5 57t41.5 45t53.5 29.5t61.5 10.5h215q14 0 25 -10.5t12 -24.5l45 -675
q2 -17 -9.5 -28.5t-27.5 -11.5h-113q-15 0 -25.5 10t-12.5 24l-45 531q-2 16 -18 16h-28q-13 0 -17 -13l-127 -511q-7 -26 -27 -41.5t-46 -15.5h-230q-26 0 -46.5 15.5t-26.5 41.5l-127 511q-4 13 -17 13h-29q-15 0 -17 -16l-46 -531q-2 -14 -12.5 -24t-24.5 -10h-113z" />
    <glyph glyph-name="N" unicode="N" horiz-adv-x="1004" 
d="M102 0q-15 0 -26 11t-11 26v675q0 16 11 27t26 11h254q33 0 62.5 -10.5t53.5 -29.5t41 -45t25 -57l105 -419q5 -20 25 -20h57q11 0 18.5 7.5t7.5 18.5v517q0 16 11 27t26 11h113q15 0 26 -11t11 -27v-675q0 -15 -11 -26t-26 -11h-258q-32 0 -61.5 10.5t-53.5 29.5
t-41.5 45t-25.5 57l-104 419q-2 9 -9.5 14.5t-16.5 5.5h-52q-11 0 -19 -7.5t-8 -18.5v-518q0 -15 -10.5 -26t-26.5 -11h-113z" />
    <glyph glyph-name="O" unicode="O" horiz-adv-x="997" 
d="M247 0q-39 0 -73 14.5t-59.5 40t-40 59.5t-14.5 73v375q0 39 14.5 73.5t40 60t59.5 40t73 14.5h503q39 0 73 -14.5t59.5 -40t40 -60t14.5 -73.5v-375q0 -39 -14.5 -73t-40 -59.5t-59.5 -40t-73 -14.5h-503zM247 262q0 -19 7.5 -36t20 -29.5t30 -20t36.5 -7.5h315
q20 0 37 7.5t29.5 20t20 29.5t7.5 36v225q0 39 -27.5 66.5t-66.5 27.5h-315q-19 0 -36.5 -7.5t-30 -20t-20 -29.5t-7.5 -37v-225z" />
    <glyph glyph-name="P" unicode="P" horiz-adv-x="906" 
d="M102 0q-15 0 -26 11t-11 26v338q0 16 11 27t26 11h525q16 0 27 11t11 26v93q0 16 -11 27t-27 11h-525q-15 0 -26 11t-11 26v94q0 16 11 27t26 11h563q39 0 73 -14.5t59.5 -40t40 -60t14.5 -73.5v-130q0 -39 -14.5 -73t-40 -59.5t-59.5 -40.5t-73 -15h-375q-16 0 -27 -11
t-11 -26v-170q0 -15 -10.5 -26t-26.5 -11h-113z" />
    <glyph glyph-name="Q" unicode="Q" horiz-adv-x="998" 
d="M248 1q-39 0 -73 14.5t-59.5 40t-40 59.5t-14.5 73v375q0 39 14.5 73t40 59.5t59.5 40t73 14.5h503q39 0 73 -14.5t59.5 -40t40 -59.5t14.5 -73v-375q0 -39 -14.5 -73t-40 -59.5t-59.5 -40t-73 -14.5h-83q-11 0 -16 -9.5t0 -18.5l50 -85q5 -9 4.5 -19.5t-5 -18.5
t-13 -13.5t-19.5 -5.5h-130q-21 0 -32 19l-77 132q-11 19 -33 19h-149zM248 263q0 -19 7.5 -36.5t20 -30t30 -20t36.5 -7.5h315q20 0 37 7.5t29.5 20t20 30t7.5 36.5v225q0 39 -27.5 66.5t-66.5 27.5h-315q-19 0 -36.5 -7.5t-30 -20t-20 -29.5t-7.5 -37v-225z" />
    <glyph glyph-name="R" unicode="R" horiz-adv-x="902" 
d="M102 0q-15 0 -26 11t-11 26v373q0 16 11 27t26 11h496q16 0 27 11t11 26v58q0 16 -11 27t-27 11h-496q-15 0 -26 11t-11 26v94q0 16 11 27t26 11h534q39 0 73 -14.5t59.5 -40t40 -60t14.5 -73.5v-95q0 -52 -25.5 -95t-67.5 -67q-7 -4 -9 -11.5t2 -14.5l130 -223
q11 -19 0.5 -37.5t-32.5 -18.5h-143q-21 0 -32 19l-129 242q-10 18 -32 18h-195q-16 0 -27 -11t-11 -26v-205q0 -15 -10.5 -26t-26.5 -11h-113z" />
    <glyph glyph-name="S" unicode="S" horiz-adv-x="938" 
d="M821 750q16 0 26.5 -11t10.5 -27v-94q0 -15 -10.5 -26t-26.5 -11h-737q-11 0 -17 8t-5 18q5 30 21.5 56.5t41.5 45.5t56 30t66 11h574zM97 0q-15 0 -26 11t-11 26v94q0 16 11 27t26 11h555q16 0 27 10.5t11 26.5v58q0 16 -11 27t-27 11h-405q-35 0 -66 11t-55.5 29.5
t-41 44.5t-21.5 56q-1 7 2 17t22 10h603q39 0 73 -14.5t59.5 -40t40 -59.5t14.5 -73v-96q0 -39 -14.5 -73t-40 -59.5t-59.5 -40t-73 -14.5h-593z" />
    <glyph glyph-name="T" unicode="T" horiz-adv-x="912" 
d="M82 581q-15 0 -26 11t-11 26v94q0 16 11 27t26 11h747q16 0 27 -11t11 -27v-94q0 -15 -11 -26t-27 -11h-747zM512 513q16 0 27 -10.5t11 -26.5v-439q0 -15 -11 -26t-27 -11h-112q-16 0 -27 11t-11 26v439q0 16 11 26.5t27 10.5h112z" />
    <glyph glyph-name="U" unicode="U" horiz-adv-x="940" 
d="M250 0q-39 0 -73 14.5t-59.5 40t-40 59.5t-14.5 73v525q0 16 11 27t26 11h113q16 0 26.5 -11t10.5 -27v-450q0 -19 7.5 -36t20 -29.5t30 -20t36.5 -7.5h251q20 0 37 7.5t29.5 20t20 29.5t7.5 36v450q0 16 11 27t26 11h113q15 0 26 -11t11 -27v-525q0 -39 -14.5 -73
t-40 -59.5t-59.5 -40t-73 -14.5h-439z" />
    <glyph glyph-name="V" unicode="V" horiz-adv-x="978" 
d="M38 688q-4 11 -2.5 22t7.5 20t15.5 14.5t21.5 5.5h110q25 0 35 -25l205 -535q4 -10 12.5 -15.5t19.5 -5.5h54q11 0 19.5 5.5t12.5 15.5l205 535q10 25 35 25h110q12 0 21.5 -5.5t15.5 -14.5t7.5 -20t-2.5 -22l-251 -652q-6 -17 -20.5 -26.5t-31.5 -9.5h-296
q-17 0 -31.5 9.5t-20.5 26.5z" />
    <glyph glyph-name="W" unicode="W" horiz-adv-x="1259" 
d="M1156 750q15 0 26 -11t11 -27v-675q0 -15 -11 -26t-26 -11h-301q-26 0 -46 15.5t-27 41.5l-127 510q-3 14 -18 14h-16q-14 0 -18 -14l-127 -510q-7 -26 -27 -41.5t-46 -15.5h-301q-15 0 -26 11t-11 26v675q0 16 11 27t26 11h113q16 0 26.5 -11t10.5 -27v-525
q0 -8 5.5 -13t13.5 -5h25q15 0 18 14l127 510q7 25 27 41t46 16h230q26 0 46.5 -16t26.5 -41l127 -510q4 -14 18 -14h25q8 0 13.5 5t5.5 13v525q0 16 10.5 27t26.5 11h113z" />
    <glyph glyph-name="X" unicode="X" horiz-adv-x="902" 
d="M78 0q-22 0 -32.5 18.5t0.5 37.5l185 319q5 8 5 18.5t-5 18.5l-164 281q-10 19 0.5 38t32.5 19h130q22 0 32 -19l145 -248q7 -13 22 -13h44q16 0 22 13l145 248q10 19 32 19h130q11 0 19.5 -5.5t13 -13.5t5 -18.5t-4.5 -19.5l-164 -281q-5 -8 -5 -18.5t5 -18.5l185 -319
q11 -19 0.5 -37.5t-32.5 -18.5h-143q-21 0 -32 19l-145 270q-8 13 -23 13h-60q-15 0 -23 -13l-145 -270q-11 -19 -32 -19h-143z" />
    <glyph glyph-name="Y" unicode="Y" horiz-adv-x="856" 
d="M40 695q-10 19 1 37t32 18h132q11 0 20 -6t14 -15l116 -238q5 -9 13.5 -15t19.5 -6h80q11 0 20 6t14 15l115 238q5 9 14 15t20 6h132q21 0 32 -18t1 -37l-192 -373q-10 -20 -33 -20h-44q-11 0 -18 -7t-7 -18v-239q0 -16 -11 -27t-27 -11h-112q-16 0 -27 11t-11 27v239
q0 11 -7 18t-18 7h-43q-22 0 -34 20z" />
    <glyph glyph-name="Z" unicode="Z" horiz-adv-x="815" 
d="M107 581q-15 0 -26 11t-11 26v94q0 16 11 27t26 11l609 1q16 0 26.5 -11t10.5 -27v-94q0 -15 -10.5 -26t-26.5 -11zM87 0q-15 0 -26 11t-11 26v126q0 17 7 32t21 26l337 276q22 16 48 16h199q14 0 19 -13t-6 -22l-339 -276q-10 -8 -5.5 -20.5t17.5 -12.5h379
q16 0 26.5 -11t10.5 -27v-94q0 -15 -10.5 -26t-26.5 -11h-640z" />
    <glyph glyph-name="bracketleft" unicode="[" horiz-adv-x="395" 
d="M332 799q16 0 27 -10.5t11 -26.5v-50q0 -16 -11 -26.5t-27 -10.5h-104q-16 0 -27 -11t-11 -27v-650q0 -15 11 -26t27 -11h104q16 0 27 -11t11 -27v-50q0 -15 -11 -26t-27 -11h-229q-16 0 -27 11t-11 26v900q0 16 11 26.5t27 10.5h229z" />
    <glyph glyph-name="backslash" unicode="\" horiz-adv-x="449" 
d="M427 33q4 -12 -3.5 -22.5t-20.5 -10.5h-84q-16 0 -29 9.5t-18 24.5l-235 682q-5 13 2.5 23.5t20.5 10.5h84q16 0 29 -9.5t18 -24.5z" />
    <glyph glyph-name="bracketright" unicode="]" horiz-adv-x="395" 
d="M292 798q16 0 27 -11t11 -27v-899q0 -16 -11 -26.5t-27 -10.5h-229q-16 0 -27 10.5t-11 26.5v50q0 16 11 26.5t27 10.5h104q16 0 27 11t11 27v650q0 15 -11 26t-27 11h-104q-16 0 -27 11t-11 26v50q0 16 11 27t27 11h229z" />
    <glyph glyph-name="asciicircum" unicode="^" horiz-adv-x="499" 
d="M285 779q15 0 27.5 -8t18.5 -22l129 -285q6 -14 0.5 -28.5t-19.5 -21.5l-46 -21q-7 -3 -15 -3q-11 0 -20 5.5t-14 16.5l-90 199q-2 5 -7 5t-7 -5l-90 -199q-9 -22 -34 -22q-7 0 -15 3l-46 21q-14 7 -19.5 21.5t1.5 28.5l128 285q6 14 18.5 22t27.5 8h72z" />
    <glyph glyph-name="underscore" unicode="_" horiz-adv-x="779" 
d="M671 -40q26 0 44 -18t18 -44t-18 -44.5t-44 -18.5h-589q-26 0 -44 18.5t-18 44.5t18 44t44 18h589z" />
    <glyph glyph-name="grave" unicode="`" horiz-adv-x="257" 
d="M104 755q18 0 26 -15l79 -138q5 -7 0.5 -14.5t-13.5 -7.5h-43q-18 0 -26 15l-79 137q-5 8 -0.5 15.5t13.5 7.5h43z" />
    <glyph glyph-name="a" unicode="a" 
d="M958 51q7 -19 -4 -35t-31 -16h-131q-11 0 -20.5 6.5t-14.5 17.5l-40 131q-5 11 -14 17.5t-21 6.5h-358q-11 0 -20.5 -6.5t-14.5 -17.5l-40 -131q-5 -11 -14.5 -17.5t-20.5 -6.5h-131q-20 0 -31 16t-4 35l255 662q6 17 20.5 27t31.5 10h296q17 0 31.5 -10t20.5 -27z
M614 348q11 0 17 8.5t2 18.5l-71 184q-4 10 -12.5 16t-19.5 6h-54q-11 0 -19.5 -6t-12.5 -16l-71 -184q-4 -10 2 -18.5t17 -8.5h222z" />
    <glyph glyph-name="b" unicode="b" horiz-adv-x="919" 
d="M863 187q0 -39 -14.5 -73t-40 -59.5t-59.5 -40t-73 -14.5h-574q-15 0 -26 11t-11 26v675q0 16 11 27t26 11h465q39 0 73 -14.5t59.5 -40t40 -60t14.5 -73.5v-94q0 -14 13 -21q44 -24 70 -67.5t26 -96.5v-96zM252 490q0 -15 11 -26t27 -11h239q16 0 27 11t11 26v53
q0 16 -11 27t-27 11h-239q-16 0 -27 -11t-11 -27v-53zM638 169q16 0 27 10.5t11 26.5v58q0 16 -11 27t-27 11h-348q-16 0 -27 -11t-11 -27v-58q0 -16 11 -26.5t27 -10.5h348z" />
    <glyph glyph-name="c" unicode="c" horiz-adv-x="830" 
d="M341 581q-19 0 -36.5 -7.5t-30 -20t-20 -29.5t-7.5 -37v-225q0 -19 7.5 -36t20 -29.5t30 -20t36.5 -7.5h401q16 0 27 -11t11 -27v-94q0 -15 -11 -26t-27 -11h-495q-39 0 -73 14.5t-59.5 40t-40 59.5t-14.5 73v375q0 39 14.5 73.5t40 60t59.5 40t73 14.5h495q16 0 27 -11
t11 -27v-94q0 -15 -11 -26t-27 -11h-401z" />
    <glyph glyph-name="d" unicode="d" horiz-adv-x="980" 
d="M732 750q39 0 73 -14.5t59.5 -40t40 -60t14.5 -73.5v-375q0 -39 -14.5 -73t-40 -59.5t-59.5 -40t-73 -14.5h-630q-15 0 -26 11t-11 26v675q0 16 11 27t26 11h630zM732 487q0 39 -27.5 66.5t-66.5 27.5h-348q-16 0 -27 -11t-11 -27v-337q0 -16 11 -26.5t27 -10.5h348
q20 0 37 7.5t29.5 20t20 29.5t7.5 36v225z" />
    <glyph glyph-name="e" unicode="e" horiz-adv-x="870" 
d="M782 169q16 0 27 -11t11 -27v-94q0 -15 -11 -26t-27 -11h-680q-15 0 -26 11t-11 26v675q0 16 11 27t26 11h655q16 0 27 -11t11 -27v-94q0 -15 -11 -26t-27 -11h-467q-16 0 -27 -11t-11 -27v-35q0 -16 11 -27t27 -11h415q16 0 27 -10.5t11 -26.5v-94q0 -16 -11 -26.5
t-27 -10.5h-415q-16 0 -27 -11t-11 -27v-58q0 -16 11 -26.5t27 -10.5h492z" />
    <glyph glyph-name="f" unicode="f" horiz-adv-x="820" 
d="M102 0q-15 0 -26 11t-11 26v675q0 16 11 27t26 11h635q16 0 27 -11t11 -27v-94q0 -15 -11 -26t-27 -11h-447q-16 0 -27 -11t-11 -27v-35q0 -16 11 -27t27 -11h370q16 0 27 -10.5t11 -26.5v-94q0 -16 -11 -26.5t-27 -10.5h-370q-16 0 -27 -11t-11 -27v-227
q0 -15 -10.5 -26t-26.5 -11h-113z" />
    <glyph glyph-name="g" unicode="g" horiz-adv-x="998" 
d="M900 470q15 0 26 -10.5t11 -26.5v-246q0 -39 -14.5 -73t-40 -59.5t-59.5 -40t-73 -14.5h-503q-39 0 -73 14.5t-59.5 40t-40 59.5t-14.5 73v375q0 39 14.5 73.5t40 60t59.5 40t73 14.5h634q15 0 26 -11t11 -27v-94q0 -15 -11 -26t-26 -11h-540q-19 0 -36.5 -7.5t-30 -20
t-20 -29.5t-7.5 -37v-225q0 -19 7.5 -36t20 -29.5t30 -20t36.5 -7.5h315q20 0 37 7.5t29.5 20t20 29.5t7.5 36v25q0 6 -4.5 10.5t-10.5 4.5h-325q-15 0 -26 10.5t-11 26.5v94q0 16 11 26.5t26 10.5h490z" />
    <glyph glyph-name="h" unicode="h" horiz-adv-x="947" 
d="M215 750q16 0 26.5 -11t10.5 -27v-204q0 -16 11 -27t27 -11h366q16 0 27 11t11 27v204q0 16 11 27t26 11h113q16 0 26.5 -11t10.5 -27v-675q0 -15 -10.5 -26t-26.5 -11h-113q-15 0 -26 11t-11 26v227q0 16 -11 27t-27 11h-366q-16 0 -27 -11t-11 -27v-227
q0 -15 -10.5 -26t-26.5 -11h-113q-15 0 -26 11t-11 26v675q0 16 11 27t26 11h113z" />
    <glyph glyph-name="i" unicode="i" horiz-adv-x="318" 
d="M103 0q-16 0 -27 11t-11 26v675q0 16 11 27t27 11h112q16 0 27 -11t11 -27v-675q0 -15 -11 -26t-27 -11h-112z" />
    <glyph glyph-name="j" unicode="j" horiz-adv-x="641" 
d="M72 0q-15 0 -26 11t-11 26v94q0 16 11 27t26 11h224q20 0 37 7.5t29.5 20t20 29.5t7.5 36v450q0 16 11 27t26 11h113q16 0 26.5 -11t10.5 -27v-525q0 -39 -14.5 -73t-40 -59.5t-59.5 -40t-73 -14.5h-318z" />
    <glyph glyph-name="k" unicode="k" horiz-adv-x="890" 
d="M477 283q-11 19 -32 19h-155q-16 0 -27 -11t-11 -27v-227q0 -15 -10.5 -26t-26.5 -11h-113q-15 0 -26 11t-11 26v675q0 16 11 27t26 11h113q16 0 26.5 -11t10.5 -27v-204q0 -16 11 -27t27 -11h123q21 0 32 19l141 242q5 8 13.5 13.5t19.5 5.5h149q16 0 23.5 -13t-0.5 -27
l-165 -283q-8 -14 0 -27l210 -361q8 -13 0.5 -26t-23.5 -13h-162q-22 0 -32 19z" />
    <glyph glyph-name="l" unicode="l" horiz-adv-x="674" 
d="M102 0q-15 0 -26 11t-11 26v675q0 16 11 27t26 11h113q16 0 26.5 -11t10.5 -27v-506q0 -16 11 -26.5t27 -10.5h311q16 0 27 -11t11 -27v-94q0 -15 -11 -26t-27 -11h-499z" />
    <glyph glyph-name="m" unicode="m" horiz-adv-x="1259" 
d="M514 0q-26 0 -46 15.5t-27 41.5l-127 510q-3 14 -18 14h-25q-8 0 -13.5 -5.5t-5.5 -13.5v-525q0 -15 -10.5 -26t-26.5 -11h-113q-15 0 -26 11t-11 26v675q0 16 11 27t26 11h301q26 0 46 -16t27 -41l127 -510q4 -14 18 -14h16q15 0 18 14l127 510q7 25 27 41t46 16h301
q15 0 26 -11t11 -27v-675q0 -15 -11 -26t-26 -11h-113q-16 0 -26.5 11t-10.5 26v525q0 8 -5.5 13.5t-13.5 5.5h-25q-14 0 -18 -14l-127 -510q-6 -26 -26.5 -41.5t-46.5 -15.5h-230z" />
    <glyph glyph-name="n" unicode="n" horiz-adv-x="1004" 
d="M555 0q-26 0 -46 15.5t-27 41.5l-125 504q-2 9 -9.5 14.5t-16.5 5.5h-52q-11 0 -19 -7.5t-8 -18.5v-518q0 -15 -10.5 -26t-26.5 -11h-113q-15 0 -26 11t-11 26v675q0 16 11 27t26 11h342q26 0 46.5 -16t26.5 -41l126 -504q5 -20 25 -20h57q11 0 18.5 7.5t7.5 18.5v517
q0 16 11 27t26 11h113q15 0 26 -11t11 -27v-675q0 -15 -11 -26t-26 -11h-346z" />
    <glyph glyph-name="o" unicode="o" horiz-adv-x="905" 
d="M247 0q-39 0 -73 14.5t-59.5 40t-40 59.5t-14.5 73v375q0 39 14.5 73.5t40 60t59.5 40t73 14.5h410q39 0 73 -14.5t59.5 -40t40 -60t14.5 -73.5v-375q0 -39 -14.5 -73t-40 -59.5t-59.5 -40t-73 -14.5h-410zM247 262q0 -19 7.5 -36t20 -29.5t30 -20t36.5 -7.5h222
q20 0 37 7.5t29.5 20t20 29.5t7.5 36v225q0 39 -27.5 66.5t-66.5 27.5h-222q-19 0 -36.5 -7.5t-30 -20t-20 -29.5t-7.5 -37v-225z" />
    <glyph glyph-name="p" unicode="p" horiz-adv-x="906" 
d="M852 432q0 -39 -14.5 -73t-40 -59.5t-59.5 -40.5t-73 -15h-375q-16 0 -27 -11t-11 -26v-170q0 -15 -10.5 -26t-26.5 -11h-113q-15 0 -26 11t-11 26v675q0 16 11 27t26 11h563q39 0 73 -14.5t59.5 -40t40 -60t14.5 -73.5v-130zM627 413q16 0 27 11t11 26v93q0 16 -11 27
t-27 11h-337q-16 0 -27 -11t-11 -27v-93q0 -15 11 -26t27 -11h337z" />
    <glyph glyph-name="q" unicode="q" horiz-adv-x="998" 
d="M702 -113q5 -9 4.5 -19.5t-5 -18.5t-13 -13.5t-19.5 -5.5h-130q-22 0 -32 19l-77 132q-11 19 -33 19h-149q-39 0 -73 14.5t-59.5 40t-40 59.5t-14.5 73v375q0 39 14.5 73t40 59.5t59.5 40t73 14.5h502q39 0 73.5 -14.5t60 -40t40 -59.5t14.5 -73v-375q0 -39 -14.5 -73
t-40 -59.5t-60 -40t-73.5 -14.5h-82q-11 0 -16 -9.5t0 -19.5zM657 168q19 0 36 7.5t29.5 20t20 30t7.5 36.5v225q0 20 -7.5 37t-20 29.5t-29.5 20t-36 7.5h-315q-19 0 -36.5 -7.5t-30 -20t-20 -29.5t-7.5 -37v-225q0 -19 7.5 -36.5t20 -30t30 -20t36.5 -7.5h315z" />
    <glyph glyph-name="r" unicode="r" horiz-adv-x="902" 
d="M730 305q-7 -4 -9 -11.5t2 -14.5l130 -223q11 -19 0.5 -37.5t-32.5 -18.5h-143q-21 0 -32 19l-129 242q-10 18 -32 18h-195q-16 0 -27 -11t-11 -26v-205q0 -15 -10.5 -26t-26.5 -11h-113q-15 0 -26 11t-11 26v675q0 16 11 27t26 11h534q39 0 73 -14.5t59.5 -40t40 -60
t14.5 -73.5v-95q0 -52 -25.5 -95t-67.5 -67zM636 543q0 16 -11 27t-27 11h-308q-16 0 -27 -11t-11 -27v-58q0 -15 11 -26t27 -11h308q16 0 27 11t11 26v58z" />
    <glyph glyph-name="s" unicode="s" horiz-adv-x="938" 
d="M877 187q0 -39 -14.5 -73t-40 -59.5t-59.5 -40t-73 -14.5h-593q-15 0 -26 11t-11 26v94q0 16 11 27t26 11h555q16 0 27 10.5t11 26.5v58q0 16 -11 27t-27 11h-405q-39 0 -73 14.5t-59.5 40t-40 59.5t-14.5 73v73q0 39 14.5 73.5t40 60t59.5 40t73 14.5h574q16 0 26.5 -11
t10.5 -27v-94q0 -15 -10.5 -26t-26.5 -11h-536q-16 0 -27 -11t-11 -27v-35q0 -16 11 -27t27 -11h405q39 0 73 -14.5t59.5 -40t40 -59.5t14.5 -73v-96z" />
    <glyph glyph-name="t" unicode="t" horiz-adv-x="892" 
d="M72 581q-15 0 -26 11t-11 26v94q0 16 11 27t26 11h747q16 0 27 -11t11 -27v-94q0 -15 -11 -26t-27 -11h-242q-16 0 -26.5 -11t-10.5 -27v-506q0 -15 -11 -26t-27 -11h-112q-16 0 -27 11t-11 26v506q0 16 -11 27t-26 11h-243z" />
    <glyph glyph-name="u" unicode="u" horiz-adv-x="847" 
d="M783 187q0 -39 -14.5 -73t-40 -59.5t-59.5 -40t-73 -14.5h-346q-39 0 -73 14.5t-59.5 40t-40 59.5t-14.5 73v525q0 16 11 27t26 11h113q16 0 26.5 -11t10.5 -27v-450q0 -19 7.5 -36t20 -29.5t30 -20t36.5 -7.5h158q20 0 37 7.5t29.5 20t20 29.5t7.5 36v450q0 16 11 27
t27 11h112q16 0 26.5 -11t10.5 -27v-525z" />
    <glyph glyph-name="v" unicode="v" horiz-adv-x="978" 
d="M341 0q-17 0 -31.5 9.5t-20.5 26.5l-251 652q-4 11 -2.5 22t7.5 20t15.5 14.5t21.5 5.5h110q11 0 20.5 -6.5t14.5 -17.5l205 -536q4 -10 12.5 -15.5t19.5 -5.5h54q11 0 19.5 5.5t12.5 15.5l205 536q5 11 14.5 17.5t20.5 6.5h110q12 0 21.5 -5.5t15.5 -14.5t7.5 -20
t-2.5 -22l-251 -652q-6 -17 -20.5 -26.5t-31.5 -9.5h-296z" />
    <glyph glyph-name="w" unicode="w" horiz-adv-x="1314" 
d="M128 0q-15 0 -25.5 10t-12.5 25l-45 675q-1 16 10 28t28 12h113q14 0 24.5 -10t12.5 -25l46 -530q2 -16 17 -16h29q14 0 17 13l127 511q6 25 26.5 41t46.5 16h230q26 0 46 -16t27 -41l127 -511q3 -13 17 -13h28q16 0 18 16l45 530q2 15 12.5 25t25.5 10h113
q16 0 27.5 -12t9.5 -28l-45 -675q-1 -15 -12 -25t-25 -10h-303q-26 0 -46.5 15.5t-26.5 41.5l-127 510q-2 6 -7 10t-11 4h-16q-14 0 -18 -14l-100 -398l-27 -112q-7 -26 -27 -41.5t-46 -15.5h-303z" />
    <glyph glyph-name="x" unicode="x" horiz-adv-x="902" 
d="M78 0q-22 0 -32.5 18.5t0.5 37.5l185 319q5 8 5 18.5t-5 18.5l-164 281q-10 19 0.5 38t32.5 19h130q22 0 32 -19l145 -248q7 -13 22 -13h44q16 0 22 13l145 248q10 19 32 19h130q11 0 19.5 -5.5t13 -13.5t5 -18.5t-4.5 -19.5l-164 -281q-5 -8 -5 -18.5t5 -18.5l185 -319
q11 -19 0.5 -37.5t-32.5 -18.5h-143q-21 0 -32 19l-145 270q-8 13 -23 13h-60q-15 0 -23 -13l-145 -270q-11 -19 -32 -19h-143z" />
    <glyph glyph-name="y" unicode="y" horiz-adv-x="856" 
d="M40 695q-10 19 1 37t32 18h132q11 0 20 -6t14 -15l116 -238q5 -9 13.5 -15t19.5 -6h80q11 0 20 6t14 15l115 238q5 9 14 15t20 6h132q21 0 32 -18t1 -37l-192 -373q-10 -20 -33 -20h-44q-11 0 -18 -7t-7 -18v-240q0 -15 -11 -26t-27 -11h-112q-16 0 -27 11t-11 26v240
q0 11 -7 18t-18 7h-43q-22 0 -34 20z" />
    <glyph glyph-name="z" unicode="z" horiz-adv-x="815" 
d="M87 0q-15 0 -26 11t-11 26v126q0 17 7 32t21 26l400 327q5 4 6.5 9.5t-0.5 11t-6.5 9t-11.5 3.5h-354q-15 0 -26 11t-11 26v94q0 16 11 27t26 11h615q16 0 26.5 -11t10.5 -27v-125q0 -36 -27 -58l-401 -327q-10 -8 -5.5 -20.5t17.5 -12.5h379q16 0 26.5 -11t10.5 -27v-94
q0 -15 -10.5 -26t-26.5 -11h-640z" />
    <glyph glyph-name="braceleft" unicode="{" horiz-adv-x="483" 
d="M420 799q15 0 26 -11t11 -26v-50q0 -16 -11 -27t-26 -11h-105q-16 0 -27 -11t-11 -26v-200q0 -26 -9.5 -48.5t-26.5 -39.5t-39.5 -27t-48.5 -10q26 0 48.5 -10t39.5 -27t26.5 -39.5t9.5 -48.5v-200q0 -16 11 -26.5t27 -10.5h105q15 0 26 -11t11 -27v-50q0 -15 -11 -26
t-26 -11h-143q-26 0 -48.5 10t-39.5 27t-26.5 39.5t-9.5 48.5v237q0 26 -18.5 44.5t-44.5 18.5h-27q-16 0 -27 10.5t-11 26.5v50q0 16 11 26.5t27 10.5h27q26 0 44.5 18.5t18.5 44.5v237q0 26 9.5 48.5t26.5 39.5t39.5 27t48.5 10h143z" />
    <glyph glyph-name="bar" unicode="|" horiz-adv-x="426" 
d="M213 799q26 0 44 -18t18 -44v-850q0 -26 -18 -44t-44 -18t-44.5 18t-18.5 44v850q0 26 18.5 44t44.5 18z" />
    <glyph glyph-name="braceright" unicode="}" horiz-adv-x="482" 
d="M419 375q16 0 27 -11t11 -27v-50q0 -15 -11 -26t-27 -11h-27q-26 0 -44 -18.5t-18 -44.5v-237q0 -26 -10 -48.5t-27 -39.5t-39.5 -27t-48.5 -10h-143q-15 0 -26 11t-11 26v50q0 16 11 27t26 11h105q16 0 27 11t11 26v200q0 26 10 48.5t27 39.5t39.5 27t48.5 10
q-26 0 -48.5 10t-39.5 27t-27 39.5t-10 48.5v200q0 16 -11 27t-27 11h-105q-15 0 -26 10.5t-11 26.5v50q0 16 11 26.5t26 10.5h143q26 0 48.5 -10t39.5 -26.5t27 -39t10 -48.5v-238q0 -26 18 -44t44 -18h27z" />
    <glyph glyph-name="asciitilde" unicode="~" horiz-adv-x="653" 
d="M595 387q11 -8 12.5 -22.5t-6.5 -25.5l-41 -53q-26 -34 -63 -51t-77 -17q-29 0 -56.5 9t-52.5 28l-75 59q-8 7 -21 7q-17 0 -28 -14l-36 -47q-10 -13 -28 -13q-13 0 -21 7l-43 33q-11 9 -13 23.5t7 25.5l40 52q26 34 63 51t77 17q29 0 57 -9t52 -28l75 -58q8 -7 21 -7
q18 0 28 13l37 48q10 13 27 13q12 0 22 -7z" />
    <glyph glyph-name="cent" unicode="&#xa2;" horiz-adv-x="770" 
d="M687 647q16 0 27 -10.5t11 -26.5v-94q0 -16 -11 -26.5t-27 -10.5h-351q-19 0 -36.5 -7.5t-30 -20t-20 -29.5t-7.5 -37v-69q0 -39 27.5 -66.5t66.5 -27.5h351q16 0 27 -11t11 -26v-94q0 -16 -11 -27t-27 -11h-123q-10 0 -17.5 -7t-7.5 -18v-69q0 -16 -10.5 -27t-26.5 -11
h-113q-15 0 -26 11t-11 27v69q0 11 -7 18t-18 7h-85q-39 0 -73 15t-59.5 40.5t-40 59.5t-14.5 73v219q0 39 14.5 73t40 59.5t59.5 40t73 14.5h85q11 0 18 7.5t7 17.5v66q0 16 11 26.5t26 10.5h113q16 0 26.5 -10.5t10.5 -26.5v-66q0 -10 7.5 -17.5t17.5 -7.5h123z" />
    <glyph glyph-name="sterling" unicode="&#xa3;" horiz-adv-x="850" 
d="M767 169q16 0 27 -11t11 -27v-94q0 -15 -11 -26t-27 -11h-690q-15 0 -26 11t-11 26v94q0 16 11 27t26 11h36q15 0 26 10.5t11 26.5v63q0 16 -11 27t-26 11h-36q-15 0 -26 10.5t-11 26.5v50q0 16 11 27t26 11h36q15 0 26 10.5t11 26.5v94q0 39 15 73t40.5 59.5t59.5 40
t73 14.5h261q39 0 73 -14.5t59.5 -40t40 -59.5t14.5 -73v-56q0 -16 -11 -26.5t-27 -10.5h-112q-16 0 -26.5 10.5t-10.5 26.5v37q0 16 -11 27t-27 11h-186q-16 0 -26.5 -11t-10.5 -27v-75q0 -16 10.5 -26.5t26.5 -10.5h164q16 0 26.5 -11t10.5 -27v-50q0 -16 -10.5 -26.5
t-26.5 -10.5h-164q-16 0 -26.5 -11t-10.5 -27v-63q0 -16 10.5 -26.5t26.5 -10.5h392z" />
    <glyph glyph-name="yen" unicode="&#xa5;" horiz-adv-x="856" 
d="M783 750q21 0 32 -18t1 -37l-148 -287q-2 -5 1 -9.5t8 -4.5h35q15 0 26 -11t11 -27v-50q0 -15 -11 -26t-26 -11h-178q-5 0 -8.5 -4t-3.5 -9v-12q0 -13 12 -13h178q15 0 26 -11t11 -26v-50q0 -16 -11 -27t-26 -11h-178q-5 0 -8.5 -3.5t-3.5 -8.5v-57q0 -15 -11 -26
t-27 -11h-112q-16 0 -27 11t-11 26v57q0 5 -3.5 8.5t-8.5 3.5h-177q-16 0 -27 11t-11 27v50q0 15 11 26t27 11h177q12 0 12 13v12q0 13 -12 13h-177q-16 0 -27 11t-11 26v50q0 16 11 27t27 11h34q5 0 8 4.5t1 9.5l-148 287q-10 19 1 37t32 18h109q21 0 39.5 -11.5
t27.5 -30.5l106 -217q5 -9 13.5 -15t19.5 -6h80q11 0 20 6t14 15l105 217q10 19 28 30.5t40 11.5h108z" />
    <glyph glyph-name="dieresis" unicode="&#xa8;" horiz-adv-x="403" 
d="M108 625q-26 0 -44.5 18.5t-18.5 44.5t18.5 44t44.5 18t44 -18t18 -44t-18 -44.5t-44 -18.5zM358 688q0 -26 -18.5 -44.5t-44.5 -18.5t-44 18.5t-18 44.5t18 44t44 18t44.5 -18t18.5 -44z" />
    <glyph glyph-name="acute" unicode="&#xb4;" horiz-adv-x="257" 
d="M196 757q9 0 13.5 -7t-0.5 -15l-79 -138q-10 -15 -26 -15h-44q-8 0 -12.5 7.5t0.5 15.5l79 137q8 15 26 15h43z" />
    <glyph glyph-name="cedilla" unicode="&#xb8;" horiz-adv-x="316" 
d="M271 -161q0 -21 -15 -35.5t-35 -14.5h-160q-15 0 -15 15v32q0 6 4 10.5t11 4.5h120q6 0 10.5 4.5t4.5 10.5v24q0 7 -4.5 11t-10.5 4h-85q-21 0 -35.5 15t-14.5 35v59h75v-31q0 -15 15 -15h85q20 0 35 -15t15 -35v-79z" />
    <glyph glyph-name="Agrave" unicode="&#xc0;" 
d="M83 0q-20 0 -31 16t-4 35l255 662q6 17 20.5 27t31.5 10h296q17 0 31.5 -10t20.5 -27l255 -662q7 -19 -4 -35t-31 -16h-133q-12 0 -21.5 6.5t-13.5 17.5l-192 533q-5 11 -14.5 17.5t-20.5 6.5h-50q-11 0 -20.5 -6.5t-14.5 -17.5l-129 -337q-8 -19 3.5 -35t31.5 -16h221
q16 0 28.5 -9t18.5 -23l33 -86q7 -19 -4 -35t-31 -16h-532zM478 1005q18 0 26 -15l79 -138q5 -7 0.5 -14.5t-13.5 -7.5h-43q-18 0 -26 15l-79 137q-5 8 -0.5 15.5t13.5 7.5h43z" />
    <glyph glyph-name="Aacute" unicode="&#xc1;" 
d="M571 1008q8 0 13 -7t0 -15l-79 -138q-10 -15 -26 -15h-44q-8 0 -12.5 7.5t-0.5 15.5l80 137q8 15 26 15h43zM83 0q-20 0 -31 16t-4 35l255 662q6 17 20.5 27t31.5 10h296q17 0 31.5 -10t20.5 -27l255 -662q7 -19 -4 -35t-31 -16h-133q-12 0 -21.5 6.5t-13.5 17.5
l-192 533q-5 11 -14.5 17.5t-20.5 6.5h-50q-11 0 -20.5 -6.5t-14.5 -17.5l-129 -337q-8 -19 3.5 -35t31.5 -16h221q16 0 28.5 -9t18.5 -23l33 -86q7 -19 -4 -35t-31 -16h-532z" />
    <glyph glyph-name="Acircumflex" unicode="&#xc2;" 
d="M83 0q-20 0 -31 16t-4 35l255 662q6 17 20.5 27t31.5 10h296q17 0 31.5 -10t20.5 -27l255 -662q7 -19 -4 -35t-31 -16h-133q-12 0 -21.5 6.5t-13.5 17.5l-192 533q-5 11 -14.5 17.5t-20.5 6.5h-50q-11 0 -20.5 -6.5t-14.5 -17.5l-129 -337q-8 -19 3.5 -35t31.5 -16h221
q16 0 28.5 -9t18.5 -23l33 -86q7 -19 -4 -35t-31 -16h-532zM577 835q-17 0 -26 15l-40 70q-3 5 -9 5t-8 -5l-41 -70q-7 -15 -26 -15h-43q-9 0 -13.5 7t0.5 15l84 145q3 8 13 8h69q8 0 13 -8l83 -145q5 -8 0.5 -15t-12.5 -7h-44z" />
    <glyph glyph-name="Atilde" unicode="&#xc3;" 
d="M631 957q7 -3 9.5 -10t-1.5 -13l-20 -44l-18 -36q-9 -19 -31 -19q-7 0 -15 3l-93 44q-6 4 -13 1.5t-10 -9.5l-13 -27q-3 -7 -10 -9.5t-13 1.5l-25 11q-15 8 -8 24l38 79q10 20 31 20q8 0 15 -4l93 -44q6 -3 13 -0.5t10 8.5l13 28q3 6 10 8.5t14 -0.5zM83 0q-20 0 -31 16
t-4 35l255 662q6 17 20.5 27t31.5 10h296q17 0 31.5 -10t20.5 -27l255 -662q7 -19 -4 -35t-31 -16h-133q-12 0 -21.5 6.5t-13.5 17.5l-192 533q-5 11 -14.5 17.5t-20.5 6.5h-50q-11 0 -20.5 -6.5t-14.5 -17.5l-129 -337q-8 -19 3.5 -35t31.5 -16h221q16 0 28.5 -9t18.5 -23
l33 -86q7 -19 -4 -35t-31 -16h-532z" />
    <glyph glyph-name="Adieresis" unicode="&#xc4;" 
d="M409 825q-26 0 -44 18t-18 44t18 44.5t44 18.5t44.5 -18.5t18.5 -44.5t-18.5 -44t-44.5 -18zM659 887q0 -26 -18 -44t-44 -18t-44.5 18t-18.5 44t18.5 44.5t44.5 18.5t44 -18.5t18 -44.5zM83 0q-20 0 -31 16t-4 35l255 662q6 17 20.5 27t31.5 10h296q17 0 31.5 -10
t20.5 -27l255 -662q7 -19 -4 -35t-31 -16h-133q-12 0 -21.5 6.5t-13.5 17.5l-192 533q-5 11 -14.5 17.5t-20.5 6.5h-50q-11 0 -20.5 -6.5t-14.5 -17.5l-129 -337q-8 -19 3.5 -35t31.5 -16h221q16 0 28.5 -9t18.5 -23l33 -86q7 -19 -4 -35t-31 -16h-532z" />
    <glyph glyph-name="Aring" unicode="&#xc5;" 
d="M436 825q-16 0 -27 11t-11 26v138q0 16 11 26.5t27 10.5h134q16 0 27 -10.5t11 -26.5v-138q0 -15 -11 -26t-27 -11h-134zM473 915q0 -6 4.5 -10.5t10.5 -4.5h30q6 0 10.5 4.5t4.5 10.5v32q0 7 -4.5 11t-10.5 4h-30q-6 0 -10.5 -4t-4.5 -11v-32zM83 0q-20 0 -31 16t-4 35
l255 662q6 17 20.5 27t31.5 10h296q17 0 31.5 -10t20.5 -27l255 -662q7 -19 -4 -35t-31 -16h-133q-12 0 -21.5 6.5t-13.5 17.5l-192 533q-5 11 -14.5 17.5t-20.5 6.5h-50q-11 0 -20.5 -6.5t-14.5 -17.5l-129 -337q-8 -19 3.5 -35t31.5 -16h221q16 0 28.5 -9t18.5 -23l33 -86
q7 -19 -4 -35t-31 -16h-532z" />
    <glyph glyph-name="AE" unicode="&#xc6;" horiz-adv-x="1460" 
d="M83 0q-20 0 -31 16t-4 35l250 650q8 22 27.5 35.5t42.5 13.5h979q16 0 26.5 -11t10.5 -27v-94q0 -15 -10.5 -26t-26.5 -11h-467q-16 0 -27 -11t-11 -27v-35q0 -16 11 -27t27 -11h415q16 0 27 -10.5t11 -26.5v-94q0 -16 -11 -26.5t-27 -10.5h-415q-16 0 -27 -11t-11 -27
v-58q0 -16 11 -26.5t27 -10.5h492q16 0 26.5 -11t10.5 -27v-94q0 -15 -10.5 -26t-26.5 -11h-680q-15 0 -26 11t-11 26v105q0 15 -11 26t-27 11h-267q-23 0 -42.5 -13t-27.5 -35l-41 -107q-5 -11 -14.5 -17.5t-20.5 -6.5h-121zM377 383q-5 -13 2.5 -24t21.5 -11h216
q16 0 27 10.5t11 26.5v158q0 16 -11 27t-27 11h-139q-11 0 -20.5 -6.5t-14.5 -17.5z" />
    <glyph glyph-name="Ccedilla" unicode="&#xc7;" horiz-adv-x="830" 
d="M527 -161q0 -21 -14.5 -35.5t-35.5 -14.5h-159q-15 0 -15 15v32q0 6 4 10.5t11 4.5h119q7 0 11 4.5t4 10.5v24q0 15 -15 15h-84q-21 0 -35.5 15t-14.5 35v45h-56q-39 0 -73 14.5t-59.5 40t-40 59.5t-14.5 73v375q0 39 14.5 73.5t40 60t59.5 40t73 14.5h495q16 0 27 -11
t11 -27v-94q0 -15 -11 -26t-27 -11h-401q-19 0 -36.5 -7.5t-30 -20t-20 -29.5t-7.5 -37v-225q0 -19 7.5 -36t20 -29.5t30 -20t36.5 -7.5h401q16 0 27 -11t11 -27v-94q0 -15 -11 -26t-27 -11h-364v-17q0 -15 15 -15h84q21 0 35.5 -15t14.5 -35v-79z" />
    <glyph glyph-name="Egrave" unicode="&#xc8;" horiz-adv-x="870" 
d="M102 581q-15 0 -26 11t-11 26v94q0 16 11 27t26 11h655q16 0 27 -11t11 -27v-94q0 -15 -11 -26t-27 -11h-655zM782 169q16 0 27 -11t11 -27v-94q0 -15 -11 -26t-27 -11h-680q-15 0 -26 11t-11 26v396q0 16 11 26.5t26 10.5h603q16 0 27 -10.5t11 -26.5v-94
q0 -16 -11 -26.5t-27 -10.5h-415q-16 0 -27 -11t-11 -27v-58q0 -16 11 -26.5t27 -10.5h492zM417 1005q18 0 26 -15l79 -138q5 -7 0.5 -14.5t-13.5 -7.5h-43q-18 0 -26 15l-79 137q-5 8 -0.5 15.5t13.5 7.5h43z" />
    <glyph glyph-name="Eacute" unicode="&#xc9;" horiz-adv-x="870" 
d="M510 1008q9 0 13.5 -7t-0.5 -15l-79 -138q-10 -15 -26 -15h-44q-8 0 -12.5 7.5t0.5 15.5l79 137q8 15 26 15h43zM102 581q-15 0 -26 11t-11 26v94q0 16 11 27t26 11h655q16 0 27 -11t11 -27v-94q0 -15 -11 -26t-27 -11h-655zM782 169q16 0 27 -11t11 -27v-94
q0 -15 -11 -26t-27 -11h-680q-15 0 -26 11t-11 26v396q0 16 11 26.5t26 10.5h603q16 0 27 -10.5t11 -26.5v-94q0 -16 -11 -26.5t-27 -10.5h-415q-16 0 -27 -11t-11 -27v-58q0 -16 11 -26.5t27 -10.5h492z" />
    <glyph glyph-name="Ecircumflex" unicode="&#xca;" horiz-adv-x="870" 
d="M102 581q-15 0 -26 11t-11 26v94q0 16 11 27t26 11h655q16 0 27 -11t11 -27v-94q0 -15 -11 -26t-27 -11h-655zM782 169q16 0 27 -11t11 -27v-94q0 -15 -11 -26t-27 -11h-680q-15 0 -26 11t-11 26v396q0 16 11 26.5t26 10.5h603q16 0 27 -10.5t11 -26.5v-94
q0 -16 -11 -26.5t-27 -10.5h-415q-16 0 -27 -11t-11 -27v-58q0 -16 11 -26.5t27 -10.5h492zM517 835q-17 0 -26 15l-40 70q-3 5 -9 5t-8 -5l-41 -70q-7 -15 -26 -15h-43q-9 0 -13.5 7t0.5 15l84 145q3 8 13 8h69q8 0 13 -8l83 -145q5 -8 0.5 -15t-12.5 -7h-44z" />
    <glyph glyph-name="Edieresis" unicode="&#xcb;" horiz-adv-x="870" 
d="M348 825q-26 0 -44 18t-18 44t18 44.5t44 18.5t44.5 -18.5t18.5 -44.5t-18.5 -44t-44.5 -18zM599 887q0 -26 -18.5 -44t-44.5 -18t-44 18t-18 44t18 44.5t44 18.5t44.5 -18.5t18.5 -44.5zM102 581q-15 0 -26 11t-11 26v94q0 16 11 27t26 11h655q16 0 27 -11t11 -27v-94
q0 -15 -11 -26t-27 -11h-655zM782 169q16 0 27 -11t11 -27v-94q0 -15 -11 -26t-27 -11h-680q-15 0 -26 11t-11 26v396q0 16 11 26.5t26 10.5h603q16 0 27 -10.5t11 -26.5v-94q0 -16 -11 -26.5t-27 -10.5h-415q-16 0 -27 -11t-11 -27v-58q0 -16 11 -26.5t27 -10.5h492z" />
    <glyph glyph-name="Igrave" unicode="&#xcc;" horiz-adv-x="687" 
d="M437 198q3 -13 13 -21t24 -8h112q16 0 27 -11t11 -27v-94q0 -15 -11 -26t-27 -11h-486q-15 0 -26 11t-11 26v94q0 16 11 27t26 11h113q14 0 24 8t12 21v353q-2 13 -12 21.5t-24 8.5h-113q-15 0 -26 11t-11 26v94q0 16 11 27t26 11h486q16 0 27 -11t11 -27v-94
q0 -15 -11 -26t-27 -11h-112q-14 0 -24 -8.5t-13 -21.5v-353zM318 1005q18 0 26 -15l79 -138q5 -7 0.5 -14.5t-13.5 -7.5h-43q-18 0 -26 15l-79 137q-5 8 -0.5 15.5t13.5 7.5h43z" />
    <glyph glyph-name="Iacute" unicode="&#xcd;" horiz-adv-x="687" 
d="M411 1008q9 0 13.5 -7t-0.5 -15l-79 -138q-10 -15 -26 -15h-43q-9 0 -13.5 7.5t0.5 15.5l79 137q8 15 26 15h43zM437 198q3 -13 13 -21t24 -8h112q16 0 27 -11t11 -27v-94q0 -15 -11 -26t-27 -11h-486q-15 0 -26 11t-11 26v94q0 16 11 27t26 11h113q14 0 24 8t12 21v353
q-2 13 -12 21.5t-24 8.5h-113q-15 0 -26 11t-11 26v94q0 16 11 27t26 11h486q16 0 27 -11t11 -27v-94q0 -15 -11 -26t-27 -11h-112q-14 0 -24 -8.5t-13 -21.5v-353z" />
    <glyph glyph-name="Icircumflex" unicode="&#xce;" horiz-adv-x="687" 
d="M437 198q3 -13 13 -21t24 -8h112q16 0 27 -11t11 -27v-94q0 -15 -11 -26t-27 -11h-486q-15 0 -26 11t-11 26v94q0 16 11 27t26 11h113q14 0 24 8t12 21v353q-2 13 -12 21.5t-24 8.5h-113q-15 0 -26 11t-11 26v94q0 16 11 27t26 11h486q16 0 27 -11t11 -27v-94
q0 -15 -11 -26t-27 -11h-112q-14 0 -24 -8.5t-13 -21.5v-353zM418 835q-17 0 -26 15l-40 70q-3 5 -9 5t-8 -5l-41 -70q-7 -15 -26 -15h-43q-9 0 -13.5 7t0.5 15l84 145q3 8 13 8h69q8 0 13 -8l83 -145q5 -8 0.5 -15t-12.5 -7h-44z" />
    <glyph glyph-name="Idieresis" unicode="&#xcf;" horiz-adv-x="687" 
d="M250 825q-26 0 -44.5 18t-18.5 44t18.5 44.5t44.5 18.5t44 -18.5t18 -44.5t-18 -44t-44 -18zM500 887q0 -26 -18.5 -44t-44.5 -18t-44 18t-18 44t18 44.5t44 18.5t44.5 -18.5t18.5 -44.5zM437 198q3 -13 13 -21t24 -8h112q16 0 27 -11t11 -27v-94q0 -15 -11 -26t-27 -11
h-486q-15 0 -26 11t-11 26v94q0 16 11 27t26 11h113q14 0 24 8t12 21v353q-2 13 -12 21.5t-24 8.5h-113q-15 0 -26 11t-11 26v94q0 16 11 27t26 11h486q16 0 27 -11t11 -27v-94q0 -15 -11 -26t-27 -11h-112q-14 0 -24 -8.5t-13 -21.5v-353z" />
    <glyph glyph-name="Eth" unicode="&#xd0;" horiz-adv-x="1074" 
d="M826 750q39 0 73.5 -14.5t60 -40t40 -60t14.5 -73.5v-375q0 -39 -14.5 -73t-40 -59.5t-60 -40t-73.5 -14.5h-629q-16 0 -27 11t-11 26v240q0 11 -7 18t-18 7h-82q-15 0 -26 10.5t-11 26.5v94q0 16 11 26.5t26 10.5h82q11 0 18 7.5t7 17.5v217q0 16 11 27t27 11h629z
M826 487q0 39 -27 66.5t-66 27.5h-349q-15 0 -26 -11t-11 -27v-48q0 -10 7 -17.5t18 -7.5h96q15 0 26 -10.5t11 -26.5v-94q0 -16 -11 -26.5t-26 -10.5h-96q-11 0 -18 -7t-7 -18v-71q0 -16 11 -26.5t26 -10.5h349q20 0 36.5 7.5t29.5 20t20 29.5t7 36v225z" />
    <glyph glyph-name="Ntilde" unicode="&#xd1;" horiz-adv-x="1004" 
d="M630 956q15 -7 8 -23l-38 -79q-9 -20 -32 -20q-7 0 -15 3l-92 45q-7 3 -13.5 0.5t-9.5 -8.5l-13 -28q-8 -15 -24 -8l-25 12q-6 3 -8.5 10t0.5 13l38 79q11 20 32 20q8 0 15 -3l92 -45q7 -3 13.5 -0.5t10.5 9.5l13 27q7 15 23 8zM102 0q-15 0 -26 11t-11 26v675
q0 16 11 27t26 11h254q33 0 62.5 -10.5t53.5 -29.5t41 -45t25 -57l105 -419q5 -20 25 -20h57q11 0 18.5 7.5t7.5 18.5v517q0 16 11 27t26 11h113q15 0 26 -11t11 -27v-675q0 -15 -11 -26t-26 -11h-258q-32 0 -61.5 10.5t-53.5 29.5t-41.5 45t-25.5 57l-104 419
q-2 9 -9.5 14.5t-16.5 5.5h-52q-11 0 -19 -7.5t-8 -18.5v-518q0 -15 -10.5 -26t-26.5 -11h-113z" />
    <glyph glyph-name="Ograve" unicode="&#xd2;" horiz-adv-x="997" 
d="M247 0q-39 0 -73 14.5t-59.5 40t-40 59.5t-14.5 73v375q0 39 14.5 73.5t40 60t59.5 40t73 14.5h503q39 0 73 -14.5t59.5 -40t40 -60t14.5 -73.5v-375q0 -39 -14.5 -73t-40 -59.5t-59.5 -40t-73 -14.5h-503zM247 262q0 -19 7.5 -36t20 -29.5t30 -20t36.5 -7.5h315
q20 0 37 7.5t29.5 20t20 29.5t7.5 36v225q0 39 -27.5 66.5t-66.5 27.5h-315q-19 0 -36.5 -7.5t-30 -20t-20 -29.5t-7.5 -37v-225zM473 1005q18 0 26 -15l79 -138q5 -7 0.5 -14.5t-13.5 -7.5h-43q-18 0 -26 15l-79 137q-5 8 -0.5 15.5t13.5 7.5h43z" />
    <glyph glyph-name="Oacute" unicode="&#xd3;" horiz-adv-x="997" 
d="M566 1008q9 0 13.5 -7t-0.5 -15l-79 -138q-8 -15 -26 -15h-43q-9 0 -13.5 7.5t0.5 15.5l79 137q8 15 26 15h43zM247 0q-39 0 -73 14.5t-59.5 40t-40 59.5t-14.5 73v375q0 39 14.5 73.5t40 60t59.5 40t73 14.5h503q39 0 73 -14.5t59.5 -40t40 -60t14.5 -73.5v-375
q0 -39 -14.5 -73t-40 -59.5t-59.5 -40t-73 -14.5h-503zM247 262q0 -19 7.5 -36t20 -29.5t30 -20t36.5 -7.5h315q20 0 37 7.5t29.5 20t20 29.5t7.5 36v225q0 39 -27.5 66.5t-66.5 27.5h-315q-19 0 -36.5 -7.5t-30 -20t-20 -29.5t-7.5 -37v-225z" />
    <glyph glyph-name="Ocircumflex" unicode="&#xd4;" horiz-adv-x="997" 
d="M247 0q-39 0 -73 14.5t-59.5 40t-40 59.5t-14.5 73v375q0 39 14.5 73.5t40 60t59.5 40t73 14.5h503q39 0 73 -14.5t59.5 -40t40 -60t14.5 -73.5v-375q0 -39 -14.5 -73t-40 -59.5t-59.5 -40t-73 -14.5h-503zM247 262q0 -19 7.5 -36t20 -29.5t30 -20t36.5 -7.5h315
q20 0 37 7.5t29.5 20t20 29.5t7.5 36v225q0 39 -27.5 66.5t-66.5 27.5h-315q-19 0 -36.5 -7.5t-30 -20t-20 -29.5t-7.5 -37v-225zM573 835q-17 0 -26 15l-40 70q-3 5 -9 5t-8 -5l-41 -70q-7 -15 -26 -15h-43q-9 0 -13.5 7t0.5 15l84 145q3 8 13 8h69q8 0 13 -8l83 -145
q5 -8 0.5 -15t-12.5 -7h-44z" />
    <glyph glyph-name="Otilde" unicode="&#xd5;" horiz-adv-x="997" 
d="M627 957q6 -3 8.5 -10t-0.5 -13l-38 -80q-9 -19 -32 -19q-7 0 -15 3l-92 44q-16 7 -23 -8l-14 -27q-3 -7 -9.5 -9.5t-13.5 1.5l-25 11q-6 4 -8.5 10.5t0.5 13.5l38 79q10 20 31 20q9 0 16 -4l92 -44q7 -3 13.5 -0.5t9.5 8.5l14 28q3 6 9.5 8.5t13.5 -0.5zM247 0
q-39 0 -73 14.5t-59.5 40t-40 59.5t-14.5 73v375q0 39 14.5 73.5t40 60t59.5 40t73 14.5h503q39 0 73 -14.5t59.5 -40t40 -60t14.5 -73.5v-375q0 -39 -14.5 -73t-40 -59.5t-59.5 -40t-73 -14.5h-503zM247 262q0 -19 7.5 -36t20 -29.5t30 -20t36.5 -7.5h315q20 0 37 7.5
t29.5 20t20 29.5t7.5 36v225q0 39 -27.5 66.5t-66.5 27.5h-315q-19 0 -36.5 -7.5t-30 -20t-20 -29.5t-7.5 -37v-225z" />
    <glyph glyph-name="Odieresis" unicode="&#xd6;" horiz-adv-x="997" 
d="M405 825q-26 0 -44.5 18t-18.5 44t18.5 44.5t44.5 18.5t44 -18.5t18 -44.5t-18 -44t-44 -18zM655 887q0 -26 -18.5 -44t-44.5 -18t-44 18t-18 44t18 44.5t44 18.5t44.5 -18.5t18.5 -44.5zM247 0q-39 0 -73 14.5t-59.5 40t-40 59.5t-14.5 73v375q0 39 14.5 73.5t40 60
t59.5 40t73 14.5h503q39 0 73 -14.5t59.5 -40t40 -60t14.5 -73.5v-375q0 -39 -14.5 -73t-40 -59.5t-59.5 -40t-73 -14.5h-503zM247 262q0 -19 7.5 -36t20 -29.5t30 -20t36.5 -7.5h315q20 0 37 7.5t29.5 20t20 29.5t7.5 36v225q0 39 -27.5 66.5t-66.5 27.5h-315
q-19 0 -36.5 -7.5t-30 -20t-20 -29.5t-7.5 -37v-225z" />
    <glyph glyph-name="Oslash" unicode="&#xd8;" horiz-adv-x="997" 
d="M247 0q-39 0 -73 14.5t-59.5 40t-40 59.5t-14.5 73v375q0 39 14.5 73.5t40 60t59.5 40t73 14.5h313l32 94q5 16 18 25t30 9h84q13 0 20.5 -10.5t2.5 -22.5l-33 -95h36q39 0 73 -14.5t59.5 -40t40 -60t14.5 -73.5v-375q0 -39 -14.5 -73t-40 -59.5t-59.5 -40t-73 -14.5
h-295l-36 -103q-5 -15 -18 -24.5t-29 -9.5h-84q-13 0 -20.5 10.5t-2.5 22.5l36 104h-54zM247 262q0 -19 7.5 -36t20 -29.5t30 -20t36.5 -7.5h18l142 412h-160q-19 0 -36.5 -7.5t-30 -20t-20 -29.5t-7.5 -37v-225zM656 169q20 0 37 7.5t29.5 20t20 29.5t7.5 36v225
q0 39 -27.5 66.5t-66.5 27.5l-143 -412h143z" />
    <glyph glyph-name="Ugrave" unicode="&#xd9;" horiz-adv-x="940" 
d="M250 0q-39 0 -73 14.5t-59.5 40t-40 59.5t-14.5 73v525q0 16 11 27t26 11h113q16 0 26.5 -11t10.5 -27v-450q0 -19 7.5 -36t20 -29.5t30 -20t36.5 -7.5h251q20 0 37 7.5t29.5 20t20 29.5t7.5 36v450q0 16 11 27t26 11h113q15 0 26 -11t11 -27v-525q0 -39 -14.5 -73
t-40 -59.5t-59.5 -40t-73 -14.5h-439zM445 1004q18 0 26 -15l79 -138q5 -7 0.5 -14.5t-13.5 -7.5h-43q-18 0 -26 15l-79 137q-5 8 -0.5 15.5t13.5 7.5h43z" />
    <glyph glyph-name="Uacute" unicode="&#xda;" horiz-adv-x="940" 
d="M537 1008q9 0 13.5 -7.5t-0.5 -15.5l-79 -137q-7 -15 -26 -15h-43q-9 0 -13.5 7t0.5 15l79 138q10 15 26 15h43zM250 0q-39 0 -73 14.5t-59.5 40t-40 59.5t-14.5 73v525q0 16 11 27t26 11h113q16 0 26.5 -11t10.5 -27v-450q0 -19 7.5 -36t20 -29.5t30 -20t36.5 -7.5h251
q20 0 37 7.5t29.5 20t20 29.5t7.5 36v450q0 16 11 27t26 11h113q15 0 26 -11t11 -27v-525q0 -39 -14.5 -73t-40 -59.5t-59.5 -40t-73 -14.5h-439z" />
    <glyph glyph-name="Ucircumflex" unicode="&#xdb;" horiz-adv-x="940" 
d="M250 0q-39 0 -73 14.5t-59.5 40t-40 59.5t-14.5 73v525q0 16 11 27t26 11h113q16 0 26.5 -11t10.5 -27v-450q0 -19 7.5 -36t20 -29.5t30 -20t36.5 -7.5h251q20 0 37 7.5t29.5 20t20 29.5t7.5 36v450q0 16 11 27t26 11h113q15 0 26 -11t11 -27v-525q0 -39 -14.5 -73
t-40 -59.5t-59.5 -40t-73 -14.5h-439zM544 834q-17 0 -26 15l-40 70q-3 5 -9 5t-8 -5l-41 -70q-7 -15 -26 -15h-43q-9 0 -13.5 7t0.5 15l84 145q3 8 13 8h69q8 0 13 -8l83 -145q5 -8 0.5 -15t-12.5 -7h-44z" />
    <glyph glyph-name="Udieresis" unicode="&#xdc;" horiz-adv-x="940" 
d="M376 824q-26 0 -44.5 18.5t-18.5 44.5t18.5 44t44.5 18t44 -18t18 -44t-18 -44.5t-44 -18.5zM626 887q0 -26 -18.5 -44.5t-44.5 -18.5t-44 18.5t-18 44.5t18 44t44 18t44.5 -18t18.5 -44zM250 0q-39 0 -73 14.5t-59.5 40t-40 59.5t-14.5 73v525q0 16 11 27t26 11h113
q16 0 26.5 -11t10.5 -27v-450q0 -19 7.5 -36t20 -29.5t30 -20t36.5 -7.5h251q20 0 37 7.5t29.5 20t20 29.5t7.5 36v450q0 16 11 27t26 11h113q15 0 26 -11t11 -27v-525q0 -39 -14.5 -73t-40 -59.5t-59.5 -40t-73 -14.5h-439z" />
    <glyph glyph-name="Yacute" unicode="&#xdd;" horiz-adv-x="856" 
d="M496 1008q9 0 13.5 -7.5t-0.5 -15.5l-79 -137q-10 -15 -26 -15h-44q-8 0 -12.5 7t-0.5 15l80 138q8 15 26 15h43zM40 695q-10 19 1 37t32 18h132q11 0 20 -6t14 -15l116 -238q5 -9 13.5 -15t19.5 -6h80q11 0 20 6t14 15l115 238q5 9 14 15t20 6h132q21 0 32 -18t1 -37
l-192 -373q-10 -20 -33 -20h-44q-11 0 -18 -7t-7 -18v-239q0 -16 -11 -27t-27 -11h-112q-16 0 -27 11t-11 27v239q0 11 -7 18t-18 7h-43q-22 0 -34 20z" />
    <glyph glyph-name="Thorn" unicode="&#xde;" horiz-adv-x="906" 
d="M665 610q39 0 73 -14.5t59.5 -40t40 -59.5t14.5 -73v-96q0 -39 -14.5 -73t-40 -59.5t-59.5 -40t-73 -14.5h-375q-16 0 -27 -11t-11 -27v-65q0 -15 -10.5 -26t-26.5 -11h-113q-15 0 -26 11t-11 26v675q0 16 11 27t26 11h113q16 0 26.5 -11t10.5 -27v-65q0 -15 11 -26
t27 -11h375zM665 404q0 16 -11 26.5t-27 10.5h-337q-16 0 -27 -10.5t-11 -26.5v-58q0 -16 11 -27t27 -11h337q16 0 27 11t11 27v58z" />
    <glyph glyph-name="germandbls" unicode="&#xdf;" horiz-adv-x="899" 
d="M800 489q0 -37 -14 -71q26 -26 41.5 -60.5t15.5 -74.5v-96q0 -39 -14.5 -73t-40 -59.5t-59.5 -40t-73 -14.5h-173q-39 0 -73 14.5t-59.5 40t-40 59.5t-14.5 73v9q0 15 11 26t27 11h112q16 0 26.5 -11t10.5 -26q0 -11 8.5 -19t19.5 -8h107q16 0 27 10.5t11 26.5v58
q0 16 -11 27t-27 11h-185q-16 0 -27 10.5t-11 26.5v94q0 16 11 26.5t27 10.5h142q15 0 26 11t11 27v35q0 16 -11 27t-26 11h-290q-16 0 -27 -11t-11 -27v-506q0 -15 -10.5 -26t-26.5 -11h-113q-15 0 -26 11t-11 26v525q0 39 14.5 73.5t40 60t59.5 40t73 14.5h365
q39 0 73.5 -14.5t60 -40t40 -60t14.5 -73.5v-73z" />
    <glyph glyph-name="agrave" unicode="&#xe0;" 
d="M958 51q7 -19 -4 -35t-31 -16h-131q-11 0 -20.5 6.5t-14.5 17.5l-40 131q-5 11 -14 17.5t-21 6.5h-358q-11 0 -20.5 -6.5t-14.5 -17.5l-40 -131q-5 -11 -14.5 -17.5t-20.5 -6.5h-131q-20 0 -31 16t-4 35l255 662q6 17 20.5 27t31.5 10h296q17 0 31.5 -10t20.5 -27z
M614 348q11 0 17 8.5t2 18.5l-71 184q-4 10 -12.5 16t-19.5 6h-54q-11 0 -19.5 -6t-12.5 -16l-71 -184q-4 -10 2 -18.5t17 -8.5h222zM478 1005q18 0 26 -15l79 -138q5 -7 0.5 -14.5t-13.5 -7.5h-43q-18 0 -26 15l-79 137q-5 8 -0.5 15.5t13.5 7.5h43z" />
    <glyph glyph-name="aacute" unicode="&#xe1;" 
d="M571 1008q8 0 13 -7.5t0 -15.5l-79 -137q-10 -15 -26 -15h-44q-8 0 -12.5 7.5t-0.5 15.5l80 137q8 15 26 15h43zM958 51q7 -19 -4 -35t-31 -16h-131q-11 0 -20.5 6.5t-14.5 17.5l-40 131q-5 11 -14 17.5t-21 6.5h-358q-11 0 -20.5 -6.5t-14.5 -17.5l-40 -131
q-5 -11 -14.5 -17.5t-20.5 -6.5h-131q-20 0 -31 16t-4 35l255 662q6 17 20.5 27t31.5 10h296q17 0 31.5 -10t20.5 -27zM614 348q11 0 17 8.5t2 18.5l-71 184q-4 10 -12.5 16t-19.5 6h-54q-11 0 -19.5 -6t-12.5 -16l-71 -184q-4 -10 2 -18.5t17 -8.5h222z" />
    <glyph glyph-name="acircumflex" unicode="&#xe2;" 
d="M958 51q7 -19 -4 -35t-31 -16h-131q-11 0 -20.5 6.5t-14.5 17.5l-40 131q-5 11 -14 17.5t-21 6.5h-358q-11 0 -20.5 -6.5t-14.5 -17.5l-40 -131q-5 -11 -14.5 -17.5t-20.5 -6.5h-131q-20 0 -31 16t-4 35l255 662q6 17 20.5 27t31.5 10h296q17 0 31.5 -10t20.5 -27z
M614 348q11 0 17 8.5t2 18.5l-71 184q-4 10 -12.5 16t-19.5 6h-54q-11 0 -19.5 -6t-12.5 -16l-71 -184q-4 -10 2 -18.5t17 -8.5h222zM577 835q-17 0 -26 15l-40 70q-3 5 -9 5t-8 -5l-41 -70q-7 -15 -26 -15h-43q-9 0 -13.5 7t0.5 15l84 145q3 8 13 8h69q8 0 13 -8l83 -145
q5 -8 0.5 -15t-12.5 -7h-44z" />
    <glyph glyph-name="atilde" unicode="&#xe3;" 
d="M631 957q7 -3 9.5 -10t-1.5 -14l-38 -79q-10 -20 -31 -20q-8 0 -15 4l-93 44q-6 3 -13 1t-10 -9l-13 -27q-3 -7 -10 -9.5t-13 0.5l-25 12q-7 3 -9 10t1 14l38 79q10 20 31 20q8 0 15 -4l93 -44q6 -3 13 -1t10 9l13 27q3 7 10 9.5t14 -0.5zM958 51q7 -19 -4 -35t-31 -16
h-131q-11 0 -20.5 6.5t-14.5 17.5l-40 131q-5 11 -14 17.5t-21 6.5h-358q-11 0 -20.5 -6.5t-14.5 -17.5l-40 -131q-5 -11 -14.5 -17.5t-20.5 -6.5h-131q-20 0 -31 16t-4 35l255 662q6 17 20.5 27t31.5 10h296q17 0 31.5 -10t20.5 -27zM614 348q11 0 17 8.5t2 18.5l-71 184
q-4 10 -12.5 16t-19.5 6h-54q-11 0 -19.5 -6t-12.5 -16l-71 -184q-4 -10 2 -18.5t17 -8.5h222z" />
    <glyph glyph-name="adieresis" unicode="&#xe4;" 
d="M409 825q-26 0 -44 18t-18 44t18 44.5t44 18.5t44.5 -18.5t18.5 -44.5t-18.5 -44t-44.5 -18zM659 887q0 -26 -18 -44t-44 -18t-44.5 18t-18.5 44t18.5 44.5t44.5 18.5t44 -18.5t18 -44.5zM958 51q7 -19 -4 -35t-31 -16h-131q-11 0 -20.5 6.5t-14.5 17.5l-40 131
q-5 11 -14 17.5t-21 6.5h-358q-11 0 -20.5 -6.5t-14.5 -17.5l-40 -131q-5 -11 -14.5 -17.5t-20.5 -6.5h-131q-20 0 -31 16t-4 35l255 662q6 17 20.5 27t31.5 10h296q17 0 31.5 -10t20.5 -27zM614 348q11 0 17 8.5t2 18.5l-71 184q-4 10 -12.5 16t-19.5 6h-54q-11 0 -19.5 -6
t-12.5 -16l-71 -184q-4 -10 2 -18.5t17 -8.5h222z" />
    <glyph glyph-name="aring" unicode="&#xe5;" 
d="M436 825q-16 0 -27 11t-11 26v138q0 15 11 26t27 11h134q16 0 27 -11t11 -26v-138q0 -15 -11 -26t-27 -11h-134zM473 915q0 -7 4.5 -11t10.5 -4h30q6 0 10.5 4t4.5 11v32q0 6 -4.5 10.5t-10.5 4.5h-30q-6 0 -10.5 -4.5t-4.5 -10.5v-32zM958 51q7 -19 -4 -35t-31 -16h-131
q-11 0 -20.5 6.5t-14.5 17.5l-40 131q-5 11 -14 17.5t-21 6.5h-358q-11 0 -20.5 -6.5t-14.5 -17.5l-40 -131q-5 -11 -14.5 -17.5t-20.5 -6.5h-131q-20 0 -31 16t-4 35l255 662q6 17 20.5 27t31.5 10h296q17 0 31.5 -10t20.5 -27zM614 348q11 0 17 8.5t2 18.5l-71 184
q-4 10 -12.5 16t-19.5 6h-54q-11 0 -19.5 -6t-12.5 -16l-71 -184q-4 -10 2 -18.5t17 -8.5h222z" />
    <glyph glyph-name="ae" unicode="&#xe6;" horiz-adv-x="1460" 
d="M83 0q-20 0 -31 16t-4 35l250 650q8 22 27.5 35.5t42.5 13.5h979q16 0 26.5 -11t10.5 -27v-94q0 -15 -10.5 -26t-26.5 -11h-467q-16 0 -27 -11t-11 -27v-35q0 -16 11 -27t27 -11h415q16 0 27 -10.5t11 -26.5v-94q0 -16 -11 -26.5t-27 -10.5h-415q-16 0 -27 -11t-11 -27
v-58q0 -16 11 -26.5t27 -10.5h492q16 0 26.5 -11t10.5 -27v-94q0 -15 -10.5 -26t-26.5 -11h-680q-15 0 -26 11t-11 26v105q0 15 -11 26t-27 11h-267q-23 0 -42.5 -13t-27.5 -35l-41 -107q-5 -11 -14.5 -17.5t-20.5 -6.5h-121zM377 383q-5 -13 2.5 -24t21.5 -11h216
q16 0 27 10.5t11 26.5v158q0 16 -11 27t-27 11h-139q-11 0 -20.5 -6.5t-14.5 -17.5z" />
    <glyph glyph-name="ccedilla" unicode="&#xe7;" horiz-adv-x="830" 
d="M527 -161q0 -21 -14.5 -35.5t-35.5 -14.5h-159q-15 0 -15 15v32q0 6 4 10.5t11 4.5h119q7 0 11 4.5t4 10.5v24q0 15 -15 15h-84q-21 0 -35.5 15t-14.5 35v45h-56q-39 0 -73 14.5t-59.5 40t-40 59.5t-14.5 73v375q0 39 14.5 73.5t40 60t59.5 40t73 14.5h495q16 0 27 -11
t11 -27v-94q0 -15 -11 -26t-27 -11h-401q-19 0 -36.5 -7.5t-30 -20t-20 -29.5t-7.5 -37v-225q0 -19 7.5 -36t20 -29.5t30 -20t36.5 -7.5h401q16 0 27 -11t11 -27v-94q0 -15 -11 -26t-27 -11h-364v-17q0 -15 15 -15h84q21 0 35.5 -15t14.5 -35v-79z" />
    <glyph glyph-name="egrave" unicode="&#xe8;" horiz-adv-x="870" 
d="M782 169q16 0 27 -11t11 -27v-94q0 -15 -11 -26t-27 -11h-680q-15 0 -26 11t-11 26v675q0 16 11 27t26 11h655q16 0 27 -11t11 -27v-94q0 -15 -11 -26t-27 -11h-467q-16 0 -27 -11t-11 -27v-35q0 -16 11 -27t27 -11h415q16 0 27 -10.5t11 -26.5v-94q0 -16 -11 -26.5
t-27 -10.5h-415q-16 0 -27 -11t-11 -27v-58q0 -16 11 -26.5t27 -10.5h492zM417 1004q18 0 26 -15l79 -138q5 -7 0.5 -14.5t-13.5 -7.5h-43q-18 0 -26 15l-79 137q-5 8 -0.5 15.5t13.5 7.5h43z" />
    <glyph glyph-name="eacute" unicode="&#xe9;" horiz-adv-x="870" 
d="M510 1007q9 0 13.5 -7t-0.5 -15l-79 -138q-10 -15 -26 -15h-44q-8 0 -12.5 7.5t0.5 15.5l79 137q8 15 26 15h43zM782 169q16 0 27 -11t11 -27v-94q0 -15 -11 -26t-27 -11h-680q-15 0 -26 11t-11 26v675q0 16 11 27t26 11h655q16 0 27 -11t11 -27v-94q0 -15 -11 -26
t-27 -11h-467q-16 0 -27 -11t-11 -27v-35q0 -16 11 -27t27 -11h415q16 0 27 -10.5t11 -26.5v-94q0 -16 -11 -26.5t-27 -10.5h-415q-16 0 -27 -11t-11 -27v-58q0 -16 11 -26.5t27 -10.5h492z" />
    <glyph glyph-name="ecircumflex" unicode="&#xea;" horiz-adv-x="870" 
d="M782 169q16 0 27 -11t11 -27v-94q0 -15 -11 -26t-27 -11h-680q-15 0 -26 11t-11 26v675q0 16 11 27t26 11h655q16 0 27 -11t11 -27v-94q0 -15 -11 -26t-27 -11h-467q-16 0 -27 -11t-11 -27v-35q0 -16 11 -27t27 -11h415q16 0 27 -10.5t11 -26.5v-94q0 -16 -11 -26.5
t-27 -10.5h-415q-16 0 -27 -11t-11 -27v-58q0 -16 11 -26.5t27 -10.5h492zM517 834q-17 0 -26 15l-40 70q-3 5 -9 5t-8 -5l-41 -70q-7 -15 -26 -15h-43q-9 0 -13.5 7t0.5 15l84 145q3 8 13 8h69q8 0 13 -8l83 -145q5 -8 0.5 -15t-12.5 -7h-44z" />
    <glyph glyph-name="edieresis" unicode="&#xeb;" horiz-adv-x="870" 
d="M348 824q-26 0 -44 18t-18 44t18 44.5t44 18.5t44.5 -18.5t18.5 -44.5t-18.5 -44t-44.5 -18zM599 886q0 -26 -18.5 -44t-44.5 -18t-44 18t-18 44t18 44.5t44 18.5t44.5 -18.5t18.5 -44.5zM782 169q16 0 27 -11t11 -27v-94q0 -15 -11 -26t-27 -11h-680q-15 0 -26 11
t-11 26v675q0 16 11 27t26 11h655q16 0 27 -11t11 -27v-94q0 -15 -11 -26t-27 -11h-467q-16 0 -27 -11t-11 -27v-35q0 -16 11 -27t27 -11h415q16 0 27 -10.5t11 -26.5v-94q0 -16 -11 -26.5t-27 -10.5h-415q-16 0 -27 -11t-11 -27v-58q0 -16 11 -26.5t27 -10.5h492z" />
    <glyph glyph-name="igrave" unicode="&#xec;" horiz-adv-x="318" 
d="M147 1018q18 0 26 -15l79 -138q5 -7 0.5 -14.5t-13.5 -7.5h-43q-18 0 -26 15l-79 137q-5 8 -0.5 15.5t13.5 7.5h43zM103 0q-16 0 -27 11t-11 26v675q0 16 11 27t27 11h112q16 0 27 -11t11 -27v-675q0 -15 -11 -26t-27 -11h-112z" />
    <glyph glyph-name="iacute" unicode="&#xed;" horiz-adv-x="318" 
d="M227 1015q8 0 13 -7t0 -15l-80 -138q-8 -15 -25 -15h-44q-8 0 -13 7.5t0 15.5l80 137q8 15 26 15h43zM103 0q-16 0 -27 11t-11 26v675q0 16 11 27t27 11h112q16 0 27 -11t11 -27v-675q0 -15 -11 -26t-27 -11h-112z" />
    <glyph glyph-name="icircumflex" unicode="&#xee;" horiz-adv-x="318" 
d="M234 838q-17 0 -26 15l-40 70q-3 5 -9 5t-8 -5l-41 -70q-7 -15 -26 -15h-43q-9 0 -13.5 7t0.5 15l84 145q3 8 13 8h69q8 0 13 -8l83 -145q5 -8 0.5 -15t-12.5 -7h-44zM103 0q-16 0 -27 11t-11 26v675q0 16 11 27t27 11h112q16 0 27 -11t11 -27v-675q0 -15 -11 -26
t-27 -11h-112z" />
    <glyph glyph-name="idieresis" unicode="&#xef;" horiz-adv-x="318" 
d="M65 844q-26 0 -44 18t-18 44t18 44.5t44 18.5t44.5 -18.5t18.5 -44.5t-18.5 -44t-44.5 -18zM315 906q0 -26 -18 -44t-44 -18t-44.5 18t-18.5 44t18.5 44.5t44.5 18.5t44 -18.5t18 -44.5zM103 0q-16 0 -27 11t-11 26v675q0 16 11 27t27 11h112q16 0 27 -11t11 -27v-675
q0 -15 -11 -26t-27 -11h-112z" />
    <glyph glyph-name="ntilde" unicode="&#xf1;" horiz-adv-x="1004" 
d="M630 957q15 -8 8 -24l-38 -79q-10 -20 -31 -20q-9 0 -16 4l-92 44q-7 3 -13.5 0.5t-9.5 -8.5l-13 -28q-4 -6 -10.5 -8.5t-13.5 0.5l-25 12q-6 3 -8.5 10t0.5 13l38 80q10 19 32 19q8 0 15 -3l92 -44q7 -4 13.5 -1.5t10.5 9.5l13 27q3 7 9.5 9.5t13.5 -1.5zM555 0
q-26 0 -46 15.5t-27 41.5l-125 504q-2 9 -9.5 14.5t-16.5 5.5h-52q-11 0 -19 -7.5t-8 -18.5v-518q0 -15 -10.5 -26t-26.5 -11h-113q-15 0 -26 11t-11 26v675q0 16 11 27t26 11h342q26 0 46.5 -16t26.5 -41l126 -504q5 -20 25 -20h57q11 0 18.5 7.5t7.5 18.5v517q0 16 11 27
t26 11h113q15 0 26 -11t11 -27v-675q0 -15 -11 -26t-26 -11h-346z" />
    <glyph glyph-name="ograve" unicode="&#xf2;" horiz-adv-x="905" 
d="M247 0q-39 0 -73 14.5t-59.5 40t-40 59.5t-14.5 73v375q0 39 14.5 73.5t40 60t59.5 40t73 14.5h410q39 0 73 -14.5t59.5 -40t40 -60t14.5 -73.5v-375q0 -39 -14.5 -73t-40 -59.5t-59.5 -40t-73 -14.5h-410zM247 262q0 -19 7.5 -36t20 -29.5t30 -20t36.5 -7.5h222
q20 0 37 7.5t29.5 20t20 29.5t7.5 36v225q0 39 -27.5 66.5t-66.5 27.5h-222q-19 0 -36.5 -7.5t-30 -20t-20 -29.5t-7.5 -37v-225zM427 1005q18 0 26 -15l79 -138q5 -7 0.5 -14.5t-13.5 -7.5h-43q-18 0 -26 15l-79 137q-5 8 -0.5 15.5t13.5 7.5h43z" />
    <glyph glyph-name="oacute" unicode="&#xf3;" horiz-adv-x="905" 
d="M520 1008q8 0 13 -7t0 -15l-79 -138q-10 -15 -26 -15h-44q-8 0 -12.5 7.5t-0.5 15.5l80 137q8 15 26 15h43zM247 0q-39 0 -73 14.5t-59.5 40t-40 59.5t-14.5 73v375q0 39 14.5 73.5t40 60t59.5 40t73 14.5h410q39 0 73 -14.5t59.5 -40t40 -60t14.5 -73.5v-375
q0 -39 -14.5 -73t-40 -59.5t-59.5 -40t-73 -14.5h-410zM247 262q0 -19 7.5 -36t20 -29.5t30 -20t36.5 -7.5h222q20 0 37 7.5t29.5 20t20 29.5t7.5 36v225q0 39 -27.5 66.5t-66.5 27.5h-222q-19 0 -36.5 -7.5t-30 -20t-20 -29.5t-7.5 -37v-225z" />
    <glyph glyph-name="ocircumflex" unicode="&#xf4;" horiz-adv-x="905" 
d="M247 0q-39 0 -73 14.5t-59.5 40t-40 59.5t-14.5 73v375q0 39 14.5 73.5t40 60t59.5 40t73 14.5h410q39 0 73 -14.5t59.5 -40t40 -60t14.5 -73.5v-375q0 -39 -14.5 -73t-40 -59.5t-59.5 -40t-73 -14.5h-410zM247 262q0 -19 7.5 -36t20 -29.5t30 -20t36.5 -7.5h222
q20 0 37 7.5t29.5 20t20 29.5t7.5 36v225q0 39 -27.5 66.5t-66.5 27.5h-222q-19 0 -36.5 -7.5t-30 -20t-20 -29.5t-7.5 -37v-225zM526 835q-17 0 -26 15l-40 70q-3 5 -9 5t-8 -5l-41 -70q-7 -15 -26 -15h-43q-9 0 -13.5 7t0.5 15l84 145q3 8 13 8h69q8 0 13 -8l83 -145
q5 -8 0.5 -15t-12.5 -7h-44z" />
    <glyph glyph-name="otilde" unicode="&#xf5;" horiz-adv-x="905" 
d="M580 957q7 -3 9.5 -10t-0.5 -13l-38 -80q-5 -9 -13.5 -14t-18.5 -5q-7 0 -15 3l-92 44q-7 4 -14 1.5t-10 -9.5l-13 -27q-3 -7 -10 -9.5t-13 1.5l-25 11q-15 8 -8 24l38 79q10 20 31 20q8 0 15 -4l93 -44q6 -3 13 -0.5t10 8.5l13 28q3 6 10 8.5t14 -0.5zM247 0
q-39 0 -73 14.5t-59.5 40t-40 59.5t-14.5 73v375q0 39 14.5 73.5t40 60t59.5 40t73 14.5h410q39 0 73 -14.5t59.5 -40t40 -60t14.5 -73.5v-375q0 -39 -14.5 -73t-40 -59.5t-59.5 -40t-73 -14.5h-410zM247 262q0 -19 7.5 -36t20 -29.5t30 -20t36.5 -7.5h222q20 0 37 7.5
t29.5 20t20 29.5t7.5 36v225q0 39 -27.5 66.5t-66.5 27.5h-222q-19 0 -36.5 -7.5t-30 -20t-20 -29.5t-7.5 -37v-225z" />
    <glyph glyph-name="odieresis" unicode="&#xf6;" horiz-adv-x="905" 
d="M358 825q-26 0 -44 18t-18 44t18 44.5t44 18.5t44.5 -18.5t18.5 -44.5t-18.5 -44t-44.5 -18zM608 887q0 -26 -18 -44t-44 -18t-44.5 18t-18.5 44t18.5 44.5t44.5 18.5t44 -18.5t18 -44.5zM247 0q-39 0 -73 14.5t-59.5 40t-40 59.5t-14.5 73v375q0 39 14.5 73.5t40 60
t59.5 40t73 14.5h410q39 0 73 -14.5t59.5 -40t40 -60t14.5 -73.5v-375q0 -39 -14.5 -73t-40 -59.5t-59.5 -40t-73 -14.5h-410zM247 262q0 -19 7.5 -36t20 -29.5t30 -20t36.5 -7.5h222q20 0 37 7.5t29.5 20t20 29.5t7.5 36v225q0 39 -27.5 66.5t-66.5 27.5h-222
q-19 0 -36.5 -7.5t-30 -20t-20 -29.5t-7.5 -37v-225z" />
    <glyph glyph-name="oslash" unicode="&#xf8;" horiz-adv-x="905" 
d="M670 878q13 0 20.5 -10.5t3.5 -22.5l-33 -95q38 -1 71.5 -16t58 -40.5t39 -59.5t14.5 -72v-375q0 -39 -14.5 -73t-40 -59.5t-59.5 -40t-73 -14.5h-255l-36 -103q-5 -15 -18 -24.5t-29 -9.5h-84q-13 0 -20.5 10.5t-3.5 22.5l36 104q-39 0 -73 14.5t-59.5 40t-40 59.5
t-14.5 73v375q0 39 14.5 73.5t40 60t59.5 40t73 14.5h259l33 94q5 16 18 25t29 9h84zM247 262q0 -30 17 -53.5t44 -33.5l140 406h-107q-19 0 -36.5 -7.5t-30 -20t-20 -29.5t-7.5 -37v-225zM563 169q20 0 37 7.5t29.5 20t20 29.5t7.5 36v225q0 29 -16 52t-41 34l-140 -404
h103z" />
    <glyph glyph-name="ugrave" unicode="&#xf9;" horiz-adv-x="847" 
d="M783 187q0 -39 -14.5 -73t-40 -59.5t-59.5 -40t-73 -14.5h-346q-39 0 -73 14.5t-59.5 40t-40 59.5t-14.5 73v525q0 16 11 27t26 11h113q16 0 26.5 -11t10.5 -27v-450q0 -19 7.5 -36t20 -29.5t30 -20t36.5 -7.5h158q20 0 37 7.5t29.5 20t20 29.5t7.5 36v450q0 16 11 27
t27 11h112q16 0 26.5 -11t10.5 -27v-525zM398 1005q18 0 26 -15l79 -138q5 -7 0.5 -14.5t-13.5 -7.5h-43q-18 0 -26 15l-79 137q-5 8 -0.5 15.5t13.5 7.5h43z" />
    <glyph glyph-name="uacute" unicode="&#xfa;" horiz-adv-x="847" 
d="M491 1008q9 0 13.5 -7t-0.5 -15l-79 -138q-10 -15 -26 -15h-44q-8 0 -12.5 7.5t-0.5 15.5l80 137q8 15 26 15h43zM783 187q0 -39 -14.5 -73t-40 -59.5t-59.5 -40t-73 -14.5h-346q-39 0 -73 14.5t-59.5 40t-40 59.5t-14.5 73v525q0 16 11 27t26 11h113q16 0 26.5 -11
t10.5 -27v-450q0 -19 7.5 -36t20 -29.5t30 -20t36.5 -7.5h158q20 0 37 7.5t29.5 20t20 29.5t7.5 36v450q0 16 11 27t27 11h112q16 0 26.5 -11t10.5 -27v-525z" />
    <glyph glyph-name="ucircumflex" unicode="&#xfb;" horiz-adv-x="847" 
d="M783 187q0 -39 -14.5 -73t-40 -59.5t-59.5 -40t-73 -14.5h-346q-39 0 -73 14.5t-59.5 40t-40 59.5t-14.5 73v525q0 16 11 27t26 11h113q16 0 26.5 -11t10.5 -27v-450q0 -19 7.5 -36t20 -29.5t30 -20t36.5 -7.5h158q20 0 37 7.5t29.5 20t20 29.5t7.5 36v450q0 16 11 27
t27 11h112q16 0 26.5 -11t10.5 -27v-525zM497 835q-17 0 -26 15l-40 70q-3 5 -9 5t-8 -5l-41 -70q-7 -15 -26 -15h-43q-9 0 -13.5 7t0.5 15l84 145q3 8 13 8h69q8 0 13 -8l83 -145q5 -8 0.5 -15t-12.5 -7h-44z" />
    <glyph glyph-name="udieresis" unicode="&#xfc;" horiz-adv-x="847" 
d="M329 825q-26 0 -44 18t-18 44t18 44.5t44 18.5t44.5 -18.5t18.5 -44.5t-18.5 -44t-44.5 -18zM580 887q0 -26 -18.5 -44t-44.5 -18t-44 18t-18 44t18 44.5t44 18.5t44.5 -18.5t18.5 -44.5zM783 187q0 -39 -14.5 -73t-40 -59.5t-59.5 -40t-73 -14.5h-346q-39 0 -73 14.5
t-59.5 40t-40 59.5t-14.5 73v525q0 16 11 27t26 11h113q16 0 26.5 -11t10.5 -27v-450q0 -19 7.5 -36t20 -29.5t30 -20t36.5 -7.5h158q20 0 37 7.5t29.5 20t20 29.5t7.5 36v450q0 16 11 27t27 11h112q16 0 26.5 -11t10.5 -27v-525z" />
    <glyph glyph-name="yacute" unicode="&#xfd;" horiz-adv-x="856" 
d="M496 1008q8 0 13 -7.5t0 -15.5l-79 -137q-10 -15 -26 -15h-44q-8 0 -12.5 7.5t-0.5 15.5l80 137q8 15 26 15h43zM40 695q-10 19 1 37t32 18h132q11 0 20 -6t14 -15l116 -238q5 -9 13.5 -15t19.5 -6h80q11 0 20 6t14 15l115 238q5 9 14 15t20 6h132q21 0 32 -18t1 -37
l-192 -373q-10 -20 -33 -20h-44q-11 0 -18 -7t-7 -18v-240q0 -15 -11 -26t-27 -11h-112q-16 0 -27 11t-11 26v240q0 11 -7 18t-18 7h-43q-22 0 -34 20z" />
    <glyph glyph-name="thorn" unicode="&#xfe;" horiz-adv-x="906" 
d="M665 610q39 0 73 -14.5t59.5 -40t40 -59.5t14.5 -73v-96q0 -39 -14.5 -73t-40 -59.5t-59.5 -40t-73 -14.5h-375q-16 0 -27 -11t-11 -27v-65q0 -15 -10.5 -26t-26.5 -11h-113q-15 0 -26 11t-11 26v675q0 16 11 27t26 11h113q16 0 26.5 -11t10.5 -27v-65q0 -15 11 -26
t27 -11h375zM665 404q0 16 -11 26.5t-27 10.5h-337q-16 0 -27 -10.5t-11 -26.5v-58q0 -16 11 -27t27 -11h337q16 0 27 11t11 27v58z" />
    <glyph glyph-name="ydieresis" unicode="&#xff;" horiz-adv-x="856" 
d="M334 825q-26 0 -44 18t-18 44t18 44.5t44 18.5t44.5 -18.5t18.5 -44.5t-18.5 -44t-44.5 -18zM584 887q0 -26 -18 -44t-44 -18t-44 18t-18 44t18 44.5t44 18.5t44 -18.5t18 -44.5zM40 695q-10 19 1 37t32 18h132q11 0 20 -6t14 -15l116 -238q5 -9 13.5 -15t19.5 -6h80
q11 0 20 6t14 15l115 238q5 9 14 15t20 6h132q21 0 32 -18t1 -37l-192 -373q-10 -20 -33 -20h-44q-11 0 -18 -7t-7 -18v-240q0 -15 -11 -26t-27 -11h-112q-16 0 -27 11t-11 26v240q0 11 -7 18t-18 7h-43q-22 0 -34 20z" />
    <glyph glyph-name="Dcroat" unicode="&#x110;" horiz-adv-x="1074" 
d="M826 750q39 0 73.5 -14.5t60 -40t40 -60t14.5 -73.5v-375q0 -39 -14.5 -73t-40 -59.5t-60 -40t-73.5 -14.5h-629q-16 0 -27 11t-11 26v240q0 11 -7 18t-18 7h-82q-15 0 -26 10.5t-11 26.5v94q0 16 11 26.5t26 10.5h82q11 0 18 7.5t7 17.5v217q0 16 11 27t27 11h629z
M826 487q0 39 -27 66.5t-66 27.5h-349q-15 0 -26 -11t-11 -27v-48q0 -10 7 -17.5t18 -7.5h96q15 0 26 -10.5t11 -26.5v-94q0 -16 -11 -26.5t-26 -10.5h-96q-11 0 -18 -7t-7 -18v-71q0 -16 11 -26.5t26 -10.5h349q20 0 36.5 7.5t29.5 20t20 29.5t7 36v225z" />
    <glyph glyph-name="dcroat" unicode="&#x111;" horiz-adv-x="1074" 
d="M826 750q39 0 73.5 -14.5t60 -40t40 -60t14.5 -73.5v-375q0 -39 -14.5 -73t-40 -59.5t-60 -40t-73.5 -14.5h-629q-16 0 -27 11t-11 26v240q0 11 -7 18t-18 7h-82q-15 0 -26 10.5t-11 26.5v94q0 16 11 26.5t26 10.5h82q11 0 18 7.5t7 17.5v217q0 16 11 27t27 11h629z
M826 487q0 39 -27 66.5t-66 27.5h-349q-15 0 -26 -11t-11 -27v-48q0 -10 7 -17.5t18 -7.5h96q15 0 26 -10.5t11 -26.5v-94q0 -16 -11 -26.5t-26 -10.5h-96q-11 0 -18 -7t-7 -18v-71q0 -16 11 -26.5t26 -10.5h349q20 0 36.5 7.5t29.5 20t20 29.5t7 36v225z" />
    <glyph glyph-name="dotlessi" unicode="&#x131;" horiz-adv-x="318" 
d="M103 0q-16 0 -27 11t-11 26v675q0 16 11 27t27 11h112q16 0 27 -11t11 -27v-675q0 -15 -11 -26t-27 -11h-112z" />
    <glyph glyph-name="Lslash" unicode="&#x141;" horiz-adv-x="767" 
d="M103 0q-16 0 -27 11t-11 27v185l-27 -14q-14 -8 -29 -8q-17 0 -32 8.5t-23 24.5q-13 23 -5.5 48t30.5 37l86 46v347q0 16 11 27t27 11h112q16 0 26.5 -11t10.5 -27v-247l23 12q13 7 29 7q17 0 32 -8.5t23 -24.5q12 -23 4.5 -47.5t-30.5 -36.5l-81 -44v-117
q0 -16 11 -26.5t27 -10.5h404q16 0 26.5 -11t10.5 -27v-93q0 -16 -10.5 -27t-26.5 -11h-591z" />
    <glyph glyph-name="lslash" unicode="&#x142;" horiz-adv-x="674" 
d="M103 0q-16 0 -27 11t-11 26v167l-27 -11q-6 -3 -12.5 -4t-12.5 -1q-18 0 -34 10t-24 27q-10 24 -0.5 48t33.5 34l77 34v371q0 16 11 27t27 11h112q16 0 26.5 -11t10.5 -27v-291l42 18q6 3 12.5 4t12.5 1q18 0 33.5 -10t23.5 -27q11 -24 1 -48t-33 -35l-92 -39v-79
q0 -16 11 -26.5t27 -10.5h311q16 0 27 -11t11 -27v-94q0 -15 -11 -26t-27 -11h-498z" />
    <glyph glyph-name="OE" unicode="&#x152;" horiz-adv-x="1555" 
d="M1467 169q15 0 26 -11t11 -27v-94q0 -15 -11 -26t-26 -11h-1220q-39 0 -73 14.5t-59.5 40t-40 59.5t-14.5 73v375q0 39 14.5 73.5t40 60t59.5 40t73 14.5h1195q15 0 26 -11t11 -27v-94q0 -15 -11 -26t-26 -11h-468q-15 0 -26 -11t-11 -27v-35q0 -16 11 -27t26 -11h416
q15 0 26 -10.5t11 -26.5v-94q0 -16 -11 -26.5t-26 -10.5h-416q-15 0 -26 -11t-11 -27v-58q0 -16 11 -26.5t26 -10.5h493zM750 487q0 39 -27.5 66.5t-66.5 27.5h-315q-19 0 -36.5 -7.5t-30 -20t-20 -29.5t-7.5 -37v-225q0 -19 7.5 -36t20 -29.5t30 -20t36.5 -7.5h315
q20 0 37 7.5t29.5 20t20 29.5t7.5 36v225z" />
    <glyph glyph-name="oe" unicode="&#x153;" horiz-adv-x="1555" 
d="M1467 169q15 0 26 -11t11 -27v-94q0 -15 -11 -26t-26 -11h-1220q-39 0 -73 14.5t-59.5 40t-40 59.5t-14.5 73v375q0 39 14.5 73.5t40 60t59.5 40t73 14.5h1195q15 0 26 -11t11 -27v-94q0 -15 -11 -26t-26 -11h-468q-15 0 -26 -11t-11 -27v-35q0 -16 11 -27t26 -11h416
q15 0 26 -10.5t11 -26.5v-94q0 -16 -11 -26.5t-26 -10.5h-416q-15 0 -26 -11t-11 -27v-58q0 -16 11 -26.5t26 -10.5h493zM750 487q0 39 -27.5 66.5t-66.5 27.5h-315q-19 0 -36.5 -7.5t-30 -20t-20 -29.5t-7.5 -37v-225q0 -19 7.5 -36t20 -29.5t30 -20t36.5 -7.5h315
q20 0 37 7.5t29.5 20t20 29.5t7.5 36v225z" />
    <glyph glyph-name="Scaron" unicode="&#x160;" horiz-adv-x="938" 
d="M821 750q16 0 26.5 -11t10.5 -27v-94q0 -15 -10.5 -26t-26.5 -11h-737q-11 0 -17 8t-5 18q5 30 21.5 56.5t41.5 45.5t56 30t66 11h574zM97 0q-15 0 -26 11t-11 26v94q0 16 11 27t26 11h555q16 0 27 10.5t11 26.5v58q0 16 -11 27t-27 11h-405q-35 0 -66 11t-55.5 29.5
t-41 44.5t-21.5 56q-1 7 2 17t22 10h603q39 0 73 -14.5t59.5 -40t40 -59.5t14.5 -73v-96q0 -39 -14.5 -73t-40 -59.5t-59.5 -40t-73 -14.5h-593zM587 1006q8 0 13 -7t0 -15l-84 -145q-5 -8 -13 -8h-69q-8 0 -13 8l-84 145q-4 8 0.5 15t12.5 7h44q8 0 14.5 -3.5t10.5 -11.5
l41 -70q3 -5 8.5 -5t8.5 5l41 70q8 15 25 15h44z" />
    <glyph glyph-name="scaron" unicode="&#x161;" horiz-adv-x="938" 
d="M877 187q0 -39 -14.5 -73t-40 -59.5t-59.5 -40t-73 -14.5h-593q-15 0 -26 11t-11 26v94q0 16 11 27t26 11h555q16 0 27 10.5t11 26.5v58q0 16 -11 27t-27 11h-405q-39 0 -73 14.5t-59.5 40t-40 59.5t-14.5 73v73q0 39 14.5 73.5t40 60t59.5 40t73 14.5h574q16 0 26.5 -11
t10.5 -27v-94q0 -15 -10.5 -26t-26.5 -11h-536q-16 0 -27 -11t-11 -27v-35q0 -16 11 -27t27 -11h405q39 0 73 -14.5t59.5 -40t40 -59.5t14.5 -73v-96zM587 1006q8 0 13 -7t0 -15l-84 -145q-5 -8 -13 -8h-69q-8 0 -13 8l-84 145q-4 8 0.5 15t12.5 7h44q8 0 14.5 -3.5
t10.5 -11.5l41 -70q3 -5 8.5 -5t8.5 5l41 70q8 15 25 15h44z" />
    <glyph glyph-name="Ydieresis" unicode="&#x178;" horiz-adv-x="856" 
d="M334 825q-26 0 -44 18t-18 44t18 44.5t44 18.5t44.5 -18.5t18.5 -44.5t-18.5 -44t-44.5 -18zM584 887q0 -26 -18 -44t-44 -18t-44 18t-18 44t18 44.5t44 18.5t44 -18.5t18 -44.5zM40 695q-10 19 1 37t32 18h132q11 0 20 -6t14 -15l116 -238q5 -9 13.5 -15t19.5 -6h80
q11 0 20 6t14 15l115 238q5 9 14 15t20 6h132q21 0 32 -18t1 -37l-192 -373q-10 -20 -33 -20h-44q-11 0 -18 -7t-7 -18v-239q0 -16 -11 -27t-27 -11h-112q-16 0 -27 11t-11 27v239q0 11 -7 18t-18 7h-43q-22 0 -34 20z" />
    <glyph glyph-name="Zcaron" unicode="&#x17d;" horiz-adv-x="815" 
d="M107 581q-15 0 -26 11t-11 26v94q0 16 11 27t26 11l609 1q16 0 26.5 -11t10.5 -27v-94q0 -15 -10.5 -26t-26.5 -11zM87 0q-15 0 -26 11t-11 26v126q0 17 7 32t21 26l337 276q22 16 48 16h199q14 0 19 -13t-6 -22l-339 -276q-10 -8 -5.5 -20.5t17.5 -12.5h379
q16 0 26.5 -11t10.5 -27v-94q0 -15 -10.5 -26t-26.5 -11h-640zM525 1006q8 0 13 -7t0 -15l-84 -145q-5 -8 -13 -8h-69q-8 0 -13 8l-84 145q-4 8 0.5 15t12.5 7h44q8 0 14.5 -3.5t10.5 -11.5l41 -70q3 -5 8.5 -5t8.5 5l41 70q8 15 25 15h44z" />
    <glyph glyph-name="zcaron" unicode="&#x17e;" horiz-adv-x="815" 
d="M87 0q-15 0 -26 11t-11 26v126q0 17 7 32t21 26l400 327q5 4 6.5 9.5t-0.5 11t-6.5 9t-11.5 3.5h-354q-15 0 -26 11t-11 26v94q0 16 11 27t26 11h615q16 0 26.5 -11t10.5 -27v-125q0 -36 -27 -58l-401 -327q-10 -8 -5.5 -20.5t17.5 -12.5h379q16 0 26.5 -11t10.5 -27v-94
q0 -15 -10.5 -26t-26.5 -11h-640zM525 1005q8 0 13 -7t0 -15l-84 -145q-5 -8 -13 -8h-69q-8 0 -13 8l-84 145q-4 8 0.5 15t12.5 7h44q8 0 14.5 -3.5t10.5 -11.5l41 -70q3 -5 8.5 -5t8.5 5l41 70q8 15 25 15h44z" />
    <glyph glyph-name="circumflex" unicode="&#x2c6;" horiz-adv-x="358" 
d="M254 584q-17 0 -26 15l-40 70q-3 5 -9 5t-8 -5l-41 -70q-7 -15 -26 -15h-43q-9 0 -13.5 7t0.5 15l84 145q3 8 13 8h69q8 0 13 -8l83 -145q5 -8 0.5 -15t-12.5 -7h-44z" />
    <glyph glyph-name="caron" unicode="&#x2c7;" horiz-adv-x="357" 
d="M297 757q8 0 13 -7t0 -15l-84 -145q-5 -8 -13 -8h-69q-8 0 -13 8l-84 145q-4 8 0.5 15t12.5 7h44q8 0 14.5 -3.5t10.5 -11.5l41 -70q3 -5 8.5 -5t8.5 5l41 70q8 15 25 15h44z" />
    <glyph glyph-name="breve" unicode="&#x2d8;" horiz-adv-x="300" 
d="M112 603q-28 0 -47.5 19.5t-19.5 47.5v65q0 6 4.5 10.5t10.5 4.5h45q6 0 10.5 -4.5t4.5 -10.5v-43q0 -6 4.5 -10.5t10.5 -4.5h29q7 0 11 4.5t4 10.5v43q0 6 4.5 10.5t10.5 4.5h45q7 0 11 -4.5t4 -10.5v-70q0 -26 -18 -44t-44 -18h-80z" />
    <glyph glyph-name="dotaccent" unicode="&#x2d9;" horiz-adv-x="215" 
d="M107 629q-26 0 -44 18t-18 44t18 44.5t44 18.5t44.5 -18.5t18.5 -44.5t-18.5 -44t-44.5 -18z" />
    <glyph glyph-name="ring" unicode="&#x2da;" horiz-adv-x="300" 
d="M83 576q-16 0 -27 11t-11 27v137q0 16 11 27t27 11h134q16 0 27 -11t11 -27v-137q0 -16 -11 -27t-27 -11h-134zM120 666q0 -6 4.5 -10.5t10.5 -4.5h30q6 0 10.5 4.5t4.5 10.5v33q0 6 -4.5 10.5t-10.5 4.5h-30q-6 0 -10.5 -4.5t-4.5 -10.5v-33z" />
    <glyph glyph-name="ogonek" unicode="&#x2db;" horiz-adv-x="285" 
d="M95 -189q-20 0 -35 15t-15 35v138h75v-110q0 -7 4.5 -11t10.5 -4h89q6 0 10.5 -4.5t4.5 -10.5v-33q0 -6 -4.5 -10.5t-10.5 -4.5h-129z" />
    <glyph glyph-name="tilde" unicode="&#x2dc;" horiz-adv-x="365" 
d="M309 726q7 -3 9.5 -9.5t-1.5 -13.5l-38 -79q-9 -20 -31 -20q-7 0 -15 3l-93 45q-6 3 -13 0.5t-10 -9.5l-13 -27q-3 -7 -10 -9t-13 1l-25 12q-15 7 -8 23l38 79q9 20 31 20q8 0 15 -3l93 -45q6 -3 13 -0.5t10 8.5l13 28q3 7 10 9t13 -1z" />
    <glyph glyph-name="hungarumlaut" unicode="&#x2dd;" horiz-adv-x="394" 
d="M196 751q9 0 13.5 -7t-0.5 -15l-79 -138q-8 -15 -26 -15h-43q-9 0 -13.5 7.5t0.5 15.5l79 137q8 15 26 15h43zM333 751q9 0 13.5 -7t-0.5 -15l-79 -138q-8 -15 -26 -15h-43q-9 0 -13.5 7.5t0.5 15.5l79 137q8 15 26 15h43z" />
    <glyph glyph-name="quoteleft" unicode="&#x2018;" horiz-adv-x="278" 
d="M195 653q16 0 27 -11t11 -27v-112q0 -16 -11 -26.5t-27 -10.5h-112q-16 0 -27 10.5t-11 26.5v132q0 16 8 34l38 73q4 9 13 9h20q6 0 10.5 -4.5t4.5 -10.5v-58q0 -11 7 -18t18 -7h31z" />
    <glyph glyph-name="quoteright" unicode="&#x2019;" horiz-adv-x="278" 
d="M139 538q0 10 -7.5 17.5t-17.5 7.5h-32q-15 0 -26 10.5t-11 26.5v113q0 15 11 26t26 11h113q16 0 26.5 -11t10.5 -26v-132q0 -9 -1.5 -17.5t-6.5 -16.5l-37 -74q-5 -8 -14 -8h-19q-7 0 -11 4.5t-4 10.5v58z" />
    <glyph glyph-name="quotedblleft" unicode="&#x201c;" horiz-adv-x="507" 
d="M462 502q0 -15 -11 -26t-27 -11h-112q-16 0 -27 11t-11 26v132q0 18 8 34l38 74q3 8 13 8h20q6 0 10.5 -4.5t4.5 -10.5v-58q0 -11 7 -18t18 -7h31q16 0 27 -11t11 -26v-113zM196 652q15 0 26 -11t11 -26v-113q0 -15 -11 -26t-26 -11h-113q-15 0 -26 11t-11 26v132
q0 18 8 34l37 74q5 8 14 8h19q7 0 11 -4.5t4 -10.5v-58q0 -11 7.5 -18t17.5 -7h32z" />
    <glyph glyph-name="quotedblright" unicode="&#x201d;" horiz-adv-x="506" 
d="M139 538q0 10 -7.5 17.5t-17.5 7.5h-32q-15 0 -26 10.5t-11 26.5v113q0 15 11 26t26 11h113q16 0 26.5 -11t10.5 -26v-132q0 -9 -1.5 -17.5t-6.5 -16.5l-37 -74q-5 -8 -14 -8h-19q-7 0 -11 4.5t-4 10.5v58zM382 465q-6 0 -10.5 4.5t-4.5 10.5v58q0 10 -7 17.5t-18 7.5
h-31q-16 0 -27 10.5t-11 26.5v113q0 15 11 26t27 11h112q16 0 27 -11t11 -26v-132q0 -18 -8 -34l-38 -74q-3 -8 -13 -8h-20z" />
    <glyph glyph-name="Euro" unicode="&#x20ac;" horiz-adv-x="890" 
d="M783 750q16 0 26.5 -11t10.5 -27v-94q0 -15 -10.5 -26t-26.5 -11h-382q-26 0 -48 -13t-34 -35q-4 -6 -0.5 -12t11.5 -6h319q16 0 27 -11t11 -27v-50q0 -15 -11 -26t-27 -11h-330q-12 0 -12 -13v-12q0 -13 12 -13h330q16 0 27 -11t11 -26v-50q0 -16 -11 -27t-27 -11h-314
q-8 0 -11.5 -6.5t1.5 -13.5q13 -17 32.5 -27.5t43.5 -10.5h401q15 0 26 -11t11 -27v-94q0 -15 -11 -26t-26 -11h-495q-39 0 -73 14.5t-59.5 40t-40.5 59.5t-15 73v28q0 12 -12 12h-25q-15 0 -26 11t-11 27v50q0 15 11 26t26 11h25q12 0 12 13v12q0 13 -12 13h-25
q-15 0 -26 11t-11 26v50q0 16 11 27t26 11h25q12 0 12 12v35q0 39 15 73.5t40.5 60t59.5 40t73 14.5h476z" />
    <glyph glyph-name="uniE000" unicode="&#xe000;" horiz-adv-x="1615" 
d="M1532 750q16 0 27 -11t11 -27v-94q0 -15 -11 -26t-27 -11h-1191q-19 0 -36.5 -7.5t-30 -20t-20 -29.5t-7.5 -37v-225q0 -19 7.5 -36t20 -29.5t30 -20t36.5 -7.5h401q16 0 27 -11t11 -27v-94q0 -15 -11 -26t-27 -11h-495q-39 0 -73 14.5t-59.5 40t-40 59.5t-14.5 73v375
q0 39 14.5 73.5t40 60t59.5 40t73 14.5h1285zM1215 513q16 0 27 -10.5t11 -26.5v-439q0 -15 -11 -26t-27 -11h-112q-16 0 -27 11t-11 26v439q0 16 11 26.5t27 10.5h112z" />
    <glyph glyph-name="uniE001" unicode="&#xe001;" horiz-adv-x="1750" 
d="M1667 581h-1583q-11 0 -17 8t-5 18q5 30 21.5 56.5t41.5 45.5t56 30t66 11h1420q16 0 27 -11t11 -27v-94q0 -15 -11 -26t-27 -11zM1350 513q16 0 27 -10.5t11 -26.5v-439q0 -15 -11 -26t-27 -11h-112q-16 0 -27 11t-11 26v439q0 16 11 26.5t27 10.5h112zM97 0
q-15 0 -26 11t-11 27v93q0 16 11 27t26 11h555q16 0 27 10.5t11 26.5v58q0 16 -11 27t-27 11h-405q-35 0 -66 11t-55.5 29.5t-41 44.5t-21.5 56q-1 7 2 17t22 10h603q39 0 73 -14.5t59.5 -40t40 -59.5t14.5 -73v-96q0 -39 -14.5 -73t-40 -59.5t-59.5 -40t-73 -14.5h-593z
" />
    <glyph glyph-name="uniE002" unicode="&#xe002;" horiz-adv-x="922" 
d="M674 750q39 0 73 -14.5t59.5 -40t40 -60t14.5 -73.5v-525q0 -15 -11 -26t-26 -11h-589q-39 0 -73 14.5t-59.5 40t-40 59.5t-14.5 73v96q0 39 14.5 73t40 59.5t59.5 40t73 14.5h401q16 0 27 11t11 27v35q0 16 -11 27t-27 11h-507q-16 0 -26.5 11t-10.5 26v94q0 16 10.5 27
t26.5 11h545zM674 264q0 16 -11 27t-27 11h-363q-16 0 -27 -11t-11 -27v-58q0 -16 11 -26.5t27 -10.5h363q16 0 27 10.5t11 26.5v58z" />
    <glyph glyph-name="uniE003" unicode="&#xe003;" horiz-adv-x="896" 
d="M285 279q-16 0 -27 -11t-11 -26v-36q0 -16 11 -26.5t27 -10.5h518q16 0 27 -11t11 -27v-94q0 -15 -11 -26t-27 -11h-556q-39 0 -73 14.5t-59.5 40t-40 59.5t-14.5 73v375q0 39 14.5 73.5t40 60t59.5 40t73 14.5h406q39 0 73.5 -14.5t60 -40t40 -60t14.5 -73.5v-95
q0 -39 -14.5 -73t-40 -59.5t-60 -40.5t-73.5 -15h-368zM247 485q0 -15 11 -26t27 -11h331q16 0 26.5 11t10.5 26v58q0 16 -10.5 27t-26.5 11h-331q-16 0 -27 -11t-11 -27v-58z" />
    <glyph glyph-name="uniE004" unicode="&#xe004;" horiz-adv-x="864" 
d="M102 581q-15 0 -26 11t-11 26v94q0 16 11 27t26 11h655q16 0 27 -11t11 -27v-94q0 -15 -11 -26t-27 -11h-655zM683 459q16 0 26.5 -11t10.5 -26v-94q0 -16 -10.5 -27t-26.5 -11h-581q-15 0 -26 11t-11 27v94q0 15 11 26t26 11h581zM102 0q-15 0 -26 11t-11 26v94
q0 16 11 27t26 11h674q15 0 26 -11t11 -27v-94q0 -15 -11 -26t-26 -11h-674z" />
    <glyph glyph-name="uniE005" unicode="&#xe005;" horiz-adv-x="882" 
d="M530 750q39 0 73 -14.5t59.5 -40t40 -60t14.5 -73.5v-94q0 -14 13 -21q43 -24 69.5 -67.5t26.5 -96.5v-96q0 -39 -14.5 -73t-40 -59.5t-59.5 -40t-73 -14.5h-537q-15 0 -26 11t-11 26v91q0 17 11.5 29t28.5 12h496q16 0 27 10.5t11 26.5v58q0 16 -11 27t-27 11h-496
q-17 0 -28.5 11.5t-11.5 28.5v91q0 16 11 26.5t26 10.5h390q16 0 27 11t11 27v35q0 16 -11 27t-27 11h-390q-15 0 -26 11t-11 26v94q0 16 11 27t26 11h428z" />
    <glyph glyph-name="uniE006" unicode="&#xe006;" horiz-adv-x="969" 
d="M577 348q11 0 17 8.5t2 18.5l-71 184q-4 10 -12.5 16t-19.5 6h-193q-18 0 -27 14q-10 15 -4 31q6 14 12 29.5t11 28.5q5 15 11 29q6 17 20.5 27t31.5 10h259q17 0 31.5 -10t20.5 -27l255 -662q7 -19 -4 -35t-31 -16h-131q-11 0 -20.5 6.5t-14.5 17.5l-40 131
q-5 11 -14.5 17.5t-20.5 6.5h-321q-11 0 -20.5 -6.5t-14.5 -17.5l-40 -131q-5 -11 -14.5 -17.5t-20.5 -6.5h-131q-20 0 -31 16t-4 35q19 50 37 97q16 40 33 83.5t28 74.5q8 19 24.5 30.5t36.5 11.5h370z" />
    <glyph glyph-name="uniE007" unicode="&#xe007;" 
d="M83 0q-20 0 -31 16t-4 35l255 662q6 17 20.5 27t31.5 10h296q17 0 31.5 -10t20.5 -27l255 -662q7 -19 -4 -35t-31 -16h-532q-20 0 -31 16t-4 35l33 86q6 14 18.5 23t28.5 9h221q20 0 31.5 16t3.5 35l-129 337q-5 11 -14.5 17.5t-20.5 6.5h-50q-11 0 -20.5 -6.5
t-14.5 -17.5l-192 -533q-4 -11 -13.5 -17.5t-21.5 -6.5h-133z" />
    <glyph glyph-name="uniE008" unicode="&#xe008;" horiz-adv-x="998" 
d="M647 750q17 0 31.5 -10t20.5 -27l251 -652q4 -11 2.5 -22t-7.5 -19.5t-15.5 -14t-21.5 -5.5h-110q-11 0 -20.5 6.5t-14.5 17.5l-205 535q-4 10 -12.5 16t-19.5 6h-54q-11 0 -19.5 -6t-12.5 -16l-205 -535q-5 -11 -14.5 -17.5t-20.5 -6.5h-110q-12 0 -21.5 5.5t-15.5 14
t-7.5 19.5t2.5 22l251 652q6 17 20.5 27t31.5 10h296z" />
    </font>
</defs>
</svg>
