<svg width="195" height="135" viewBox="0 0 195 135" fill="none" xmlns="http://www.w3.org/2000/svg">
<mask id="mask0_1161_703" style="mask-type:luminance" maskUnits="userSpaceOnUse" x="31" y="0" width="134" height="135">
<path d="M164.558 0.589844H31.1328V134.015H164.558V0.589844Z" fill="white"/>
</mask>
<g mask="url(#mask0_1161_703)">
<mask id="mask1_1161_703" style="mask-type:luminance" maskUnits="userSpaceOnUse" x="31" y="0" width="134" height="135">
<path d="M31.1328 0.589844H164.558V134.015H31.1328V0.589844Z" fill="white"/>
</mask>
<g mask="url(#mask1_1161_703)">
<path d="M64.3427 83.6376C61.0738 77.9758 72.9246 65.0044 90.7894 54.6901C108.654 44.3758 125.813 40.5984 129.082 46.2603C132.351 51.9222 120.5 64.8936 102.635 75.2078C84.7705 85.5221 67.6115 89.2995 64.3427 83.6376Z" stroke="url(#paint0_linear_1161_703)" stroke-width="0.58402"/>
<path d="M65.3231 85.6117C62.0542 79.9499 73.905 66.9785 91.7698 56.6642C109.635 46.35 126.794 42.5726 130.062 48.2344C133.331 53.8963 121.481 66.8677 103.616 77.1819C85.7509 87.4962 68.592 91.2736 65.3231 85.6117Z" stroke="url(#paint1_linear_1161_703)" stroke-width="0.58402"/>
<path d="M66.7899 87.8571C63.521 82.1952 75.3718 69.2239 93.2366 58.9096C111.101 48.5953 128.26 44.8179 131.529 50.4798C134.798 56.1417 122.947 69.113 105.083 79.4273C87.2177 89.7416 70.0588 93.519 66.7899 87.8571Z" stroke="url(#paint2_linear_1161_703)" stroke-width="0.58402"/>
</g>
<mask id="mask2_1161_703" style="mask-type:luminance" maskUnits="userSpaceOnUse" x="6" y="-24" width="183" height="183">
<path d="M122.188 -23.9802L188.9 91.5689L73.3507 158.281L6.63834 42.7321L122.188 -23.9802Z" fill="white"/>
</mask>
<g mask="url(#mask2_1161_703)">
<path d="M66.8724 46.3057C69.2349 42.2138 85.6579 47.2658 103.523 57.5801C121.388 67.8943 133.974 79.591 131.612 83.6829C129.249 87.7749 112.826 82.7228 94.9615 72.4086C77.0967 62.0943 64.5099 50.3976 66.8724 46.3057Z" stroke="url(#paint3_linear_1161_703)" stroke-width="0.58402"/>
<path d="M65.6517 48.1412C68.0142 44.0492 84.4372 49.1013 102.302 59.4155C120.167 69.7298 132.754 81.4265 130.391 85.5184C128.029 89.6103 111.606 84.5583 93.7408 74.244C75.8759 63.9298 63.2892 52.2331 65.6517 48.1412Z" stroke="url(#paint4_linear_1161_703)" stroke-width="0.58402"/>
<path d="M64.4427 50.5347C66.8052 46.4428 83.2282 51.4948 101.093 61.8091C118.958 72.1233 131.545 83.82 129.182 87.912C126.82 92.0039 110.397 86.9518 92.5318 76.6376C74.667 66.3233 62.0803 54.6266 64.4427 50.5347Z" stroke="url(#paint5_linear_1161_703)" stroke-width="0.58402"/>
</g>
<mask id="mask3_1161_703" style="mask-type:luminance" maskUnits="userSpaceOnUse" x="6" y="-24" width="183" height="183">
<path d="M188.295 42.7319L121.583 158.281L6.03339 91.5687L72.7458 -23.9804L188.295 42.7319Z" fill="white"/>
</mask>
<g mask="url(#mask3_1161_703)">
<path d="M99.7686 29.9697C100.546 29.9697 101.178 46.7185 101.178 67.347C101.178 87.9755 100.546 104.724 99.7686 104.724C98.9909 104.724 98.3594 87.9755 98.3594 67.347C98.3594 46.7185 98.9908 29.9697 99.7686 29.9697Z" stroke="url(#paint6_linear_1161_703)" stroke-width="0.58402"/>
<path d="M97.5694 29.8313C98.3471 29.8313 98.9786 46.5801 98.9786 67.2086C98.9786 87.8371 98.3471 104.586 97.5694 104.586C96.7916 104.586 96.1602 87.8371 96.1602 67.2086C96.1602 46.5801 96.7916 29.8313 97.5694 29.8313Z" stroke="url(#paint7_linear_1161_703)" stroke-width="0.58402"/>
<path d="M94.8916 29.9797C95.6694 29.9797 96.3008 46.7285 96.3008 67.357C96.3008 87.9855 95.6694 104.734 94.8916 104.734C94.1139 104.734 93.4824 87.9855 93.4824 67.357C93.4824 46.7285 94.1139 29.9797 94.8916 29.9797Z" stroke="url(#paint8_linear_1161_703)" stroke-width="0.58402"/>
</g>
</g>
<defs>
<linearGradient id="paint0_linear_1161_703" x1="64.3427" y1="83.6376" x2="127.702" y2="28.3548" gradientUnits="userSpaceOnUse">
<stop stop-color="white"/>
<stop offset="0.5" stop-color="white" stop-opacity="0.5"/>
<stop offset="1" stop-color="white" stop-opacity="0"/>
</linearGradient>
<linearGradient id="paint1_linear_1161_703" x1="65.3231" y1="85.6117" x2="128.683" y2="30.3289" gradientUnits="userSpaceOnUse">
<stop stop-color="white"/>
<stop offset="0.5" stop-color="white" stop-opacity="0.5"/>
<stop offset="1" stop-color="white" stop-opacity="0"/>
</linearGradient>
<linearGradient id="paint2_linear_1161_703" x1="66.7899" y1="87.8571" x2="130.15" y2="32.5743" gradientUnits="userSpaceOnUse">
<stop stop-color="white"/>
<stop offset="0.5" stop-color="white" stop-opacity="0.5"/>
<stop offset="1" stop-color="white" stop-opacity="0"/>
</linearGradient>
<linearGradient id="paint3_linear_1161_703" x1="66.8724" y1="46.3057" x2="146.429" y2="73.5353" gradientUnits="userSpaceOnUse">
<stop stop-color="white"/>
<stop offset="0.5" stop-color="white" stop-opacity="0.5"/>
<stop offset="1" stop-color="white" stop-opacity="0"/>
</linearGradient>
<linearGradient id="paint4_linear_1161_703" x1="65.6517" y1="48.1412" x2="145.208" y2="75.3708" gradientUnits="userSpaceOnUse">
<stop stop-color="white"/>
<stop offset="0.5" stop-color="white" stop-opacity="0.5"/>
<stop offset="1" stop-color="white" stop-opacity="0"/>
</linearGradient>
<linearGradient id="paint5_linear_1161_703" x1="64.4427" y1="50.5347" x2="143.999" y2="77.7644" gradientUnits="userSpaceOnUse">
<stop stop-color="white"/>
<stop offset="0.5" stop-color="white" stop-opacity="0.5"/>
<stop offset="1" stop-color="white" stop-opacity="0"/>
</linearGradient>
<linearGradient id="paint6_linear_1161_703" x1="99.7686" y1="29.9697" x2="115.965" y2="112.482" gradientUnits="userSpaceOnUse">
<stop stop-color="white"/>
<stop offset="0.5" stop-color="white" stop-opacity="0.5"/>
<stop offset="1" stop-color="white" stop-opacity="0"/>
</linearGradient>
<linearGradient id="paint7_linear_1161_703" x1="97.5694" y1="29.8313" x2="113.766" y2="112.344" gradientUnits="userSpaceOnUse">
<stop stop-color="white"/>
<stop offset="0.5" stop-color="white" stop-opacity="0.5"/>
<stop offset="1" stop-color="white" stop-opacity="0"/>
</linearGradient>
<linearGradient id="paint8_linear_1161_703" x1="94.8916" y1="29.9797" x2="111.088" y2="112.492" gradientUnits="userSpaceOnUse">
<stop stop-color="white"/>
<stop offset="0.5" stop-color="white" stop-opacity="0.5"/>
<stop offset="1" stop-color="white" stop-opacity="0"/>
</linearGradient>
</defs>
</svg>
