<svg width="161" height="73" viewBox="0 0 161 73" fill="none" xmlns="http://www.w3.org/2000/svg">
<path d="M94.9982 44.5996C94.9849 44.4645 94.9277 44.3595 94.8266 44.2847C94.7255 44.2099 94.5884 44.1725 94.4151 44.1725C94.2974 44.1725 94.198 44.1892 94.1169 44.2227C94.0358 44.2551 93.9736 44.3003 93.9303 44.3584C93.8881 44.4164 93.867 44.4823 93.867 44.556C93.8648 44.6174 93.8776 44.671 93.9053 44.7168C93.9342 44.7626 93.9736 44.8022 94.0236 44.8357C94.0736 44.8681 94.1313 44.8966 94.1969 44.9211C94.2624 44.9446 94.3324 44.9647 94.4068 44.9814L94.7133 45.0551C94.8621 45.0886 94.9988 45.1333 95.1231 45.1891C95.2475 45.2449 95.3553 45.3136 95.4463 45.3951C95.5374 45.4766 95.6079 45.5727 95.6579 45.6832C95.709 45.7937 95.7351 45.9205 95.7362 46.0634C95.7351 46.2733 95.6818 46.4553 95.5763 46.6094C95.4719 46.7624 95.3208 46.8813 95.1231 46.9662C94.9266 47.0499 94.6894 47.0918 94.4118 47.0918C94.1363 47.0918 93.8964 47.0493 93.6921 46.9645C93.4888 46.8796 93.33 46.754 93.2156 46.5876C93.1023 46.4201 93.0429 46.213 93.0374 45.9663H93.7354C93.7432 46.0813 93.7759 46.1773 93.8337 46.2543C93.8926 46.3303 93.9709 46.3878 94.0686 46.4268C94.1674 46.4648 94.2791 46.4838 94.4034 46.4838C94.5256 46.4838 94.6317 46.4659 94.7216 46.4302C94.8127 46.3945 94.8832 46.3448 94.9332 46.2811C94.9832 46.2175 95.0082 46.1443 95.0082 46.0617C95.0082 45.9847 94.9854 45.9199 94.9399 45.8674C94.8955 45.815 94.8299 45.7703 94.7433 45.7334C94.6578 45.6966 94.5528 45.6631 94.4284 45.633L94.0569 45.5392C93.7693 45.4688 93.5421 45.3588 93.3755 45.2092C93.2089 45.0596 93.1262 44.858 93.1273 44.6046C93.1262 44.3969 93.1812 44.2155 93.2922 44.0602C93.4044 43.905 93.5582 43.7839 93.7537 43.6968C93.9492 43.6097 94.1713 43.5662 94.4201 43.5662C94.6733 43.5662 94.8944 43.6097 95.0832 43.6968C95.2731 43.7839 95.4208 43.905 95.5263 44.0602C95.6318 44.2155 95.6862 44.3952 95.6896 44.5996H94.9982Z" fill="white"/>
<path d="M96.2214 47.0432V43.6131H98.5205V44.211H96.9428V45.0283H98.4022V45.6263H96.9428V46.4453H98.5271V47.0432H96.2214Z" fill="white"/>
<path d="M99.6821 47.0432H98.9091L100.087 43.6131H101.017L102.193 47.0432H101.42L100.565 44.3969H100.538L99.6821 47.0432ZM99.6338 45.6949H101.46V46.261H99.6338V45.6949Z" fill="white"/>
<path d="M102.603 47.0432V43.6131H103.325V46.4453H104.787V47.0432H102.603Z" fill="white"/>
<path d="M46.4861 41.1875H31.4007C30.9916 41.1875 30.6188 41.4155 30.4312 41.7849L28.0021 46.6533L27.9943 46.6612L27.9682 46.7162C27.6059 47.4368 28.1298 48.291 28.9326 48.291H44.0257C44.4349 48.291 44.8076 48.063 44.9953 47.6936L47.4583 42.7701C47.8205 42.0443 47.2967 41.1901 46.4887 41.1901L46.4861 41.1875Z" fill="#FF9900"/>
<path d="M23.5818 35.9549C23.8632 35.9549 24.1239 35.7925 24.2516 35.5383L25.8362 32.3835H27.7884C28.075 32.3835 28.3357 32.2211 28.4634 31.9669L29.1045 30.683C29.2322 30.4262 29.4929 30.2664 29.7744 30.2664H42.3107C42.5844 30.2664 42.8398 30.1118 42.9675 29.8707C42.9754 29.8629 42.9754 29.8576 42.9806 29.8498L45.7771 24.2608C46.0326 23.7551 45.6625 23.1655 45.1073 23.1655H26.0682C25.7867 23.1655 25.5261 23.328 25.3984 23.5821L22.0545 30.2664L20.9911 32.3862L19.7531 34.8623C19.5055 35.368 19.8678 35.9576 20.4281 35.9576H23.5791L23.5818 35.9549Z" fill="#FF9900"/>
<path d="M30.2304 41.4783C30.6187 41.4783 30.9654 41.2556 31.14 40.9124L31.643 39.9245C31.8098 39.576 32.1643 39.3586 32.5526 39.3586H43.163C43.5383 39.3586 43.8797 39.1568 44.0465 38.8345C44.0595 38.8214 44.0673 38.8083 44.0726 38.7952L45.5712 35.795L46.6137 33.7172C46.9551 33.0307 46.4678 32.2236 45.7041 32.2236H28.6588C28.2705 32.2236 27.9238 32.4464 27.7492 32.7896L26.2427 35.795L25.2185 37.8467H25.2106L24.4548 39.3612L23.3966 41.481L22.3672 43.5457C22.0205 44.2243 22.5131 45.0314 23.2768 45.0314H25.9117C26.0134 45.0314 26.1124 45.0183 26.2063 44.9842C26.4747 44.9109 26.7015 44.7222 26.8213 44.4654L28.32 41.4783H30.2278H30.2304Z" fill="#FF9900"/>
<path d="M63.1432 41.9657C62.9399 41.7613 62.7809 41.5648 62.661 41.3735L59.3041 35.4465V47.3346C59.3041 47.5992 59.2076 47.8246 59.0174 48.0159C58.8271 48.2071 58.6004 48.3041 58.3397 48.3041H53.6588C53.3956 48.3041 53.1714 48.2098 52.9812 48.0159C52.7909 47.8246 52.6945 47.5966 52.6945 47.3346V24.1323C52.6945 23.8703 52.7883 23.6423 52.9812 23.4511C53.1714 23.2598 53.3982 23.1628 53.6588 23.1628H57.8028C58.2798 23.1628 58.6369 23.2939 58.874 23.5585C59.1112 23.8231 59.2676 24.0144 59.338 24.1323L65.1266 34.0814L70.9152 24.1323C70.9856 24.0118 71.142 23.8205 71.3791 23.5585C71.6163 23.2965 71.9734 23.1628 72.4503 23.1628H76.5944C76.855 23.1628 77.0818 23.2598 77.272 23.4511C77.4623 23.6423 77.5587 23.8703 77.5587 24.1323V47.3346C77.5587 47.5992 77.4623 47.8246 77.272 48.0159C77.0818 48.2071 76.855 48.3041 76.5944 48.3041H71.9134C71.6502 48.3041 71.4235 48.2098 71.2358 48.0159C71.0455 47.8246 70.9491 47.5966 70.9491 47.3346V35.4465L67.5922 41.3735C67.4723 41.5648 67.3107 41.764 67.11 41.9657C66.9093 42.1675 66.6278 42.2723 66.2708 42.2723H63.985C63.628 42.2723 63.3465 42.1701 63.1458 41.9657H63.1432Z" fill="white"/>
<path d="M103.413 23.1707C104.938 23.1707 106.306 23.3436 107.521 23.6921C108.736 24.0406 109.773 24.5673 110.63 25.2721C111.488 25.9796 112.15 26.8574 112.614 27.9107C113.078 28.9641 113.31 30.1851 113.31 31.5738C113.31 32.9626 113.078 34.2203 112.614 35.2736C112.15 36.3269 111.488 37.2021 110.63 37.8965C109.773 38.5908 108.738 39.1175 107.521 39.4765C106.306 39.8355 104.936 40.0162 103.413 40.0162L89.1674 40.0084V47.3346C89.1674 47.5992 89.0709 47.8246 88.8807 48.0159C88.6904 48.2071 88.4637 48.3041 88.203 48.3041H83.5221C83.2588 48.3041 83.0347 48.2098 82.8444 48.0159C82.6542 47.8246 82.5577 47.5966 82.5577 47.3346V24.1323C82.5577 23.8703 82.6516 23.6423 82.8444 23.4511C83.0347 23.2598 83.2614 23.1628 83.5221 23.1628L103.411 23.1707H103.413ZM89.1674 34.4063L103.234 34.4142C104.234 34.4142 105.061 34.1941 105.717 33.7486C106.372 33.3058 106.7 32.5826 106.7 31.5764C106.7 30.5703 106.372 29.8471 105.717 29.4043C105.063 28.9614 104.234 28.7387 103.234 28.7387L89.1674 28.7309V34.4063Z" fill="white"/>
<path d="M140.071 47.3398C140.061 47.2796 140.03 47.201 139.983 47.1066L133.529 38.0694L133.493 38.017L131.807 35.6562L131.815 35.6457L127.514 29.5641L127.36 29.3466L123.594 24.0616C123.5 23.9411 123.344 23.7629 123.13 23.5218C122.917 23.2834 122.57 23.1628 122.096 23.1628H116.703C116.489 23.1628 116.304 23.2414 116.151 23.396C115.994 23.5533 115.919 23.7367 115.919 23.9542C115.919 24.0747 115.955 24.2057 116.025 24.3472L123.138 34.4142L123.915 35.5121L128.546 42.0391L128.598 42.1124L132.414 47.4656C132.557 47.6805 132.716 47.8717 132.896 48.0394C133.073 48.2071 133.402 48.291 133.876 48.291H139.305C139.519 48.291 139.704 48.2124 139.858 48.0578C140.011 47.9006 140.09 47.7145 140.09 47.4997C140.09 47.4525 140.084 47.4001 140.071 47.3398Z" fill="white"/>
<path d="M128.546 42.0392L127.809 41.0042L123.237 47.4658C123.094 47.6806 122.935 47.8719 122.755 48.0396C122.578 48.2073 122.249 48.2911 121.772 48.2911H116.346C116.132 48.2911 115.947 48.2125 115.793 48.0579C115.637 47.9007 115.562 47.7147 115.562 47.4998C115.562 47.4527 115.567 47.4003 115.58 47.34C115.59 47.2797 115.621 47.2011 115.668 47.1068L123.915 35.5122L128.546 42.0392Z" fill="white"/>
<path d="M128.546 42.0392L127.809 41.0042L123.237 47.4658C123.094 47.6806 122.935 47.8719 122.755 48.0396C122.578 48.2073 122.249 48.2911 121.772 48.2911H116.346C116.132 48.2911 115.947 48.2125 115.793 48.0579C115.637 47.9007 115.562 47.7147 115.562 47.4998C115.562 47.4527 115.567 47.4003 115.58 47.34C115.59 47.2797 115.621 47.2011 115.668 47.1068L123.915 35.5122L128.546 42.0392Z" fill="url(#paint0_linear_1851_123)"/>
<path d="M139.839 23.9542C139.839 24.0747 139.805 24.2057 139.732 24.3472L132.878 34.1286L129.25 28.9955L128.968 28.5972L132.093 24.0616C132.187 23.9411 132.341 23.7629 132.557 23.5218C132.771 23.2834 133.115 23.1628 133.592 23.1628H139.055C139.269 23.1628 139.454 23.2414 139.607 23.396C139.761 23.5533 139.839 23.7367 139.839 23.9542Z" fill="#FF9900"/>
<defs>
<linearGradient id="paint0_linear_1851_123" x1="131.543" y1="33.1068" x2="124.682" y2="40.3494" gradientUnits="userSpaceOnUse">
<stop stop-color="white"/>
<stop offset="0.12" stop-color="#FAFAFA" stop-opacity="0.98"/>
<stop offset="0.24" stop-color="#EEEEEE" stop-opacity="0.93"/>
<stop offset="0.37" stop-color="#D9D9D9" stop-opacity="0.85"/>
<stop offset="0.5" stop-color="#BBBBBB" stop-opacity="0.74"/>
<stop offset="0.63" stop-color="#969696" stop-opacity="0.59"/>
<stop offset="0.76" stop-color="#676767" stop-opacity="0.41"/>
<stop offset="0.89" stop-color="#323232" stop-opacity="0.2"/>
<stop offset="1" stop-opacity="0"/>
</linearGradient>
</defs>
</svg>
