<svg width="674" height="97" viewBox="0 0 674 97" fill="none" xmlns="http://www.w3.org/2000/svg">
<path d="M141.142 31.0135H31.0353V61.3865H119.671V92.6135H31.0353V122.986H141.142V154H0V0H141.142V31.0135Z" fill="#FDEFDB"/>
<path d="M244.045 64.3804L297.398 0H330.133V154H299.31V45.9853L244.045 112.506L188.566 46.1988V154H157.958V0H190.479L244.045 64.3804Z" fill="#FDEFDB"/>
<path fill-rule="evenodd" clip-rule="evenodd" d="M477.379 0.213518C483.047 0.213532 488.148 1.6394 492.683 4.49084C497.359 7.19997 501.115 10.9072 503.949 15.6124C506.784 20.3179 508.2 25.4524 508.2 31.0135V71.6516C508.2 77.2127 506.784 82.3472 503.949 87.0528C501.115 91.6157 497.359 95.3224 492.683 98.1743C488.148 100.883 483.047 102.238 477.379 102.238L385.766 102.452V154H355.157V0.213518H477.379ZM387.041 31.0135C386.616 31.0135 386.262 31.1555 385.978 31.4406C385.836 31.5831 385.766 31.8692 385.766 32.2969V70.1547C385.766 70.4398 385.836 70.7259 385.978 71.011C386.262 71.1536 386.616 71.2246 387.041 71.2246H475.892C476.316 71.2245 476.599 71.1532 476.741 71.011C477.024 70.7259 477.167 70.4398 477.167 70.1547V32.2969C477.167 31.8692 477.024 31.5831 476.741 31.4406C476.599 31.1561 476.316 31.0136 475.892 31.0135H387.041Z" fill="#FDEFDB"/>
<path d="M597.692 52.616L641.479 0H673.788V9.62457L617.672 76.9988L674 144.162V154H641.479L597.268 101.598L553.692 154H521.169V144.375L577.287 76.9988L521.169 9.62457V0H553.692L597.692 52.616Z" fill="#FDEFDB"/>
</svg>
