<svg width="85" height="15" viewBox="0 0 85 15" fill="none" xmlns="http://www.w3.org/2000/svg">
<path d="M1.47048 13.833H0V2.11207H2.06187L9.05463 10.1621V2.11207H10.5171V13.833H8.45525L1.47048 5.79114V13.833Z" fill="#BABABA"/>
<path d="M15.6878 2.1609C15.6878 2.3671 15.6478 2.56245 15.5679 2.74695C15.4933 2.93145 15.3894 3.09152 15.2562 3.22718C15.123 3.36284 14.9658 3.47137 14.7847 3.55276C14.6035 3.62873 14.4117 3.66672 14.2093 3.66672C14.0068 3.66672 13.815 3.62873 13.6339 3.55276C13.4581 3.47137 13.3036 3.36284 13.1704 3.22718C13.0372 3.09152 12.9306 2.93145 12.8507 2.74695C12.7761 2.56245 12.7388 2.3671 12.7388 2.1609C12.7388 1.9547 12.7761 1.76207 12.8507 1.583C12.9306 1.3985 13.0372 1.23842 13.1704 1.10276C13.3036 0.967104 13.4581 0.861291 13.6339 0.785322C13.815 0.703926 14.0068 0.663229 14.2093 0.663229C14.4117 0.663229 14.6035 0.703926 14.7847 0.785322C14.9658 0.861291 15.123 0.967104 15.2562 1.10276C15.3894 1.23842 15.4933 1.3985 15.5679 1.583C15.6478 1.76207 15.6878 1.9547 15.6878 2.1609ZM15.5679 13.833H12.8587V4.43997H15.5679V13.833Z" fill="#BABABA"/>
<path d="M25.7813 10.8295C25.7813 11.2419 25.7227 11.6082 25.6055 11.9283C25.4883 12.2485 25.3284 12.528 25.126 12.7667C24.9235 13.0001 24.6838 13.1981 24.4067 13.3609C24.1297 13.5183 23.8313 13.6458 23.5117 13.7435C23.1973 13.8411 22.867 13.9117 22.5207 13.9551C22.1744 13.9985 21.8307 14.0202 21.4898 14.0202C21.0316 14.0202 20.6266 13.9904 20.275 13.9307C19.9234 13.871 19.5877 13.776 19.2681 13.6458C18.9484 13.5101 18.6287 13.3365 18.309 13.1249C17.9947 12.9132 17.6431 12.6555 17.2541 12.3516L18.8285 11.0411C18.9724 11.3179 19.1615 11.5702 19.3959 11.7981C19.6357 12.0206 19.8834 12.2132 20.1392 12.376C20.3949 12.5388 20.6426 12.6636 20.8824 12.7504C21.1221 12.8373 21.3166 12.8807 21.4658 12.8807C21.5883 12.8807 21.7268 12.878 21.8813 12.8725C22.0359 12.8617 22.193 12.8454 22.3529 12.8237C22.5127 12.7966 22.6699 12.7586 22.8244 12.7097C22.9789 12.6609 23.1147 12.5958 23.2319 12.5144C23.3545 12.4276 23.4504 12.3218 23.5196 12.1969C23.5942 12.0667 23.6315 11.9121 23.6315 11.733C23.6315 11.5485 23.5836 11.3884 23.4877 11.2528C23.3971 11.1117 23.2772 10.9896 23.1281 10.8865C22.9789 10.7834 22.8084 10.6966 22.6166 10.626C22.4248 10.5555 22.2303 10.4931 22.0332 10.4388C21.8414 10.3845 21.6549 10.3384 21.4738 10.3004C21.2926 10.257 21.1355 10.2163 21.0023 10.1783C20.7572 10.1078 20.4988 10.0373 20.2271 9.96672C19.9553 9.89075 19.6863 9.80664 19.4199 9.71439C19.1535 9.61672 18.8978 9.50276 18.6527 9.37253C18.4129 9.2423 18.1998 9.08765 18.0134 8.90858C17.8322 8.72408 17.6857 8.50974 17.5738 8.26555C17.4672 8.01594 17.414 7.72563 17.414 7.39462C17.414 6.78687 17.5312 6.27951 17.7656 5.87253C18.0054 5.46013 18.3197 5.13183 18.7086 4.88765C19.0976 4.63803 19.5398 4.46168 20.0353 4.35858C20.5307 4.25548 21.0342 4.20393 21.5457 4.20393C21.8973 4.20393 22.2676 4.24191 22.6565 4.31788C23.0455 4.38842 23.4237 4.49695 23.7914 4.64346C24.159 4.78455 24.5026 4.95819 24.8223 5.16439C25.142 5.37059 25.4084 5.60664 25.6215 5.87253L24.0471 7.19114C23.9299 6.86555 23.7754 6.5861 23.5836 6.35276C23.3971 6.11943 23.192 5.92951 22.9682 5.783C22.7498 5.63106 22.5233 5.51982 22.2889 5.44928C22.0598 5.37873 21.8467 5.34346 21.6496 5.34346C21.4578 5.34346 21.242 5.3516 21.0023 5.36788C20.7625 5.38416 20.5361 5.43028 20.323 5.50625C20.1152 5.58222 19.9367 5.69889 19.7875 5.85625C19.6437 6.00819 19.5717 6.21982 19.5717 6.49114C19.5717 6.68648 19.6144 6.8547 19.6996 6.99579C19.7902 7.13145 19.9074 7.25083 20.0512 7.35393C20.1951 7.4516 20.3576 7.53571 20.5387 7.60625C20.7252 7.67137 20.9143 7.73106 21.1061 7.78532C21.298 7.83416 21.4844 7.87757 21.6656 7.91555C21.8467 7.95354 22.0092 7.99424 22.1531 8.03765C22.3981 8.10819 22.6565 8.18145 22.9283 8.25741C23.2053 8.32796 23.477 8.41207 23.7434 8.50974C24.0098 8.60199 24.2655 8.71323 24.5106 8.84346C24.761 8.96827 24.9795 9.12292 25.1659 9.30742C25.3524 9.49191 25.5016 9.70897 25.6135 9.95858C25.7254 10.2028 25.7813 10.4931 25.7813 10.8295Z" fill="#BABABA"/>
<path d="M36.0107 6.75974L34.8439 7.23183C34.6575 6.63493 34.3458 6.17641 33.9089 5.85625C33.472 5.5361 32.9472 5.37602 32.3345 5.37602C32.0042 5.37602 31.7085 5.43028 31.4474 5.53881C31.1917 5.64191 30.9653 5.78571 30.7681 5.97021C30.5763 6.1547 30.4112 6.36904 30.2727 6.61323C30.1395 6.85741 30.0302 7.11788 29.945 7.39462C29.8598 7.67137 29.7985 7.95896 29.7612 8.25741C29.7239 8.55044 29.7052 8.83532 29.7052 9.11207C29.7052 9.41052 29.7212 9.71168 29.7532 10.0156C29.7852 10.3194 29.8384 10.6125 29.913 10.8946C29.9929 11.1714 30.0968 11.4318 30.2247 11.676C30.3526 11.9148 30.5124 12.1237 30.7042 12.3028C30.9013 12.4818 31.1331 12.6229 31.3995 12.726C31.6712 12.8291 31.9829 12.8807 32.3345 12.8807C32.6169 12.8807 32.886 12.8373 33.1417 12.7504C33.3974 12.6636 33.6318 12.5415 33.845 12.3842C34.0581 12.2268 34.2472 12.0396 34.4124 11.8225C34.5775 11.6055 34.7081 11.364 34.804 11.0981L35.9788 11.5376C35.8029 11.9663 35.5685 12.338 35.2755 12.6528C34.9878 12.9621 34.6601 13.2198 34.2925 13.426C33.9249 13.6268 33.5306 13.776 33.1097 13.8737C32.6888 13.9714 32.2626 14.0202 31.831 14.0202C31.1331 14.0202 30.4858 13.9008 29.8891 13.6621C29.2923 13.4179 28.7755 13.0787 28.3387 12.6446C27.9071 12.2051 27.5688 11.6869 27.3237 11.09C27.0786 10.4876 26.9561 9.82834 26.9561 9.11207C26.9561 8.39036 27.076 7.72834 27.3157 7.12602C27.5608 6.52369 27.8991 6.00548 28.3307 5.57137C28.7622 5.13726 29.2764 4.80083 29.8731 4.56207C30.4698 4.32331 31.1224 4.20393 31.831 4.20393C32.2786 4.20393 32.7155 4.25548 33.1417 4.35858C33.5679 4.45625 33.9622 4.6109 34.3245 4.82253C34.6921 5.02873 35.0197 5.29191 35.3074 5.61207C35.6005 5.93222 35.8349 6.31478 36.0107 6.75974Z" fill="#BABABA"/>
<path d="M46.9034 13.833H44.2022V12.7097C43.8826 13.1547 43.4963 13.4857 43.0434 13.7028C42.5959 13.9144 42.1031 14.0202 41.565 14.0202C40.8617 14.0202 40.233 13.8927 39.6789 13.6376C39.1248 13.3826 38.656 13.0353 38.2724 12.5958C37.8888 12.1508 37.5957 11.6299 37.3933 11.033C37.1908 10.4361 37.0896 9.79579 37.0896 9.11207C37.0896 8.42834 37.1908 7.78803 37.3933 7.19114C37.5957 6.59424 37.8888 6.07602 38.2724 5.63648C38.656 5.19152 39.1248 4.84152 39.6789 4.58648C40.233 4.33145 40.8617 4.20393 41.565 4.20393C41.9219 4.20393 42.2602 4.25819 42.5799 4.36672C42.9049 4.47524 43.2006 4.6299 43.467 4.83067C43.7387 5.02602 43.9758 5.26478 44.1783 5.54695C44.386 5.82369 44.5485 6.133 44.6658 6.47486L45.8645 4.43183H46.9034V13.833ZM44.1863 9.11207C44.1863 8.86788 44.1729 8.61013 44.1463 8.33881C44.125 8.06749 44.085 7.79889 44.0264 7.533C43.9678 7.2671 43.8852 7.01478 43.7787 6.77602C43.6774 6.53183 43.5443 6.31749 43.3791 6.133C43.2193 5.94307 43.0248 5.79385 42.7957 5.68532C42.5666 5.57679 42.3002 5.52253 41.9965 5.52253C41.6928 5.52253 41.4291 5.57951 41.2053 5.69346C40.9816 5.80199 40.7898 5.95121 40.6299 6.14114C40.4701 6.32563 40.3369 6.53997 40.2304 6.78416C40.1291 7.02834 40.0492 7.28338 39.9906 7.54927C39.932 7.81517 39.8894 8.08377 39.8627 8.35509C39.8414 8.62098 39.8308 8.87331 39.8308 9.11207C39.8308 9.35083 39.8414 9.60586 39.8627 9.87718C39.8894 10.1485 39.932 10.4171 39.9906 10.683C40.0492 10.9489 40.1291 11.2039 40.2304 11.4481C40.3369 11.6923 40.4701 11.9094 40.6299 12.0993C40.7898 12.2838 40.9816 12.433 41.2053 12.5469C41.4291 12.6555 41.6928 12.7097 41.9965 12.7097C42.2736 12.7097 42.5186 12.6528 42.7318 12.5388C42.9502 12.4194 43.1393 12.2621 43.2992 12.0667C43.4643 11.8714 43.6029 11.6489 43.7147 11.3993C43.8266 11.1497 43.9172 10.8919 43.9865 10.626C44.0557 10.3601 44.1063 10.0969 44.1383 9.83648C44.1703 9.57059 44.1863 9.32912 44.1863 9.11207Z" fill="#BABABA"/>
<path d="M51.8663 13.833H49.1651V0.101601H50.204L51.8663 2.95858V13.833Z" fill="#BABABA"/>
<path d="M63.4143 13.833H60.7131V12.7097C60.3935 13.1547 60.0072 13.4857 59.5543 13.7028C59.1068 13.9144 58.614 14.0202 58.0759 14.0202C57.3726 14.0202 56.7439 13.8927 56.1898 13.6376C55.6357 13.3826 55.1669 13.0353 54.7833 12.5958C54.3997 12.1508 54.1067 11.6299 53.9042 11.033C53.7017 10.4361 53.6005 9.79579 53.6005 9.11207C53.6005 8.42834 53.7017 7.78803 53.9042 7.19114C54.1067 6.59424 54.3997 6.07602 54.7833 5.63648C55.1669 5.19152 55.6357 4.84152 56.1898 4.58648C56.7439 4.33145 57.3726 4.20393 58.0759 4.20393C58.4328 4.20393 58.7712 4.25819 59.0908 4.36672C59.4158 4.47524 59.7115 4.6299 59.9779 4.83067C60.2496 5.02602 60.4867 5.26478 60.6892 5.54695C60.897 5.82369 61.0595 6.133 61.1767 6.47486L62.3754 4.43183H63.4143V13.833ZM60.6972 9.11207C60.6972 8.86788 60.6838 8.61013 60.6572 8.33881C60.6359 8.06749 60.5959 7.79889 60.5373 7.533C60.4787 7.2671 60.3961 7.01478 60.2896 6.77602C60.1884 6.53183 60.0552 6.31749 59.89 6.133C59.7302 5.94307 59.5357 5.79385 59.3066 5.68532C59.0775 5.57679 58.8111 5.52253 58.5074 5.52253C58.2037 5.52253 57.94 5.57951 57.7162 5.69346C57.4925 5.80199 57.3007 5.95121 57.1408 6.14114C56.981 6.32563 56.8478 6.53997 56.7413 6.78416C56.64 7.02834 56.5601 7.28338 56.5015 7.54927C56.4429 7.81517 56.4003 8.08377 56.3736 8.35509C56.3523 8.62098 56.3417 8.87331 56.3417 9.11207C56.3417 9.35083 56.3523 9.60586 56.3736 9.87718C56.4003 10.1485 56.4429 10.4171 56.5015 10.683C56.5601 10.9489 56.64 11.2039 56.7413 11.4481C56.8478 11.6923 56.981 11.9094 57.1408 12.0993C57.3007 12.2838 57.4925 12.433 57.7162 12.5469C57.94 12.6555 58.2037 12.7097 58.5074 12.7097C58.7845 12.7097 59.0296 12.6528 59.2427 12.5388C59.4611 12.4194 59.6502 12.2621 59.8101 12.0667C59.9752 11.8714 60.1138 11.6489 60.2256 11.3993C60.3375 11.1497 60.4281 10.8919 60.4974 10.626C60.5666 10.3601 60.6172 10.0969 60.6492 9.83648C60.6812 9.57059 60.6972 9.32912 60.6972 9.11207Z" fill="#BABABA"/>
<path d="M68.2973 12.6121C68.2973 12.8183 68.26 13.0136 68.1854 13.1981C68.1108 13.3772 68.0069 13.5345 67.8737 13.6702C67.7405 13.8004 67.586 13.9035 67.4102 13.9795C67.2344 14.0609 67.0453 14.1016 66.8428 14.1016C66.6403 14.1016 66.4512 14.0609 66.2754 13.9795C66.0996 13.9035 65.9451 13.8004 65.8119 13.6702C65.6787 13.5345 65.5748 13.3772 65.5002 13.1981C65.4256 13.0136 65.3883 12.8183 65.3883 12.6121C65.3883 12.4113 65.4256 12.2214 65.5002 12.0423C65.5748 11.8578 65.6787 11.7004 65.8119 11.5702C65.9451 11.4345 66.0996 11.3287 66.2754 11.2528C66.4512 11.1714 66.6403 11.1307 66.8428 11.1307C67.0453 11.1307 67.2344 11.1714 67.4102 11.2528C67.586 11.3287 67.7405 11.4345 67.8737 11.5702C68.0069 11.7004 68.1108 11.8578 68.1854 12.0423C68.26 12.2214 68.2973 12.4113 68.2973 12.6121Z" fill="#BABABA"/>
<path d="M73.1003 2.1609C73.1003 2.3671 73.0604 2.56245 72.9804 2.74695C72.9059 2.93145 72.802 3.09152 72.6688 3.22718C72.5356 3.36284 72.3784 3.47137 72.1973 3.55276C72.0161 3.62873 71.8243 3.66672 71.6218 3.66672C71.4194 3.66672 71.2276 3.62873 71.0464 3.55276C70.8706 3.47137 70.7161 3.36284 70.5829 3.22718C70.4497 3.09152 70.3432 2.93145 70.2633 2.74695C70.1887 2.56245 70.1514 2.3671 70.1514 2.1609C70.1514 1.9547 70.1887 1.76207 70.2633 1.583C70.3432 1.3985 70.4497 1.23842 70.5829 1.10276C70.7161 0.967104 70.8706 0.861291 71.0464 0.785322C71.2276 0.703926 71.4194 0.663229 71.6218 0.663229C71.8243 0.663229 72.0161 0.703926 72.1973 0.785322C72.3784 0.861291 72.5356 0.967104 72.6688 1.10276C72.802 1.23842 72.9059 1.3985 72.9804 1.583C73.0604 1.76207 73.1003 1.9547 73.1003 2.1609ZM72.9804 13.833H70.2712V4.43997H72.9804V13.833Z" fill="#BABABA"/>
<path d="M85 9.11207C85 9.60044 84.9361 10.059 84.8082 10.4876C84.6803 10.9163 84.5018 11.3125 84.2728 11.676C84.049 12.0396 83.7773 12.3679 83.4576 12.6609C83.1379 12.9485 82.7863 13.1927 82.4027 13.3935C82.0244 13.5942 81.6168 13.7489 81.18 13.8574C80.7484 13.9659 80.3035 14.0202 79.8453 14.0202C79.3871 14.0202 78.9423 13.9659 78.5107 13.8574C78.0792 13.7489 77.6716 13.5942 77.288 13.3935C76.9097 13.1927 76.5607 12.9485 76.2411 12.6609C75.9214 12.3679 75.647 12.0396 75.4179 11.676C75.1942 11.3125 75.0183 10.9163 74.8905 10.4876C74.7626 10.0535 74.6987 9.59501 74.6987 9.11207C74.6987 8.62912 74.7626 8.17331 74.8905 7.74462C75.0183 7.31052 75.1942 6.91168 75.4179 6.54811C75.647 6.18455 75.9214 5.85896 76.2411 5.57137C76.5607 5.27834 76.9097 5.03145 77.288 4.83067C77.6716 4.6299 78.0792 4.47524 78.5107 4.36672C78.9423 4.25819 79.3871 4.20393 79.8453 4.20393C80.3035 4.20393 80.7484 4.25819 81.18 4.36672C81.6168 4.47524 82.0244 4.6299 82.4027 4.83067C82.7863 5.03145 83.1379 5.27834 83.4576 5.57137C83.7773 5.85896 84.049 6.18455 84.2728 6.54811C84.5018 6.91168 84.6803 7.31052 84.8082 7.74462C84.9361 8.17331 85 8.62912 85 9.11207ZM82.2508 9.11207C82.2508 8.8516 82.2349 8.57757 82.2029 8.28997C82.1763 7.99695 82.1283 7.71207 82.059 7.43532C81.9898 7.15315 81.8939 6.88455 81.7713 6.62951C81.6541 6.36904 81.5076 6.14385 81.3318 5.95393C81.156 5.75858 80.9455 5.60393 80.7004 5.48997C80.4554 5.37059 80.1703 5.3109 79.8453 5.3109C79.5363 5.3109 79.2619 5.37059 79.0222 5.48997C78.7824 5.60935 78.572 5.76943 78.3908 5.97021C78.215 6.16555 78.0658 6.39346 77.9433 6.65393C77.8261 6.91439 77.7302 7.18571 77.6556 7.46788C77.581 7.74462 77.5277 8.02679 77.4958 8.31439C77.4638 8.59656 77.4478 8.86245 77.4478 9.11207C77.4478 9.36168 77.4638 9.63028 77.4958 9.91788C77.5277 10.2001 77.581 10.4822 77.6556 10.7644C77.7302 11.0466 77.8261 11.3179 77.9433 11.5783C78.0658 11.8334 78.215 12.0613 78.3908 12.2621C78.572 12.4574 78.7824 12.6148 79.0222 12.7342C79.2619 12.8535 79.5363 12.9132 79.8453 12.9132C80.165 12.9132 80.4474 12.8563 80.6925 12.7423C80.9375 12.6229 81.148 12.4656 81.3238 12.2702C81.505 12.0749 81.6541 11.8497 81.7713 11.5946C81.8886 11.3396 81.9818 11.071 82.0511 10.7888C82.1256 10.5066 82.1763 10.2218 82.2029 9.93416C82.2349 9.64656 82.2508 9.37253 82.2508 9.11207Z" fill="#BABABA"/>
</svg>
