<svg width="76" height="15" viewBox="0 0 76 15" fill="none" xmlns="http://www.w3.org/2000/svg">
<path d="M0 0.101601H4.64143V14.1016H0V0.101601Z" fill="#BABABA"/>
<path d="M6.96215 0.101601H9.28286V14.1016H6.96215V0.101601Z" fill="#BABABA"/>
<path d="M22.4686 7.5566C24.2324 7.5566 25.1142 8.12049 25.1142 9.24827C25.1142 9.77716 24.9943 10.2283 24.7545 10.6016C24.5147 10.9672 24.0854 11.2549 23.4665 11.4649C22.8477 11.6672 21.989 11.7683 20.8905 11.7683H15.6689C15.7308 10.2594 15.7617 8.84771 15.7617 7.53327C15.7617 6.21882 15.7308 4.80716 15.6689 3.29827H18.3958V3.30993H20.8673C21.8265 3.30993 22.5808 3.3916 23.13 3.55493C23.687 3.71049 24.0776 3.93993 24.302 4.24327C24.534 4.5466 24.6501 4.9316 24.6501 5.39827C24.6501 5.87271 24.4838 6.2966 24.1511 6.66993C23.8262 7.03549 23.2654 7.33104 22.4686 7.5566ZM18.3958 5.43327V6.51827H20.6236C21.1033 6.51827 21.4359 6.47549 21.6215 6.38993C21.8149 6.30438 21.9116 6.14882 21.9116 5.92327C21.9116 5.74438 21.8111 5.61993 21.6099 5.54993C21.4166 5.47216 21.0878 5.43327 20.6236 5.43327H18.3958ZM20.6236 9.63327C21.0259 9.63327 21.3315 9.61771 21.5403 9.5866C21.7569 9.54771 21.9116 9.48549 22.0045 9.39993C22.0973 9.3066 22.1437 9.18216 22.1437 9.0266C22.1437 8.82438 22.0315 8.68049 21.8072 8.59493C21.5906 8.5016 21.1961 8.45493 20.6236 8.45493H18.3958V9.63327H20.6236Z" fill="#BABABA"/>
<path d="M31.2009 11.8849C29.4295 11.8849 28.126 11.4999 27.2905 10.7299C26.4551 9.95216 26.0373 8.86327 26.0373 7.46327C26.0373 6.07882 26.4512 4.99771 27.2789 4.21993C28.1144 3.44216 29.4217 3.05327 31.2009 3.05327C32.9879 3.05327 34.2952 3.44216 35.1229 4.21993C35.9584 4.99771 36.3761 6.07882 36.3761 7.46327C36.3761 8.87105 35.9623 9.95993 35.1346 10.7299C34.3068 11.4999 32.9956 11.8849 31.2009 11.8849ZM31.2009 9.50493C32.0596 9.50493 32.6785 9.3416 33.0575 9.01493C33.4366 8.68049 33.6261 8.16327 33.6261 7.46327C33.6261 6.77882 33.4366 6.26938 33.0575 5.93493C32.6785 5.60049 32.0596 5.43327 31.2009 5.43327C30.35 5.43327 29.735 5.60049 29.356 5.93493C28.9769 6.26938 28.7874 6.77882 28.7874 7.46327C28.7874 8.15549 28.9769 8.66882 29.356 9.00327C29.735 9.33771 30.35 9.50493 31.2009 9.50493Z" fill="#BABABA"/>
<path d="M43.358 11.7683C42.9945 11.1072 42.3911 10.096 41.5479 8.73493L40.1903 10.0883V11.7683H37.301C37.3629 10.2594 37.3938 8.84771 37.3938 7.53327C37.3938 6.21882 37.3629 4.80716 37.301 3.29827H40.1903V6.7166C41.6136 5.30104 42.627 4.1616 43.2304 3.29827H46.99L43.3348 6.93827C43.8763 7.70049 44.4836 8.52882 45.1566 9.42327C45.8373 10.3177 46.4523 11.0994 47.0016 11.7683H43.358Z" fill="#BABABA"/>
<path d="M54.6717 5.61993C53.7512 5.57327 53.0704 5.54604 52.6295 5.53827V9.52827C53.0782 9.52049 53.7589 9.49327 54.6717 9.4466V11.7683H47.93V9.4466C48.8196 9.49327 49.4965 9.52049 49.9607 9.52827V5.53827C49.4965 5.54604 48.8196 5.57327 47.93 5.61993V3.29827H54.6717V5.61993Z" fill="#BABABA"/>
<path d="M65.3369 3.30993C65.2828 4.62438 65.2557 6.03216 65.2557 7.53327C65.2557 9.04216 65.2828 10.4538 65.3369 11.7683H61.1829L58.3748 5.39827L58.5837 11.7683H55.6015C55.6634 10.2594 55.6944 8.84771 55.6944 7.53327C55.6944 6.2266 55.6634 4.81882 55.6015 3.30993H59.8717L62.6913 9.85493L62.4941 3.30993H65.3369Z" fill="#BABABA"/>
<path d="M71.0453 6.93827H76V11.7683H73.9578L73.7141 9.70327C73.482 10.4422 73.0682 10.9905 72.4725 11.3483C71.8769 11.706 71.1497 11.8849 70.291 11.8849C69.5097 11.8849 68.8135 11.7099 68.2024 11.3599C67.599 11.0099 67.1233 10.5083 66.7752 9.85493C66.4348 9.2016 66.2646 8.43938 66.2646 7.56827C66.2646 6.17604 66.6785 5.07549 67.5062 4.2666C68.3339 3.45771 69.6219 3.05327 71.3702 3.05327C72.3681 3.05327 73.2461 3.2166 74.0042 3.54327C74.77 3.86993 75.4198 4.37549 75.9536 5.05993C75.6055 5.23882 74.9247 5.5966 73.9114 6.13327L73.6213 6.2966C73.3196 5.99327 72.9676 5.76771 72.5653 5.61993C72.1631 5.46438 71.7376 5.3866 71.2889 5.3866C70.5463 5.3866 69.9932 5.58493 69.6296 5.9816C69.2661 6.37049 69.0843 6.85271 69.0843 7.42827C69.0843 8.05049 69.2777 8.55216 69.6645 8.93327C70.059 9.31438 70.6585 9.50493 71.463 9.50493C71.8111 9.50493 72.1476 9.45438 72.4725 9.35327C72.8051 9.25216 73.0836 9.07716 73.308 8.82827H71.0453V6.93827Z" fill="#BABABA"/>
</svg>
