<svg width="84" height="12" viewBox="0 0 84 12" fill="none" xmlns="http://www.w3.org/2000/svg">
<path d="M6.98749 11.1016C2.63537 11.1016 0.135533 10.0963 0 7.35723H3.67446C3.67446 8.11485 4.48766 8.62478 6.8369 8.62478C9.23132 8.62478 9.68309 8.30425 9.68309 7.75061C9.68309 7.10955 9.2765 6.97842 6.65619 6.81816L6.12911 6.78902C1.98782 6.5559 0.165652 5.56518 0.165652 3.32147C0.165652 1.17975 2.52995 0.101601 6.24959 0.101601C10.4963 0.101601 12.7702 1.35458 12.9058 3.67114H9.23132C9.23132 2.86981 8.25247 2.57842 6.21947 2.57842C4.30694 2.57842 3.84011 2.86981 3.84011 3.32147C3.84011 3.86054 4.24671 4.06451 6.67125 4.22478L7.28868 4.26849C10.9782 4.54531 13.3576 4.92412 13.3576 7.61948C13.3576 10.2566 10.9782 11.1016 6.98749 11.1016Z" fill="#BABABA"/>
<path d="M13.6327 10.8102L19.1745 0.349282H23.6923L29.2191 10.8102H25.4392L24.4905 8.87246H18.3613L17.3975 10.8102H13.6327ZM19.5661 6.41021H23.2707L21.4184 2.66584L19.5661 6.41021Z" fill="#BABABA"/>
<path d="M30.4161 10.8102V0.349282H35.9429L39.1505 6.86186L42.3431 0.349282H47.8548V10.8102H44.3158V3.59829L40.792 10.8102H37.494L33.9551 3.59829V10.8102H30.4161Z" fill="#BABABA"/>
<path d="M49.3543 3.23405V0.349282H62.2149V3.23405H57.5616V10.8102H54.0227V3.23405H49.3543Z" fill="#BABABA"/>
<path d="M63.6965 10.8102V0.349282H67.2354V10.8102H63.6965Z" fill="#BABABA"/>
<path d="M73.6694 10.8102L68.4137 0.349282H72.1785L76.1993 8.49365L80.2201 0.349282H84L78.7142 10.8102H73.6694Z" fill="#BABABA"/>
</svg>
