<svg width="26" height="21" viewBox="0 0 26 21" fill="none" xmlns="http://www.w3.org/2000/svg">
<path d="M25.2615 3.06263C24.3381 3.46321 23.3617 3.72802 22.3624 3.84881C23.4166 3.21904 24.2066 2.22828 24.5859 1.06033C23.5952 1.65004 22.5108 2.06553 21.3797 2.28874C20.6237 1.46886 19.6169 0.923114 18.5173 0.737078C17.4177 0.551042 16.2874 0.735244 15.3038 1.26079C14.3201 1.78634 13.5387 2.62352 13.0821 3.64101C12.6255 4.65851 12.5196 5.79877 12.7809 6.88298C10.7779 6.78167 8.81858 6.26012 7.03028 5.35221C5.24199 4.44431 3.66469 3.17036 2.40084 1.61311C1.95756 2.38722 1.72463 3.26387 1.72522 4.15592C1.72365 4.98433 1.92695 5.80028 2.31701 6.53112C2.70708 7.26196 3.27181 7.885 3.96092 8.34478C3.15997 8.32299 2.37614 8.10807 1.67608 7.71829V7.77972C1.68209 8.94042 2.08882 10.0634 2.82749 10.9588C3.56615 11.8541 4.59141 12.4669 5.72983 12.6933C5.2916 12.8267 4.83662 12.897 4.37858 12.9022C4.06152 12.8985 3.74524 12.8697 3.43271 12.8162C3.75689 13.8146 4.38426 14.6872 5.2275 15.3125C6.07074 15.9378 7.08792 16.2847 8.1375 16.3049C6.36516 17.6994 4.17698 18.4605 1.92177 18.4669C1.51115 18.4682 1.10087 18.4436 0.693359 18.3931C2.99592 19.8798 5.67923 20.669 8.42004 20.6657C10.3114 20.6853 12.1877 20.3279 13.9394 19.6143C15.6911 18.9007 17.283 17.8451 18.6222 16.5094C19.9614 15.1736 21.021 13.5844 21.7391 11.8346C22.4572 10.0847 22.8195 8.20932 22.8047 6.31791C22.8047 6.10908 22.8047 5.88797 22.8047 5.66686C23.7686 4.94801 24.6 4.06676 25.2615 3.06263Z" fill="white"/>
</svg>
