<svg width="21" height="21" viewBox="0 0 21 21" fill="none" xmlns="http://www.w3.org/2000/svg">
<path d="M10.9785 0.666504C9.0007 0.666504 7.06731 1.25299 5.42281 2.35181C3.77832 3.45062 2.4966 5.01241 1.73972 6.83967C0.982848 8.66693 0.784815 10.6776 1.17067 12.6174C1.55652 14.5572 2.50893 16.339 3.90745 17.7376C5.30597 19.1361 7.0878 20.0885 9.02761 20.4743C10.9674 20.8602 12.9781 20.6622 14.8053 19.9053C16.6326 19.1484 18.1944 17.8667 19.2932 16.2222C20.392 14.5777 20.9785 12.6443 20.9785 10.6665C20.9785 9.35328 20.7199 8.05292 20.2173 6.83967C19.7148 5.62641 18.9782 4.52402 18.0496 3.59543C17.121 2.66685 16.0186 1.93025 14.8053 1.42771C13.5921 0.925161 12.2917 0.666504 10.9785 0.666504ZM10.9785 2.6665C13.0332 2.66568 15.0083 3.46143 16.4885 4.8865C14.9605 5.7827 13.3414 6.5135 11.6585 7.0665C10.821 5.62333 9.86079 4.25494 8.78852 2.9765C9.50048 2.7715 10.2376 2.66715 10.9785 2.6665ZM6.86852 3.8165C7.9162 5.01501 8.85648 6.3033 9.67852 7.6665C7.71562 8.1539 5.70102 8.40237 3.67852 8.4065H3.31852C3.88572 6.48614 5.15245 4.84831 6.86852 3.8165ZM4.97852 15.9765C3.67727 14.5152 2.9646 12.6231 2.97852 10.6665C2.97852 10.5665 2.97852 10.4665 2.97852 10.3765H3.65852C6.02589 10.3553 8.37991 10.019 10.6585 9.3765C10.9785 9.9865 11.2785 10.6165 11.5685 11.2665C10.01 11.8159 8.55852 12.6313 7.27852 13.6765L6.97852 13.9165C6.26563 14.5567 5.59741 15.245 4.97852 15.9765ZM10.9785 18.6665C9.3846 18.67 7.82671 18.1926 6.50852 17.2965C6.99536 16.7381 7.51636 16.2104 8.06852 15.7165L8.38852 15.4465C9.57168 14.4514 10.9275 13.682 12.3885 13.1765C12.9898 14.8025 13.4581 16.4747 13.7885 18.1765C12.8883 18.5052 11.9368 18.6711 10.9785 18.6665ZM15.6085 17.1765C15.2813 15.6631 14.8537 14.1731 14.3285 12.7165H14.6685C14.7079 12.7068 14.7491 12.7068 14.7885 12.7165H14.8985H14.9985H15.4785C16.5309 12.7195 17.5753 12.8987 18.5685 13.2465C18.0228 14.8369 16.9864 16.2129 15.6085 17.1765ZM15.4785 10.6665C15.2685 10.6665 15.0585 10.6665 14.8585 10.6665C14.729 10.6502 14.598 10.6502 14.4685 10.6665C14.1967 10.6832 13.9262 10.7166 13.6585 10.7665H13.5585C13.2685 10.0965 12.9685 9.4465 12.6385 8.7665C14.4291 8.15156 16.1489 7.34699 17.7685 6.3665C18.5719 7.65587 18.9916 9.14735 18.9785 10.6665C18.9785 10.8365 18.9785 11.0065 18.9785 11.1765C17.8452 10.8267 16.6645 10.6547 15.4785 10.6665Z" fill="white"/>
</svg>
