<svg width="26" height="17" viewBox="0 0 26 17" fill="none" xmlns="http://www.w3.org/2000/svg">
<path d="M23.398 1.35144H16.8638V3.16864H23.4237L23.398 1.35144ZM22.019 13.8528C21.5233 14.1812 20.9379 14.3478 20.3435 14.3296C19.9501 14.3707 19.5524 14.33 19.1754 14.2103C18.7984 14.0905 18.4502 13.8942 18.1526 13.6337C17.6023 13.0098 17.3158 12.1965 17.3535 11.3654H25.8853C25.9468 10.5 25.8729 9.63038 25.6663 8.78781C25.4663 7.9862 25.1165 7.22968 24.6352 6.55818C24.1508 5.90683 23.5251 5.37367 22.8051 4.99874C22.0041 4.60377 21.1206 4.40498 20.2275 4.41878C19.3876 4.41263 18.555 4.57477 17.7788 4.89563C17.068 5.19527 16.424 5.63338 15.8843 6.18443C15.3461 6.7465 14.9293 7.41332 14.6599 8.14341C14.3708 8.93157 14.2267 9.76554 14.2346 10.605C14.2213 11.4564 14.361 12.3033 14.647 13.1053C14.8899 13.8316 15.2755 14.502 15.7812 15.0771C16.3043 15.6418 16.9472 16.0822 17.6628 16.3659C18.4607 16.6699 19.3094 16.8187 20.1631 16.8041C21.3609 16.8415 22.5435 16.5279 23.5655 15.902C24.5977 15.1685 25.3409 14.0971 25.6663 12.8733H22.818C22.6655 13.2782 22.3849 13.6221 22.019 13.8528ZM17.5984 8.54293C17.6987 8.22161 17.8652 7.92487 18.0872 7.67182C18.3091 7.41876 18.5817 7.21502 18.8872 7.0737C19.2918 6.89158 19.7324 6.80345 20.176 6.81594C20.4964 6.78858 20.8189 6.83085 21.1215 6.93985C21.424 7.04886 21.6994 7.22202 21.9287 7.44746C22.3667 7.98351 22.6477 8.6303 22.7407 9.31621H17.3922C17.413 9.05431 17.4605 8.79521 17.5339 8.54293H17.5984ZM10.7806 7.92431C11.4366 7.65117 12.0065 7.20588 12.4303 6.63551C12.8198 6.02978 13.0133 5.31879 12.9845 4.59921C13.0097 3.943 12.8818 3.28993 12.6107 2.69179C12.383 2.17358 12.0175 1.7278 11.5539 1.40299C11.0624 1.06529 10.5043 0.836772 9.91713 0.732814C9.22224 0.587068 8.51346 0.517919 7.8035 0.526606H0.109375V16.7397H7.97105C8.68851 16.7402 9.40311 16.6493 10.0976 16.469C10.7558 16.2988 11.3794 16.0153 11.9405 15.6313C12.4841 15.2546 12.9267 14.7501 13.2293 14.1621C13.5643 13.5045 13.7283 12.7732 13.7062 12.0356C13.7306 11.1215 13.4742 10.2219 12.9716 9.45798C12.431 8.68976 11.6293 8.14459 10.7162 7.92431H10.7806ZM3.67935 3.29752H7.01734C7.324 3.29715 7.63013 3.32302 7.93238 3.37485C8.2107 3.4161 8.47798 3.51249 8.71855 3.65839C8.95098 3.78986 9.13932 3.98717 9.25985 4.22546C9.40911 4.51121 9.48025 4.83132 9.46605 5.15339C9.49007 5.43079 9.44765 5.70992 9.34231 5.96766C9.23697 6.2254 9.07175 6.45434 8.86032 6.63551C8.39908 6.9526 7.84717 7.11093 7.28798 7.08659H3.67935V3.29752ZM9.91713 12.8862C9.78472 13.1489 9.58449 13.3713 9.33717 13.5306C9.07981 13.6907 8.79622 13.8041 8.49945 13.8657C8.1696 13.9395 7.83217 13.9741 7.49419 13.9688H3.6278V9.52242H7.49419C8.15769 9.49337 8.81291 9.67864 9.36295 10.0508C9.61145 10.2738 9.80394 10.5522 9.92485 10.8634C10.0458 11.1747 10.0917 11.51 10.0589 11.8423C10.0937 12.1965 10.0452 12.554 9.91713 12.8862Z" fill="white"/>
</svg>
