<svg width="130" height="28" viewBox="0 0 130 28" fill="none" xmlns="http://www.w3.org/2000/svg">
<path d="M80.9387 23.1987C80.9243 23.0524 80.8629 22.9389 80.7543 22.8579C80.6457 22.7769 80.4983 22.7365 80.3121 22.7365C80.1856 22.7365 80.0788 22.7546 79.9917 22.7908C79.9046 22.8259 79.8377 22.8748 79.7912 22.9377C79.7458 23.0005 79.7232 23.0718 79.7232 23.1515C79.7208 23.218 79.7345 23.276 79.7643 23.3255C79.7954 23.3751 79.8377 23.418 79.8914 23.4542C79.9451 23.4893 80.0072 23.5201 80.0776 23.5467C80.148 23.572 80.2232 23.5938 80.3032 23.6119L80.6325 23.6917C80.7925 23.7279 80.9393 23.7762 81.0729 23.8367C81.2066 23.8971 81.3223 23.9714 81.4202 24.0596C81.5181 24.1478 81.5939 24.2517 81.6476 24.3714C81.7025 24.491 81.7305 24.6281 81.7317 24.7828C81.7305 25.01 81.6732 25.2069 81.5598 25.3737C81.4477 25.5392 81.2854 25.6679 81.0729 25.7598C80.8617 25.8504 80.6069 25.8957 80.3085 25.8957C80.0126 25.8957 79.7548 25.8498 79.5352 25.758C79.3168 25.6661 79.1461 25.5302 79.0232 25.3501C78.9015 25.1689 78.8376 24.9447 78.8317 24.6777H79.5817C79.5901 24.8021 79.6253 24.9061 79.6874 24.9894C79.7506 25.0716 79.8347 25.1338 79.9398 25.1761C80.046 25.2172 80.1659 25.2378 80.2996 25.2378C80.4309 25.2378 80.5448 25.2184 80.6415 25.1798C80.7394 25.1411 80.8151 25.0873 80.8688 25.0184C80.9226 24.9496 80.9494 24.8704 80.9494 24.781C80.9494 24.6976 80.9249 24.6275 80.876 24.5707C80.8283 24.5139 80.7579 24.4656 80.6648 24.4257C80.5729 24.3859 80.4601 24.3496 80.3264 24.317L79.9272 24.2155C79.6181 24.1394 79.3741 24.0203 79.1951 23.8584C79.016 23.6965 78.9271 23.4784 78.9283 23.2041C78.9271 22.9793 78.9862 22.783 79.1056 22.615C79.2261 22.4471 79.3914 22.316 79.6014 22.2217C79.8115 22.1274 80.0502 22.0803 80.3175 22.0803C80.5896 22.0803 80.8271 22.1274 81.03 22.2217C81.234 22.316 81.3928 22.4471 81.5061 22.615C81.6195 22.783 81.678 22.9775 81.6816 23.1987H80.9387Z" fill="white"/>
<path d="M82.2531 25.8431V22.1311H84.7235V22.7781H83.0282V23.6627H84.5964V24.3097H83.0282V25.1961H84.7306V25.8431H82.2531Z" fill="white"/>
<path d="M85.9716 25.8431H85.141L86.4066 22.1311H87.4055L88.6694 25.8431H87.8388L86.9204 22.9793H86.8918L85.9716 25.8431ZM85.9197 24.3841H87.8817V24.9967H85.9197V24.3841Z" fill="white"/>
<path d="M89.1107 25.8431V22.1311H89.8858V25.1961H91.4575V25.8431H89.1107Z" fill="white"/>
<path d="M28.8107 19.5063H12.6009C12.1612 19.5063 11.7608 19.753 11.5591 20.1529L8.94898 25.4214L8.94058 25.4299L8.91257 25.4895C8.52329 26.2693 9.08621 27.1937 9.94879 27.1937H26.1669C26.6066 27.1937 27.0071 26.947 27.2087 26.5472L29.8553 21.2191C30.2446 20.4336 29.6816 19.5092 28.8135 19.5092L28.8107 19.5063Z" fill="white"/>
<path d="M4.1992 13.8435C4.50166 13.8435 4.78172 13.6677 4.91895 13.3927L6.6217 9.97859H8.71933C9.0274 9.97859 9.30745 9.80279 9.44468 9.52773L10.1336 8.13828C10.2708 7.86039 10.5509 7.68742 10.8534 7.68742H24.3241C24.6182 7.68742 24.8927 7.52012 25.0299 7.25925C25.0383 7.25074 25.0383 7.24507 25.0439 7.23656L28.0489 1.18821C28.3234 0.640939 27.9257 0.00292969 27.3292 0.00292969H6.87095C6.56849 0.00292969 6.28843 0.178736 6.1512 0.45379L2.55806 7.68742L1.41543 9.98143L0.0851543 12.6611C-0.1809 13.2084 0.208379 13.8464 0.810503 13.8464H4.1964L4.1992 13.8435Z" fill="white"/>
<path d="M11.3434 19.821C11.7607 19.821 12.1332 19.58 12.3208 19.2085L12.8614 18.1395C13.0406 17.7624 13.4215 17.527 13.8388 17.527H25.2399C25.6432 17.527 26.0101 17.3087 26.1893 16.9599C26.2033 16.9457 26.2117 16.9315 26.2173 16.9174L27.8276 13.6706L28.9479 11.422C29.3147 10.679 28.791 9.80566 27.9705 9.80566H9.65469C9.2374 9.80566 8.86493 10.0467 8.67729 10.4182L7.05856 13.6706L5.95793 15.8909H5.94953L5.13736 17.5299L4.00032 19.8239L2.8941 22.0583C2.52162 22.7927 3.05093 23.6661 3.8715 23.6661H6.70288C6.8121 23.6661 6.91853 23.6519 7.01935 23.6151C7.30781 23.5357 7.55146 23.3315 7.68028 23.0536L9.29062 19.821H11.3406H11.3434Z" fill="white"/>
<path d="M46.7093 20.3483C46.4909 20.1271 46.32 19.9145 46.1912 19.7075L42.5841 13.2933V26.1585C42.5841 26.4449 42.4805 26.6887 42.276 26.8957C42.0716 27.1027 41.8279 27.2076 41.5479 27.2076H36.518C36.2352 27.2076 35.9943 27.1056 35.7899 26.8957C35.5854 26.6887 35.4818 26.442 35.4818 26.1585V1.04917C35.4818 0.765613 35.5826 0.518915 35.7899 0.311916C35.9943 0.104917 36.238 0 36.518 0H40.9709C41.4834 0 41.8671 0.141781 42.122 0.428177C42.3768 0.714573 42.5449 0.921571 42.6205 1.04917L48.8406 11.816L55.0606 1.04917C55.1363 0.918736 55.3043 0.711738 55.5591 0.428177C55.814 0.144617 56.1977 0 56.7102 0H61.1631C61.4432 0 61.6868 0.104917 61.8913 0.311916C62.0957 0.518915 62.1993 0.765613 62.1993 1.04917V26.1585C62.1993 26.4449 62.0957 26.6887 61.8913 26.8957C61.6868 27.1027 61.4432 27.2076 61.1631 27.2076H56.1333C55.8504 27.2076 55.6068 27.1056 55.4051 26.8957C55.2007 26.6887 55.0971 26.442 55.0971 26.1585V13.2933L51.4899 19.7075C51.3611 19.9145 51.1874 20.13 50.9718 20.3483C50.7562 20.5667 50.4537 20.6801 50.07 20.6801H47.6139C47.2302 20.6801 46.9278 20.5695 46.7121 20.3483H46.7093Z" fill="white"/>
<path d="M89.9811 0.00850647C91.6194 0.00850647 93.0897 0.195656 94.3948 0.572791C95.6999 0.949927 96.8145 1.51988 97.7359 2.28266C98.6573 3.04828 99.3686 3.9982 99.8671 5.13812C100.366 6.27803 100.615 7.59942 100.615 9.10229C100.615 10.6052 100.366 11.9663 99.8671 13.1062C99.3686 14.2461 98.6573 15.1932 97.7359 15.9446C96.8145 16.696 95.7027 17.266 94.3948 17.6545C93.0897 18.043 91.6166 18.2386 89.9811 18.2386L74.6731 18.2301V26.1585C74.6731 26.4449 74.5695 26.6887 74.3651 26.8957C74.1606 27.1027 73.917 27.2076 73.6369 27.2076H68.6071C68.3242 27.2076 68.0834 27.1056 67.8789 26.8957C67.6745 26.6887 67.5709 26.442 67.5709 26.1585V1.04917C67.5709 0.765613 67.6717 0.518915 67.8789 0.311916C68.0834 0.104917 68.327 0 68.6071 0L89.9783 0.00850647H89.9811ZM74.6731 12.1676L89.7878 12.1761C90.8633 12.1761 91.751 11.9379 92.4568 11.4558C93.1597 10.9766 93.5126 10.194 93.5126 9.10513C93.5126 8.01626 93.1597 7.23363 92.4568 6.75441C91.7538 6.2752 90.8633 6.03417 89.7878 6.03417L74.6731 6.02566V12.1676Z" fill="white"/>
<path d="M129.371 26.1641C129.36 26.0989 129.326 26.0139 129.276 25.9118L122.342 16.1318L122.303 16.0751L120.491 13.5202L120.499 13.5088L115.878 6.92739L115.713 6.69203L111.666 0.972613C111.565 0.842175 111.397 0.649352 111.167 0.388477C110.938 0.130436 110.565 0 110.056 0H104.261C104.032 0 103.833 0.085068 103.668 0.252369C103.499 0.422505 103.418 0.620997 103.418 0.856352C103.418 0.98679 103.457 1.12857 103.533 1.28169L111.176 12.1761L112.01 13.3642L116.987 20.4277L117.043 20.5071L121.143 26.3002C121.297 26.5328 121.468 26.7398 121.661 26.9212C121.852 27.1027 122.205 27.1935 122.714 27.1935H128.548C128.777 27.1935 128.976 27.1084 129.142 26.9411C129.307 26.771 129.391 26.5696 129.391 26.3371C129.391 26.2861 129.385 26.2294 129.371 26.1641Z" fill="white"/>
<path d="M116.987 20.4278L116.195 19.3077L111.282 26.3003C111.128 26.5328 110.957 26.7398 110.764 26.9213C110.574 27.1028 110.221 27.1935 109.708 27.1935H103.878C103.648 27.1935 103.449 27.1084 103.284 26.9411C103.116 26.771 103.035 26.5697 103.035 26.3372C103.035 26.2861 103.04 26.2294 103.054 26.1642C103.065 26.099 103.099 26.0139 103.149 25.9118L112.01 13.3643L116.987 20.4278Z" fill="white"/>
<path d="M116.987 20.4278L116.195 19.3077L111.282 26.3003C111.128 26.5328 110.957 26.7398 110.764 26.9213C110.574 27.1028 110.221 27.1935 109.708 27.1935H103.878C103.648 27.1935 103.449 27.1084 103.284 26.9411C103.116 26.771 103.035 26.5697 103.035 26.3372C103.035 26.2861 103.04 26.2294 103.054 26.1642C103.065 26.099 103.099 26.0139 103.149 25.9118L112.01 13.3643L116.987 20.4278Z" fill="url(#paint0_linear_4001_93)"/>
<path d="M129.122 0.856352C129.122 0.98679 129.086 1.12857 129.007 1.28169L121.642 11.867L117.743 6.31206L117.441 5.88105L120.799 0.972613C120.899 0.842175 121.065 0.649352 121.297 0.388477C121.527 0.130436 121.896 0 122.409 0H128.279C128.509 0 128.707 0.085068 128.873 0.252369C129.038 0.422505 129.122 0.620997 129.122 0.856352Z" fill="white"/>
<defs>
<linearGradient id="paint0_linear_4001_93" x1="120.208" y1="10.7612" x2="112.779" y2="18.5463" gradientUnits="userSpaceOnUse">
<stop stop-color="white"/>
<stop offset="0.12" stop-color="#FAFAFA" stop-opacity="0.98"/>
<stop offset="0.24" stop-color="#EEEEEE" stop-opacity="0.93"/>
<stop offset="0.37" stop-color="#D9D9D9" stop-opacity="0.85"/>
<stop offset="0.5" stop-color="#BBBBBB" stop-opacity="0.74"/>
<stop offset="0.63" stop-color="#969696" stop-opacity="0.59"/>
<stop offset="0.76" stop-color="#676767" stop-opacity="0.41"/>
<stop offset="0.89" stop-color="#323232" stop-opacity="0.2"/>
<stop offset="1" stop-opacity="0"/>
</linearGradient>
</defs>
</svg>
