<svg width="268" height="56" viewBox="0 0 268 56" fill="none" xmlns="http://www.w3.org/2000/svg">
<path d="M167.644 47.4321C167.614 47.1331 167.487 46.9009 167.262 46.7354C167.037 46.5698 166.732 46.4871 166.346 46.4871C166.084 46.4871 165.863 46.5241 165.683 46.5982C165.502 46.6699 165.364 46.7699 165.267 46.8984C165.173 47.0269 165.127 47.1727 165.127 47.3357C165.122 47.4716 165.15 47.5902 165.212 47.6915C165.276 47.7928 165.364 47.8805 165.475 47.9546C165.586 48.0263 165.715 48.0893 165.861 48.1436C166.007 48.1955 166.162 48.24 166.328 48.277L167.01 48.4401C167.341 48.5142 167.645 48.613 167.922 48.7366C168.199 48.8601 168.439 49.012 168.642 49.1924C168.844 49.3728 169.001 49.5852 169.112 49.8298C169.226 50.0744 169.284 50.3548 169.287 50.6711C169.284 51.1355 169.166 51.5383 168.931 51.8792C168.698 52.2177 168.362 52.4808 167.922 52.6686C167.485 52.8539 166.957 52.9465 166.339 52.9465C165.726 52.9465 165.192 52.8526 164.737 52.6649C164.285 52.4771 163.931 52.1991 163.677 51.831C163.425 51.4604 163.292 51.0021 163.28 50.4561H164.834C164.851 50.7106 164.924 50.9231 165.052 51.0935C165.183 51.2615 165.358 51.3888 165.575 51.4753C165.795 51.5593 166.044 51.6013 166.32 51.6013C166.592 51.6013 166.828 51.5617 167.029 51.4827C167.231 51.4036 167.388 51.2937 167.5 51.1528C167.611 51.012 167.666 50.8502 167.666 50.6674C167.666 50.4969 167.616 50.3536 167.514 50.2375C167.415 50.1214 167.27 50.0225 167.077 49.941C166.887 49.8595 166.653 49.7853 166.376 49.7186L165.549 49.5111C164.909 49.3555 164.403 49.1121 164.033 48.781C163.662 48.45 163.478 48.004 163.48 47.4432C163.478 46.9837 163.6 46.5822 163.847 46.2388C164.097 45.8953 164.439 45.6273 164.874 45.4346C165.309 45.2419 165.804 45.1455 166.358 45.1455C166.921 45.1455 167.413 45.2419 167.833 45.4346C168.256 45.6273 168.585 45.8953 168.82 46.2388C169.054 46.5822 169.175 46.9799 169.183 47.4321H167.644Z" fill="white"/>
<path d="M170.367 52.839V45.2493H175.483V46.5723H171.972V48.3808H175.22V49.7038H171.972V51.516H175.498V52.839H170.367Z" fill="white"/>
<path d="M178.069 52.839H176.348L178.97 45.2493H181.039L183.656 52.839H181.936L180.034 46.9837H179.975L178.069 52.839ZM177.961 49.8558H182.025V51.1084H177.961V49.8558Z" fill="white"/>
<path d="M184.57 52.839V45.2493H186.176V51.516H189.431V52.839H184.57Z" fill="white"/>
<path d="M59.674 39.8828H26.0996C25.1889 39.8828 24.3594 40.3872 23.9418 41.2047L18.5355 51.9769L18.5181 51.9943L18.4601 52.116C17.6538 53.7104 18.8198 55.6005 20.6064 55.6005H54.1981C55.1088 55.6005 55.9383 55.0961 56.356 54.2786L61.8376 43.3846C62.6439 41.7787 61.478 39.8886 59.6798 39.8886L59.674 39.8828Z" fill="#FF9900"/>
<path d="M8.69758 28.3046C9.32405 28.3046 9.90412 27.9452 10.1884 27.3828L13.7152 20.4023H18.0599C18.698 20.4023 19.278 20.0428 19.5623 19.4805L20.9892 16.6396C21.2735 16.0714 21.8535 15.7177 22.48 15.7177H50.3813C50.9904 15.7177 51.5588 15.3757 51.8431 14.8423C51.8605 14.8249 51.8605 14.8133 51.8721 14.7959L58.0962 2.42931C58.6647 1.31035 57.841 0.00585938 56.6054 0.00585938H14.2314C13.605 0.00585938 13.0249 0.365317 12.7407 0.927698L5.29838 15.7177L2.9317 20.4081L0.176376 25.887C-0.374689 27.0059 0.431603 28.3104 1.67875 28.3104H8.69178L8.69758 28.3046Z" fill="#FF9900"/>
<path d="M23.4951 40.526C24.3594 40.526 25.1309 40.0331 25.5195 39.2736L26.6391 37.0879C27.0103 36.3168 27.7992 35.8356 28.6635 35.8356H52.2781C53.1134 35.8356 53.8733 35.3892 54.2445 34.676C54.2735 34.647 54.2909 34.6181 54.3025 34.5891L57.6379 27.9507L59.9582 23.353C60.7181 21.834 59.6333 20.0483 57.9337 20.0483H19.9973C19.133 20.0483 18.3615 20.5411 17.9728 21.3006L14.62 27.9507L12.3404 32.4903H12.323L10.6408 35.8414L8.28569 40.5317L5.99442 45.1004C5.22293 46.602 6.31925 48.3877 8.01885 48.3877H13.8833C14.1096 48.3877 14.33 48.3587 14.5388 48.2833C15.1363 48.121 15.641 47.7036 15.9078 47.1354L19.2432 40.526H23.4893H23.4951Z" fill="#FF9900"/>
<path d="M96.7469 41.6046C96.2944 41.1523 95.9406 40.7175 95.6738 40.2943L88.2025 27.1798V53.4841C88.2025 54.0697 87.9879 54.5683 87.5644 54.9915C87.141 55.4148 86.6363 55.6293 86.0562 55.6293H75.6382C75.0523 55.6293 74.5535 55.4206 74.13 54.9915C73.7066 54.5683 73.4919 54.0639 73.4919 53.4841V2.14516C73.4919 1.56539 73.7008 1.06099 74.13 0.63775C74.5535 0.214515 75.0581 0 75.6382 0H84.8613C85.9228 0 86.7175 0.289888 87.2454 0.87546C87.7732 1.46103 88.1213 1.88426 88.2779 2.14516L101.161 24.1592L114.045 2.14516C114.201 1.87847 114.549 1.45523 115.077 0.87546C115.605 0.295686 116.4 0 117.461 0H126.684C127.264 0 127.769 0.214515 128.192 0.63775C128.616 1.06099 128.83 1.56539 128.83 2.14516V53.4841C128.83 54.0697 128.616 54.5683 128.192 54.9915C127.769 55.4148 127.264 55.6293 126.684 55.6293H116.266C115.68 55.6293 115.176 55.4206 114.758 54.9915C114.335 54.5683 114.12 54.0639 114.12 53.4841V27.1798L106.649 40.2943C106.382 40.7175 106.022 41.1581 105.576 41.6046C105.129 42.051 104.502 42.2829 103.708 42.2829H98.6205C97.8258 42.2829 97.1993 42.0568 96.7527 41.6046H96.7469Z" fill="white"/>
<path d="M186.373 0.0173925C189.767 0.0173925 192.812 0.400042 195.515 1.17114C198.218 1.94224 200.527 3.10758 202.435 4.66718C204.344 6.23257 205.817 8.17481 206.85 10.5055C207.882 12.8362 208.399 15.5379 208.399 18.6107C208.399 21.6835 207.882 24.4664 206.85 26.7971C205.817 29.1278 204.344 31.0643 202.435 32.6007C200.527 34.1371 198.224 35.3024 195.515 36.0967C192.812 36.891 189.761 37.291 186.373 37.291L154.667 37.2737V53.4841C154.667 54.0697 154.452 54.5683 154.029 54.9915C153.605 55.4148 153.101 55.6293 152.521 55.6293H142.103C141.517 55.6293 141.018 55.4206 140.594 54.9915C140.171 54.5683 139.956 54.0639 139.956 53.4841V2.14516C139.956 1.56539 140.165 1.06099 140.594 0.63775C141.018 0.214515 141.522 0 142.103 0L186.368 0.0173925H186.373ZM154.667 24.8781L185.973 24.8955C188.201 24.8955 190.039 24.4085 191.501 23.4229C192.957 22.443 193.688 20.8429 193.688 18.6165C193.688 16.3902 192.957 14.79 191.501 13.8102C190.045 12.8304 188.201 12.3376 185.973 12.3376L154.667 12.3202V24.8781Z" fill="white"/>
<path d="M267.96 53.4957C267.936 53.3624 267.867 53.1884 267.762 52.9797L253.4 32.9833L253.319 32.8674L249.566 27.6436L249.583 27.6204L240.012 14.1639L239.67 13.6827L231.288 1.98862C231.079 1.72193 230.731 1.32768 230.255 0.794287C229.779 0.266693 229.008 0 227.952 0H215.951C215.475 0 215.063 0.173932 214.721 0.515998C214.373 0.863863 214.205 1.2697 214.205 1.75092C214.205 2.01761 214.286 2.3075 214.442 2.62058L230.272 24.8955L232.001 27.3247L242.309 41.7669L242.425 41.9292L250.917 53.774C251.236 54.2494 251.59 54.6727 251.99 55.0437C252.385 55.4148 253.116 55.6003 254.171 55.6003H266.254C266.73 55.6003 267.142 55.4264 267.484 55.0843C267.826 54.7365 268 54.3248 268 53.8494C268 53.745 267.989 53.6291 267.96 53.4957Z" fill="white"/>
<path d="M242.309 41.7674L240.668 39.4773L230.493 53.7745C230.174 54.2499 229.821 54.6731 229.42 55.0442C229.026 55.4152 228.295 55.6008 227.233 55.6008H215.156C214.681 55.6008 214.269 55.4268 213.927 55.0848C213.579 54.7369 213.41 54.3253 213.41 53.8499C213.41 53.7455 213.422 53.6295 213.451 53.4962C213.474 53.3628 213.544 53.1889 213.648 52.9802L232.002 27.3252L242.309 41.7674Z" fill="white"/>
<path d="M242.309 41.7674L240.668 39.4773L230.493 53.7745C230.174 54.2499 229.821 54.6731 229.42 55.0442C229.026 55.4152 228.295 55.6008 227.233 55.6008H215.156C214.681 55.6008 214.269 55.4268 213.927 55.0848C213.579 54.7369 213.41 54.3253 213.41 53.8499C213.41 53.7455 213.422 53.6295 213.451 53.4962C213.474 53.3628 213.544 53.1889 213.648 52.9802L232.002 27.3252L242.309 41.7674Z" fill="url(#paint0_linear_569_1447)"/>
<path d="M267.443 1.75091C267.443 2.01761 267.368 2.3075 267.205 2.62058L251.95 24.2635L243.875 12.9058L243.249 12.0245L250.204 1.98862C250.412 1.72193 250.755 1.32768 251.236 0.794287C251.712 0.266693 252.477 0 253.539 0H265.697C266.173 0 266.585 0.173932 266.927 0.515998C267.269 0.863863 267.443 1.2697 267.443 1.75091Z" fill="#FF9900"/>
<defs>
<linearGradient id="paint0_linear_569_1447" x1="248.98" y1="22.0029" x2="233.802" y2="38.1167" gradientUnits="userSpaceOnUse">
<stop stop-color="white"/>
<stop offset="0.12" stop-color="#FAFAFA" stop-opacity="0.98"/>
<stop offset="0.24" stop-color="#EEEEEE" stop-opacity="0.93"/>
<stop offset="0.37" stop-color="#D9D9D9" stop-opacity="0.85"/>
<stop offset="0.5" stop-color="#BBBBBB" stop-opacity="0.74"/>
<stop offset="0.63" stop-color="#969696" stop-opacity="0.59"/>
<stop offset="0.76" stop-color="#676767" stop-opacity="0.41"/>
<stop offset="0.89" stop-color="#323232" stop-opacity="0.2"/>
<stop offset="1" stop-opacity="0"/>
</linearGradient>
</defs>
</svg>
