<svg width="21" height="21" viewBox="0 0 21 21" fill="none" xmlns="http://www.w3.org/2000/svg">
<path d="M15.84 4.1265C15.6027 4.1265 15.3707 4.19688 15.1733 4.32874C14.976 4.4606 14.8222 4.64801 14.7313 4.86728C14.6405 5.08656 14.6168 5.32784 14.6631 5.56061C14.7094 5.79339 14.8236 6.00721 14.9915 6.17503C15.1593 6.34285 15.3731 6.45714 15.6059 6.50345C15.8387 6.54975 16.0799 6.52598 16.2992 6.43516C16.5185 6.34433 16.7059 6.19053 16.8378 5.99319C16.9696 5.79585 17.04 5.56384 17.04 5.3265C17.04 5.00824 16.9136 4.70302 16.6885 4.47798C16.4635 4.25293 16.1583 4.1265 15.84 4.1265ZM20.44 6.5465C20.4206 5.7168 20.2652 4.89591 19.98 4.1165C19.7257 3.44964 19.33 2.84578 18.82 2.3465C18.3248 1.83393 17.7196 1.44068 17.05 1.1965C16.2727 0.902665 15.4508 0.743714 14.62 0.726504C13.56 0.666504 13.22 0.666504 10.5 0.666504C7.78 0.666504 7.44 0.666504 6.38 0.726504C5.54915 0.743714 4.72734 0.902665 3.95 1.1965C3.28168 1.44315 2.67693 1.83606 2.18 2.3465C1.66743 2.84168 1.27418 3.44694 1.03 4.1165C0.736161 4.89385 0.57721 5.71566 0.56 6.5465C0.5 7.6065 0.5 7.9465 0.5 10.6665C0.5 13.3865 0.5 13.7265 0.56 14.7865C0.57721 15.6174 0.736161 16.4392 1.03 17.2165C1.27418 17.8861 1.66743 18.4913 2.18 18.9865C2.67693 19.4969 3.28168 19.8899 3.95 20.1365C4.72734 20.4303 5.54915 20.5893 6.38 20.6065C7.44 20.6665 7.78 20.6665 10.5 20.6665C13.22 20.6665 13.56 20.6665 14.62 20.6065C15.4508 20.5893 16.2727 20.4303 17.05 20.1365C17.7196 19.8923 18.3248 19.4991 18.82 18.9865C19.3322 18.4891 19.7283 17.8847 19.98 17.2165C20.2652 16.4371 20.4206 15.6162 20.44 14.7865C20.44 13.7265 20.5 13.3865 20.5 10.6665C20.5 7.9465 20.5 7.6065 20.44 6.5465ZM18.64 14.6665C18.6327 15.3013 18.5178 15.9302 18.3 16.5265C18.1403 16.9617 17.8839 17.3549 17.55 17.6765C17.2256 18.007 16.8332 18.2629 16.4 18.4265C15.8037 18.6443 15.1748 18.7592 14.54 18.7665C13.54 18.8165 13.17 18.8265 10.54 18.8265C7.91 18.8265 7.54 18.8265 6.54 18.7665C5.88089 18.7788 5.22459 18.6774 4.6 18.4665C4.18578 18.2946 3.81136 18.0393 3.5 17.7165C3.16809 17.3953 2.91484 17.0017 2.76 16.5665C2.51586 15.9617 2.38044 15.3184 2.36 14.6665C2.36 13.6665 2.3 13.2965 2.3 10.6665C2.3 8.0365 2.3 7.6665 2.36 6.6665C2.36448 6.01756 2.48295 5.37445 2.71 4.7665C2.88605 4.34441 3.15627 3.96816 3.5 3.6665C3.80381 3.32267 4.17929 3.0496 4.6 2.8665C5.20955 2.64655 5.852 2.53158 6.5 2.5265C7.5 2.5265 7.87 2.4665 10.5 2.4665C13.13 2.4665 13.5 2.4665 14.5 2.5265C15.1348 2.53378 15.7637 2.64875 16.36 2.8665C16.8144 3.03516 17.2223 3.30935 17.55 3.6665C17.8777 3.97368 18.1338 4.34924 18.3 4.7665C18.5223 5.37544 18.6373 6.01828 18.64 6.6665C18.69 7.6665 18.7 8.0365 18.7 10.6665C18.7 13.2965 18.69 13.6665 18.64 14.6665ZM10.5 5.5365C9.48581 5.53848 8.49496 5.84103 7.65265 6.40592C6.81035 6.97081 6.15438 7.7727 5.76763 8.71026C5.38089 9.64781 5.28072 10.679 5.47979 11.6734C5.67886 12.6679 6.16824 13.581 6.88608 14.2975C7.60392 15.0139 8.51801 15.5015 9.51286 15.6987C10.5077 15.8958 11.5387 15.7936 12.4755 15.405C13.4123 15.0165 14.2129 14.3589 14.7761 13.5155C15.3394 12.6721 15.64 11.6807 15.64 10.6665C15.6413 9.99161 15.5092 9.32311 15.2512 8.69946C14.9933 8.07581 14.6146 7.50931 14.1369 7.03255C13.6592 6.5558 13.0919 6.17818 12.4678 5.92143C11.8436 5.66468 11.1749 5.53387 10.5 5.5365ZM10.5 13.9965C9.84139 13.9965 9.19757 13.8012 8.64995 13.4353C8.10234 13.0694 7.67552 12.5493 7.42348 11.9408C7.17144 11.3324 7.1055 10.6628 7.23398 10.0169C7.36247 9.3709 7.67963 8.77755 8.14533 8.31184C8.61104 7.84613 9.20439 7.52898 9.85035 7.40049C10.4963 7.272 11.1659 7.33794 11.7743 7.58998C12.3828 7.84202 12.9029 8.26884 13.2688 8.81645C13.6347 9.36407 13.83 10.0079 13.83 10.6665C13.83 11.1038 13.7439 11.5368 13.5765 11.9408C13.4092 12.3449 13.1639 12.712 12.8547 13.0212C12.5454 13.3304 12.1784 13.5757 11.7743 13.743C11.3703 13.9104 10.9373 13.9965 10.5 13.9965Z" fill="white"/>
</svg>
