<svg width="63" height="56" viewBox="0 0 63 56" fill="none" xmlns="http://www.w3.org/2000/svg">
<path d="M59.674 39.877H26.0996C25.1889 39.877 24.3594 40.3814 23.9418 41.1988L18.5355 51.971L18.5181 51.9884L18.4601 52.1102C17.6538 53.7046 18.8198 55.5946 20.6064 55.5946H54.1981C55.1088 55.5946 55.9383 55.0902 56.356 54.2727L61.8376 43.3788C62.6439 41.7728 61.478 39.8827 59.6798 39.8827L59.674 39.877Z" fill="#FF9900"/>
<path d="M8.69758 28.2988C9.32405 28.2988 9.90412 27.9393 10.1884 27.3769L13.7152 20.3964H18.0599C18.698 20.3964 19.278 20.037 19.5623 19.4746L20.9892 16.6337C21.2735 16.0655 21.8535 15.7119 22.48 15.7119H50.3813C50.9904 15.7119 51.5588 15.3698 51.8431 14.8364C51.8605 14.819 51.8605 14.8074 51.8721 14.79L58.0962 2.42345C58.6647 1.30449 57.841 0 56.6054 0H14.2314C13.605 0 13.0249 0.359458 12.7407 0.921838L5.29838 15.7119L2.9317 20.4022L0.176376 25.8811C-0.374689 27.0001 0.431603 28.3046 1.67875 28.3046H8.69178L8.69758 28.2988Z" fill="#FF9900"/>
<path d="M23.4951 40.5201C24.3594 40.5201 25.1309 40.0273 25.5195 39.2678L26.6391 37.082C27.0103 36.3109 27.7992 35.8297 28.6635 35.8297H52.2781C53.1134 35.8297 53.8733 35.3833 54.2445 34.6702C54.2735 34.6412 54.2909 34.6122 54.3025 34.5832L57.6379 27.9448L59.9582 23.3472C60.7181 21.8282 59.6333 20.0425 57.9337 20.0425H19.9973C19.133 20.0425 18.3615 20.5353 17.9728 21.2948L14.62 27.9448L12.3404 32.4844H12.323L10.6408 35.8355L8.28569 40.5259L5.99442 45.0945C5.22293 46.5961 6.31925 48.3818 8.01885 48.3818H13.8833C14.1096 48.3818 14.33 48.3528 14.5388 48.2775C15.1363 48.1151 15.641 47.6977 15.9078 47.1295L19.2432 40.5201H23.4893H23.4951Z" fill="#FF9900"/>
</svg>
