<svg width="162" height="112" viewBox="0 0 162 112" fill="none" xmlns="http://www.w3.org/2000/svg">
<mask id="mask0_1161_751" style="mask-type:luminance" maskUnits="userSpaceOnUse" x="0" y="0" width="162" height="112">
<path d="M161.721 0.456055H0.130859V111.549H161.721V0.456055Z" fill="white"/>
</mask>
<g mask="url(#mask0_1161_751)">
<mask id="mask1_1161_751" style="mask-type:luminance" maskUnits="userSpaceOnUse" x="-14" y="-23" width="189" height="156">
<path d="M20.3789 -22.9358L174.1 26.8766L139.854 132.56L-13.8671 82.7472L20.3789 -22.9358Z" fill="white"/>
</mask>
<g mask="url(#mask1_1161_751)">
<path d="M57.292 27.7537C67.4202 25.7767 78.4824 38.7824 82.0001 56.8031C85.5178 74.8238 80.1587 91.035 70.0305 93.0121C59.9024 94.9891 48.8401 81.9834 45.3224 63.9627C41.8047 45.942 47.1638 29.7308 57.292 27.7537Z" stroke="white" stroke-width="0.255085"/>
<path d="M57.3581 27.772C67.4562 25.8008 78.4939 38.8114 82.0116 56.8321C85.5292 74.8528 80.1948 91.0592 70.0967 93.0304C59.9986 95.0015 48.9612 81.9909 45.4435 63.9703C41.9258 45.9496 47.26 29.7432 57.3581 27.772Z" stroke="white" stroke-width="0.255085"/>
<path d="M57.6101 27.7502C67.5743 25.8051 78.5033 38.8369 82.021 56.8576C85.5386 74.8783 80.3129 91.0635 70.3487 93.0086C60.3845 94.9536 49.4553 81.9218 45.9376 63.9012C42.42 45.8805 47.6459 29.6952 57.6101 27.7502Z" stroke="white" stroke-width="0.255085"/>
<path d="M57.9877 27.701C67.7483 25.7957 78.5128 38.8596 82.0305 56.8803C85.5482 74.901 80.4869 91.0541 70.7263 92.9594C60.9656 94.8647 50.2014 81.8007 46.6837 63.7801C43.1661 45.7594 48.2271 29.6063 57.9877 27.701Z" stroke="white" stroke-width="0.255085"/>
<path d="M58.3665 27.6488C67.9231 25.7834 78.522 38.8796 82.0396 56.9003C85.5573 74.9209 80.6617 91.0417 71.1051 92.9072C61.5485 94.7727 50.9495 81.6765 47.4318 63.6558C43.9141 45.6351 48.81 29.5143 58.3665 27.6488Z" stroke="white" stroke-width="0.255085"/>
<path d="M58.804 27.5825C68.1224 25.7635 78.5281 38.8974 82.0458 56.9181C85.5635 74.9388 80.8609 91.0219 71.5425 92.8408C62.2242 94.6598 51.8186 81.5258 48.3009 63.5052C44.7833 45.4845 49.4856 29.4014 58.804 27.5825Z" stroke="white" stroke-width="0.255085"/>
<path d="M59.4153 27.4803C68.4002 25.7264 78.5356 38.9131 82.0533 56.9338C85.571 74.9545 81.1388 90.9848 72.1538 92.7387C63.1689 94.4926 53.0334 81.3059 49.5158 63.2852C45.9981 45.2645 50.4303 29.2342 59.4153 27.4803Z" stroke="white" stroke-width="0.255085"/>
<path d="M60.1717 27.3474C68.7417 25.6745 78.5407 38.9269 82.0584 56.9476C85.5761 74.9683 81.4803 90.9329 72.9103 92.6058C64.3402 94.2787 54.5413 81.0263 51.0236 63.0057C47.5059 44.985 51.6017 29.0203 60.1717 27.3474Z" stroke="white" stroke-width="0.255085"/>
<path d="M60.7253 27.2525C68.9927 25.6387 78.5465 38.9389 82.0642 56.9596C85.5819 74.9802 81.7312 90.8971 73.4638 92.5109C65.1964 94.1247 55.6428 80.8244 52.1251 62.8037C48.6075 44.7831 52.4579 28.8663 60.7253 27.2525Z" stroke="white" stroke-width="0.255085"/>
</g>
<mask id="mask2_1161_751" style="mask-type:luminance" maskUnits="userSpaceOnUse" x="-15" y="-43" width="195" height="193">
<path d="M103.393 -42.2266L-14.6997 68.0711L61.13 149.259L179.222 38.9618L103.393 -42.2266Z" fill="white"/>
</mask>
<g mask="url(#mask2_1161_751)">
<path d="M91.4596 19.332C81.4487 21.8364 76.9455 38.3059 81.4014 56.1178C85.8574 73.9297 97.5852 86.3387 107.596 83.8343C117.607 81.3299 122.11 64.8604 117.654 47.0485C113.198 29.2366 101.47 16.8276 91.4596 19.332Z" stroke="white" stroke-width="0.255085"/>
<path d="M91.4084 19.3768C81.4273 21.8737 76.9483 38.3372 81.4043 56.149C85.8603 73.9609 97.5638 86.376 107.545 83.879C117.526 81.3821 122.005 64.9187 117.549 47.1068C113.093 29.295 101.389 16.8798 91.4084 19.3768Z" stroke="white" stroke-width="0.255085"/>
<path d="M91.1692 19.4644C81.3205 21.9282 76.949 38.3647 81.4049 56.1766C85.8609 73.9885 97.4569 86.4305 107.306 83.9666C117.154 81.5028 121.526 65.0662 117.07 47.2543C112.614 29.4424 101.018 17.0005 91.1692 19.4644Z" stroke="white" stroke-width="0.255085"/>
<path d="M90.8069 19.5798C81.1594 21.9933 76.9504 38.3892 81.4064 56.201C85.8624 74.0129 97.2958 86.4956 106.943 84.082C116.591 81.6685 120.8 65.2727 116.344 47.4608C111.888 29.649 100.454 17.1663 90.8069 19.5798Z" stroke="white" stroke-width="0.255085"/>
<path d="M90.4414 19.6928C80.9955 22.0559 76.9503 38.4108 81.4063 56.2227C85.8622 74.0345 97.132 86.5581 106.578 84.1951C116.024 81.832 120.069 65.4771 115.613 47.6652C111.157 29.8533 99.8872 17.3298 90.4414 19.6928Z" stroke="white" stroke-width="0.255085"/>
<path d="M90.0165 19.8185C80.8061 22.1227 76.9517 38.4298 81.4077 56.2417C85.8636 74.0536 96.9425 86.6249 106.153 84.3208C115.363 82.0166 119.218 65.7095 114.762 47.8976C110.306 30.0857 99.2269 17.5143 90.0165 19.8185Z" stroke="white" stroke-width="0.255085"/>
<path d="M89.4217 19.9847C80.5408 22.2064 76.9537 38.4467 81.4096 56.2586C85.8656 74.0705 96.6773 86.7087 105.558 84.487C114.439 82.2652 118.026 66.0249 113.57 48.213C109.114 30.4012 98.3025 17.763 89.4217 19.9847Z" stroke="white" stroke-width="0.255085"/>
<path d="M88.678 20.1854C80.2073 22.3045 76.9526 38.4616 81.4086 56.2735C85.8646 74.0854 96.3437 86.8068 104.814 84.6876C113.285 82.5685 116.54 66.4114 112.084 48.5995C107.628 30.7876 97.1488 18.0663 88.678 20.1854Z" stroke="white" stroke-width="0.255085"/>
<path d="M88.1376 20.3341C79.966 22.3783 76.9537 38.4749 81.4096 56.2867C85.8656 74.0986 96.1025 86.8806 104.274 84.8363C112.446 82.792 115.458 66.6956 111.002 48.8837C106.546 31.0718 96.3092 18.2898 88.1376 20.3341Z" stroke="white" stroke-width="0.255085"/>
</g>
</g>
</svg>
