<svg width="162" height="112" viewBox="0 0 162 112" fill="none" xmlns="http://www.w3.org/2000/svg">
<mask id="mask0_1161_822" style="mask-type:luminance" maskUnits="userSpaceOnUse" x="25" y="0" width="112" height="112">
<path d="M136.677 0.109863H25.4922V111.295H136.677V0.109863Z" fill="white"/>
</mask>
<g mask="url(#mask0_1161_822)">
<mask id="mask1_1161_822" style="mask-type:luminance" maskUnits="userSpaceOnUse" x="25" y="0" width="112" height="112">
<path d="M25.4922 0.109863H136.677V111.295H25.4922V0.109863Z" fill="white"/>
</mask>
<g mask="url(#mask1_1161_822)">
<path d="M81.1883 16.5735C90.5085 16.5735 98.0758 34.1579 98.0758 55.8157C98.0758 77.4735 90.5085 95.058 81.1883 95.058C71.8681 95.058 64.3008 77.4735 64.3008 55.8157C64.3008 34.1579 71.8681 16.5735 81.1883 16.5735Z" stroke="white" stroke-width="0.263611"/>
<path d="M80.68 16.5735C92.1591 16.5735 101.479 34.1579 101.479 55.8157C101.479 77.4735 92.1591 95.058 80.68 95.058C69.201 95.058 59.8809 77.4735 59.8809 55.8157C59.8809 34.1579 69.201 16.5735 80.68 16.5735Z" stroke="white" stroke-width="0.266327"/>
<path d="M80.9354 16.5735C93.547 16.5735 103.787 34.1579 103.787 55.8157C103.787 77.4735 93.547 95.058 80.9354 95.058C68.3237 95.058 58.084 77.4735 58.084 55.8157C58.084 34.1579 68.3237 16.5735 80.9354 16.5735Z" stroke="white" stroke-width="0.263611"/>
</g>
<mask id="mask2_1161_822" style="mask-type:luminance" maskUnits="userSpaceOnUse" x="25" y="0" width="112" height="112">
<path d="M136.678 0.109863V111.295H25.4925V0.109863H136.678Z" fill="white"/>
</mask>
<g mask="url(#mask2_1161_822)">
<path d="M120.215 55.8053C120.215 65.1255 102.63 72.6928 80.9726 72.6928C59.3148 72.6928 41.7303 65.1255 41.7303 55.8053C41.7303 46.485 59.3148 38.9177 80.9726 38.9177C102.63 38.9177 120.215 46.485 120.215 55.8053Z" stroke="white" stroke-width="0.263611"/>
<path d="M120.215 55.2977C120.215 66.7768 102.63 76.0969 80.9726 76.0969C59.3148 76.0969 41.7303 66.7768 41.7303 55.2977C41.7303 43.8186 59.3148 34.4985 80.9726 34.4985C102.63 34.4985 120.215 43.8186 120.215 55.2977Z" stroke="white" stroke-width="0.266327"/>
<path d="M120.215 55.5523C120.215 68.164 102.63 78.4037 80.9726 78.4037C59.3148 78.4037 41.7303 68.164 41.7303 55.5523C41.7303 42.9406 59.3148 32.7009 80.9726 32.7009C102.63 32.7009 120.215 42.9406 120.215 55.5523Z" stroke="white" stroke-width="0.263611"/>
</g>
<path d="M81.2106 36.8137C89.5978 36.8137 96.4076 45.1365 96.4076 55.3872C96.4076 65.6379 89.5978 73.9606 81.2106 73.9606C72.8234 73.9606 66.0137 65.6379 66.0137 55.3872C66.0137 45.1365 72.8234 36.8137 81.2106 36.8137Z" stroke="white" stroke-width="0.252694"/>
</g>
</svg>
