<svg width="86" height="36" viewBox="0 0 86 36" fill="none" xmlns="http://www.w3.org/2000/svg">
<path d="M32 15.7911H23.2089L28.7782 10.2218L27.2163 8.65981L21.0001 14.8762V7H18.7911V15.7911L13.2218 10.2218L11.6598 11.7837L17.8762 18.0001H10V20.2089H18.7911L13.2218 25.7782L14.7837 27.3402L21.0001 21.124V29H23.2089V20.2089L28.7782 25.7782L30.3402 24.2163L24.124 18.0001H32V15.7911Z" fill="#BABABA"/>
<path d="M40 23.5V12.5H42.0415V23.5H40Z" fill="#BABABA"/>
<path d="M44.5974 23.5V12.5H55.2316V14.098H46.6389V17.2475H54.9269V18.737H46.6389V21.8865H55.2316V23.5H44.5974Z" fill="#BABABA"/>
<path d="M57.1064 23.5L63.0938 12.5H65.6838L71.6408 23.5H69.4622L68.1367 20.9866H60.6257L59.3002 23.5H57.1064ZM61.4484 19.4351H67.314L64.3888 13.8653L61.4484 19.4351Z" fill="#BABABA"/>
<path d="M73.6081 23.5V21.5917H76V23.5H73.6081Z" fill="#BABABA"/>
</svg>
